<svg xmlns="http://www.w3.org/2000/svg" viewBox="0 0 450 150.13"><defs><style>.cls-1{isolation:isolate;}.cls-2{fill:#438cb0;}.cls-25,.cls-3{fill:#8fbccc;}.cls-24,.cls-3{opacity:0.3;mix-blend-mode:multiply;}.cls-20,.cls-4{fill:#d7e0e9;}.cls-18,.cls-4,.cls-5{opacity:0.5;}.cls-5{fill:#b1e3f0;}.cls-6{fill:#243242;}.cls-7,.cls-8{fill:#fff;}.cls-8{opacity:0.2;}.cls-9{fill:#052538;}.cls-10{fill:#ffc89f;}.cls-11{fill:#4a3020;}.cls-12{fill:#edb485;}.cls-13{fill:#cad9e0;}.cls-14{fill:#cc2221;}.cls-15{fill:#ff4140;}.cls-16{fill:#1a4b6c;}.cls-17{fill:#fdfffe;}.cls-18{fill:#edf0f2;}.cls-19{fill:#143b54;}.cls-21{fill:#1a222b;}.cls-22{fill:#f8ddcb;}.cls-23{fill:#8da4ba;}</style></defs><g class="cls-1"><g id="Layer_2" data-name="Layer 2"><g id="Layer_1-2" data-name="Layer 1"><g id="_1" data-name="1"><rect class="cls-2" width="450" height="150.13"/></g><path class="cls-3" d="M438.1,76.53a4.05,4.05,0,0,0,4,4H450v65.2H219.46a4.24,4.24,0,0,1,0-8.47h23a3.11,3.11,0,1,0,0-6.22h-40.1a2.77,2.77,0,1,1,0-5.53h92.48a2.73,2.73,0,1,0,0-5.46H226.68a4.07,4.07,0,0,1,0-8.13H259.8a3.78,3.78,0,0,0,0-7.55H194.72a3.91,3.91,0,1,1,0-7.82h42.07a3.89,3.89,0,1,0,0-7.78H187a4.87,4.87,0,1,1,0-9.73H313.9a1.71,1.71,0,1,0,0-3.42h-94a3.72,3.72,0,0,1,0-7.44H344.31a3,3,0,0,0,0-6.05H195.58a4,4,0,0,1,0-7.94H231.1a2.52,2.52,0,1,0,0-5H180a3.92,3.92,0,0,1,0-7.83h99.7a2.89,2.89,0,1,0,0-5.78H192.35a3.74,3.74,0,0,1,0-7.48H331.28a3.34,3.34,0,1,0,0-6.67H236.57a4.94,4.94,0,0,1-4.95-4.95v-.71a5,5,0,0,1,4.95-4.95H304.5a3.62,3.62,0,1,0,0-7.24H272.45a4.84,4.84,0,0,1-4-2.16H450V72.5h-7.87A4,4,0,0,0,438.1,76.53Z"/><rect class="cls-4" x="318.03" y="18.32" width="25.73" height="18.85" rx="3.4"/><rect class="cls-4" x="318.03" y="40" width="25.73" height="18.85" rx="3.4"/><path class="cls-4" d="M318,77.13a3.4,3.4,0,0,0,3.4,3.4h18.92a3.4,3.4,0,0,0,3.4-3.4v-12a3.4,3.4,0,0,0-3.4-3.4H321.43a3.4,3.4,0,0,0-3.4,3.4Z"/><path class="cls-5" d="M233.51,18.6V63.94l23.28,19.7H405.08a3.39,3.39,0,0,0,3.39-3.39V18.6a3.39,3.39,0,0,0-3.39-3.39H236.91A3.4,3.4,0,0,0,233.51,18.6Z"/><path class="cls-6" d="M352.58,24.07a2.33,2.33,0,1,0-2.33,2.33A2.32,2.32,0,0,0,352.58,24.07Z"/><path class="cls-7" d="M360.45,26.49a2.23,2.23,0,0,1-1-.29l.09-.17a2.18,2.18,0,0,0,.89.26Zm1-.13-.07-.19a2.1,2.1,0,0,0,.79-.49l.14.14A2.5,2.5,0,0,1,361.46,26.36Zm-2.75-.82a2.23,2.23,0,0,1-.43-.92l.19,0a2,2,0,0,0,.4.84Zm4.18-.55-.18-.08a2.41,2.41,0,0,0,.16-.84,2.35,2.35,0,0,0-.19-.91l.17-.08a2.26,2.26,0,0,1,.21,1A2.39,2.39,0,0,1,362.89,25Zm-4.44-1.34-.19,0a2.41,2.41,0,0,1,.4-.93l.16.11A2.13,2.13,0,0,0,358.45,23.65Zm3.67-1.24a2.07,2.07,0,0,0-.8-.46l.05-.19a2.27,2.27,0,0,1,.88.5Zm-2.62-.25-.1-.17a2.39,2.39,0,0,1,1-.33l0,.2A2.14,2.14,0,0,0,359.5,22.16Z"/><path class="cls-7" d="M350.25,33.81a2.43,2.43,0,1,1,2.42-2.42A2.43,2.43,0,0,1,350.25,33.81Zm0-4.65a2.23,2.23,0,1,0,2.23,2.23A2.23,2.23,0,0,0,350.25,29.16Z"/><path class="cls-6" d="M363,31.39a2.33,2.33,0,1,0-2.33,2.32A2.33,2.33,0,0,0,363,31.39Z"/><path class="cls-6" d="M352.58,38.7A2.33,2.33,0,1,0,350.25,41,2.33,2.33,0,0,0,352.58,38.7Z"/><path class="cls-6" d="M363,38.7A2.33,2.33,0,1,0,360.64,41,2.33,2.33,0,0,0,363,38.7Z"/><path class="cls-6" d="M352.58,46a2.33,2.33,0,1,0-2.33,2.33A2.33,2.33,0,0,0,352.58,46Z"/><path class="cls-7" d="M360.64,48.44A2.43,2.43,0,1,1,363.06,46,2.43,2.43,0,0,1,360.64,48.44Zm0-4.66A2.23,2.23,0,1,0,362.87,46,2.23,2.23,0,0,0,360.64,43.78Z"/><path class="cls-6" d="M352.58,53.32a2.33,2.33,0,1,0-2.33,2.33A2.32,2.32,0,0,0,352.58,53.32Z"/><path class="cls-7" d="M363,53.32a2.33,2.33,0,1,0-2.33,2.33A2.33,2.33,0,0,0,363,53.32Z"/><path class="cls-7" d="M350.25,63.06a2.43,2.43,0,1,1,2.42-2.43A2.43,2.43,0,0,1,350.25,63.06Zm0-4.65a2.23,2.23,0,1,0,2.23,2.22A2.23,2.23,0,0,0,350.25,58.41Z"/><path class="cls-7" d="M363,60.63A2.33,2.33,0,1,0,360.64,63,2.33,2.33,0,0,0,363,60.63Z"/><path class="cls-6" d="M352.58,68a2.33,2.33,0,1,0-2.33,2.33A2.33,2.33,0,0,0,352.58,68Z"/><path class="cls-7" d="M363,68a2.33,2.33,0,1,0-2.33,2.33A2.33,2.33,0,0,0,363,68Z"/><path class="cls-7" d="M350.06,77.68a2.49,2.49,0,0,1-1-.29l.09-.17a2.18,2.18,0,0,0,.89.26Zm1-.14-.07-.18a2.33,2.33,0,0,0,.79-.49l.14.14A2.34,2.34,0,0,1,351.07,77.54Zm-2.75-.81a2.35,2.35,0,0,1-.43-.92l.19,0a2.23,2.23,0,0,0,.39.84Zm4.18-.56-.19-.07a2.21,2.21,0,0,0,.17-.84,2.16,2.16,0,0,0-.2-.91l.18-.08a2.41,2.41,0,0,1,.21,1A2.34,2.34,0,0,1,352.5,76.17Zm-4.44-1.34-.19,0a2.31,2.31,0,0,1,.4-.94l.16.12A2,2,0,0,0,348.06,74.83Zm3.67-1.23a2.17,2.17,0,0,0-.8-.47L351,73a2.27,2.27,0,0,1,.88.5Zm-2.62-.26-.1-.17a2.54,2.54,0,0,1,1-.32l0,.2A2.13,2.13,0,0,0,349.11,73.34Z"/><path class="cls-7" d="M360.64,77.69a2.43,2.43,0,1,1,2.42-2.43A2.43,2.43,0,0,1,360.64,77.69Zm0-4.66a2.23,2.23,0,1,0,2.23,2.23A2.23,2.23,0,0,0,360.64,73Z"/><path class="cls-6" d="M373.36,24.07A2.33,2.33,0,1,0,371,26.4,2.32,2.32,0,0,0,373.36,24.07Z"/><path class="cls-6" d="M383.75,24.07a2.33,2.33,0,1,0-2.33,2.33A2.32,2.32,0,0,0,383.75,24.07Z"/><path class="cls-6" d="M373.36,31.39A2.33,2.33,0,1,0,371,33.71,2.33,2.33,0,0,0,373.36,31.39Z"/><path class="cls-7" d="M381.42,33.81a2.43,2.43,0,1,1,2.43-2.42A2.43,2.43,0,0,1,381.42,33.81Zm0-4.65a2.23,2.23,0,1,0,2.23,2.23A2.23,2.23,0,0,0,381.42,29.16Z"/><path class="cls-7" d="M371,41.12a2.43,2.43,0,1,1,2.43-2.42A2.42,2.42,0,0,1,371,41.12Zm0-4.65a2.23,2.23,0,1,0,2.23,2.23A2.23,2.23,0,0,0,371,36.47Z"/><path class="cls-6" d="M383.75,38.7A2.33,2.33,0,1,0,381.42,41,2.33,2.33,0,0,0,383.75,38.7Z"/><path class="cls-7" d="M370.84,48.43a2.54,2.54,0,0,1-1-.29L370,48a2.18,2.18,0,0,0,.9.26Zm1-.14-.07-.18a2.27,2.27,0,0,0,.8-.49l.13.14A2.34,2.34,0,0,1,371.85,48.29Zm-2.75-.81a2.5,2.5,0,0,1-.43-.92l.19,0a2.1,2.1,0,0,0,.4.84Zm4.18-.56-.18-.07a2.28,2.28,0,0,0,0-1.75l.17-.08a2.27,2.27,0,0,1,.22,1A2.34,2.34,0,0,1,373.28,46.92Zm-4.44-1.34-.19,0a2.53,2.53,0,0,1,.4-.94l.16.12A2.16,2.16,0,0,0,368.84,45.58Zm3.68-1.23a2.36,2.36,0,0,0-.81-.47l.06-.18a2.42,2.42,0,0,1,.88.5Zm-2.63-.26-.1-.17a2.53,2.53,0,0,1,1-.32l0,.2A2.13,2.13,0,0,0,369.89,44.09Z"/><path class="cls-6" d="M383.75,46a2.33,2.33,0,1,0-2.33,2.33A2.33,2.33,0,0,0,383.75,46Z"/><path class="cls-6" d="M373.36,53.32A2.33,2.33,0,1,0,371,55.65,2.32,2.32,0,0,0,373.36,53.32Z"/><path class="cls-7" d="M381.42,55.75a2.43,2.43,0,1,1,2.43-2.43A2.43,2.43,0,0,1,381.42,55.75Zm0-4.66a2.23,2.23,0,1,0,2.23,2.23A2.23,2.23,0,0,0,381.42,51.09Z"/><path class="cls-6" d="M373.36,60.63A2.33,2.33,0,1,0,371,63,2.32,2.32,0,0,0,373.36,60.63Z"/><path class="cls-6" d="M383.75,60.63A2.33,2.33,0,1,0,381.42,63,2.32,2.32,0,0,0,383.75,60.63Z"/><path class="cls-7" d="M371,70.37A2.43,2.43,0,1,1,373.46,68,2.42,2.42,0,0,1,371,70.37Zm0-4.65A2.23,2.23,0,1,0,373.26,68,2.23,2.23,0,0,0,371,65.72Z"/><path class="cls-7" d="M381.23,70.37a2.54,2.54,0,0,1-1-.29l.1-.18a2.15,2.15,0,0,0,.89.27Zm1-.14-.07-.18a2.16,2.16,0,0,0,.8-.5l.13.15A2.34,2.34,0,0,1,382.24,70.23Zm-2.75-.81a2.5,2.5,0,0,1-.43-.92l.19,0a2.29,2.29,0,0,0,.4.85Zm4.18-.56-.18-.07a2.2,2.2,0,0,0,.16-.84,2.15,2.15,0,0,0-.19-.91l.18-.08a2.42,2.42,0,0,1,0,1.9Zm-4.44-1.34-.19,0a2.48,2.48,0,0,1,.4-.93l.16.12A2.32,2.32,0,0,0,379.23,67.52Zm3.68-1.24a2.33,2.33,0,0,0-.81-.46l.06-.19a2.6,2.6,0,0,1,.88.51ZM380.29,66l-.11-.17a2.37,2.37,0,0,1,1-.32l0,.19A2.3,2.3,0,0,0,380.29,66Z"/><path class="cls-6" d="M373.36,75.26A2.33,2.33,0,1,0,371,77.59,2.33,2.33,0,0,0,373.36,75.26Z"/><path class="cls-6" d="M383.75,75.26a2.33,2.33,0,1,0-2.33,2.33A2.33,2.33,0,0,0,383.75,75.26Z"/><path class="cls-7" d="M391.82,26.42A2.43,2.43,0,1,1,394.24,24,2.43,2.43,0,0,1,391.82,26.42Zm0-4.66A2.23,2.23,0,1,0,394.05,24,2.23,2.23,0,0,0,391.82,21.76Z"/><path class="cls-6" d="M404.53,24.07a2.33,2.33,0,1,0-2.32,2.33A2.32,2.32,0,0,0,404.53,24.07Z"/><path class="cls-6" d="M394.14,31.31a2.33,2.33,0,1,0-2.32,2.33A2.32,2.32,0,0,0,394.14,31.31Z"/><path class="cls-7" d="M402,33.8a2.41,2.41,0,0,1-1-.28l.1-.18a2.19,2.19,0,0,0,.89.27Zm1-.13-.07-.18a2.33,2.33,0,0,0,.79-.49l.14.14A2.42,2.42,0,0,1,403,33.67Zm-2.75-.82a2.38,2.38,0,0,1-.44-.92l.2,0a2.16,2.16,0,0,0,.39.84Zm4.18-.55-.19-.08a2.12,2.12,0,0,0,.17-.83,2.24,2.24,0,0,0-.2-.92l.18-.08a2.46,2.46,0,0,1,.21,1A2.58,2.58,0,0,1,404.46,32.3ZM400,31l-.19,0a2.15,2.15,0,0,1,.4-.93l.16.11A2.13,2.13,0,0,0,400,31Zm3.67-1.24a2.25,2.25,0,0,0-.81-.46l.06-.19a2.51,2.51,0,0,1,.88.51Zm-2.62-.25-.1-.17a2.32,2.32,0,0,1,1-.32l0,.19A2.3,2.3,0,0,0,401.07,29.47Z"/><path class="cls-6" d="M394.14,38.64A2.33,2.33,0,1,0,391.82,41,2.32,2.32,0,0,0,394.14,38.64Z"/><path class="cls-7" d="M402.21,41.12a2.43,2.43,0,1,1,2.42-2.42A2.42,2.42,0,0,1,402.21,41.12Zm0-4.65a2.23,2.23,0,1,0,2.23,2.23A2.23,2.23,0,0,0,402.21,36.47Z"/><path class="cls-7" d="M391.82,48.39A2.43,2.43,0,1,1,394.24,46,2.43,2.43,0,0,1,391.82,48.39Zm0-4.66A2.23,2.23,0,1,0,394.05,46,2.23,2.23,0,0,0,391.82,43.73Z"/><path class="cls-7" d="M404.53,46a2.33,2.33,0,1,0-2.32,2.33A2.32,2.32,0,0,0,404.53,46Z"/><path class="cls-6" d="M394.14,53.29a2.33,2.33,0,1,0-2.32,2.33A2.32,2.32,0,0,0,394.14,53.29Z"/><path class="cls-6" d="M404.53,53.32a2.33,2.33,0,1,0-2.32,2.33A2.32,2.32,0,0,0,404.53,53.32Z"/><path class="cls-7" d="M391.82,63a2.43,2.43,0,1,1,2.42-2.43A2.43,2.43,0,0,1,391.82,63Zm0-4.66a2.23,2.23,0,1,0,2.23,2.23A2.23,2.23,0,0,0,391.82,58.38Z"/><path class="cls-6" d="M404.53,60.63A2.33,2.33,0,1,0,402.21,63,2.32,2.32,0,0,0,404.53,60.63Z"/><path class="cls-6" d="M394.14,67.94a2.33,2.33,0,1,0-2.32,2.32A2.32,2.32,0,0,0,394.14,67.94Z"/><path class="cls-7" d="M402.21,70.37A2.43,2.43,0,1,1,404.63,68,2.42,2.42,0,0,1,402.21,70.37Zm0-4.65A2.23,2.23,0,1,0,404.44,68,2.23,2.23,0,0,0,402.21,65.72Z"/><path class="cls-7" d="M391.62,77.68a2.59,2.59,0,0,1-1-.29l.1-.17a2.13,2.13,0,0,0,.89.26Zm1-.14-.06-.18a2.33,2.33,0,0,0,.79-.49l.13.14A2.26,2.26,0,0,1,392.63,77.54Zm-2.74-.81a2.37,2.37,0,0,1-.44-.92l.19,0a2.25,2.25,0,0,0,.4.84Zm4.17-.56-.18-.07a2.21,2.21,0,0,0,.17-.84,2.16,2.16,0,0,0-.2-.91l.18-.08a2.41,2.41,0,0,1,.21,1A2.34,2.34,0,0,1,394.06,76.17Zm-4.44-1.34-.19,0a2.46,2.46,0,0,1,.4-.94L390,74A2.32,2.32,0,0,0,389.62,74.83Zm3.68-1.23a2.21,2.21,0,0,0-.81-.47l.06-.18a2.34,2.34,0,0,1,.88.5Zm-2.62-.26-.1-.17a2.48,2.48,0,0,1,1-.32l0,.2A2.13,2.13,0,0,0,390.68,73.34Z"/><path class="cls-6" d="M404.53,75.26a2.33,2.33,0,1,0-2.32,2.33A2.32,2.32,0,0,0,404.53,75.26Z"/><path class="cls-7" d="M388.24,76.09c-1.66-.82-1.79-3.36-1.79-4.11a6.44,6.44,0,0,1,.73-3.11l.17.1a6.2,6.2,0,0,0-.71,3c0,1.5.45,3.33,1.69,3.94Z"/><polygon class="cls-7" points="387.81 69.85 388.28 67.95 386.4 68.49 387.81 69.85"/><path class="cls-7" d="M398.37,77.68c-1.66-.82-1.79-3.36-1.79-4.12a6.48,6.48,0,0,1,.74-3.11l.17.1a6.2,6.2,0,0,0-.71,3c0,1.5.44,3.33,1.68,3.94Z"/><polygon class="cls-7" points="397.95 71.43 398.42 69.53 396.54 70.07 397.95 71.43"/><path class="cls-7" d="M354.07,75.35l-.09-.18c1.24-.61,1.68-2.44,1.68-3.94a6.25,6.25,0,0,0-.7-3l.16-.11a6.36,6.36,0,0,1,.74,3.11C355.86,72,355.73,74.53,354.07,75.35Z"/><polygon class="cls-7" points="355.9 67.74 354.02 67.2 354.5 69.1 355.9 67.74"/><path class="cls-7" d="M377.92,68c-1.66-.82-1.79-3.36-1.79-4.12a6.44,6.44,0,0,1,.73-3.11l.17.1a6.2,6.2,0,0,0-.71,3c0,1.5.45,3.33,1.69,3.94Z"/><polygon class="cls-7" points="377.49 61.79 377.96 59.89 376.08 60.43 377.49 61.79"/><path class="cls-7" d="M398.37,39.46c-1.66-.82-1.79-3.36-1.79-4.12a6.42,6.42,0,0,1,.74-3.1l.17.1a6.17,6.17,0,0,0-.71,3c0,1.51.44,3.33,1.68,3.94Z"/><polygon class="cls-7" points="397.94 33.21 398.42 31.32 396.54 31.85 397.94 33.21"/><path class="cls-7" d="M367.77,39.14C366.1,38.32,366,35.78,366,35a6.44,6.44,0,0,1,.73-3.11l.17.11a6.15,6.15,0,0,0-.71,3c0,1.5.44,3.33,1.68,3.94Z"/><polygon class="cls-7" points="367.34 32.89 367.81 30.99 365.93 31.53 367.34 32.89"/><path class="cls-7" d="M388.24,46.84c-1.66-.82-1.79-3.35-1.79-4.11a6.44,6.44,0,0,1,.73-3.11l.17.1a6.2,6.2,0,0,0-.71,3c0,1.5.45,3.33,1.69,3.94Z"/><polygon class="cls-7" points="387.81 40.6 388.28 38.7 386.4 39.24 387.81 40.6"/><path class="cls-7" d="M365,30.78l-.17-.1a6.2,6.2,0,0,0,.71-3c0-1.5-.45-3.33-1.69-3.94l.09-.17c1.66.82,1.79,3.36,1.79,4.11A6.42,6.42,0,0,1,365,30.78Z"/><polygon class="cls-7" points="364.36 29.8 363.89 31.7 365.77 31.16 364.36 29.8"/><path class="cls-7" d="M355.12,60.46l-.16-.1a6.29,6.29,0,0,0,.7-3c0-1.5-.44-3.33-1.68-3.94l.09-.17c1.66.81,1.79,3.35,1.79,4.11A6.36,6.36,0,0,1,355.12,60.46Z"/><polygon class="cls-7" points="354.5 59.48 354.02 61.38 355.9 60.84 354.5 59.48"/><path class="cls-7" d="M365,52l-.17-.1a6.2,6.2,0,0,0,.71-3c0-1.5-.45-3.32-1.69-3.94l.09-.17c1.66.82,1.79,3.36,1.79,4.11A6.4,6.4,0,0,1,365,52Z"/><polygon class="cls-7" points="364.36 50.99 363.89 52.88 365.77 52.34 364.36 50.99"/><path class="cls-7" d="M375.59,52.73l-.16-.1a6.28,6.28,0,0,0,.7-3c0-1.51-.44-3.33-1.68-3.94l.08-.18c1.67.82,1.79,3.36,1.79,4.12A6.3,6.3,0,0,1,375.59,52.73Z"/><polygon class="cls-7" points="374.96 51.76 374.49 53.65 376.37 53.12 374.96 51.76"/><path class="cls-7" d="M375.59,75.08l-.16-.1a6.25,6.25,0,0,0,.7-3c0-1.51-.44-3.33-1.68-3.94l.08-.18c1.67.82,1.79,3.36,1.79,4.12A6.27,6.27,0,0,1,375.59,75.08Z"/><polygon class="cls-7" points="374.96 74.11 374.49 76 376.37 75.47 374.96 74.11"/><path class="cls-7" d="M396,30.78l-.16-.1a6.29,6.29,0,0,0,.7-3c0-1.5-.44-3.33-1.68-3.94l.09-.17c1.66.82,1.79,3.36,1.79,4.11A6.34,6.34,0,0,1,396,30.78Z"/><polygon class="cls-7" points="395.42 29.8 394.94 31.7 396.82 31.16 395.42 29.8"/><path class="cls-7" d="M385.91,37.72l-.17-.11a6.17,6.17,0,0,0,.71-3c0-1.5-.45-3.33-1.68-3.94l.08-.18c1.66.82,1.79,3.36,1.79,4.12A6.44,6.44,0,0,1,385.91,37.72Z"/><polygon class="cls-7" points="385.28 36.74 384.81 38.64 386.69 38.1 385.28 36.74"/><path class="cls-7" d="M395.43,68l-.09-.18c1.24-.61,1.68-2.44,1.68-3.94a6.29,6.29,0,0,0-.7-3l.16-.1a6.36,6.36,0,0,1,.74,3.11C397.22,64.68,397.09,67.22,395.43,68Z"/><polygon class="cls-7" points="397.26 60.43 395.38 59.89 395.85 61.79 397.26 60.43"/><path class="cls-7" d="M364.74,75.1l-.18-.08a20,20,0,0,0,1-6.59c0-3-.45-6.55-1.71-7.75l.13-.14c1.64,1.57,1.77,6.43,1.77,7.89A20.29,20.29,0,0,1,364.74,75.1Z"/><polygon class="cls-7" points="363.93 74.29 363.89 76.25 365.6 75.31 363.93 74.29"/><path class="cls-7" d="M354.87,45.31l-.18-.08a20,20,0,0,0,1-6.59c0-3-.45-6.54-1.7-7.75l.13-.14c1.64,1.57,1.77,6.44,1.77,7.89A20.05,20.05,0,0,1,354.87,45.31Z"/><polygon class="cls-7" points="354.07 44.5 354.02 46.45 355.74 45.52 354.07 44.5"/><path class="cls-7" d="M395.79,54.17l-.18-.08a20,20,0,0,0,1-6.59c0-3-.45-6.55-1.71-7.75l.14-.14c1.64,1.57,1.77,6.43,1.77,7.89A20.05,20.05,0,0,1,395.79,54.17Z"/><polygon class="cls-7" points="394.99 53.36 394.94 55.32 396.66 54.37 394.99 53.36"/><path class="cls-7" d="M233.45,64l0,0V18.6a3.49,3.49,0,0,1,3.49-3.49H405.08a3.49,3.49,0,0,1,3.49,3.49V80.25a3.49,3.49,0,0,1-3.49,3.49H256.76Zm3.46-48.71a3.3,3.3,0,0,0-3.3,3.3V63.89l23.22,19.66H405.08a3.3,3.3,0,0,0,3.3-3.3V18.6a3.3,3.3,0,0,0-3.3-3.3Z"/><path class="cls-7" d="M399.49,84h5.59a3.78,3.78,0,0,0,3.78-3.77V73.68h-.77v6.57a3,3,0,0,1-3,3h-5.59Z"/><polygon class="cls-7" points="256.65 84.02 268.58 84.02 268.58 83.26 256.93 83.26 233.9 63.76 233.9 56.2 233.13 56.2 233.13 64.11 233.27 64.23 256.65 84.02"/><path class="cls-7" d="M233.13,27.21h.76V18.6a3,3,0,0,1,3-3h7.65v-.76h-7.65a3.78,3.78,0,0,0-3.78,3.77Z"/><path class="cls-7" d="M408.09,24.8h.77V18.6a3.78,3.78,0,0,0-3.78-3.77h-7.25v.76h7.25a3,3,0,0,1,3,3Z"/><path class="cls-7" d="M279.1,22l-.46.16-.47.16-.52.21-.53.2-.45.21-.44.19,1.23,2.64.39-.17.4-.18.46-.19.47-.18.41-.14.41-.14Z"/><path class="cls-7" d="M266.67,31.45l-.35.48-.12.18a1.12,1.12,0,0,1-.1.16l-.1.16.4-.06.41-.06.47-.05.88-.07.28,0h.1s.17-.22.35-.43l.23-.3.08-.1,0,0h-.4l-.87,0-.48,0-.41,0Z"/><path class="cls-7" d="M268,29.79l-.12.15-.13.14-.13.17-.37.47.41,0,.88,0c.65,0,1.27,0,1.27,0l.11-.14.26-.27.38-.4s-.62-.05-1.27-.08H268Z"/><path class="cls-7" d="M269.2,28.44l-.41.43-.28.29-.09.11,0,0h.4l.89,0,.47,0,.21,0,.19,0,.4,0,.4-.38.14-.14a.77.77,0,0,0,.13-.12,1,1,0,0,0,.14-.11l-.4-.06-.19,0-.21,0-.46-.05c-.32,0-.65-.06-.89-.08l-.29,0Z"/><polygon class="cls-7" points="262.04 45.57 262.03 45.89 264.3 45.89 264.31 45.6 262.04 45.57"/><polygon class="cls-7" points="262.06 44.87 262.05 45.2 264.32 45.26 264.33 44.97 262.06 44.87"/><polygon class="cls-7" points="262.1 44.18 262.07 44.51 264.34 44.63 264.36 44.34 262.1 44.18"/><polygon class="cls-7" points="262.15 43.49 262.13 43.81 264.39 44 264.41 43.71 262.15 43.49"/><polygon class="cls-7" points="262.23 42.8 262.19 43.13 264.44 43.37 264.48 43.08 262.23 42.8"/><polygon class="cls-7" points="262.32 42.11 262.28 42.44 264.53 42.75 264.56 42.46 262.32 42.11"/><polygon class="cls-7" points="262.44 41.43 262.38 41.75 264.62 42.13 264.68 41.84 262.44 41.43"/><path class="cls-7" d="M262.57,40.75a1.55,1.55,0,0,0,0,.16l0,.16,2.23.43,0-.14a1.21,1.21,0,0,1,0-.14Z"/><polygon class="cls-7" points="271.59 26.32 271.33 26.52 272.75 28.29 272.99 28.11 271.59 26.32"/><path class="cls-7" d="M272.14,25.9,272,26l-.12.1,1.37,1.81.12-.09.12-.09Z"/><polygon class="cls-7" points="272.7 25.5 272.44 25.68 273.76 27.53 274 27.36 272.7 25.5"/><polygon class="cls-7" points="273.28 25.11 273.01 25.28 274.27 27.17 274.52 27.01 273.28 25.11"/><polygon class="cls-7" points="273.86 24.73 273.59 24.91 274.81 26.83 275.05 26.67 273.86 24.73"/><polygon class="cls-7" points="274.46 24.38 274.18 24.54 275.34 26.49 275.59 26.35 274.46 24.38"/><path class="cls-7" d="M275.06,24l0,0-.1.05-.14.09,1.11,2,.13-.07.08-.06,0,0Z"/><polygon class="cls-7" points="275.68 23.72 275.39 23.87 276.44 25.88 276.7 25.75 275.68 23.72"/><path class="cls-7" d="M264.11,39.28a.45.45,0,0,1,.31.55.48.48,0,0,1-.21.27.44.44,0,0,1-.34,0,.46.46,0,0,1-.28-.21.44.44,0,0,1,0-.34A.45.45,0,0,1,264.11,39.28Z"/><path class="cls-7" d="M264.53,38a.46.46,0,0,1,.28.57.45.45,0,0,1-.57.28.43.43,0,0,1-.28-.56A.45.45,0,0,1,264.53,38Z"/><path class="cls-7" d="M265,36.69a.44.44,0,0,1,.25.58.46.46,0,0,1-.58.26.45.45,0,0,1-.25-.59A.44.44,0,0,1,265,36.69Z"/><path class="cls-7" d="M265.59,35.44a.45.45,0,0,1,.22.6.44.44,0,0,1-.59.21.45.45,0,1,1,.37-.81Z"/><path class="cls-7" d="M266.24,34.23a.45.45,0,0,1-.43.78.45.45,0,1,1,.43-.78Z"/><path class="cls-7" d="M267,33.05a.46.46,0,0,1,.14.61.49.49,0,0,1-.28.2.41.41,0,0,1-.34,0,.43.43,0,0,1-.21-.28.42.42,0,0,1,.06-.34A.45.45,0,0,1,267,33.05Z"/><path class="cls-7" d="M307.22,31.11l-.08-.11c-.05-.07-.11-.17-.2-.28l-.66-.84c-.25-.29-.51-.58-.69-.8l-.24-.25-.09-.1-2.13,2,.08.09a2.75,2.75,0,0,1,.21.23l.62.71.58.74.18.24.07.1Z"/><path class="cls-7" d="M294.37,22.21l-.05,0-.13,0L293.8,22l-.58-.16s.3.59.56,1.16c.13.29.25.6.34.81s.14.38.14.38l.17.05.35.12.52.2-.13-.37c-.08-.23-.18-.53-.3-.83C294.64,22.81,294.37,22.21,294.37,22.21Z"/><path class="cls-7" d="M296.34,22.93l-.55-.22-.39-.15-.18-.06,0,.1c0,.06.06.16.11.27s.2.54.3.84.2.6.27.83.11.38.11.38l.5.23.35.16.15.08L297,25c0-.23-.14-.53-.22-.84s-.19-.62-.27-.85a1.73,1.73,0,0,0-.1-.28Z"/><path class="cls-7" d="M298,23.69l-.17-.08-.17-.09-.2-.09-.54-.25s0,.16.12.39.07.25.12.4.08.29.12.45c.16.63.29,1.24.29,1.24l.15.08.33.19.48.27s-.1-.61-.23-1.25c0-.16-.07-.31-.1-.46s-.07-.28-.1-.4S298,23.69,298,23.69Z"/><path class="cls-7" d="M279.5,22.16l-.05,0-.1,0-.15.06.7,2.16.14-.05.09,0,.05,0Z"/><polygon class="cls-7" points="280.17 21.97 279.86 22.06 280.5 24.24 280.78 24.16 280.17 21.97"/><path class="cls-7" d="M280.84,21.8l-.16,0-.15,0,.58,2.2.14,0,.14,0Z"/><polygon class="cls-7" points="281.52 21.64 281.2 21.71 281.72 23.92 282 23.86 281.52 21.64"/><polygon class="cls-7" points="282.2 21.5 281.88 21.56 282.33 23.78 282.62 23.73 282.2 21.5"/><polygon class="cls-7" points="282.88 21.38 282.56 21.43 282.95 23.67 283.24 23.62 282.88 21.38"/><polygon class="cls-7" points="283.57 21.28 283.25 21.32 283.57 23.57 283.86 23.53 283.57 21.28"/><polygon class="cls-7" points="284.26 21.19 283.93 21.23 284.2 23.49 284.49 23.45 284.26 21.19"/><polygon class="cls-7" points="300.77 25.3 300.5 25.13 299.25 27.02 299.49 27.19 300.77 25.3"/><polygon class="cls-7" points="301.33 25.7 301.07 25.52 299.77 27.38 300.01 27.55 301.33 25.7"/><path class="cls-7" d="M301.89,26.11l-.12-.1-.1-.06,0,0-1.35,1.82,0,0,.08.06.12.09Z"/><polygon class="cls-7" points="302.44 26.54 302.18 26.34 300.78 28.13 301.01 28.31 302.44 26.54"/><polygon class="cls-7" points="302.97 26.98 302.73 26.77 301.27 28.52 301.5 28.71 302.97 26.98"/><polygon class="cls-7" points="303.5 27.44 303.25 27.23 301.75 28.93 301.98 29.13 303.5 27.44"/><polygon class="cls-7" points="304 27.92 303.77 27.69 302.22 29.36 302.43 29.56 304 27.92"/><path class="cls-7" d="M304.5,28.4l0,0-.07-.08-.12-.11-1.59,1.62.11.1a.46.46,0,0,0,.07.07l0,0Z"/><path class="cls-7" d="M286.12,22.21a.45.45,0,0,1-.89,0,.45.45,0,1,1,.89,0Z"/><path class="cls-7" d="M287.5,22.21a.46.46,0,0,1-.45.44.53.53,0,0,1-.18,0,.42.42,0,0,1-.14-.09.44.44,0,0,1-.13-.31.49.49,0,0,1,.13-.33.42.42,0,0,1,.14-.09.39.39,0,0,1,.18,0A.47.47,0,0,1,287.5,22.21Z"/><path class="cls-7" d="M288.87,22.28a.44.44,0,0,1-.48.41.44.44,0,0,1-.3-.15.47.47,0,0,1-.12-.32.51.51,0,0,1,.15-.32.47.47,0,0,1,.33-.1A.45.45,0,0,1,288.87,22.28Z"/><path class="cls-7" d="M290.24,22.43a.45.45,0,0,1-.5.39.47.47,0,0,1-.4-.5.45.45,0,0,1,.9.11Z"/><path class="cls-7" d="M291.59,22.66a.45.45,0,1,1-.88-.16.45.45,0,1,1,.88.16Z"/><path class="cls-7" d="M292.93,23a.49.49,0,0,1-.2.28.48.48,0,1,1,.2-.28Z"/><path class="cls-7" d="M307.22,60.68l.28-.39.13-.2a1.13,1.13,0,0,0,.15-.21l.31-.48c.1-.16.21-.32.3-.48l.25-.42.24-.42-2.54-1.41-.22.37c-.06.11-.13.24-.22.38s-.17.28-.27.42l-.27.42-.12.19a.88.88,0,0,0-.12.17l-.25.34Z"/><path class="cls-7" d="M311.71,45.71l0-.6V44.7a.57.57,0,0,0,0-.14v-.05l-.08.08-.21.21-.66.6c-.11.11-.23.21-.35.31l-.3.27-.31.25,0,.55V47a.28.28,0,0,1,0,.09v.08c0,.11,0,.18,0,.18s.12-.1.32-.24l.68-.54.68-.57.22-.2A.39.39,0,0,1,311.71,45.71Z"/><path class="cls-7" d="M311.63,47.8l0-.6c0-.15,0-.29,0-.41v-.18l-.31.26-.32.26-.37.29c-.52.38-1,.74-1,.74s0,.07,0,.17a3,3,0,0,0-.05.37c0,.28-.07.55-.07.55s.53-.33,1.06-.69c.28-.18.53-.37.73-.52Z"/><path class="cls-7" d="M311.43,49.63l.15-1.18s-.54.38-1.07.73l-.4.25-.35.21-.34.2-.1.54c0,.14-.05.27-.07.37l-.05.17.36-.18c.22-.11.49-.27.77-.43l.75-.46.26-.16.06,0Z"/><polygon class="cls-7" points="307.15 31.56 306.96 31.29 305.13 32.63 305.3 32.87 307.15 31.56"/><path class="cls-7" d="M307.55,32.13l-.09-.14a1,1,0,0,1-.09-.13l-1.88,1.29a.83.83,0,0,0,.09.11l.08.13Z"/><polygon class="cls-7" points="307.92 32.71 307.74 32.44 305.84 33.67 306 33.92 307.92 32.71"/><polygon class="cls-7" points="308.28 33.3 308.12 33.02 306.18 34.2 306.32 34.46 308.28 33.3"/><polygon class="cls-7" points="308.63 33.91 308.47 33.63 306.49 34.75 306.64 35 308.63 33.91"/><polygon class="cls-7" points="308.95 34.52 308.81 34.23 306.8 35.3 306.93 35.56 308.95 34.52"/><path class="cls-7" d="M309.27,35.14l0,0a.44.44,0,0,1-.06-.1,1.56,1.56,0,0,1-.07-.14l-2,1,.06.13.05.09,0,0Z"/><polygon class="cls-7" points="309.55 35.77 309.42 35.47 307.36 36.43 307.48 36.7 309.55 35.77"/><polygon class="cls-7" points="310.75 52.74 310.84 52.43 308.64 51.84 308.56 52.12 310.75 52.74"/><path class="cls-7" d="M310.55,53.41l.05-.15,0-.16-2.17-.66,0,.14a1.36,1.36,0,0,1-.05.14Z"/><polygon class="cls-7" points="310.33 54.07 310.43 53.76 308.28 53.04 308.18 53.32 310.33 54.07"/><path class="cls-7" d="M310.09,54.72l.06-.15a.51.51,0,0,1,0-.1l0,0-2.13-.78,0,0a1,1,0,0,0,0,.1.87.87,0,0,0,0,.13Z"/><polygon class="cls-7" points="309.83 55.37 309.95 55.06 307.84 54.23 307.74 54.5 309.83 55.37"/><polygon class="cls-7" points="309.56 56 309.69 55.7 307.61 54.81 307.49 55.08 309.56 56"/><polygon class="cls-7" points="309.27 56.63 309.41 56.34 307.35 55.38 307.22 55.65 309.27 56.63"/><polygon class="cls-7" points="308.96 57.25 309.11 56.96 307.07 55.95 306.94 56.21 308.96 57.25"/><path class="cls-7" d="M309.18,37.86a.47.47,0,0,1-.35,0,.42.42,0,0,1-.23-.24.45.45,0,0,1,.25-.58.46.46,0,0,1,.59.26.44.44,0,0,1,0,.34A.49.49,0,0,1,309.18,37.86Z"/><path class="cls-7" d="M309.6,39.17a.49.49,0,0,1-.34,0,.45.45,0,0,1,.07-.82.45.45,0,0,1,.57.29.47.47,0,0,1,0,.35A.49.49,0,0,1,309.6,39.17Z"/><path class="cls-7" d="M310,40.5a.46.46,0,0,1-.54-.33s0-.06,0-.09a.28.28,0,0,1,0-.09.33.33,0,0,1,0-.16.48.48,0,0,1,.27-.21.45.45,0,0,1,.34.05l.14.11s0,0,0,.08a.16.16,0,0,1,0,.09A.46.46,0,0,1,310,40.5Z"/><path class="cls-7" d="M310.22,41.84a.45.45,0,0,1-.52-.35.5.5,0,0,1,.07-.34.46.46,0,0,1,.29-.19.45.45,0,0,1,.34.06.46.46,0,0,1-.18.82Z"/><path class="cls-7" d="M310.42,43.21a.45.45,0,0,1-.12-.9.45.45,0,1,1,.12.9Z"/><path class="cls-7" d="M310.53,44.58a.47.47,0,0,1-.48-.42.46.46,0,0,1,.42-.48.45.45,0,0,1,.48.41A.45.45,0,0,1,310.53,44.58Z"/><path class="cls-7" d="M279.1,69.82l.12,0,.15,0,.19.06,1,.29,1,.24.19,0,.15,0,.13,0,.56-2.86-.12,0-.14,0-.16,0-.92-.21-.9-.26-.16-.05-.13,0-.11,0Z"/><path class="cls-7" d="M294.72,69.46l.57-.2a3.94,3.94,0,0,0,.38-.14l.18-.07-.36-.18c-.21-.11-.5-.27-.78-.44L294,68l-.24-.15-.09-.06-1.06.3.09.06.23.17.73.49.4.25.35.21Z"/><path class="cls-7" d="M292.71,70l.18,0,.19,0,.21-.06.57-.16-.34-.22-.74-.49c-.53-.38-1-.76-1-.76l-.17,0-.37.07-.54.09s.47.41,1,.82S292.71,70,292.71,70Z"/><path class="cls-7" d="M290.9,70.4l.59-.11.4-.07.18,0-.08-.06-.24-.18-.7-.55-.67-.56c-.17-.17-.29-.27-.29-.27l-.55.07-.37,0H289l.07.08.21.21.64.59.67.59Z"/><polygon class="cls-7" points="306.77 60.76 306.96 60.49 305.13 59.15 304.96 59.39 306.77 60.76"/><polygon class="cls-7" points="306.35 61.3 306.55 61.05 304.75 59.66 304.56 59.89 306.35 61.3"/><path class="cls-7" d="M305.91,61.84l.11-.12.06-.09a.12.12,0,0,0,0,0l-1.76-1.44,0,0-.06.08-.1.11Z"/><polygon class="cls-7" points="305.45 62.36 305.67 62.12 303.95 60.63 303.76 60.86 305.45 62.36"/><polygon class="cls-7" points="304.99 62.88 305.21 62.64 303.54 61.11 303.33 61.32 304.99 62.88"/><polygon class="cls-7" points="304.51 63.38 304.73 63.14 303.1 61.56 302.89 61.78 304.51 63.38"/><polygon class="cls-7" points="304.01 63.86 304.25 63.63 302.66 62.01 302.44 62.22 304.01 63.86"/><path class="cls-7" d="M303.51,64.34l.12-.11.11-.12-1.54-1.66a.84.84,0,0,0-.1.1l-.12.1Z"/><polygon class="cls-7" points="287.73 70.71 288.06 70.7 287.95 68.43 287.65 68.44 287.73 70.71"/><polygon class="cls-7" points="287.04 70.73 287.36 70.72 287.32 68.45 287.02 68.45 287.04 70.73"/><polygon class="cls-7" points="286.34 70.72 286.67 70.73 286.69 68.45 286.39 68.44 286.34 70.72"/><polygon class="cls-7" points="285.65 70.7 285.98 70.71 286.06 68.44 285.76 68.43 285.65 70.7"/><polygon class="cls-7" points="284.96 70.65 285.28 70.68 285.42 68.41 285.13 68.39 284.96 70.65"/><path class="cls-7" d="M284.27,70.6h.32l.21-2.26h-.3Z"/><polygon class="cls-7" points="283.58 70.51 283.9 70.55 284.17 68.29 283.88 68.26 283.58 70.51"/><path class="cls-7" d="M282.89,70.41l.16,0h.16l.34-2.25h-.05l-.1,0-.15,0Z"/><path class="cls-7" d="M301.4,64.61a.44.44,0,0,1,.07-.62.46.46,0,0,1,.63.06.44.44,0,0,1-.07.64A.45.45,0,0,1,301.4,64.61Z"/><path class="cls-7" d="M300.29,65.43a.45.45,0,1,1,.73-.52.44.44,0,0,1-.1.62A.45.45,0,0,1,300.29,65.43Z"/><path class="cls-7" d="M299.13,66.18a.46.46,0,0,1,.15-.62.44.44,0,0,1,.61.13.45.45,0,0,1-.13.63A.46.46,0,0,1,299.13,66.18Z"/><path class="cls-7" d="M297.94,66.85a.41.41,0,0,1,0-.34.51.51,0,0,1,.07-.15.53.53,0,0,1,.14-.11.43.43,0,0,1,.6.17.44.44,0,0,1-.17.61.27.27,0,0,1-.17.06.32.32,0,0,1-.17,0A.42.42,0,0,1,297.94,66.85Z"/><path class="cls-7" d="M296.7,67.46a.45.45,0,0,1,.22-.59.45.45,0,0,1,.39.81A.47.47,0,0,1,296.7,67.46Z"/><path class="cls-7" d="M295.44,68a.45.45,0,0,1,.24-.58.47.47,0,0,1,.35,0,.43.43,0,0,1,.24.24.45.45,0,0,1,0,.34.51.51,0,0,1-.25.25A.45.45,0,0,1,295.44,68Z"/><path class="cls-7" d="M261.71,45.89s0,.2,0,.49,0,.31,0,.49a2.72,2.72,0,0,0,0,.28c0,.09,0,.19,0,.28,0,.39.06.77.09,1.06s.06.48.06.48l2.89-.36s0-.16-.06-.42,0-.59-.07-.93a2.28,2.28,0,0,1,0-.26v-.24c0-.17,0-.31,0-.44s0-.43,0-.43Z"/><path class="cls-7" d="M266.89,60.64l0,0a.59.59,0,0,0,.08.11l.25.33.37.47s.1-.66.24-1.28c0-.08,0-.15,0-.23l.06-.23c0-.14.07-.28.1-.39l.1-.39-.1-.14-.1-.14-.12-.17-.3-.46s0,.15-.11.38-.08.25-.12.39l-.07.22-.06.23C267,60,266.89,60.64,266.89,60.64Z"/><path class="cls-7" d="M265.71,58.91l.33.5.22.34.07.11,0,0a.45.45,0,0,1,0-.11c0-.07,0-.17.07-.29l.25-.85c0-.16.09-.31.14-.45l.06-.2a.94.94,0,0,0,.06-.18c.09-.23.14-.38.14-.38l-.27-.48s-.07-.12-.11-.17-.05-.11-.07-.16l-.08-.15s-.06.15-.16.37l-.14.37c0,.14-.11.29-.16.44s-.21.61-.29.85c0,.06,0,.11-.05.16a.7.7,0,0,0,0,.12A.7.7,0,0,1,265.71,58.91Z"/><path class="cls-7" d="M264.81,57.3l.08.17.09.17,0,.09.06.1.29.52s.06-.16.13-.39l.14-.39c0-.07.05-.14.08-.22s.06-.14.08-.22c.24-.61.5-1.17.5-1.17s0-.07-.08-.16a3.68,3.68,0,0,1-.16-.34l-.22-.5s-.29.55-.55,1.14a2.29,2.29,0,0,0-.1.23l-.09.21c-.06.14-.11.27-.15.38Z"/><polygon class="cls-7" points="278.89 69.41 279.19 69.52 279.89 67.35 279.62 67.26 278.89 69.41"/><path class="cls-7" d="M278.23,69.18l0,0,.1,0,.16.05.76-2.14-.14,0-.1,0,0,0Z"/><polygon class="cls-7" points="277.59 68.93 277.89 69.05 278.71 66.93 278.43 66.82 277.59 68.93"/><path class="cls-7" d="M277,68.66l.14.07.11,0h0l.88-2.09,0,0-.09,0-.13-.06Z"/><polygon class="cls-7" points="276.31 68.38 276.61 68.51 277.55 66.44 277.28 66.32 276.31 68.38"/><polygon class="cls-7" points="275.69 68.07 275.98 68.22 276.98 66.18 276.72 66.04 275.69 68.07"/><polygon class="cls-7" points="275.07 67.75 275.36 67.9 276.42 65.89 276.15 65.76 275.07 67.75"/><polygon class="cls-7" points="274.47 67.41 274.75 67.57 275.86 65.59 275.6 65.44 274.47 67.41"/><path class="cls-7" d="M263.52,54.38l0,0a.76.76,0,0,0,0,.11l.06.15,2.12-.81a1.34,1.34,0,0,0-.05-.14.36.36,0,0,1,0-.09.06.06,0,0,0,0,0Z"/><polygon class="cls-7" points="263.3 53.72 263.41 54.03 265.55 53.29 265.46 53.01 263.3 53.72"/><path class="cls-7" d="M263.09,53.06l0,.16s0,.08,0,.11v.05l2.17-.69,0,0a.22.22,0,0,0,0-.1l0-.14Z"/><polygon class="cls-7" points="262.9 52.4 262.98 52.71 265.17 52.09 265.09 51.8 262.9 52.4"/><polygon class="cls-7" points="262.73 51.72 262.8 52.04 265 51.48 264.94 51.19 262.73 51.72"/><polygon class="cls-7" points="262.57 51.05 262.64 51.36 264.86 50.87 264.8 50.58 262.57 51.05"/><polygon class="cls-7" points="262.44 50.37 262.5 50.69 264.73 50.25 264.68 49.96 262.44 50.37"/><polygon class="cls-7" points="262.32 49.68 262.38 50 264.62 49.63 264.56 49.34 262.32 49.68"/><path class="cls-7" d="M273.55,65.5a.41.41,0,0,1,.29-.19.46.46,0,0,1,.34.06.46.46,0,0,1,.13.62.45.45,0,0,1-.63.13.51.51,0,0,1-.2-.28A.46.46,0,0,1,273.55,65.5Z"/><path class="cls-7" d="M272.44,64.69a.4.4,0,0,1,.3-.17.42.42,0,0,1,.32.08.45.45,0,1,1-.53.72.44.44,0,0,1-.09-.63Z"/><path class="cls-7" d="M271.37,63.82a.45.45,0,0,1,.79.25.42.42,0,0,1-.1.32.4.4,0,0,1-.3.17.45.45,0,0,1-.33-.1A.46.46,0,0,1,271.37,63.82Z"/><path class="cls-7" d="M270.36,62.89a.45.45,0,0,1,.63,0,.44.44,0,0,1,.14.31.47.47,0,0,1-.12.33.41.41,0,0,1-.31.14.41.41,0,0,1-.32-.12A.45.45,0,0,1,270.36,62.89Z"/><path class="cls-7" d="M269.4,61.91a.45.45,0,1,1,.62.65.45.45,0,1,1-.62-.65Z"/><path class="cls-7" d="M268.5,60.87a.44.44,0,0,1,.33-.1.42.42,0,0,1,.3.15.45.45,0,0,1-.68.58.41.41,0,0,1-.11-.33A.41.41,0,0,1,268.5,60.87Z"/><path class="cls-7" d="M286.62,64.32c-2,0-3.8-2-5.11-5.59A38.86,38.86,0,0,1,279.58,46a38.82,38.82,0,0,1,1.93-12.77c1.31-3.61,3.12-5.59,5.11-5.59s3.8,2,5.11,5.59A38.82,38.82,0,0,1,293.66,46a38.86,38.86,0,0,1-1.93,12.77C290.42,62.33,288.6,64.32,286.62,64.32Zm0-35.57c-2.84,0-5.88,6.92-5.88,17.21s3,17.21,5.88,17.21S292.5,56.25,292.5,46,289.46,28.75,286.62,28.75Z"/><path class="cls-7" d="M298,57c-3.89,0-9.44-1.86-14.85-5A38.76,38.76,0,0,1,273,44c-2.46-2.94-3.27-5.5-2.28-7.22.72-1.25,2.3-1.9,4.57-1.9,3.88,0,9.43,1.86,14.85,5a38.66,38.66,0,0,1,10.09,8.05c2.47,2.93,3.28,5.5,2.29,7.22C301.8,56.38,300.22,57,298,57ZM275.29,36c-1.28,0-2.94.23-3.57,1.33-1.42,2.46,3,8.55,12,13.69,5.24,3,10.58,4.84,14.27,4.84,1.28,0,2.93-.23,3.57-1.33,1.42-2.46-3-8.55-12-13.7C284.31,37.84,279,36,275.29,36Z"/><path class="cls-7" d="M275.29,57h0c-2.27,0-3.85-.66-4.57-1.9-1-1.72-.18-4.29,2.28-7.22a38.56,38.56,0,0,1,10.1-8.05c5.41-3.13,11-5,14.85-5,2.27,0,3.85.65,4.57,1.9,1,1.72.18,4.28-2.29,7.22a38.87,38.87,0,0,1-10.09,8C284.72,55.18,279.17,57,275.29,57ZM298,36c-3.69,0-9,1.81-14.27,4.83-8.92,5.15-13.38,11.24-12,13.7.63,1.1,2.29,1.33,3.57,1.33,3.69,0,9-1.81,14.27-4.84,8.91-5.14,13.38-11.24,12-13.69C300.88,36.26,299.23,36,298,36Z"/><path class="cls-7" d="M292,31.41a2,2,0,1,0-2,2A2,2,0,0,0,292,31.41Z"/><path class="cls-7" d="M277.56,55.94a2,2,0,1,0-2,2A2,2,0,0,0,277.56,55.94Z"/><path class="cls-7" d="M303.11,50.28a2,2,0,1,0-2,2A2,2,0,0,0,303.11,50.28Z"/><path class="cls-7" d="M290.78,46a4.17,4.17,0,1,0-4.16,4.16A4.16,4.16,0,0,0,290.78,46Z"/><rect class="cls-8" x="260.06" y="76.5" width="52.36" height="4.03" rx="0.76"/><path class="cls-7" d="M278.26,35.74,264.13,21.61h-6.92v.19h6.85l13.83,13.83Z"/><path class="cls-7" d="M271.07,37.17l.28,0-8.6-5.34H257.4v.19h5.3l8.24,5.12A.27.27,0,0,1,271.07,37.17Z"/><path class="cls-7" d="M271.48,50.46v0l-2.41,1.4h-11.6V52h11.67l2.26-1.31A2.33,2.33,0,0,1,271.48,50.46Z"/><path class="cls-7" d="M275.87,56.69l-12.38,4.89H257.3v.2h6.23l12.86-5.09A4.51,4.51,0,0,1,275.87,56.69Z"/><rect class="cls-8" x="237.29" y="19.03" width="19.92" height="5.36"/><rect class="cls-8" x="237.29" y="29.02" width="19.92" height="5.36"/><rect class="cls-8" x="237.29" y="39.01" width="19.92" height="5.36"/><rect class="cls-8" x="237.29" y="49.01" width="19.92" height="5.36"/><rect class="cls-8" x="237.29" y="59" width="19.92" height="5.36"/><path class="cls-7" d="M272.17,42H257.3v.19h14.94A.62.62,0,0,1,272.17,42Z"/><polygon class="cls-8" points="267.95 73.74 269.9 70.37 267.95 67 264.05 67 262.1 70.37 264.05 73.74 267.95 73.74"/><polygon class="cls-8" points="312.52 25.77 314.47 22.4 312.52 19.02 308.63 19.02 306.68 22.4 308.63 25.77 312.52 25.77"/><polygon class="cls-8" points="256.89 73.74 258.84 70.37 256.89 67 253 67 251.05 70.37 253 73.74 256.89 73.74"/><polygon class="cls-9" points="414.29 119.9 414.57 122.39 414.82 122.39 414.93 118.67 414.29 119.9"/><path class="cls-9" d="M411.35,118.56s-2,3.34-2.19,3.82-.91,1.73-.63,2.15,1.11.41,2.24.16a2.84,2.84,0,0,0,2.28-1.67c.13-.39.29-1.37.37-1.67a2.08,2.08,0,0,1,.78-1,2.52,2.52,0,0,0,.73-1.77c-.07-.56-1-1.39-1-1.39Z"/><path class="cls-10" d="M415,86.77a9,9,0,0,1-5,0c-.61,2.32.08,5.22-.24,8.42a39.08,39.08,0,0,0-.06,7.93c.59,6.17,1.5,11.64,1.48,12.94a10.92,10.92,0,0,1-.42,3.17c-.3.85-1.41,3.11-.84,3.56a1.18,1.18,0,0,0,1.13,0,6.12,6.12,0,0,0,3.24-4.13,11.76,11.76,0,0,0-.33-2.4c0-1.19.91-6.93,1.45-13.34a54.13,54.13,0,0,0-.11-8C415.08,91.79,415.6,89,415,86.77Z"/><polygon class="cls-9" points="417.63 119.69 417.35 122.17 417.11 122.17 416.99 118.46 417.63 119.69"/><path class="cls-9" d="M420.57,118.35s2,3.34,2.19,3.82.92,1.72.63,2.15-1.11.41-2.24.16a2.88,2.88,0,0,1-2.28-1.67c-.13-.39-.29-1.37-.36-1.68a2.23,2.23,0,0,0-.78-1,2.48,2.48,0,0,1-.73-1.77c.06-.56,1-1.39,1-1.39Z"/><path class="cls-10" d="M416.9,86.55a8.79,8.79,0,0,0,5,0c.61,2.33-.08,5.23.24,8.43a39.08,39.08,0,0,1,.06,7.93c-.58,6.17-1.5,11.64-1.47,12.94a10.67,10.67,0,0,0,.42,3.17c.3.85,1.4,3.11.83,3.55a1.17,1.17,0,0,1-1.13,0,6.15,6.15,0,0,1-3.24-4.13,11,11,0,0,1,.34-2.4c0-1.19-.92-6.93-1.45-13.34a53,53,0,0,1,.1-8.06C416.84,91.58,416.33,88.74,416.9,86.55Z"/><path class="cls-9" d="M416,92.7V64.44s-7.84-.38-8-.13c-1.32,1.51-2.24,9.29-1.59,13.41,1,6.37,2.86,11.84,3.17,15Z"/><path class="cls-11" d="M422.42,31.4h-3.2l.07-.38-9.79.38c-3.23,16.64.44,16.85,5.41,16.85l1.66,0c.15,0,.29,0,.44,0C422,48.25,425.65,48,422.42,31.4Z"/><path class="cls-12" d="M419,40.8h-6.08a11.46,11.46,0,0,0,0-5.21H419A11.75,11.75,0,0,0,419,40.8Z"/><path class="cls-11" d="M416,24.76A6.43,6.43,0,0,0,409.37,31,6.43,6.43,0,0,0,416,37.27H416V24.77Z"/><path class="cls-11" d="M422.55,31A6.42,6.42,0,0,0,416,24.77v12.5A6.43,6.43,0,0,0,422.55,31Z"/><path class="cls-10" d="M420.53,32.59c0,3.1-2,5.61-4.57,5.61s-4.57-2.51-4.57-5.61S411.66,26,416,26C420.53,26,420.53,29.49,420.53,32.59Z"/><path class="cls-10" d="M412,32.68c.15.67,0,1.27-.4,1.36s-.78-.39-.94-1.06,0-1.27.4-1.35S411.84,32,412,32.68Z"/><path class="cls-10" d="M419.93,32.68c-.15.67,0,1.27.4,1.36s.79-.39.94-1.06,0-1.27-.4-1.35S420.09,32,419.93,32.68Z"/><path class="cls-11" d="M416.31,26.1a3.87,3.87,0,0,0,2.14,4,8.1,8.1,0,0,1,2.15,2.51s.6-3.05-.61-4.95S416.49,25.27,416.31,26.1Z"/><path class="cls-11" d="M418.94,25.93a11.54,11.54,0,0,0-2.84-.21,5.73,5.73,0,0,0-5,2.61c-.5.89-.32,5.44.41,4.19,1-1.77,2.84-2.41,4.61-3.12a9.1,9.1,0,0,0,3.46-2C420.56,26.29,418.92,25.94,418.94,25.93Z"/><rect class="cls-13" x="412.62" y="40.74" width="6.69" height="15.63"/><path class="cls-14" d="M417,42.19l-.82.7a.31.31,0,0,1-.44,0l-.81-.7-.57,14L416,58.1l1.6-1.88Z"/><path class="cls-15" d="M417.26,41.33l-1.3-.59-1.31.59a.59.59,0,0,0,0,.71l.27.22.82.7a.4.4,0,0,0,.22.09.43.43,0,0,0,.21-.09l.82-.7.27-.22A.59.59,0,0,0,417.26,41.33Z"/><path class="cls-16" d="M416,54.69V65l-.58,1.19-8.22-.25c.73-3.47,2.33-6.38,2.21-10a10.61,10.61,0,0,0-1.22-4.45L406.77,42a35.69,35.69,0,0,1,5.47-1.89Z"/><path class="cls-7" d="M405.21,85.3c.43-6.39,1-14.15,1.18-16.19L406.6,67c.17-1.85.31-3.61.34-4.84.06-2.2-.06-9.14-.06-9.14l0-11.2a47.8,47.8,0,0,1,5.87-2.07l-2.36,2.58,2.68,14.8L413.34,85v.35Z"/><polygon class="cls-17" points="413.32 42.21 410.73 41.26 413.2 38.86 415.97 40.75 413.32 42.21"/><polygon class="cls-17" points="418.61 42.21 421.19 41.26 418.72 38.8 415.96 40.75 418.61 42.21"/><path class="cls-9" d="M408.7,47c-.3-.73,2.07-2.4,2.07-2.4s-1.67-1.31-1.71-1.78c-.15-1.66,3.61-3.66,3.61-3.66L416,54.67S409.77,49.59,408.7,47Z"/><path class="cls-9" d="M424,64.28c-.22-.25-8.06,0-8.06,0V92.7h6.47c.3-3.13,2.17-8.62,3.18-15C426.25,73.56,425.34,65.78,424,64.28Z"/><path class="cls-12" d="M430.57,79a4.2,4.2,0,0,1,.4-.69l.25-.71,0-.93-.25-.64.27-.36a.39.39,0,0,0,.26.07,1,1,0,0,0,.65-.4c0,.94.1,2.24.1,2.24l-.67,1.19s-.45.62-.69.72S430.42,79.38,430.57,79Z"/><path class="cls-12" d="M430.53,73.51c.35.46.75.87,1.1,1.32l.15.19-.33.45c0,.56,0,1.83,0,1.83l-.67,1.18s-.45.63-.69.72-.43-.07-.28-.48a3.64,3.64,0,0,1,.41-.69l.24-.72v0l-.16.27s-.39.55-.59.63-.38-.06-.25-.42a3.22,3.22,0,0,1,.35-.6l.22-.62,0-.81-.05-.15a4.82,4.82,0,0,0-.58-1.75A5.24,5.24,0,0,1,429,73l.87-.51A9.16,9.16,0,0,0,430.53,73.51Z"/><path class="cls-12" d="M429.28,72.44c0,.13-.06.26-.08.39a2.81,2.81,0,0,0,.36,1.58c.19.41.48.77.69,1.16a3.3,3.3,0,0,0-.07.56v0a.33.33,0,0,0-.1.06.81.81,0,0,0-.09.1,2.7,2.7,0,0,0-.14-.4c-.25-.59-.59-.55-.82-1.16a2.67,2.67,0,0,1-.24-1.88C429,73,429.09,72.36,429.28,72.44Z"/><path class="cls-10" d="M431.42,77.83c.23,0,.48-.18.52-.58s.07-.78.07-.78h0l.1-1.17c-.12-.21-1-2.14-1-2.14l-.53-2.35-1.92.14s-.26,2,.14,2.75a11,11,0,0,0,2.14,2s0,.78,0,1C430.92,77.58,431.17,77.81,431.42,77.83Z"/><path class="cls-18" d="M431.83,77.17s0,.63-.42.58-.35-.6-.33-.61S431.83,77.17,431.83,77.17Z"/><path class="cls-12" d="M430,75.54c.12.13.13.28.24.41l-.37.48a2.42,2.42,0,0,1-.5.69c-.09.06-.36,0-.29-.38,0-.22.42-1.39.42-1.39S429.91,75.49,430,75.54Z"/><path class="cls-10" d="M431.42,78c.26,0,.54-.21.58-.65s.08-.88.08-.88h0l.11-1.31c-.13-.23-1.09-2.4-1.09-2.4l-.6-2.63-1.71-.78s-.07,2.25-.09,2.77c0,.72-.27,1.37,0,1.84a6.41,6.41,0,0,0,2.21,1.69s0,.88,0,1.15C430.85,77.69,431.14,77.94,431.42,78Z"/><path class="cls-18" d="M431.88,77.23s0,.71-.47.64-.39-.67-.37-.68S431.88,77.23,431.88,77.23Z"/><path class="cls-19" d="M416,54.69V65l.52,1.19,8.28-.25c-.73-3.47-2.33-6.38-2.21-10a10.78,10.78,0,0,1,1.22-4.45L425.16,42a36.1,36.1,0,0,0-5.48-1.89Z"/><path class="cls-20" d="M428.08,72,421.7,45c-.24-1.22,1.45-2.8,2.71-3a2.29,2.29,0,0,1,2.72,1.77l4,27.62Z"/><path class="cls-20" d="M426.88,85.45c-.43-6.39-1-14.15-1.18-16.19-.07-.71-.15-1.44-.21-2.15-.17-1.85-.31-3.6-.35-4.84-.05-2.19.07-9.14.07-9.14l0-11.17a46.1,46.1,0,0,0-5.87-2.1l1.81,3.08L419,57.24l-.24,27.87v.34Z"/><path class="cls-9" d="M423.22,47c.31-.73-2.06-2.4-2.06-2.4s1.66-1.31,1.7-1.78c.16-1.66-3.61-3.66-3.61-3.66L416,54.67S422.15,49.59,423.22,47Z"/><path class="cls-9" d="M416,58.34h0a1,1,0,1,0,0,2.06h0a1,1,0,0,0,1-1A1,1,0,0,0,416,58.34Z"/><path class="cls-12" d="M386.53,52.36a1.39,1.39,0,0,1,1.45-.83,2.29,2.29,0,0,1,.75.33c1.31.8,2.48,1.82,3.82,2.56.25.14.53.32.55.6a.87.87,0,0,1-.11.38l-.44.89a14.29,14.29,0,0,1-4.15-1,4,4,0,0,1-1.69-1.24A1.89,1.89,0,0,1,386.53,52.36Z"/><path class="cls-21" d="M381.67,44.83h0l9.06,11-.72.56-8.78-11.18Z"/><path class="cls-10" d="M386.15,50.84l2.16,0a3.85,3.85,0,0,1,1.22.14,4.27,4.27,0,0,1,1.86,1.67,3.34,3.34,0,0,0,2,1.51c.18,0,.22.28.16.44s-.21.29-.28.45a.35.35,0,0,1-.1.19.34.34,0,0,1-.33,0,12,12,0,0,1-1.75-1,8.26,8.26,0,0,1-1.49-.64h0s0,0,0,0h0A3.71,3.71,0,0,1,388.08,52a3,3,0,0,1-1.35-.23,1.32,1.32,0,0,1-.51-.36A.55.55,0,0,1,386.15,50.84Z"/><path class="cls-10" d="M388.32,52.85a.71.71,0,0,1,.18.37c0,.13-.12.28-.24.24a.65.65,0,0,1,.35.26c.06.13,0,.34-.18.31a.42.42,0,0,1,.45.32.34.34,0,0,1-.34.38.25.25,0,0,1,.18.33.42.42,0,0,1-.32.25,1.19,1.19,0,0,1-.42,0,3.12,3.12,0,0,1-1.53-.53.4.4,0,0,1-.14-.18.18.18,0,0,1,.09-.2,1.08,1.08,0,0,1-.49-.4.39.39,0,0,1,.16-.55.77.77,0,0,1-.34-.47c0-.2.15-.43.34-.38a.72.72,0,0,1-.08-.84c.22-.4.34-.21.57,0C387.07,52.23,387.86,52.32,388.32,52.85Z"/><path class="cls-7" d="M392.44,53.42s7.43,2.63,8.18,2.6c.29,0,2.22-7.35,2.35-8a15.75,15.75,0,0,1,1.21-4.33,4.6,4.6,0,0,1,2.73-1.95c.38.91.78,1.82,1.09,2.76a18.13,18.13,0,0,1,.84,6.5,1.15,1.15,0,0,1,0,.19c-1.5,2.71-4.69,12.46-5.82,12.23-3.37-.7-12.1-6.83-12.1-6.83Z"/><path class="cls-22" d="M337.2,98.58c0-.26.15-.69.49-.44.15.11.08.39.22.48.34.22.37-.28.39-.5.09-.85-.29-1.66-.19-2.5a4.65,4.65,0,0,1,2.56-3,191.55,191.55,0,0,1,6.78,0,3.88,3.88,0,0,1,1.93,3c.1.84-.28,1.65-.2,2.5,0,.22.06.72.4.5.14-.09.07-.37.22-.48.58-.43.44.79.38,1a4.09,4.09,0,0,1-1.31,2.41c-.22.15-.71.24-.84.38a8.45,8.45,0,0,0-.86,3l.13,3.4-4,3.68L342,110.56l-2.18-2.34c0-2,.8-4.35-.76-5.93C337.87,101,337.11,100.46,337.2,98.58Z"/><path class="cls-6" d="M350.15,97.36c-.09.43-.19.89-.25,1.37-.19,1.4-1.41,2.23-2,3.48a10.09,10.09,0,0,0-1,1.86c-.9-.31-.37-.49-1.1.16a4,4,0,0,1-2.59.18c-.36-.11-.5-.51-.9-.57s-.81.28-1.23.26c.09,0-.83-.18-.67-.11-1.18-.51-2.13-2.57-2.54-3.69-.27-.74-.77-1.35-1-2.09a11.13,11.13,0,0,1-.36-2.38c-.47-3.51-.08-7,4.41-7.71a12.4,12.4,0,0,1,6.43.33,6.36,6.36,0,0,1,3.27,4C351.1,94.05,350.46,95.94,350.15,97.36Z"/><path class="cls-20" d="M327.45,113.78s9-2.78,9.92-3.15l2-.83.13,0h8.22l.12,0,2,.83c2.63,1.08,6.72,2.76,6.83,2.86s1.51,4,2.35,6.3c.72,2,.28,12.11-.89,13.7-3,4.08-33.63-.12-33.63-.12Z"/><path class="cls-22" d="M318.67,101.35c0-.28.16-.75.52-.48.17.12.09.42.24.52.37.24.41-.3.43-.55.09-.92-.32-1.8-.21-2.71a5.08,5.08,0,0,1,2.78-3.27,5.69,5.69,0,0,1,3.69,0,5.66,5.66,0,0,1,3.68,0,4.24,4.24,0,0,1,2.1,3.27c.11.91-.3,1.79-.21,2.71,0,.25.06.79.43.55.16-.1.08-.4.24-.52.64-.47.48.86.42,1.09a4.53,4.53,0,0,1-1.42,2.61c-.24.17-.78.27-.92.42a9.22,9.22,0,0,0-.93,3.26l.14,3.7-4.35,4-1.39-1.56-2.37-2.55c0-2.12.87-4.73-.82-6.45C319.39,104,318.56,103.39,318.67,101.35Z"/><path class="cls-6" d="M332.75,100c-.11.48-.21,1-.28,1.5-.2,1.52-1.53,2.43-2.18,3.78a11.38,11.38,0,0,0-1.14,2c-1-.35-.39-.54-1.19.17a4.28,4.28,0,0,1-2.81.2c-.39-.13-.55-.56-1-.63s-.87.31-1.33.29c.1,0-.91-.2-.73-.12-1.29-.56-2.32-2.8-2.76-4-.3-.81-.84-1.47-1.14-2.27a11.91,11.91,0,0,1-.38-2.6c-.52-3.81-.1-7.57,4.8-8.38a13.54,13.54,0,0,1,7,.36,6.93,6.93,0,0,1,3.56,4.33C333.78,96.42,333.08,98.47,332.75,100Z"/><path class="cls-7" d="M321.6,110.7l2.79.52a7.59,7.59,0,0,0,2.77,0l2.56-.5.88,2.59-1.7,5.65h-6.47l-1.71-5.65Z"/><path class="cls-23" d="M307.78,134.37c.29-5,.66-12.67,1.08-13.54.91-1.88,2.43-5,2.56-5.07s4.57-1.43,7.42-2.29l2.22-.67.13,0h8.94l.14,0,2.21.67c2.86.86,7.31,2.21,7.43,2.29s1.64,3.19,2.55,5.07c.54,1.11,1.49,9,1.54,13.54Z"/><g id="_3" data-name="3"><path class="cls-22" d="M274.23,98c0-.26-.15-.69-.48-.44-.16.11-.08.39-.22.48-.34.22-.38-.28-.4-.5-.08-.85.3-1.67.2-2.5a4.68,4.68,0,0,0-2.56-3,5.25,5.25,0,0,0-3.39,0,5.25,5.25,0,0,0-3.39,0,3.88,3.88,0,0,0-1.93,3c-.1.83.28,1.65.19,2.5,0,.22-.06.72-.39.5-.15-.09-.07-.37-.22-.48-.59-.43-.45.79-.39,1a4.17,4.17,0,0,0,1.31,2.41c.22.15.71.24.84.38a8.45,8.45,0,0,1,.86,3l-.13,3.4,4,3.67L269.4,110l2.18-2.34c0-2-.79-4.35.76-5.94C273.57,100.47,274.33,99.89,274.23,98Z"/><path class="cls-6" d="M261.28,96.78c.09.44.19.89.26,1.38.18,1.4,1.4,2.23,2,3.48a9.54,9.54,0,0,1,1,1.86c.91-.31.37-.5,1.11.16a3.91,3.91,0,0,0,2.58.18c.36-.12.5-.52.9-.57s.81.27,1.23.26c-.09,0,.84-.18.67-.11,1.18-.51,2.13-2.57,2.54-3.69.27-.75.77-1.35,1.05-2.09a11.12,11.12,0,0,0,.35-2.38c.48-3.51.09-7-4.41-7.72a12.47,12.47,0,0,0-6.42.33,6.39,6.39,0,0,0-3.28,4C260.33,93.48,261,95.37,261.28,96.78Z"/><path class="cls-23" d="M284,113.21s-9-2.79-9.91-3.15l-2-.83-.12-.06h-8.23l-.12.06-2,.83c-2.62,1.07-6.72,2.75-6.83,2.85s-1.5,4-2.35,6.31c-.72,2-.27,12.11.9,13.69,3,4.09,33.62-.11,33.62-.11Z"/><path class="cls-22" d="M304.28,97.74c0-.26-.15-.69-.49-.44-.15.11-.08.38-.21.48-.35.22-.38-.28-.4-.51-.09-.84.29-1.66.19-2.49a4.69,4.69,0,0,0-2.56-3,5.25,5.25,0,0,0-3.39,0,5.25,5.25,0,0,0-3.39,0,3.94,3.94,0,0,0-1.93,3c-.1.83.28,1.65.2,2.49,0,.23-.06.73-.4.51-.14-.1-.07-.37-.22-.49-.58-.43-.44.8-.38,1a4.15,4.15,0,0,0,1.31,2.41c.22.15.71.24.84.38a8.46,8.46,0,0,1,.86,3l-.13,3.41,4,3.67,1.27-1.44,2.18-2.34c0-1.95-.8-4.36.76-5.94C303.62,100.19,304.37,99.61,304.28,97.74Z"/><path class="cls-6" d="M291.33,96.51c.09.44.19.89.25,1.38.19,1.4,1.41,2.23,2,3.48a10.09,10.09,0,0,1,1,1.86c.9-.32.37-.5,1.1.15a3.88,3.88,0,0,0,2.59.19c.36-.12.5-.52.9-.58s.81.28,1.23.26c-.09,0,.84-.17.67-.1,1.18-.52,2.13-2.58,2.54-3.69.27-.75.77-1.36,1-2.09a11.21,11.21,0,0,0,.35-2.39c.48-3.5.08-7-4.41-7.71a12.51,12.51,0,0,0-6.43.33,6.36,6.36,0,0,0-3.27,4C290.38,93.21,291,95.09,291.33,96.51Z"/><path class="cls-20" d="M314,112.93s-9-2.78-9.91-3.15l-2-.83-.13,0h-8.22l-.12,0-2,.83c-2.62,1.08-6.72,2.76-6.83,2.86s-1.51,4-2.35,6.31c-.72,2-.27,12.1.89,13.69,3,4.08,33.63-.12,33.63-.12Z"/><path class="cls-22" d="M290.62,102.65c0-.26-.16-.7-.5-.44-.15.11-.07.39-.22.48-.34.23-.38-.28-.4-.51-.09-.86.3-1.69.2-2.54a4.78,4.78,0,0,0-2.61-3.06,5.3,5.3,0,0,0-3.45,0,5.33,5.33,0,0,0-3.46,0,4,4,0,0,0-2,3.06c-.11.85.28,1.68.2,2.54,0,.23-.06.74-.41.51-.14-.09-.06-.37-.22-.48-.6-.45-.45.8-.39,1a4.22,4.22,0,0,0,1.33,2.45c.23.15.73.24.86.39a8.46,8.46,0,0,1,.87,3.05l-.13,3.47,4.07,3.74,1.3-1.47,2.22-2.38c0-2-.81-4.44.77-6C289.94,105.16,290.72,104.57,290.62,102.65Z"/><path class="cls-7" d="M287.87,111.42l-2.62.48a7,7,0,0,1-2.59,0l-2.4-.47-.83,2.42,1.61,5.3h6l1.6-5.3Z"/><path class="cls-21" d="M277.43,101.41c.09.44.19.9.26,1.4.19,1.42,1.43,2.27,2,3.54a10.51,10.51,0,0,1,1.06,1.9c.92-.32.38-.51,1.13.16a3.93,3.93,0,0,0,2.63.18c.36-.11.51-.52.92-.58s.82.28,1.25.27c-.1,0,.85-.19.68-.11,1.21-.53,2.17-2.63,2.59-3.76.28-.76.79-1.38,1.06-2.13a11.6,11.6,0,0,0,.37-2.43c.48-3.57.08-7.09-4.5-7.86a12.82,12.82,0,0,0-6.54.34A6.47,6.47,0,0,0,277,96.39C276.46,98,277.11,100,277.43,101.41Z"/><path class="cls-7" d="M299.08,125.44c-1.82,1.85-5.19,3.11-8.3,3.91a46.53,46.53,0,0,1-5.26,1,9.79,9.79,0,0,1-2.86,0c-3.22-.48-10.55-1.87-13.61-4.95a4,4,0,0,1-.72-4.53c.85-1.77,2.27-4.67,2.39-4.75s4.28-1.34,6.95-2.15l2.08-.63.12,0h8.38l.13,0,2.07.63c2.68.81,6.85,2.08,7,2.15s1.54,3,2.4,4.75A4,4,0,0,1,299.08,125.44Z"/><path class="cls-22" d="M305.05,108.31c0-.25-.15-.68-.48-.44-.15.11-.08.39-.22.48-.33.22-.37-.28-.39-.5-.08-.84.29-1.64.19-2.47a4.63,4.63,0,0,0-2.53-3,5.13,5.13,0,0,0-3.35,0,5.13,5.13,0,0,0-3.35,0,3.86,3.86,0,0,0-1.91,3c-.1.83.27,1.63.19,2.47,0,.22-.06.72-.39.5-.14-.09-.07-.37-.22-.48-.58-.42-.44.79-.38,1a4.15,4.15,0,0,0,1.29,2.38c.22.15.71.23.84.38a8.44,8.44,0,0,1,.85,3l-.13,3.37,3.95,3.63,1.27-1.43,2.15-2.31c0-1.93-.79-4.31.75-5.87C304.39,110.74,305.14,110.17,305.05,108.31Z"/><path class="cls-21" d="M292.24,107.1c.09.43.18.88.25,1.36.18,1.38,1.39,2.21,2,3.44a10.27,10.27,0,0,1,1,1.84c.89-.31.36-.49,1.09.16a3.89,3.89,0,0,0,2.55.18c.36-.12.5-.51.9-.57s.8.28,1.21.26c-.09,0,.83-.18.67-.11,1.16-.51,2.1-2.54,2.51-3.65.27-.74.76-1.34,1-2.06a11,11,0,0,0,.35-2.36c.47-3.47.09-6.89-4.36-7.63a12.35,12.35,0,0,0-6.36.32,6.36,6.36,0,0,0-3.24,3.94C291.3,103.83,291.93,105.7,292.24,107.1Z"/><path class="cls-7" d="M302.37,116.82l-2.53.47a6.89,6.89,0,0,1-2.52,0l-2.33-.46-.8,2.36,1.55,5.14h5.89l1.55-5.14Z"/><path class="cls-23" d="M315.22,141.76V128.89l-2.68-6.21a23,23,0,0,0-9.8-3.17.19.19,0,0,1-.13,0h-8.13l-.12,0-2,.61c-2.6.78-6.83,2-6.76,2.09.38.55-1.49,2.89-2.32,4.6-.51,1-1.08,10.75-.95,14.95Z"/><path class="cls-22" d="M259.13,107c0-.29-.17-.79-.56-.5-.17.13-.08.44-.25.55-.38.25-.42-.32-.45-.58-.1-1,.34-1.9.22-2.85a5.35,5.35,0,0,0-2.92-3.44,6.06,6.06,0,0,0-3.88,0,6.06,6.06,0,0,0-3.88,0,4.45,4.45,0,0,0-2.21,3.44c-.11,1,.32,1.88.22,2.85,0,.26-.06.83-.45.58-.16-.11-.07-.42-.25-.55-.67-.5-.51.91-.44,1.15a4.75,4.75,0,0,0,1.5,2.75c.25.17.81.27,1,.44a9.45,9.45,0,0,1,1,3.42l-.15,3.9,4.58,4.2,1.46-1.65L256.1,118c0-2.23-.91-5,.87-6.79C258.37,109.82,259.24,109.16,259.13,107Z"/><path class="cls-6" d="M244.31,105.61c.11.5.22,1,.3,1.58.21,1.59,1.61,2.55,2.29,4a10.89,10.89,0,0,1,1.19,2.12c1-.36.42-.56,1.26.18.53.47,2.32.42,3,.21.41-.13.57-.59,1-.66s.93.32,1.41.3c-.11,0,1-.2.77-.12,1.35-.59,2.44-2.94,2.9-4.22.31-.85.88-1.55,1.2-2.39a13.13,13.13,0,0,0,.4-2.73c.55-4,.1-8-5-8.82a14.26,14.26,0,0,0-7.34.38c-1.91.75-3.09,2.7-3.75,4.55S244,104,244.31,105.61Z"/><path class="cls-7" d="M256,116.85l-2.93.54a7.75,7.75,0,0,1-2.92,0l-2.69-.53-.93,2.73,1.8,5.94h6.8l1.8-5.94Z"/><path class="cls-7" d="M270.58,141.76c-.3-5.26-.69-13.34-1.13-14.25-1-2-2.57-5.25-2.69-5.33s-4.81-1.51-7.82-2.42l-2.33-.7-.14,0h-9.41l-.14,0-2.33.7c-3,.91-7.68,2.33-7.81,2.42s-1.73,3.35-2.69,5.33c-.56,1.16-1.56,9.52-1.61,14.25Z"/><path class="cls-22" d="M321.57,110.16c0-.26-.15-.72-.5-.46-.16.12-.08.41-.23.51-.36.23-.39-.3-.41-.53-.09-.89.3-1.74.2-2.61a4.89,4.89,0,0,0-2.68-3.14,5.43,5.43,0,0,0-3.54,0,5.43,5.43,0,0,0-3.54,0,4,4,0,0,0-2,3.14c-.11.87.29,1.72.2,2.61,0,.23-.06.76-.42.53-.14-.1-.06-.39-.22-.51-.62-.45-.47.83-.41,1a4.4,4.4,0,0,0,1.37,2.52c.23.16.75.25.89.4a8.91,8.91,0,0,1,.89,3.13l-.14,3.56,4.19,3.84,1.33-1.51,2.28-2.44c0-2-.84-4.56.79-6.21C320.88,112.73,321.67,112.13,321.57,110.16Z"/><path class="cls-6" d="M308,108.88c.09.46.19.93.26,1.45.2,1.45,1.47,2.33,2.1,3.63a10.73,10.73,0,0,1,1.09,1.94c.94-.32.38-.51,1.15.17a4.08,4.08,0,0,0,2.7.19c.38-.12.52-.54,1-.6s.84.29,1.28.27c-.1,0,.88-.18.7-.11,1.24-.54,2.23-2.69,2.66-3.86.28-.78.8-1.41,1.09-2.18a11.61,11.61,0,0,0,.37-2.49c.5-3.67.09-7.29-4.61-8.07a13,13,0,0,0-6.72.35,6.66,6.66,0,0,0-3.42,4.16C307,105.43,307.71,107.4,308,108.88Z"/><path class="cls-7" d="M318.75,119.16l-2.68.49a7,7,0,0,1-2.66,0l-2.47-.48-.84,2.49,1.64,5.43H318l1.64-5.43Z"/><path class="cls-7" d="M332,141.92c-.28-4.81-.63-12.19-1-13-.88-1.81-2.34-4.8-2.46-4.87s-4.39-1.38-7.14-2.21l-2.12-.64-.14,0h-8.59l-.13,0-2.13.64c-2.75.83-7,2.13-7.14,2.21s-1.58,3.06-2.46,4.87c-.52,1.06-1.43,8.7-1.47,13Z"/><path class="cls-22" d="M277.28,114.57c0-.3-.18-.79-.59-.51-.18.13-.09.44-.26.55-.42.26-.46-.32-.49-.57-.1-1,.36-1.91.24-2.86-.17-1.32-1.87-3-3.12-3.44a6.74,6.74,0,0,0-4.12,0,6.77,6.77,0,0,0-4.13,0,4.44,4.44,0,0,0-2.35,3.44c-.13.95.33,1.89.23,2.86,0,.25-.07.83-.48.57-.17-.11-.08-.42-.27-.55-.71-.49-.54.91-.47,1.15a4.68,4.68,0,0,0,1.6,2.75c.27.18.86.28,1,.44a9.38,9.38,0,0,1,1,3.43l-.16,3.89,4.87,4.2,1.55-1.65,2.66-2.67c0-2.24-1-5,.92-6.8C276.47,117.38,277.4,116.71,277.28,114.57Z"/><path class="cls-21" d="M261.51,113.16c.11.5.23,1,.31,1.58.23,1.6,1.71,2.55,2.44,4,.34.67,1.12,1.42,1.27,2.13,1.1-.36.45-.57,1.34.18.56.46,2.47.41,3.16.2.43-.13.6-.58,1.09-.65s1,.32,1.5.3c-.11,0,1-.21.82-.12,1.43-.59,2.59-3,3.09-4.22.33-.86.94-1.55,1.27-2.39a11.43,11.43,0,0,0,.43-2.73c.58-4,.11-8-5.37-8.83A16.15,16.15,0,0,0,265,103a7.41,7.41,0,0,0-4,4.56C260.35,109.38,261.13,111.54,261.51,113.16Z"/><path class="cls-7" d="M274,124.41l-3.12.54a8.73,8.73,0,0,1-3.1,0l-2.87-.52-1,2.72,1.91,6h7.25l1.91-6Z"/><path class="cls-20" d="M289.12,141.92a48.15,48.15,0,0,0-.62-6.85c-1-2-2.72-5.25-2.86-5.34s-5.12-1.5-8.32-2.41l-2.48-.7-.15-.05h-10l-.15.05-2.48.7c-3.2.91-8.18,2.33-8.32,2.41s-1.83,3.35-2.86,5.33a68.7,68.7,0,0,0-.87,6.86Z"/></g><path class="cls-22" d="M367.25,98.85c0-.25.15-.68.49-.44.15.11.07.39.21.48.34.23.38-.28.4-.5.09-.85-.3-1.66-.19-2.49a4.66,4.66,0,0,1,2.55-3,287.31,287.31,0,0,1,6.78,0,3.9,3.9,0,0,1,1.93,3c.11.83-.28,1.64-.19,2.49,0,.22.06.73.4.5.14-.09.06-.37.22-.48.58-.43.44.8.38,1a4.09,4.09,0,0,1-1.31,2.4c-.22.16-.71.24-.84.39a8.4,8.4,0,0,0-.86,3l.13,3.41-4,3.67-1.27-1.44-2.18-2.34c0-2,.79-4.36-.76-5.94C367.91,101.31,367.15,100.73,367.25,98.85Z"/><path class="cls-6" d="M380.2,97.63c-.09.43-.19.89-.25,1.38-.19,1.39-1.41,2.23-2,3.47a9.84,9.84,0,0,0-1,1.86c-.91-.31-.37-.49-1.11.16a3.85,3.85,0,0,1-2.58.18c-.36-.11-.5-.51-.9-.57s-.81.28-1.23.26c.09,0-.84-.18-.67-.1-1.18-.52-2.13-2.58-2.54-3.69-.27-.75-.77-1.36-1.05-2.09a11.3,11.3,0,0,1-.35-2.39c-.48-3.5-.09-7,4.41-7.71a12.47,12.47,0,0,1,6.42.33,6.35,6.35,0,0,1,3.28,4C381.15,94.32,380.51,96.21,380.2,97.63Z"/><path class="cls-20" d="M357.5,114.05s9-2.78,9.91-3.15l2-.83.12,0h8.23l.12,0,2,.83c2.62,1.08,6.72,2.76,6.83,2.86s1.51,4,2.35,6.31c.72,2,.27,12.1-.89,13.69-3,4.08-33.63-.12-33.63-.12Z"/><path class="cls-22" d="M350.86,103.5c0-.26.16-.7.5-.45.15.11.07.4.22.49.34.23.38-.29.4-.51.09-.87-.3-1.69-.2-2.54a4.77,4.77,0,0,1,2.61-3.07,298.44,298.44,0,0,1,6.91,0,4,4,0,0,1,2,3.07c.11.85-.28,1.67-.19,2.54,0,.22.05.74.4.51.14-.09.07-.38.22-.49.6-.44.45.81.39,1a4.22,4.22,0,0,1-1.33,2.45c-.22.16-.72.25-.86.4a8.46,8.46,0,0,0-.87,3l.13,3.46-4.07,3.74-1.3-1.46-2.22-2.39c0-2,.81-4.44-.77-6C351.54,106,350.76,105.41,350.86,103.5Z"/><path class="cls-7" d="M353.62,112.26l2.61.49a7,7,0,0,0,2.59,0l2.4-.47.83,2.43-1.6,5.29h-6.06l-1.6-5.29Z"/><path class="cls-21" d="M364.05,102.25c-.09.44-.19.91-.26,1.41-.18,1.42-1.43,2.27-2,3.54a10.43,10.43,0,0,0-1.06,1.89c-.92-.32-.38-.5-1.12.16a4,4,0,0,1-2.64.19c-.36-.12-.51-.53-.92-.59s-.82.29-1.25.27c.1,0-.85-.18-.68-.11-1.21-.52-2.17-2.62-2.59-3.76-.28-.76-.78-1.37-1.06-2.12a11.06,11.06,0,0,1-.36-2.44c-.49-3.56-.09-7.09,4.49-7.85a12.71,12.71,0,0,1,6.54.33,6.5,6.5,0,0,1,3.34,4.06C365,98.88,364.37,100.81,364.05,102.25Z"/><path class="cls-7" d="M342.4,126.29c1.83,1.85,5.19,3.1,8.3,3.91a51.49,51.49,0,0,0,5.26,1,10.15,10.15,0,0,0,2.86,0c3.22-.48,10.55-1.87,13.61-4.94a4,4,0,0,0,.73-4.54c-.86-1.76-2.28-4.67-2.4-4.75s-4.28-1.34-6.95-2.15l-2.08-.62-.12,0h-8.38l-.13,0-2.07.62c-2.68.81-6.85,2.08-7,2.15s-1.54,3-2.4,4.75A4,4,0,0,0,342.4,126.29Z"/><path class="cls-22" d="M336.43,109.15c0-.25.15-.68.48-.43.15.11.08.38.22.47.33.22.37-.27.39-.49.08-.84-.29-1.65-.19-2.47a4.59,4.59,0,0,1,2.53-3,187.62,187.62,0,0,1,6.71,0,3.82,3.82,0,0,1,1.9,3c.11.82-.27,1.63-.19,2.47,0,.22.06.71.39.49.14-.09.07-.36.22-.47.58-.43.44.78.38,1a4.12,4.12,0,0,1-1.29,2.38c-.22.15-.71.24-.84.38a8.43,8.43,0,0,0-.84,3l.12,3.37-3.95,3.63L341.21,121l-2.16-2.32c0-1.93.79-4.31-.75-5.87C337.09,111.59,336.34,111,336.43,109.15Z"/><path class="cls-21" d="M349.24,107.94c-.09.43-.18.88-.25,1.37-.18,1.38-1.39,2.2-2,3.44a9.62,9.62,0,0,0-1,1.84c-.89-.32-.36-.5-1.09.15a3.83,3.83,0,0,1-2.55.18c-.36-.11-.5-.51-.9-.57s-.8.28-1.21.26c.09,0-.83-.17-.67-.1-1.16-.51-2.1-2.55-2.51-3.65-.27-.74-.76-1.34-1-2.07a10.94,10.94,0,0,1-.35-2.36c-.47-3.47-.08-6.89,4.37-7.63a12.32,12.32,0,0,1,6.35.33,6.3,6.3,0,0,1,3.24,3.94C350.18,104.67,349.55,106.54,349.24,107.94Z"/><path class="cls-7" d="M339.11,117.67l2.53.46a6.68,6.68,0,0,0,2.52,0l2.33-.45.8,2.35-1.55,5.14h-5.88L338.3,120Z"/><path class="cls-20" d="M326.26,142.6V129.74l2.68-6.22a23,23,0,0,1,9.8-3.16.28.28,0,0,0,.13,0H347l.12,0,2,.6c2.6.79,6.83,2,6.75,2.09-.36.56,1.5,2.9,2.33,4.61.51,1.05,1.08,10.74.95,14.94Z"/><path class="cls-22" d="M364.2,115.41c0-.29.18-.79.59-.5.18.12.09.44.26.55.42.25.46-.33.49-.58.1-1-.36-1.9-.24-2.85.17-1.33,1.88-3,3.12-3.44a6.77,6.77,0,0,1,4.13,0,6.74,6.74,0,0,1,4.12,0A4.44,4.44,0,0,1,379,112c.12,1-.34,1.88-.24,2.85,0,.25.07.83.48.58.17-.11.08-.43.27-.55.71-.5.54.91.47,1.14a4.68,4.68,0,0,1-1.6,2.76c-.26.17-.86.27-1,.44a9.33,9.33,0,0,0-1,3.42l.16,3.9-4.87,4.2-1.55-1.65-2.66-2.68c0-2.23,1-5-.92-6.79C365,118.22,364.08,117.56,364.2,115.41Z"/><path class="cls-21" d="M380,114c-.11.5-.23,1-.31,1.58-.22,1.59-1.71,2.55-2.44,4-.34.67-1.12,1.42-1.27,2.13-1.1-.36-.45-.57-1.34.18-.56.46-2.47.41-3.15.21-.44-.13-.61-.59-1.1-.66s-1,.32-1.5.3c.11,0-1-.2-.82-.12-1.43-.59-2.59-2.95-3.09-4.22-.33-.85-.94-1.55-1.27-2.39a11.43,11.43,0,0,1-.43-2.73c-.58-4-.11-8,5.37-8.82a16.07,16.07,0,0,1,7.83.38,7.38,7.38,0,0,1,4,4.55C381.13,110.23,380.35,112.39,380,114Z"/><path class="cls-7" d="M367.49,125.25l3.12.54a9,9,0,0,0,3.1,0l2.87-.53,1,2.72-1.91,5.95h-7.25L366.5,128Z"/><path class="cls-23" d="M352.36,142.76a48.15,48.15,0,0,1,.62-6.85c1-2,2.72-5.25,2.86-5.33s5.12-1.51,8.32-2.42l2.48-.7.15,0h10l.15,0,2.48.7c3.2.91,8.18,2.33,8.31,2.42s1.84,3.34,2.87,5.33a67.9,67.9,0,0,1,.87,6.85Z"/><g id="_1-2" data-name="1" class="cls-24"><rect class="cls-25" x="33.88" width="140.22" height="150.13"/></g><path class="cls-7" d="M53.44,67.91v.25c0,.08,0,.09-.11.09h-2V62.71c0-.14,0-.14.37-.14v5.34Z"/><path class="cls-7" d="M55.23,64.11c.83,0,1.26.45,1.26,2.11,0,1.45-.49,2.12-1.35,2.12s-1.27-.26-1.27-2.11C53.87,64.73,54.39,64.11,55.23,64.11ZM55.15,68c.58,0,1-.52,1-1.8,0-1.45-.33-1.77-.89-1.77s-1,.43-1,1.83S54.58,68,55.15,68Z"/><path class="cls-7" d="M57.25,64.47a1.93,1.93,0,0,1,1.08-.36c.4,0,.6.11.6.26a.46.46,0,0,1-.06.23,1,1,0,0,0-.49-.13,1.21,1.21,0,0,0-.76.24v3.45c0,.09,0,.09-.37.09Z"/><path class="cls-7" d="M61.61,67.69a1,1,0,0,1,0,.26c0,.17-.51.39-1.1.39-.77,0-1.34-.25-1.34-1.89,0-2.11.8-2.34,1.46-2.34s1,.5,1,1.28a5.49,5.49,0,0,1-.06,1,11.88,11.88,0,0,1-2,.13c0,1.33.42,1.51,1,1.51A1.76,1.76,0,0,0,61.61,67.69Zm-2-1.53A7.68,7.68,0,0,0,61.3,66a3.63,3.63,0,0,0,0-.56c0-.67-.15-1-.68-1S59.66,64.6,59.59,66.16Z"/><path class="cls-7" d="M62.47,64.38a2.93,2.93,0,0,1,1.19-.27.89.89,0,0,1,.8.3,2.09,2.09,0,0,1,1.05-.3c.8,0,.91.42.91,1.2v2.85c0,.09,0,.09-.37.09v-3c0-.56-.09-.82-.58-.82a1.37,1.37,0,0,0-.83.26v3.46c0,.09,0,.09-.37.09v-3c0-.55,0-.82-.61-.82a1.94,1.94,0,0,0-.83.19v3.53c0,.09,0,.09-.36.09Z"/><path class="cls-7" d="M69,62.75c.15,0,.21.09.21.29s-.06.36-.23.36-.22-.09-.22-.31S68.86,62.75,69,62.75Zm.17,5.41c0,.09,0,.09-.36.09V64.38c0-.19.07-.19.36-.19Z"/><path class="cls-7" d="M70.19,64.44a2.13,2.13,0,0,1,1.17-.33c.84,0,1.34.4,1.34,1.73,0,2.2-.87,2.5-1.38,2.5a1,1,0,0,1-.76-.32v1.8a.48.48,0,0,1-.2,0c-.11,0-.17,0-.17-.15Zm.37,3.14a.78.78,0,0,0,.68.42c.36,0,1.07-.2,1.07-2.06,0-1.2-.34-1.5-1-1.5a1.53,1.53,0,0,0-.79.22Z"/><path class="cls-7" d="M73.92,65.87c-.47-.3-.55-.55-.55-.85,0-.57.52-.91,1.31-.91s1,.27,1,.39a.34.34,0,0,1-.1.21,1.61,1.61,0,0,0-.92-.27c-.54,0-.94.21-.94.57,0,.21.07.38.43.61l.93.62a1.22,1.22,0,0,1,.57,1c0,.7-.49,1.08-1.32,1.08-.64,0-1-.16-1-.34a.29.29,0,0,1,.08-.22,1.63,1.63,0,0,0,.92.22c.58,0,1-.22,1-.69a1,1,0,0,0-.5-.84Z"/><path class="cls-7" d="M79,68.06a2.83,2.83,0,0,1-1.23.28c-1,0-1.2-.42-1.2-1.5V64.29c0-.1,0-.1.37-.1V66.9c0,.84.17,1.1.87,1.1a1.89,1.89,0,0,0,.83-.19V64.29c0-.1,0-.1.36-.1Z"/><path class="cls-7" d="M80,64.38a3,3,0,0,1,1.2-.27.89.89,0,0,1,.8.3,2.05,2.05,0,0,1,1-.3c.81,0,.91.42.91,1.2v2.85c0,.09,0,.09-.36.09v-3c0-.56-.09-.82-.59-.82a1.41,1.41,0,0,0-.83.26v3.46c0,.09,0,.09-.36.09v-3c0-.55,0-.82-.61-.82a1.94,1.94,0,0,0-.83.19v3.53c0,.09,0,.09-.37.09Z"/><path class="cls-7" d="M88.31,62.47c0-.19.08-.19.36-.19v5.81a2.47,2.47,0,0,1-1.14.25c-.72,0-1.32-.21-1.32-2,0-1.53.63-2.21,1.4-2.21a1.11,1.11,0,0,1,.7.19Zm0,2.16a.83.83,0,0,0-.61-.19c-.6,0-1.1.53-1.1,1.86,0,1.52.4,1.7,1,1.7a1.34,1.34,0,0,0,.73-.18Z"/><path class="cls-7" d="M90.81,64.11c.83,0,1.26.45,1.26,2.11,0,1.45-.49,2.12-1.35,2.12s-1.27-.26-1.27-2.11C89.45,64.73,90,64.11,90.81,64.11ZM90.73,68c.58,0,1-.52,1-1.8,0-1.45-.32-1.77-.88-1.77s-1,.43-1,1.83S90.16,68,90.73,68Z"/><path class="cls-7" d="M93.22,68.16c0,.09,0,.09-.37.09V62.47c0-.19.08-.19.37-.19Z"/><path class="cls-7" d="M95.36,64.11c.83,0,1.26.45,1.26,2.11,0,1.45-.48,2.12-1.34,2.12S94,68.08,94,66.23C94,64.73,94.53,64.11,95.36,64.11ZM95.28,68c.58,0,1-.52,1-1.8,0-1.45-.32-1.77-.88-1.77s-.95.43-.95,1.83S94.71,68,95.28,68Z"/><path class="cls-7" d="M97.39,64.47a1.91,1.91,0,0,1,1.08-.36c.39,0,.59.11.59.26a.59.59,0,0,1,0,.23,1,1,0,0,0-.49-.13,1.26,1.26,0,0,0-.77.24v3.45c0,.09,0,.09-.36.09Z"/><path class="cls-7" d="M101.56,65.87c-.47-.3-.55-.55-.55-.85,0-.57.52-.91,1.31-.91s1.05.27,1.05.39a.34.34,0,0,1-.1.21,1.61,1.61,0,0,0-.92-.27c-.54,0-.94.21-.94.57,0,.21.07.38.43.61l.92.62a1.24,1.24,0,0,1,.58,1c0,.7-.5,1.08-1.32,1.08-.65,0-1-.16-1-.34a.3.3,0,0,1,.09-.22A1.63,1.63,0,0,0,102,68c.58,0,1-.22,1-.69a1,1,0,0,0-.49-.84Z"/><path class="cls-7" d="M104.4,62.75c.15,0,.21.09.21.29s-.07.36-.24.36-.21-.09-.21-.31S104.24,62.75,104.4,62.75Zm.17,5.41c0,.09,0,.09-.37.09V64.38c0-.19.08-.19.37-.19Z"/><path class="cls-7" d="M105.32,64.53c0-.3,0-.34.09-.34h.53v-1.3c0-.16.06-.16.37-.16v1.46h1c0,.29,0,.34-.08.34h-1v2.54c0,.53,0,.93.4.93a1.13,1.13,0,0,0,.54-.13.44.44,0,0,1,0,.2c0,.18-.31.27-.64.27-.66,0-.7-.55-.7-1.29V64.53Z"/><path class="cls-7" d="M111.58,65.6c0,.92,0,1.8,0,2.44a2,2,0,0,1-1.09.3c-.58,0-1.17-.1-1.17-1.21s.62-1.31,1.26-1.31a2.08,2.08,0,0,1,.68.09v-.74c0-.59-.29-.7-.69-.7a3.14,3.14,0,0,0-1.2.2.43.43,0,0,1,0-.21.17.17,0,0,1,0-.15,3.52,3.52,0,0,1,1.28-.2c.64,0,1,.25,1,1Zm-.94.51c-.51,0-1,.09-1,1s.41.88.86.88a1.13,1.13,0,0,0,.67-.2c0-.37,0-1.06,0-1.62A1.89,1.89,0,0,0,110.64,66.11Z"/><path class="cls-7" d="M112.48,64.38a3,3,0,0,1,1.19-.27c.44,0,.67.11.8.3a2.09,2.09,0,0,1,1-.3c.81,0,.91.42.91,1.2v2.85c0,.09,0,.09-.36.09v-3c0-.56-.09-.82-.59-.82a1.37,1.37,0,0,0-.83.26v3.46c0,.09,0,.09-.37.09v-3c0-.55,0-.82-.61-.82a1.93,1.93,0,0,0-.82.19v3.53c0,.09,0,.09-.37.09Z"/><path class="cls-7" d="M119.69,67.69a.69.69,0,0,1,0,.26c0,.17-.51.39-1.1.39-.77,0-1.34-.25-1.34-1.89,0-2.11.8-2.34,1.46-2.34s1,.5,1,1.28a5.49,5.49,0,0,1-.06,1,11.88,11.88,0,0,1-2,.13c0,1.33.42,1.51,1,1.51A1.76,1.76,0,0,0,119.69,67.69Zm-2-1.53a7.63,7.63,0,0,0,1.7-.12,3.69,3.69,0,0,0,0-.56c0-.67-.16-1-.69-1S117.74,64.6,117.68,66.16Z"/><path class="cls-7" d="M120.3,64.53c0-.3,0-.34.09-.34h.53v-1.3c0-.16.06-.16.37-.16v1.46h1c0,.29,0,.34-.08.34h-.95v2.54c0,.53,0,.93.4.93a1.13,1.13,0,0,0,.54-.13.64.64,0,0,1,0,.2c0,.18-.31.27-.64.27-.67,0-.7-.55-.7-1.29V64.53Z"/><path class="cls-7" d="M123.26,67.64c.18,0,.29.08.29.36a1.69,1.69,0,0,1-.51,1.16.18.18,0,0,1-.16-.13,1.6,1.6,0,0,0,.25-.8.32.32,0,0,1-.15-.29A.28.28,0,0,1,123.26,67.64Z"/><path class="cls-7" d="M127.83,64.65a1.06,1.06,0,0,0-.65-.21c-.47,0-1.07.2-1.07,1.9,0,1.4.37,1.66.94,1.66a1.18,1.18,0,0,0,.79-.27.63.63,0,0,1,0,.22c0,.17-.38.39-.94.39s-1.21-.27-1.21-2c0-2,.81-2.2,1.47-2.2.35,0,.68.15.68.31A.56.56,0,0,1,127.83,64.65Z"/><path class="cls-7" d="M129.64,64.11c.83,0,1.26.45,1.26,2.11,0,1.45-.49,2.12-1.35,2.12s-1.27-.26-1.27-2.11C128.28,64.73,128.8,64.11,129.64,64.11Zm-.08,3.9c.57,0,.95-.52.95-1.8,0-1.45-.33-1.77-.89-1.77s-1,.43-1,1.83S129,68,129.56,68Z"/><path class="cls-7" d="M131.66,64.39a3.63,3.63,0,0,1,1.33-.28c.88,0,1.1.37,1.1,1.13v2.92c0,.09,0,.09-.37.09V65.33c0-.61-.12-.89-.74-.89a2.4,2.4,0,0,0-.95.21v3.51c0,.09,0,.09-.37.09Z"/><path class="cls-7" d="M135.44,65.87c-.47-.3-.55-.55-.55-.85,0-.57.52-.91,1.31-.91s1.05.27,1.05.39a.34.34,0,0,1-.1.21,1.56,1.56,0,0,0-.92-.27c-.53,0-.94.21-.94.57,0,.21.07.38.43.61l.93.62a1.22,1.22,0,0,1,.57,1c0,.7-.49,1.08-1.32,1.08-.64,0-1-.16-1-.34a.29.29,0,0,1,.08-.22,1.63,1.63,0,0,0,.92.22c.58,0,1-.22,1-.69a1,1,0,0,0-.5-.84Z"/><path class="cls-7" d="M140.31,67.69a.92.92,0,0,1,0,.26c0,.17-.51.39-1.09.39-.77,0-1.34-.25-1.34-1.89,0-2.11.79-2.34,1.45-2.34s1,.5,1,1.28a5.42,5.42,0,0,1-.07,1,11.88,11.88,0,0,1-2,.13c0,1.33.42,1.51,1,1.51A1.81,1.81,0,0,0,140.31,67.69Zm-2-1.53A7.75,7.75,0,0,0,140,66a5.55,5.55,0,0,0,0-.56c0-.67-.16-1-.68-1S138.35,64.6,138.29,66.16Z"/><path class="cls-7" d="M143.11,64.65a1.09,1.09,0,0,0-.65-.21c-.47,0-1.07.2-1.07,1.9,0,1.4.37,1.66.94,1.66a1.18,1.18,0,0,0,.79-.27.63.63,0,0,1,0,.22c0,.17-.39.39-.94.39s-1.22-.27-1.22-2c0-2,.82-2.2,1.47-2.2.36,0,.69.15.69.31A.56.56,0,0,1,143.11,64.65Z"/><path class="cls-7" d="M143.66,64.53c0-.3,0-.34.09-.34h.53v-1.3c0-.16.06-.16.37-.16v1.46h1c0,.29,0,.34-.08.34h-.95v2.54c0,.53,0,.93.4.93a1.13,1.13,0,0,0,.54-.13.64.64,0,0,1,0,.2c0,.18-.31.27-.64.27-.66,0-.7-.55-.7-1.29V64.53Z"/><path class="cls-7" d="M148.47,67.69a1,1,0,0,1,.05.26c0,.17-.52.39-1.1.39-.77,0-1.34-.25-1.34-1.89,0-2.11.8-2.34,1.45-2.34s1,.5,1,1.28a6.7,6.7,0,0,1-.06,1,12,12,0,0,1-2.05.13c0,1.33.43,1.51,1,1.51A1.79,1.79,0,0,0,148.47,67.69Zm-2-1.53a7.68,7.68,0,0,0,1.71-.12,5.55,5.55,0,0,0,0-.56c0-.67-.15-1-.68-1S146.52,64.6,146.45,66.16Z"/><path class="cls-7" d="M149.07,64.53c0-.3,0-.34.09-.34h.54v-1.3c0-.16.05-.16.36-.16v1.46h1c0,.29,0,.34-.08.34h-.95v2.54c0,.53,0,.93.41.93a1.09,1.09,0,0,0,.53-.13.45.45,0,0,1,0,.2c0,.18-.32.27-.64.27-.67,0-.7-.55-.7-1.29V64.53Z"/><path class="cls-7" d="M154.21,68.06a2.91,2.91,0,0,1-1.24.28c-.95,0-1.19-.42-1.19-1.5V64.29c0-.1,0-.1.37-.1V66.9c0,.84.17,1.1.86,1.1a1.83,1.83,0,0,0,.83-.19V64.29c0-.1,0-.1.37-.1Z"/><path class="cls-7" d="M155.19,64.47a1.91,1.91,0,0,1,1.09-.36c.39,0,.59.11.59.26a.6.6,0,0,1-.06.23,1,1,0,0,0-.49-.13,1.21,1.21,0,0,0-.76.24v3.45c0,.09,0,.09-.37.09Z"/><path class="cls-7" d="M42.36,75.35c0,.93,0,1.81,0,2.44a1.86,1.86,0,0,1-1.09.3c-.58,0-1.17-.09-1.17-1.2s.62-1.31,1.26-1.31a2.4,2.4,0,0,1,.68.08v-.74c0-.58-.28-.69-.69-.69a3.14,3.14,0,0,0-1.2.2.46.46,0,0,1-.05-.21.16.16,0,0,1,.06-.15,3.29,3.29,0,0,1,1.27-.2c.64,0,1,.25,1,1Zm-.94.52c-.52,0-1,.09-1,1s.41.89.86.89a1.13,1.13,0,0,0,.67-.2c0-.37,0-1.06,0-1.62A1.87,1.87,0,0,0,41.42,75.87Z"/><path class="cls-7" d="M45.2,72.23c0-.19.08-.19.37-.19v5.81a2.51,2.51,0,0,1-1.14.24c-.72,0-1.32-.2-1.32-2,0-1.54.63-2.21,1.39-2.21a1.08,1.08,0,0,1,.7.19Zm0,2.16a.82.82,0,0,0-.61-.19c-.59,0-1.09.53-1.09,1.85,0,1.52.4,1.7,1,1.7a1.39,1.39,0,0,0,.73-.17Z"/><path class="cls-7" d="M46.76,72.5c.16,0,.22.1.22.3s-.07.35-.24.35-.21-.09-.21-.3S46.6,72.5,46.76,72.5Zm.18,5.42c0,.09,0,.09-.37.09V74.14c0-.19.07-.19.37-.19Z"/><path class="cls-7" d="M47.94,74.2a2,2,0,0,1,1.17-.33c.83,0,1.34.4,1.34,1.73,0,2.2-.87,2.49-1.38,2.49a1,1,0,0,1-.77-.31v1.8a.42.42,0,0,1-.19,0c-.12,0-.17,0-.17-.14Zm.36,3.14a.79.79,0,0,0,.69.41c.35,0,1.07-.19,1.07-2,0-1.2-.34-1.5-1-1.5a1.44,1.44,0,0,0-.79.22Z"/><path class="cls-7" d="M51.44,72.5c.15,0,.21.1.21.3s-.07.35-.23.35-.22-.09-.22-.3S51.28,72.5,51.44,72.5Zm.17,5.42c0,.09,0,.09-.36.09V74.14c0-.19.07-.19.36-.19Z"/><path class="cls-7" d="M53,75.63c-.47-.31-.55-.55-.55-.85,0-.57.52-.91,1.31-.91s1,.27,1,.39a.35.35,0,0,1-.09.21,1.61,1.61,0,0,0-.92-.27c-.54,0-.94.21-.94.57s.07.37.43.61l.92.62a1.23,1.23,0,0,1,.58,1c0,.71-.49,1.08-1.32,1.08-.65,0-1-.15-1-.33a.34.34,0,0,1,.09-.23,1.55,1.55,0,0,0,.92.22c.58,0,1-.21,1-.68a1,1,0,0,0-.49-.84Z"/><path class="cls-7" d="M57.63,74.41A1.09,1.09,0,0,0,57,74.2c-.48,0-1.08.2-1.08,1.89,0,1.4.38,1.67,1,1.67a1.2,1.2,0,0,0,.78-.27.47.47,0,0,1,0,.22c0,.17-.38.38-.93.38-.71,0-1.22-.26-1.22-2,0-1.95.81-2.2,1.47-2.2.36,0,.68.14.68.31A.6.6,0,0,1,57.63,74.41Z"/><path class="cls-7" d="M58.63,72.5c.15,0,.21.1.21.3s-.07.35-.24.35-.21-.09-.21-.3S58.46,72.5,58.63,72.5Zm.17,5.42c0,.09,0,.09-.37.09V74.14c0-.19.07-.19.37-.19Z"/><path class="cls-7" d="M59.82,74.15a3.63,3.63,0,0,1,1.33-.28c.88,0,1.1.37,1.1,1.13v2.92c0,.09,0,.09-.37.09V75.09c0-.61-.12-.89-.74-.89a2.37,2.37,0,0,0-1,.21v3.51c0,.09,0,.09-.37.09Z"/><path class="cls-7" d="M65.8,73.92a.32.32,0,0,1,0,.16c0,.1-.06.15-.17.15a3.16,3.16,0,0,1-.51,0,1.09,1.09,0,0,1,.51,1c0,.83-.37,1.53-1.31,1.53a1.8,1.8,0,0,1-.5-.06c-.19.14-.39.36-.39.51s.55.27,1.26.35,1.09.23,1.09.87-.5,1.19-1.57,1.19S63,79.19,63,78.76a1.47,1.47,0,0,1,.69-1.05c-.34-.09-.56-.22-.56-.41s.25-.51.52-.72a1.34,1.34,0,0,1-.52-1.25,1.29,1.29,0,0,1,1.33-1.46,1.52,1.52,0,0,1,.38,0Zm-.34,4.56c0-.48-.39-.56-.92-.61L64,77.79a1.33,1.33,0,0,0-.64.91c0,.32.15.57.94.57S65.46,78.87,65.46,78.48Zm-2-3.15c0,.59.13,1.12.92,1.12s.93-.6.93-1.27-.34-1-.9-1S63.46,74.53,63.46,75.33Z"/><path class="cls-7" d="M70.13,77.45a1,1,0,0,1,.05.26c0,.17-.51.38-1.1.38-.77,0-1.34-.24-1.34-1.88,0-2.12.8-2.34,1.46-2.34s1,.49,1,1.28a5.3,5.3,0,0,1-.06.94,11.12,11.12,0,0,1-2,.14c0,1.33.42,1.51,1,1.51A1.79,1.79,0,0,0,70.13,77.45Zm-2-1.53a9.1,9.1,0,0,0,1.71-.12,3.63,3.63,0,0,0,0-.56c0-.67-.15-1-.68-1S68.18,74.36,68.11,75.92Z"/><path class="cls-7" d="M71.35,77.92c0,.09,0,.09-.36.09V72.23c0-.19.08-.19.36-.19Z"/><path class="cls-7" d="M72.56,72.5c.15,0,.21.1.21.3s-.07.35-.24.35-.21-.09-.21-.3S72.39,72.5,72.56,72.5Zm.17,5.42c0,.09,0,.09-.37.09V74.14c0-.19.07-.19.37-.19Z"/><path class="cls-7" d="M73.47,74.28c0-.29,0-.33.09-.33h.54v-1.3c0-.16.06-.16.37-.16V74h1c0,.29,0,.33-.08.33h-1v2.55c0,.53,0,.93.4.93a1,1,0,0,0,.54-.14.71.71,0,0,1,0,.21c0,.17-.32.26-.64.26-.67,0-.7-.54-.7-1.28V74.28Z"/><path class="cls-7" d="M76.44,77.4c.18,0,.29.08.29.35a1.69,1.69,0,0,1-.52,1.17.18.18,0,0,1-.15-.14A1.52,1.52,0,0,0,76.3,78a.33.33,0,0,1-.14-.29A.27.27,0,0,1,76.44,77.4Z"/><path class="cls-7" d="M79.49,75.63c-.47-.31-.55-.55-.55-.85,0-.57.52-.91,1.31-.91s1,.27,1,.39a.45.45,0,0,1-.1.21,1.61,1.61,0,0,0-.92-.27c-.54,0-.94.21-.94.57s.07.37.43.61l.92.62a1.23,1.23,0,0,1,.58,1c0,.71-.5,1.08-1.32,1.08-.65,0-1-.15-1-.33a.34.34,0,0,1,.09-.23,1.55,1.55,0,0,0,.92.22c.58,0,1-.21,1-.68a1,1,0,0,0-.49-.84Z"/><path class="cls-7" d="M84.35,77.45a1,1,0,0,1,.05.26c0,.17-.51.38-1.1.38-.77,0-1.34-.24-1.34-1.88,0-2.12.8-2.34,1.46-2.34s1,.49,1,1.28a5.3,5.3,0,0,1-.06.94,11.12,11.12,0,0,1-2,.14c0,1.33.42,1.51,1,1.51A1.76,1.76,0,0,0,84.35,77.45Zm-2-1.53A9.06,9.06,0,0,0,84,75.8a3.69,3.69,0,0,0,0-.56c0-.67-.16-1-.69-1S82.4,74.36,82.34,75.92Z"/><path class="cls-7" d="M87.16,72.23c0-.19.08-.19.36-.19v5.81a2.47,2.47,0,0,1-1.13.24c-.73,0-1.33-.2-1.33-2,0-1.54.63-2.21,1.4-2.21a1.11,1.11,0,0,1,.7.19Zm0,2.16a.83.83,0,0,0-.61-.19c-.6,0-1.1.53-1.1,1.85,0,1.52.4,1.7,1,1.7a1.45,1.45,0,0,0,.74-.17Z"/><path class="cls-7" d="M91.92,72.23c0-.19.08-.19.36-.19v5.81a2.51,2.51,0,0,1-1.14.24c-.72,0-1.32-.2-1.32-2,0-1.54.63-2.21,1.4-2.21a1.11,1.11,0,0,1,.7.19Zm0,2.16a.84.84,0,0,0-.61-.19c-.6,0-1.1.53-1.1,1.85,0,1.52.4,1.7,1,1.7a1.45,1.45,0,0,0,.74-.17Z"/><path class="cls-7" d="M94.42,73.87c.83,0,1.26.45,1.26,2.11,0,1.45-.49,2.11-1.35,2.11s-1.27-.26-1.27-2.1C93.06,74.49,93.58,73.87,94.42,73.87Zm-.08,3.9c.58,0,1-.52,1-1.81s-.33-1.77-.89-1.77-1,.44-1,1.84S93.77,77.77,94.34,77.77Z"/><path class="cls-7" d="M100.14,77.45a.92.92,0,0,1,0,.26c0,.17-.51.38-1.09.38-.77,0-1.34-.24-1.34-1.88,0-2.12.79-2.34,1.45-2.34s1,.49,1,1.28a5.22,5.22,0,0,1-.07.94,11.12,11.12,0,0,1-2,.14c0,1.33.42,1.51,1,1.51A1.81,1.81,0,0,0,100.14,77.45Zm-2-1.53a9.16,9.16,0,0,0,1.71-.12,5.55,5.55,0,0,0,0-.56c0-.67-.16-1-.68-1S98.18,74.36,98.12,75.92Z"/><path class="cls-7" d="M101.19,72.5c.16,0,.22.1.22.3s-.07.35-.24.35-.21-.09-.21-.3S101,72.5,101.19,72.5Zm.17,5.42c0,.09,0,.09-.36.09V74.14c0-.19.07-.19.36-.19Z"/><path class="cls-7" d="M104.81,77.82a3,3,0,0,1-1.23.27c-1,0-1.2-.41-1.2-1.49V74.05c0-.1,0-.1.37-.1v2.71c0,.84.17,1.1.87,1.1a1.82,1.82,0,0,0,.82-.19V74.05c0-.1,0-.1.37-.1Z"/><path class="cls-7" d="M106.24,75.63c-.47-.31-.55-.55-.55-.85,0-.57.52-.91,1.31-.91s1,.27,1,.39a.37.37,0,0,1-.1.21,1.56,1.56,0,0,0-.92-.27c-.53,0-.94.21-.94.57s.07.37.43.61l.93.62a1.25,1.25,0,0,1,.57,1c0,.71-.49,1.08-1.32,1.08-.64,0-1-.15-1-.33a.32.32,0,0,1,.08-.23,1.55,1.55,0,0,0,.92.22c.58,0,1-.21,1-.68a1,1,0,0,0-.49-.84Z"/><path class="cls-7" d="M108.88,74.14a2.93,2.93,0,0,1,1.19-.27c.43,0,.67.1.8.3a2,2,0,0,1,1-.3c.8,0,.91.42.91,1.19v2.86c0,.09,0,.09-.37.09V75c0-.57-.09-.82-.58-.82a1.43,1.43,0,0,0-.83.25v3.47c0,.09,0,.09-.37.09V75c0-.54,0-.81-.61-.81a1.94,1.94,0,0,0-.83.19v3.53c0,.09,0,.09-.36.09Z"/><path class="cls-7" d="M115,73.87c.83,0,1.26.45,1.26,2.11,0,1.45-.49,2.11-1.35,2.11s-1.27-.26-1.27-2.1C113.65,74.49,114.17,73.87,115,73.87Zm-.08,3.9c.57,0,.95-.52.95-1.81s-.33-1.77-.89-1.77S114,74.63,114,76,114.36,77.77,114.93,77.77Z"/><path class="cls-7" d="M119.07,72.23c0-.19.08-.19.36-.19v5.81a2.51,2.51,0,0,1-1.14.24c-.72,0-1.32-.2-1.32-2,0-1.54.63-2.21,1.39-2.21a1.13,1.13,0,0,1,.71.19Zm0,2.16a.86.86,0,0,0-.62-.19c-.59,0-1.09.53-1.09,1.85,0,1.52.4,1.7,1,1.7a1.45,1.45,0,0,0,.74-.17Z"/><path class="cls-7" d="M121.62,74.28c0-.29,0-.33.09-.33h.54v-1.3c0-.16,0-.16.36-.16V74h1c0,.29,0,.33-.08.33h-1v2.55c0,.53,0,.93.41.93a1,1,0,0,0,.53-.14.49.49,0,0,1,0,.21c0,.17-.32.26-.65.26-.66,0-.69-.54-.69-1.28V74.28Z"/><path class="cls-7" d="M126.43,77.45a1,1,0,0,1,0,.26c0,.17-.51.38-1.1.38-.77,0-1.34-.24-1.34-1.88,0-2.12.8-2.34,1.46-2.34s1,.49,1,1.28a5.3,5.3,0,0,1-.06.94,11.12,11.12,0,0,1-2,.14c0,1.33.42,1.51,1,1.51A1.76,1.76,0,0,0,126.43,77.45Zm-2-1.53a9.06,9.06,0,0,0,1.7-.12,3.69,3.69,0,0,0,0-.56c0-.67-.16-1-.69-1S124.48,74.36,124.42,75.92Z"/><path class="cls-7" d="M127.29,74.14a2.93,2.93,0,0,1,1.19-.27c.43,0,.67.1.8.3a2,2,0,0,1,1.05-.3c.8,0,.91.42.91,1.19v2.86c0,.09,0,.09-.37.09V75c0-.57-.09-.82-.58-.82a1.43,1.43,0,0,0-.83.25v3.47c0,.09,0,.09-.37.09V75c0-.54,0-.81-.61-.81a1.94,1.94,0,0,0-.83.19v3.53c0,.09,0,.09-.36.09Z"/><path class="cls-7" d="M132.23,74.2a2,2,0,0,1,1.17-.33c.84,0,1.34.4,1.34,1.73,0,2.2-.87,2.49-1.38,2.49a1,1,0,0,1-.76-.31v1.8a.46.46,0,0,1-.2,0c-.11,0-.17,0-.17-.14Zm.37,3.14a.79.79,0,0,0,.68.41c.36,0,1.07-.19,1.07-2,0-1.2-.34-1.5-1-1.5a1.44,1.44,0,0,0-.79.22Z"/><path class="cls-7" d="M136.74,73.87c.83,0,1.26.45,1.26,2.11,0,1.45-.49,2.11-1.35,2.11s-1.26-.26-1.26-2.1C135.39,74.49,135.91,73.87,136.74,73.87Zm-.08,3.9c.58,0,1-.52,1-1.81s-.32-1.77-.88-1.77-1,.44-1,1.84S136.09,77.77,136.66,77.77Z"/><path class="cls-7" d="M138.77,74.23a1.83,1.83,0,0,1,1.08-.36c.39,0,.59.11.59.26a.49.49,0,0,1-.06.23.85.85,0,0,0-.48-.13,1.22,1.22,0,0,0-.77.24v3.45c0,.09,0,.09-.36.09Z"/><path class="cls-7" d="M142.71,72.5c.16,0,.21.1.21.3s-.06.35-.23.35-.21-.09-.21-.3S142.55,72.5,142.71,72.5Zm.17,5.42c0,.09,0,.09-.36.09V74.14c0-.19.07-.19.36-.19Z"/><path class="cls-7" d="M143.91,74.15a3.58,3.58,0,0,1,1.32-.28c.89,0,1.11.37,1.11,1.13v2.92c0,.09,0,.09-.38.09V75.09c0-.61-.12-.89-.74-.89a2.4,2.4,0,0,0-.95.21v3.51c0,.09,0,.09-.36.09Z"/><path class="cls-7" d="M149.27,74.41a1.06,1.06,0,0,0-.65-.21c-.47,0-1.07.2-1.07,1.89,0,1.4.37,1.67.94,1.67a1.23,1.23,0,0,0,.79-.27.63.63,0,0,1,.05.22c0,.17-.38.38-.94.38s-1.22-.26-1.22-2c0-1.95.82-2.2,1.48-2.2.35,0,.68.14.68.31A.65.65,0,0,1,149.27,74.41Z"/><path class="cls-7" d="M150.27,72.5c.16,0,.22.1.22.3s-.07.35-.24.35-.21-.09-.21-.3S150.11,72.5,150.27,72.5Zm.17,5.42c0,.09,0,.09-.36.09V74.14c0-.19.07-.19.36-.19Z"/><path class="cls-7" d="M153.39,72.23c0-.19.09-.19.37-.19v5.81a2.51,2.51,0,0,1-1.14.24c-.72,0-1.32-.2-1.32-2,0-1.54.63-2.21,1.39-2.21a1.08,1.08,0,0,1,.7.19Zm0,2.16a.82.82,0,0,0-.61-.19c-.59,0-1.09.53-1.09,1.85,0,1.52.39,1.7,1,1.7a1.39,1.39,0,0,0,.73-.17Z"/><path class="cls-7" d="M155,72.5c.15,0,.21.1.21.3s-.07.35-.24.35-.21-.09-.21-.3S154.79,72.5,155,72.5Zm.17,5.42c0,.09,0,.09-.37.09V74.14c0-.19.07-.19.37-.19Z"/><path class="cls-7" d="M158.08,72.23c0-.19.08-.19.36-.19v5.81a2.47,2.47,0,0,1-1.13.24c-.73,0-1.33-.2-1.33-2,0-1.54.63-2.21,1.4-2.21a1.11,1.11,0,0,1,.7.19Zm0,2.16a.83.83,0,0,0-.61-.19c-.6,0-1.1.53-1.1,1.85,0,1.52.4,1.7,1,1.7a1.43,1.43,0,0,0,.73-.17Z"/><path class="cls-7" d="M161.88,77.82a3,3,0,0,1-1.23.27c-1,0-1.2-.41-1.2-1.49V74.05c0-.1,0-.1.37-.1v2.71c0,.84.17,1.1.87,1.1a1.89,1.89,0,0,0,.83-.19V74.05c0-.1,0-.1.36-.1Z"/><path class="cls-7" d="M162.87,74.15a3.62,3.62,0,0,1,1.32-.28c.89,0,1.11.37,1.11,1.13v2.92c0,.09,0,.09-.38.09V75.09c0-.61-.12-.89-.74-.89a2.4,2.4,0,0,0-1,.21v3.51c0,.09,0,.09-.36.09Z"/><path class="cls-7" d="M166,74.28c0-.29,0-.33.09-.33h.54v-1.3c0-.16,0-.16.36-.16V74h1c0,.29,0,.33-.08.33h-.95v2.55c0,.53,0,.93.41.93a1.06,1.06,0,0,0,.54-.14.71.71,0,0,1,0,.21c0,.17-.32.26-.65.26-.66,0-.69-.54-.69-1.28V74.28Z"/><path class="cls-7" d="M49.11,87.58a3,3,0,0,1-1.23.27c-1,0-1.2-.41-1.2-1.49V83.8c0-.09,0-.09.37-.09v2.7c0,.85.17,1.11.87,1.11a1.78,1.78,0,0,0,.83-.2V83.8c0-.09,0-.09.36-.09Z"/><path class="cls-7" d="M49.86,84c0-.29,0-.33.09-.33h.54v-1.3c0-.17.06-.17.37-.17v1.47h1c0,.29,0,.33-.08.33h-1v2.54c0,.54,0,.94.4.94a1,1,0,0,0,.54-.14.64.64,0,0,1,0,.2c0,.18-.32.27-.64.27-.67,0-.7-.54-.7-1.28V84Z"/><path class="cls-7" d="M54.37,87.67c0,.1,0,.1-.37.1V82c0-.18.08-.18.37-.18Z"/><path class="cls-7" d="M57.5,85.11c0,.93,0,1.81,0,2.44a1.88,1.88,0,0,1-1.09.3c-.58,0-1.17-.1-1.17-1.2s.63-1.32,1.26-1.32a2.38,2.38,0,0,1,.68.09v-.74c0-.58-.28-.7-.69-.7a3.1,3.1,0,0,0-1.2.21.49.49,0,0,1-.05-.22.16.16,0,0,1,.06-.14,3.29,3.29,0,0,1,1.27-.2c.65,0,1,.25,1,1Zm-.94.51c-.52,0-1,.09-1,1s.41.89.86.89a1.12,1.12,0,0,0,.67-.21c0-.36,0-1,0-1.61A1.84,1.84,0,0,0,56.56,85.62Z"/><path class="cls-7" d="M58.4,82c0-.18.07-.18.37-.18V84a1.55,1.55,0,0,1,1.06-.34c.66,0,1.09.38,1.09,1.54,0,2.4-.93,2.68-1.59,2.68a1.48,1.48,0,0,1-.93-.24Zm.37,5.37a.86.86,0,0,0,.61.17c.44,0,1.14-.25,1.14-2.23,0-1-.27-1.32-.84-1.32a1.24,1.24,0,0,0-.91.35Z"/><path class="cls-7" d="M62.86,83.63c.83,0,1.26.44,1.26,2.11,0,1.44-.48,2.11-1.35,2.11s-1.26-.26-1.26-2.1C61.51,84.24,62,83.63,62.86,83.63Zm-.08,3.9c.58,0,.95-.52.95-1.81,0-1.45-.32-1.77-.88-1.77s-1,.44-1,1.84S62.21,87.53,62.78,87.53Z"/><path class="cls-7" d="M64.89,84A1.89,1.89,0,0,1,66,83.63c.39,0,.59.11.59.26a.54.54,0,0,1,0,.22A1,1,0,0,0,66,84a1.27,1.27,0,0,0-.77.25v3.44c0,.1,0,.1-.36.1Z"/><path class="cls-7" d="M69.25,87.21a.91.91,0,0,1,0,.26c0,.17-.52.38-1.1.38-.77,0-1.34-.24-1.34-1.88,0-2.12.79-2.34,1.45-2.34s1,.49,1,1.28a5.37,5.37,0,0,1-.07.94,11.12,11.12,0,0,1-2,.14c0,1.32.43,1.5,1,1.5A1.78,1.78,0,0,0,69.25,87.21Zm-2-1.54a8.25,8.25,0,0,0,1.71-.11A5.55,5.55,0,0,0,69,85c0-.68-.15-1-.68-1S67.3,84.11,67.23,85.67Z"/><path class="cls-7" d="M73.78,87.21a.91.91,0,0,1,0,.26c0,.17-.52.38-1.1.38-.77,0-1.34-.24-1.34-1.88,0-2.12.79-2.34,1.45-2.34s1,.49,1,1.28a5.37,5.37,0,0,1-.07.94,11.12,11.12,0,0,1-2,.14c0,1.32.42,1.5,1,1.5A1.81,1.81,0,0,0,73.78,87.21Zm-2-1.54a8.29,8.29,0,0,0,1.71-.11,5.55,5.55,0,0,0,0-.56c0-.68-.16-1-.68-1S71.83,84.11,71.76,85.67Z"/><path class="cls-7" d="M74.38,84c0-.29,0-.33.09-.33H75v-1.3c0-.17.06-.17.37-.17v1.47h1c0,.29,0,.33-.08.33h-.95v2.54c0,.54,0,.94.41.94a1,1,0,0,0,.53-.14.45.45,0,0,1,0,.2c0,.18-.32.27-.65.27-.66,0-.7-.54-.7-1.28V84Z"/><path class="cls-7" d="M80.47,82c0-.18.08-.18.36-.18v5.81a2.47,2.47,0,0,1-1.13.24c-.73,0-1.33-.2-1.33-2,0-1.54.63-2.21,1.4-2.21a1.11,1.11,0,0,1,.7.18Zm0,2.17a.83.83,0,0,0-.61-.19c-.6,0-1.1.53-1.1,1.85,0,1.52.4,1.7,1,1.7a1.43,1.43,0,0,0,.73-.17Z"/><path class="cls-7" d="M83,83.63c.83,0,1.26.44,1.26,2.11,0,1.44-.48,2.11-1.35,2.11s-1.26-.26-1.26-2.1C81.62,84.24,82.14,83.63,83,83.63Zm-.08,3.9c.58,0,1-.52,1-1.81,0-1.45-.32-1.77-.88-1.77s-1,.44-1,1.84S82.32,87.53,82.89,87.53Z"/><path class="cls-7" d="M85.38,87.67c0,.1,0,.1-.37.1V82c0-.18.09-.18.37-.18Z"/><path class="cls-7" d="M87.53,83.63c.82,0,1.26.44,1.26,2.11,0,1.44-.49,2.11-1.35,2.11s-1.27-.26-1.27-2.1C86.17,84.24,86.69,83.63,87.53,83.63Zm-.09,3.9c.58,0,1-.52,1-1.81,0-1.45-.33-1.77-.89-1.77s-1,.44-1,1.84S86.88,87.53,87.44,87.53Z"/><path class="cls-7" d="M89.55,84a1.89,1.89,0,0,1,1.08-.35c.39,0,.6.11.6.26a.55.55,0,0,1-.06.22,1,1,0,0,0-.49-.13,1.22,1.22,0,0,0-.76.25v3.44c0,.1,0,.1-.37.1Z"/><path class="cls-7" d="M93.91,87.21a.91.91,0,0,1,0,.26c0,.17-.51.38-1.1.38-.77,0-1.34-.24-1.34-1.88,0-2.12.8-2.34,1.46-2.34s1,.49,1,1.28a5.37,5.37,0,0,1-.07.94,11,11,0,0,1-2,.14c0,1.32.42,1.5,1,1.5A1.78,1.78,0,0,0,93.91,87.21Zm-2-1.54a8.25,8.25,0,0,0,1.71-.11,5.55,5.55,0,0,0,0-.56c0-.68-.15-1-.68-1S92,84.11,91.89,85.67Z"/><path class="cls-7" d="M96.21,83.89a3,3,0,0,1,1.2-.26c.43,0,.66.1.79.3a2,2,0,0,1,1-.3c.81,0,.91.42.91,1.19v2.85c0,.1,0,.1-.36.1v-3c0-.57-.09-.82-.59-.82a1.38,1.38,0,0,0-.83.25v3.46c0,.1,0,.1-.36.1v-3c0-.54,0-.81-.61-.81a1.94,1.94,0,0,0-.83.19v3.52c0,.1,0,.1-.37.1Z"/><path class="cls-7" d="M103.25,85.11c0,.93,0,1.81,0,2.44a1.91,1.91,0,0,1-1.09.3c-.58,0-1.17-.1-1.17-1.2s.62-1.32,1.26-1.32a2.38,2.38,0,0,1,.68.09v-.74c0-.58-.29-.7-.69-.7a3.06,3.06,0,0,0-1.2.21.39.39,0,0,1,0-.22c0-.06,0-.12,0-.14a3.35,3.35,0,0,1,1.28-.2c.64,0,1,.25,1,1Zm-1,.51c-.51,0-1,.09-1,1s.41.89.86.89a1.15,1.15,0,0,0,.67-.21c0-.36,0-1,0-1.61A1.9,1.9,0,0,0,102.3,85.62Z"/><path class="cls-7" d="M106.78,83.67a.3.3,0,0,1,0,.17c0,.1-.06.15-.17.15a4.77,4.77,0,0,1-.5,0,1.08,1.08,0,0,1,.51,1c0,.83-.38,1.53-1.32,1.53a1.75,1.75,0,0,1-.49-.07c-.2.15-.39.37-.39.52s.54.26,1.26.34,1.09.24,1.09.88-.51,1.19-1.58,1.19-1.29-.43-1.29-.86a1.47,1.47,0,0,1,.7-1c-.35-.09-.56-.23-.56-.42s.25-.5.51-.71a1.36,1.36,0,0,1-.51-1.25,1.29,1.29,0,0,1,1.33-1.46,2,2,0,0,1,.37,0Zm-.34,4.56c0-.47-.38-.56-.92-.61a4.6,4.6,0,0,1-.57-.08,1.37,1.37,0,0,0-.64.92c0,.32.16.57.94.57S106.44,88.62,106.44,88.23Zm-2-3.14c0,.59.12,1.12.92,1.12.64,0,.92-.6.92-1.28s-.34-1-.9-1S104.45,84.28,104.45,85.09Z"/><path class="cls-7" d="M107.42,83.91a3.68,3.68,0,0,1,1.33-.28c.89,0,1.1.37,1.1,1.12v2.92c0,.1,0,.1-.37.1V84.84c0-.6-.12-.88-.74-.88a2.39,2.39,0,0,0-.95.2v3.51c0,.1,0,.1-.37.1Z"/><path class="cls-7" d="M112.89,85.11c0,.93,0,1.81,0,2.44a1.88,1.88,0,0,1-1.09.3c-.58,0-1.17-.1-1.17-1.2s.63-1.32,1.26-1.32a2.33,2.33,0,0,1,.68.09v-.74c0-.58-.28-.7-.69-.7a3.1,3.1,0,0,0-1.2.21.49.49,0,0,1,0-.22.16.16,0,0,1,.06-.14,3.25,3.25,0,0,1,1.27-.2c.64,0,1,.25,1,1Zm-1,.51c-.51,0-1,.09-1,1s.41.89.87.89a1.11,1.11,0,0,0,.66-.21c0-.36,0-1,0-1.61A1.9,1.9,0,0,0,111.94,85.62Z"/><path class="cls-7" d="M117.36,85.11c0,.93,0,1.81,0,2.44a1.86,1.86,0,0,1-1.09.3c-.57,0-1.17-.1-1.17-1.2s.63-1.32,1.26-1.32a2.29,2.29,0,0,1,.68.09v-.74c0-.58-.28-.7-.69-.7a3.1,3.1,0,0,0-1.2.21.49.49,0,0,1,0-.22.16.16,0,0,1,.06-.14,3.31,3.31,0,0,1,1.28-.2c.64,0,1,.25,1,1Zm-.94.51c-.51,0-1,.09-1,1s.41.89.87.89a1.09,1.09,0,0,0,.66-.21c0-.36,0-1,0-1.61A1.84,1.84,0,0,0,116.42,85.62Z"/><path class="cls-7" d="M118.62,87.67c0,.1,0,.1-.37.1V82c0-.18.09-.18.37-.18Z"/><path class="cls-7" d="M119.82,82.26c.16,0,.22.1.22.29s-.07.36-.24.36-.21-.09-.21-.3S119.66,82.26,119.82,82.26Zm.18,5.41c0,.1,0,.1-.37.1V83.89c0-.18.07-.18.37-.18Z"/><path class="cls-7" d="M123.37,89.22c0,.14,0,.16-.23.16H123v-2a1.14,1.14,0,0,1-1,.45c-.49,0-1.19-.23-1.19-1.88s.67-2.34,1.63-2.34a1.42,1.42,0,0,1,.9.26ZM123,84.11a1,1,0,0,0-.6-.15c-.74,0-1.16.61-1.16,2s.56,1.54.93,1.54A.92.92,0,0,0,123,87Z"/><path class="cls-7" d="M126.81,87.58a3,3,0,0,1-1.24.27c-.95,0-1.19-.41-1.19-1.49V83.8c0-.09,0-.09.36-.09v2.7c0,.85.17,1.11.87,1.11a1.76,1.76,0,0,0,.83-.2V83.8c0-.09,0-.09.37-.09Z"/><path class="cls-7" d="M129.94,85.11c0,.93,0,1.81-.05,2.44a1.86,1.86,0,0,1-1.09.3c-.58,0-1.17-.1-1.17-1.2s.62-1.32,1.26-1.32a2.38,2.38,0,0,1,.68.09v-.74c0-.58-.28-.7-.69-.7a3.1,3.1,0,0,0-1.2.21.49.49,0,0,1-.05-.22.16.16,0,0,1,.06-.14,3.29,3.29,0,0,1,1.27-.2c.64,0,1,.25,1,1Zm-.94.51c-.52,0-1,.09-1,1s.41.89.87.89a1.11,1.11,0,0,0,.66-.21c0-.36,0-1,0-1.61A1.84,1.84,0,0,0,129,85.62Z"/><path class="cls-7" d="M131.08,87.15a.3.3,0,0,1,.31.33.3.3,0,0,1-.31.33c-.21,0-.3-.13-.3-.33A.3.3,0,0,1,131.08,87.15Z"/><path class="cls-7" d="M134.09,86c0,.81.1,1.5,1.09,1.5a2.64,2.64,0,0,0,1-.19V82.18c0-.1,0-.1.37-.1v5.5a3.2,3.2,0,0,1-1.37.27c-1.33,0-1.47-.87-1.47-1.86v-3.8c0-.11,0-.11.38-.11Z"/><path class="cls-7" d="M137.27,84c0-.29,0-.33.09-.33h.54v-1.3c0-.17.06-.17.36-.17v1.47h1c0,.29,0,.33-.08.33h-1v2.54c0,.54,0,.94.41.94a1,1,0,0,0,.54-.14.64.64,0,0,1,0,.2c0,.18-.32.27-.64.27-.67,0-.7-.54-.7-1.28V84Z"/><path class="cls-7" d="M143.64,87.21a.91.91,0,0,1,.05.26c0,.17-.51.38-1.1.38-.77,0-1.34-.24-1.34-1.88,0-2.12.8-2.34,1.45-2.34s1,.49,1,1.28a6.65,6.65,0,0,1-.06.94,11.17,11.17,0,0,1-2,.14c0,1.32.42,1.5,1,1.5A1.78,1.78,0,0,0,143.64,87.21Zm-2-1.54a8.25,8.25,0,0,0,1.71-.11,5.55,5.55,0,0,0,0-.56c0-.68-.15-1-.68-1S141.69,84.11,141.62,85.67Z"/><path class="cls-7" d="M144.48,83.91a3.62,3.62,0,0,1,1.32-.28c.89,0,1.11.37,1.11,1.12v2.92c0,.1,0,.1-.38.1V84.84c0-.6-.12-.88-.74-.88a2.39,2.39,0,0,0-.95.2v3.51c0,.1,0,.1-.36.1Z"/><path class="cls-7" d="M148.31,82.26c.15,0,.21.1.21.29s-.07.36-.24.36-.21-.09-.21-.3S148.14,82.26,148.31,82.26Zm.17,5.41c0,.1,0,.1-.37.1V83.89c0-.18.07-.18.37-.18Z"/><path class="cls-7" d="M149.52,83.89a2.91,2.91,0,0,1,1.19-.26c.43,0,.67.1.8.3a2,2,0,0,1,1.05-.3c.8,0,.91.42.91,1.19v2.85c0,.1,0,.1-.37.1v-3c0-.57-.09-.82-.58-.82a1.36,1.36,0,0,0-.83.25v3.46c0,.1,0,.1-.37.1v-3c0-.54,0-.81-.61-.81a1.94,1.94,0,0,0-.83.19v3.52c0,.1,0,.1-.36.1Z"/><path class="cls-7" d="M158,85.11c0,.93,0,1.81-.05,2.44a1.86,1.86,0,0,1-1.09.3c-.58,0-1.17-.1-1.17-1.2s.63-1.32,1.26-1.32a2.33,2.33,0,0,1,.68.09v-.74c0-.58-.28-.7-.69-.7a3.1,3.1,0,0,0-1.2.21.49.49,0,0,1-.05-.22.16.16,0,0,1,.06-.14,3.29,3.29,0,0,1,1.27-.2c.65,0,1,.25,1,1Zm-.94.51c-.52,0-1,.09-1,1s.41.89.87.89a1.09,1.09,0,0,0,.66-.21c0-.36,0-1,0-1.61A1.84,1.84,0,0,0,157.06,85.62Z"/><path class="cls-7" d="M160.84,82c0-.18.08-.18.37-.18v5.81a2.51,2.51,0,0,1-1.14.24c-.72,0-1.32-.2-1.32-2,0-1.54.63-2.21,1.4-2.21a1.06,1.06,0,0,1,.69.18Zm0,2.17a.8.8,0,0,0-.6-.19c-.6,0-1.1.53-1.1,1.85,0,1.52.4,1.7,1,1.7a1.39,1.39,0,0,0,.73-.17Z"/><path class="cls-7" d="M39.66,93.65a3,3,0,0,1,1.19-.27.89.89,0,0,1,.8.3,2.09,2.09,0,0,1,1.05-.3c.8,0,.91.43.91,1.2v2.85c0,.1,0,.1-.37.1v-3c0-.57-.09-.82-.58-.82a1.36,1.36,0,0,0-.83.25v3.46c0,.1,0,.1-.37.1v-3c0-.55,0-.81-.61-.81a1.92,1.92,0,0,0-.83.18v3.53c0,.1,0,.1-.36.1Z"/><path class="cls-7" d="M45.06,92c.15,0,.21.1.21.29s-.07.36-.24.36-.21-.09-.21-.3S44.9,92,45.06,92Zm.17,5.41c0,.1,0,.1-.37.1V93.65c0-.19.08-.19.37-.19Z"/><path class="cls-7" d="M46.25,93.67a3.45,3.45,0,0,1,1.33-.29c.88,0,1.1.38,1.1,1.13v2.92c0,.1,0,.1-.37.1V94.6c0-.61-.12-.88-.74-.88a2.39,2.39,0,0,0-1,.2v3.51c0,.1,0,.1-.37.1Z"/><path class="cls-7" d="M50.08,92c.16,0,.21.1.21.29s-.06.36-.23.36-.21-.09-.21-.3S49.92,92,50.08,92Zm.17,5.41c0,.1,0,.1-.36.1V93.65c0-.19.07-.19.36-.19Z"/><path class="cls-7" d="M51.29,93.65a3,3,0,0,1,1.2-.27.86.86,0,0,1,.79.3,2.09,2.09,0,0,1,1-.3c.81,0,.91.43.91,1.2v2.85c0,.1,0,.1-.36.1v-3c0-.57-.09-.82-.59-.82a1.38,1.38,0,0,0-.83.25v3.46c0,.1,0,.1-.36.1v-3c0-.55,0-.81-.61-.81a1.92,1.92,0,0,0-.83.18v3.53c0,.1,0,.1-.37.1Z"/><path class="cls-7" d="M57.38,93.59c0-.13,0-.13.36-.13l.39,1.46c.28,1,.51,2.18.51,2.18h0s.22-1.17.48-2.19l.35-1.34c0-.11,0-.11.38-.11l-1.08,4.12h-.23c-.06,0-.12-.16-.18-.4Z"/><path class="cls-7" d="M62.65,97a.91.91,0,0,1,.05.26c0,.17-.51.38-1.1.38-.77,0-1.34-.24-1.34-1.89,0-2.11.8-2.34,1.46-2.34s1,.5,1,1.29a5.44,5.44,0,0,1-.06.94,11.12,11.12,0,0,1-2,.14c0,1.32.42,1.5,1,1.5A1.76,1.76,0,0,0,62.65,97Zm-2-1.54a8.2,8.2,0,0,0,1.7-.11,3.87,3.87,0,0,0,0-.56c0-.68-.16-1-.69-1S60.7,93.87,60.64,95.43Z"/><path class="cls-7" d="M63.49,93.67a3.45,3.45,0,0,1,1.33-.29c.88,0,1.1.38,1.1,1.13v2.92c0,.1,0,.1-.37.1V94.6c0-.61-.13-.88-.74-.88a2.35,2.35,0,0,0-1,.2v3.51c0,.1,0,.1-.37.1Z"/><path class="cls-7" d="M67.32,92c.16,0,.21.1.21.29s-.06.36-.23.36-.22-.09-.22-.3S67.16,92,67.32,92Zm.17,5.41c0,.1,0,.1-.36.1V93.65c0-.19.07-.19.36-.19Z"/><path class="cls-7" d="M70.62,94.87c0,.93,0,1.8-.05,2.44a1.93,1.93,0,0,1-1.09.3c-.57,0-1.17-.1-1.17-1.2s.63-1.32,1.26-1.32a2,2,0,0,1,.68.09v-.74c0-.59-.28-.7-.69-.7a3.35,3.35,0,0,0-1.2.2.43.43,0,0,1,0-.21.16.16,0,0,1,.06-.14,3.26,3.26,0,0,1,1.28-.21c.64,0,1,.25,1,1Zm-.94.51c-.51,0-1,.09-1,1s.4.88.86.88a1.09,1.09,0,0,0,.66-.2c0-.36,0-1.06,0-1.62A2.18,2.18,0,0,0,69.68,95.38Z"/><path class="cls-7" d="M71.51,93.65a3,3,0,0,1,1.2-.27.89.89,0,0,1,.8.3,2.06,2.06,0,0,1,1-.3c.8,0,.91.43.91,1.2v2.85c0,.1,0,.1-.37.1v-3c0-.57-.09-.82-.59-.82a1.35,1.35,0,0,0-.82.25v3.46c0,.1,0,.1-.37.1v-3c0-.55,0-.81-.61-.81a1.92,1.92,0,0,0-.83.18v3.53c0,.1,0,.1-.37.1Z"/><path class="cls-7" d="M76.69,96.91c.18,0,.29.08.29.36a1.69,1.69,0,0,1-.51,1.16.18.18,0,0,1-.16-.13,1.6,1.6,0,0,0,.25-.8.31.31,0,0,1-.15-.29A.28.28,0,0,1,76.69,96.91Z"/><path class="cls-7" d="M81.69,99c0,.14,0,.16-.23.16h-.14v-2a1.12,1.12,0,0,1-1,.46c-.49,0-1.19-.23-1.19-1.89s.67-2.34,1.63-2.34a1.43,1.43,0,0,1,.9.26Zm-.37-5.11a1,1,0,0,0-.6-.15c-.74,0-1.16.61-1.16,2s.56,1.54.93,1.54a.92.92,0,0,0,.83-.56Z"/><path class="cls-7" d="M85.13,97.33a2.91,2.91,0,0,1-1.24.28c-1,0-1.19-.42-1.19-1.5V93.56c0-.1,0-.1.36-.1v2.71c0,.85.17,1.11.87,1.11a1.76,1.76,0,0,0,.83-.2V93.56c0-.1,0-.1.37-.1Z"/><path class="cls-7" d="M86.33,92c.16,0,.21.1.21.29s-.06.36-.23.36-.22-.09-.22-.3S86.17,92,86.33,92Zm.17,5.41c0,.1,0,.1-.36.1V93.65c0-.19.07-.19.36-.19Z"/><path class="cls-7" d="M87.93,95.15c-.47-.31-.55-.56-.55-.86,0-.57.52-.91,1.31-.91s1,.27,1,.39a.34.34,0,0,1-.1.21,1.68,1.68,0,0,0-.92-.26c-.54,0-.94.2-.94.57,0,.21.07.37.43.6l.93.62a1.22,1.22,0,0,1,.57,1c0,.71-.49,1.08-1.32,1.08-.64,0-1-.15-1-.33a.31.31,0,0,1,.09-.23,1.63,1.63,0,0,0,.92.22c.58,0,1-.21,1-.68a1,1,0,0,0-.5-.85Z"/><path class="cls-7" d="M92,93.67a3.44,3.44,0,0,1,1.32-.29c.89,0,1.11.38,1.11,1.13v2.92c0,.1,0,.1-.38.1V94.6c0-.61-.12-.88-.73-.88a2.4,2.4,0,0,0-1,.2v3.51c0,.1,0,.1-.36.1Z"/><path class="cls-7" d="M96.56,93.38c.83,0,1.26.45,1.26,2.12,0,1.44-.49,2.11-1.35,2.11s-1.27-.26-1.27-2.11C95.2,94,95.72,93.38,96.56,93.38Zm-.08,3.9c.58,0,1-.52,1-1.8,0-1.45-.33-1.77-.89-1.77s-1,.44-1,1.83S95.91,97.28,96.48,97.28Z"/><path class="cls-7" d="M99,95.15c-.47-.31-.55-.56-.55-.86,0-.57.52-.91,1.31-.91s1,.27,1,.39a.34.34,0,0,1-.1.21,1.68,1.68,0,0,0-.92-.26c-.54,0-.94.2-.94.57,0,.21.07.37.43.6l.93.62a1.25,1.25,0,0,1,.57,1c0,.71-.49,1.08-1.32,1.08-.65,0-1-.15-1-.33a.31.31,0,0,1,.09-.23,1.63,1.63,0,0,0,.92.22c.58,0,1-.21,1-.68a1,1,0,0,0-.49-.85Z"/><path class="cls-7" d="M101.42,93.8c0-.3,0-.34.08-.34H102v-1.3c0-.16.06-.16.37-.16v1.46h1c0,.3,0,.34-.08.34h-1v2.54c0,.54,0,.94.4.94a1,1,0,0,0,.54-.14.64.64,0,0,1,0,.2c0,.18-.32.27-.64.27-.67,0-.7-.55-.7-1.28V93.8Z"/><path class="cls-7" d="M104.09,93.74a1.91,1.91,0,0,1,1.08-.36c.39,0,.59.12.59.26a.59.59,0,0,1-.05.23,1,1,0,0,0-.49-.13,1.22,1.22,0,0,0-.77.24v3.45c0,.1,0,.1-.36.1Z"/><path class="cls-7" d="M108.83,97.33a2.91,2.91,0,0,1-1.24.28c-1,0-1.19-.42-1.19-1.5V93.56c0-.1,0-.1.36-.1v2.71c0,.85.17,1.11.87,1.11a1.76,1.76,0,0,0,.83-.2V93.56c0-.1,0-.1.37-.1Z"/><path class="cls-7" d="M111.78,91.74c0-.19.08-.19.37-.19v5.82a2.65,2.65,0,0,1-1.14.24c-.73,0-1.33-.2-1.33-2,0-1.53.64-2.21,1.4-2.21a1.11,1.11,0,0,1,.7.19Zm0,2.16a.83.83,0,0,0-.61-.18c-.59,0-1.1.52-1.1,1.85,0,1.52.4,1.7,1,1.7a1.41,1.41,0,0,0,.73-.17Z"/><path class="cls-7" d="M116.81,97a.66.66,0,0,1,0,.26c0,.17-.51.38-1.09.38-.78,0-1.35-.24-1.35-1.89,0-2.11.8-2.34,1.46-2.34s1,.5,1,1.29a5.37,5.37,0,0,1-.07.94,11.12,11.12,0,0,1-2,.14c0,1.32.42,1.5,1,1.5A1.75,1.75,0,0,0,116.81,97Zm-2-1.54a8.2,8.2,0,0,0,1.7-.11,3.87,3.87,0,0,0,0-.56c0-.68-.16-1-.69-1S114.86,93.87,114.8,95.43Z"/><path class="cls-7" d="M120.64,97.42s0,0,0,.07-.09,0-.42,0l-.47-.7c-.28-.44-.61-1-.74-1.19-.13.21-.46.76-.75,1.2l-.4.61c0,.08-.09.08-.45.08l1.39-2.15-1.18-1.85c-.05-.06,0-.07.37-.07l.45.69c.23.35.52.82.61,1,.09-.16.38-.63.62-1l.4-.61c0-.07,0-.07.44-.07l-1.24,1.91Z"/><path class="cls-7" d="M123.53,97a.91.91,0,0,1,0,.26c0,.17-.51.38-1.1.38-.77,0-1.34-.24-1.34-1.89,0-2.11.8-2.34,1.46-2.34s1,.5,1,1.29a6.65,6.65,0,0,1-.06.94,11.12,11.12,0,0,1-2,.14c0,1.32.42,1.5,1,1.5A1.78,1.78,0,0,0,123.53,97Zm-2-1.54a8.25,8.25,0,0,0,1.71-.11,3.76,3.76,0,0,0,0-.56c0-.68-.15-1-.68-1S121.58,93.87,121.51,95.43Z"/><path class="cls-7" d="M124.37,93.74a1.91,1.91,0,0,1,1.08-.36c.39,0,.59.12.59.26a.59.59,0,0,1-.05.23,1,1,0,0,0-.49-.13,1.17,1.17,0,0,0-.76.24v3.45c0,.1,0,.1-.37.1Z"/><path class="cls-7" d="M128.45,93.92a1.09,1.09,0,0,0-.65-.2c-.47,0-1.07.19-1.07,1.89,0,1.4.37,1.67.94,1.67a1.18,1.18,0,0,0,.79-.28.64.64,0,0,1,0,.23c0,.16-.39.38-.94.38-.71,0-1.22-.27-1.22-2,0-2,.82-2.21,1.48-2.21.35,0,.68.15.68.31A.56.56,0,0,1,128.45,93.92Z"/><path class="cls-7" d="M129.45,92c.15,0,.21.1.21.29s-.06.36-.24.36-.21-.09-.21-.3S129.29,92,129.45,92Zm.17,5.41c0,.1,0,.1-.37.1V93.65c0-.19.08-.19.37-.19Z"/><path class="cls-7" d="M130.37,93.8c0-.3,0-.34.09-.34H131v-1.3c0-.16.05-.16.36-.16v1.46h1c0,.3,0,.34-.08.34h-.95v2.54c0,.54,0,.94.41.94a1,1,0,0,0,.53-.14.44.44,0,0,1,0,.2c0,.18-.31.27-.64.27-.66,0-.69-.55-.69-1.28V93.8Z"/><path class="cls-7" d="M135.17,94.87c0,.93,0,1.8,0,2.44a1.92,1.92,0,0,1-1.08.3c-.58,0-1.17-.1-1.17-1.2s.62-1.32,1.26-1.32a2.08,2.08,0,0,1,.68.09v-.74c0-.59-.29-.7-.69-.7a3.31,3.31,0,0,0-1.2.2.34.34,0,0,1,0-.21c0-.06,0-.12,0-.14a3.26,3.26,0,0,1,1.28-.21c.64,0,1,.25,1,1Zm-.94.51c-.51,0-1,.09-1,1s.41.88.86.88a1.15,1.15,0,0,0,.67-.2c0-.36,0-1.06,0-1.62A2.25,2.25,0,0,0,134.23,95.38Z"/><path class="cls-7" d="M135.8,93.8c0-.3,0-.34.09-.34h.54v-1.3c0-.16,0-.16.36-.16v1.46h1c0,.3,0,.34-.08.34h-1v2.54c0,.54,0,.94.41.94a1.06,1.06,0,0,0,.54-.14.64.64,0,0,1,0,.2c0,.18-.32.27-.65.27-.66,0-.69-.55-.69-1.28V93.8Z"/><path class="cls-7" d="M138.69,92c.16,0,.22.1.22.29s-.07.36-.24.36-.21-.09-.21-.3S138.53,92,138.69,92Zm.18,5.41c0,.1,0,.1-.37.1V93.65c0-.19.07-.19.37-.19Z"/><path class="cls-7" d="M141,93.38c.83,0,1.26.45,1.26,2.12,0,1.44-.49,2.11-1.35,2.11s-1.27-.26-1.27-2.11C139.65,94,140.17,93.38,141,93.38Zm-.08,3.9c.58,0,.95-.52.95-1.8,0-1.45-.32-1.77-.88-1.77s-1,.44-1,1.83S140.36,97.28,140.93,97.28Z"/><path class="cls-7" d="M143,93.67a3.4,3.4,0,0,1,1.32-.29c.89,0,1.11.38,1.11,1.13v2.92c0,.1,0,.1-.38.1V94.6c0-.61-.12-.88-.74-.88a2.39,2.39,0,0,0-.95.2v3.51c0,.1,0,.1-.36.1Z"/><path class="cls-7" d="M150.26,97.33a2.83,2.83,0,0,1-1.23.28c-.95,0-1.2-.42-1.2-1.5V93.56c0-.1,0-.1.37-.1v2.71c0,.85.17,1.11.87,1.11a1.78,1.78,0,0,0,.83-.2V93.56c0-.1,0-.1.36-.1Z"/><path class="cls-7" d="M151.63,97.43c0,.1,0,.1-.36.1V91.74c0-.19.08-.19.36-.19Z"/><path class="cls-7" d="M153,97.43c0,.1,0,.1-.37.1V91.74c0-.19.08-.19.37-.19Z"/><path class="cls-7" d="M156.13,94.87c0,.93,0,1.8,0,2.44a1.93,1.93,0,0,1-1.09.3c-.58,0-1.17-.1-1.17-1.2s.62-1.32,1.26-1.32a2.08,2.08,0,0,1,.68.09v-.74c0-.59-.28-.7-.69-.7a3.35,3.35,0,0,0-1.2.2.43.43,0,0,1-.05-.21c0-.06,0-.12.06-.14a3.24,3.24,0,0,1,1.27-.21c.64,0,1,.25,1,1Zm-.95.51c-.51,0-1,.09-1,1s.41.88.86.88a1.13,1.13,0,0,0,.67-.2c0-.36,0-1.06,0-1.62A2.25,2.25,0,0,0,155.18,95.38Z"/><path class="cls-7" d="M157,93.65a3,3,0,0,1,1.2-.27.86.86,0,0,1,.79.3,2.09,2.09,0,0,1,1.05-.3c.81,0,.91.43.91,1.2v2.85c0,.1,0,.1-.36.1v-3c0-.57-.09-.82-.59-.82a1.38,1.38,0,0,0-.83.25v3.46c0,.1,0,.1-.36.1v-3c0-.55,0-.81-.61-.81a1.92,1.92,0,0,0-.83.18v3.53c0,.1,0,.1-.37.1Z"/><path class="cls-7" d="M164,93.92a1.09,1.09,0,0,0-.65-.2c-.48,0-1.07.19-1.07,1.89,0,1.4.37,1.67.94,1.67A1.2,1.2,0,0,0,164,97a.62.62,0,0,1,0,.23c0,.16-.38.38-.93.38-.71,0-1.22-.27-1.22-2,0-2,.81-2.21,1.47-2.21.36,0,.68.15.68.31A.53.53,0,0,1,164,93.92Z"/><path class="cls-7" d="M165.76,93.38c.83,0,1.26.45,1.26,2.12,0,1.44-.49,2.11-1.35,2.11s-1.26-.26-1.26-2.11C164.41,94,164.92,93.38,165.76,93.38Zm-.08,3.9c.58,0,.95-.52.95-1.8,0-1.45-.32-1.77-.88-1.77s-.95.44-.95,1.83S165.11,97.28,165.68,97.28Z"/><path class="cls-7" d="M168,96.91a.3.3,0,0,1,.31.33.31.31,0,0,1-.31.33c-.21,0-.3-.13-.3-.33A.3.3,0,0,1,168,96.91Z"/><path class="cls-7" d="M135.68,126.86h-2.5a.62.62,0,0,1-.62-.62.62.62,0,0,1,.62-.62h2.5a.62.62,0,0,1,.62.62A.62.62,0,0,1,135.68,126.86Zm-5,0H128.2a.63.63,0,0,1-.63-.62.62.62,0,0,1,.63-.62h2.49a.62.62,0,0,1,.62.62A.62.62,0,0,1,130.69,126.86Zm-5,0h-2.49a.63.63,0,0,1-.63-.62.62.62,0,0,1,.63-.62h2.49a.62.62,0,0,1,.63.62A.63.63,0,0,1,125.7,126.86Zm-5,0h-2.49a.63.63,0,0,1-.63-.62.62.62,0,0,1,.63-.62h2.49a.62.62,0,0,1,.63.62A.63.63,0,0,1,120.71,126.86Zm-5,0h-2.49a.62.62,0,0,1-.62-.62.62.62,0,0,1,.62-.62h2.49a.62.62,0,0,1,.63.62A.63.63,0,0,1,115.72,126.86Zm-5,0h-2.5a.62.62,0,0,1-.62-.62.62.62,0,0,1,.62-.62h2.5a.62.62,0,0,1,.62.62A.62.62,0,0,1,110.74,126.86Zm-5,0h-2.5a.62.62,0,0,1-.62-.62.62.62,0,0,1,.62-.62h2.5a.62.62,0,0,1,.62.62A.62.62,0,0,1,105.75,126.86Zm-5,0H98.27a.63.63,0,0,1-.63-.62.62.62,0,0,1,.63-.62h2.49a.62.62,0,0,1,.62.62A.62.62,0,0,1,100.76,126.86Zm-5,0H93.28a.63.63,0,0,1-.63-.62.62.62,0,0,1,.63-.62h2.49a.61.61,0,0,1,.62.62A.62.62,0,0,1,95.77,126.86Zm-5,0H88.29a.62.62,0,0,1-.62-.62.61.61,0,0,1,.62-.62h2.49a.62.62,0,0,1,.63.62A.63.63,0,0,1,90.78,126.86Zm47.26-.31a.62.62,0,0,1-.44-.18.64.64,0,0,1,0-.89l1.76-1.76a.64.64,0,0,1,.89,0,.63.63,0,0,1,0,.88l-1.77,1.77A.62.62,0,0,1,138,126.55Zm3.53-3.53a.62.62,0,0,1-.44-.18.61.61,0,0,1,0-.88l1.76-1.77a.63.63,0,0,1,.88,0,.61.61,0,0,1,0,.88L142,122.84A.62.62,0,0,1,141.57,123Zm3.53-3.53a.62.62,0,0,1-.44-.18.61.61,0,0,1,0-.88l1.76-1.76a.61.61,0,0,1,.88,0,.63.63,0,0,1,0,.88l-1.76,1.76A.62.62,0,0,1,145.1,119.49Zm2.36-4a.62.62,0,0,1-.62-.62v-2.49a.62.62,0,1,1,1.24,0v2.49A.62.62,0,0,1,147.46,115.48Zm-1.3-3.68h-2.5a.63.63,0,0,1,0-1.25h2.5a.63.63,0,0,1,0,1.25Zm-5,0h-2.5a.63.63,0,0,1,0-1.25h2.5a.63.63,0,0,1,0,1.25Zm-5,0h-2.5a.63.63,0,0,1,0-1.25h2.5a.63.63,0,0,1,0,1.25Z"/><path class="cls-7" d="M85.75,126.86H59.9v-8.27l8-8h63a.63.63,0,1,1,0,1.25H68.45l-7.3,7.31v6.51h24.6a.62.62,0,0,1,.63.62A.63.63,0,0,1,85.75,126.86Z"/><path class="cls-7" d="M79.45,115.68h1.16v4.57c0,.44.27.43.51.43h2.09v1.07h-2.5c-.66,0-1.26-.24-1.26-1.18Z"/><path class="cls-7" d="M83.9,116.94a1.16,1.16,0,0,1,1.32-1.26s2.14.06,2.67.13v1h-2.4c-.43,0-.43.24-.43.47v1l2.45.08v1l-2.45.08v.94c0,.44.27.44.51.44h2.32v1c-.47.06-2.59.14-2.59.14-.54,0-1.4-.1-1.4-1.22Z"/><path class="cls-7" d="M90.45,115.68h1.32l2,6.07H92.51l-.43-1.34h-2l-.44,1.34H88.4Zm1.35,3.7-.68-2.17-.73,2.17Z"/><path class="cls-7" d="M94.29,115.68h2.65c1,0,1.66.44,1.66,1.89s-.63,1.69-1,1.79l1.15,2.39H97.47l-1-2.29-1-.12v2.41H94.29Zm2.54,2.75c.4,0,.6-.12.6-.86s-.23-.86-.6-.86H95.45v1.72Z"/><path class="cls-7" d="M99.4,115.68h1.18l2.41,3.93v-3.93h1.16v6.07H103l-2.42-3.88v3.88H99.4Z"/><path class="cls-7" d="M107.48,115.68h1.61l1,4.15,1-4.15h1.61l.57,6.07h-1.15l-.39-4-1,4h-1.29l-1-4-.36,4h-1.15Z"/><path class="cls-7" d="M116.31,115.64c1.44,0,2.44.27,2.44,3.12,0,2.68-.94,3-2.44,3s-2.44-.27-2.44-3S114.92,115.64,116.31,115.64Zm0,5.08c1,0,1.28-.32,1.28-2,0-1.89-.35-2.05-1.28-2.05s-1.28.11-1.28,2.05C115,120.42,115.28,120.72,116.31,120.72Z"/><path class="cls-7" d="M119.45,115.68h2.66c1,0,1.65.44,1.65,1.89s-.63,1.69-1,1.79l1.15,2.39h-1.3l-1-2.29-1-.12v2.41h-1.16Zm2.54,2.75c.41,0,.6-.12.6-.86s-.23-.86-.6-.86h-1.37v1.72Z"/><path class="cls-7" d="M124.54,116.94a1.16,1.16,0,0,1,1.32-1.26s2.14.06,2.67.13v1h-2.4c-.43,0-.43.24-.43.47v1l2.46.08v1l-2.46.08v.94c0,.44.28.44.52.44h2.31v1c-.47.06-2.59.14-2.59.14-.54,0-1.4-.1-1.4-1.22Z"/><path class="cls-7" d="M77,27.68c2.31,0,3.92.44,3.92,5,0,4.3-1.52,4.84-3.92,4.85s-3.91-.42-3.91-4.85S74.74,27.68,77,27.68Zm0,8.15c1.57,0,2.06-.52,2.06-3.14,0-3-.58-3.29-2.06-3.29s-2,.19-2,3.29C75,35.35,75.34,35.83,77,35.83Zm.49,2.1c.41.71,1.37.59,2.16.38v1.5c-1.34.3-3.12-.17-3.22-1.88Z"/><path class="cls-7" d="M82.17,27.75H84v5.48c0,2.23.49,2.61,1.88,2.61s1.82-.46,1.82-2.61V27.75h1.87v5.48c0,4.3-2.07,4.33-3.69,4.33-1.81,0-3.75.11-3.75-4.33Z"/><path class="cls-7" d="M93.34,27.75h2.12l3.16,9.74h-2L96,35.33H92.76l-.71,2.16h-2Zm2.17,5.93-1.1-3.48-1.17,3.48Z"/><path class="cls-7" d="M99.61,27.75h1.89L105.37,34V27.75h1.86v9.74h-1.86l-3.88-6.22v6.22H99.61Z"/><path class="cls-7" d="M108.24,27.75h7.2v1.71h-2.7v8h-1.87v-8h-2.63Z"/><path class="cls-7" d="M116.52,27.75h1.87v5.48c0,2.23.49,2.61,1.89,2.61,1.24,0,1.81-.46,1.81-2.61V27.75H124v5.48c0,4.3-2.08,4.33-3.69,4.33-1.81,0-3.76.11-3.76-4.33Z"/><path class="cls-7" d="M125.57,27.75h2.58l1.63,6.65,1.61-6.65H134l.92,9.74h-1.84l-.64-6.5-1.57,6.5h-2.08L127.12,31l-.57,6.5h-1.84Z"/><path class="cls-7" d="M78.87,42.54h4.19c1.22,0,2.7.38,2.7,3,0,3-1.58,3.19-2.7,3.14-.53,0-2.26-.23-2.33-.27v3.87H78.87Zm4,4.5c.59,0,1-.31,1-1.48s-.51-1.37-1-1.37H80.73V47Z"/><path class="cls-7" d="M87,42.54h1.86v4.17h3.34V42.54h1.87v9.74H92.21V48.43H88.87v3.85H87Z"/><path class="cls-7" d="M97.14,42.54,99,47.21l2.08-4.67h2L100,49.26v3H98.08v-3l-3-6.72Z"/><path class="cls-7" d="M103.65,45c0-1.93,1.14-2.49,2.64-2.51a14.64,14.64,0,0,1,3.76.38v1.47c-.85-.08-2.77-.14-3.25-.14-.82,0-1.29,0-1.29.95v.47c0,.78.3.94,1,.94h1.54c1.91,0,2.31,1.51,2.31,2.59v.64c0,2.22-1.38,2.63-2.7,2.63A12.86,12.86,0,0,1,104,52V50.52c.53.06,2.15.15,3.39.15.56,0,1.2-.09,1.2-.84v-.52c0-.56-.17-.91-.88-.91h-1.49a2.28,2.28,0,0,1-2.52-2.59Z"/><path class="cls-7" d="M111.65,42.54h1.86v9.74h-1.86Z"/><path class="cls-7" d="M118,42.43a11.24,11.24,0,0,1,3.39.44v1.46s-1.65-.18-3-.18-1.89.31-1.89,3.26c0,2.18.36,3.23,1.9,3.23,1.39,0,2.94-.1,2.94-.1V52a11.55,11.55,0,0,1-3.39.36c-2.46,0-3.32-1.89-3.32-5S115.32,42.43,118,42.43Z"/><path class="cls-7" d="M122.36,45c0-1.93,1.14-2.49,2.63-2.51a14.72,14.72,0,0,1,3.77.38v1.47c-.85-.08-2.77-.14-3.26-.14-.81,0-1.28,0-1.28.95v.47c0,.78.3.94,1,.94h1.54c1.91,0,2.3,1.51,2.3,2.59v.64c0,2.22-1.38,2.63-2.69,2.63a12.78,12.78,0,0,1-3.76-.4V50.52c.53.06,2.15.15,3.39.15.56,0,1.2-.09,1.2-.84v-.52c0-.56-.17-.91-.88-.91h-1.5a2.28,2.28,0,0,1-2.51-2.59Z"/></g></g></g></svg>