<svg xmlns="http://www.w3.org/2000/svg" viewBox="0 0 595.28 226.81"><defs><style>.cls-1{isolation:isolate;}.cls-2{fill:#6dc6c7;}.cls-3{opacity:0.75;}.cls-4,.cls-6,.cls-8{fill:#fff;}.cls-4{opacity:0.18;}.cls-33,.cls-5{fill:#ebf1f2;}.cls-7{fill:#f3f3f3;}.cls-8{opacity:0.89;}.cls-9{fill:#51484c;}.cls-10{fill:#e5e5e5;}.cls-11{fill:#fbd019;}.cls-12{fill:#e5dac5;}.cls-12,.cls-20,.cls-21,.cls-24,.cls-30,.cls-31{mix-blend-mode:multiply;}.cls-13{fill:#75516c;}.cls-14{fill:#f3c21a;}.cls-15{fill:#593f53;}.cls-16{fill:#f4d916;}.cls-17{fill:#bfbebe;}.cls-18{fill:#d37328;}.cls-19{fill:#dcdbdb;}.cls-20{fill:#b8cfcf;}.cls-21{fill:#b4b4b4;opacity:0.71;}.cls-22{fill:#f1f0f0;}.cls-23{fill:#74a9be;}.cls-24{fill:#bdc6c7;}.cls-25{fill:#e5ad29;}.cls-26{opacity:0.28;}.cls-27,.cls-29{fill:#bbb;}.cls-28{fill:#d3d2d1;}.cls-29{opacity:0.39;}.cls-30,.cls-31{fill:#c5cecc;}.cls-31{opacity:0.4;}.cls-32{fill:#f7fcfd;}.cls-33{opacity:0.82;}.cls-34{fill:#f1aa1e;}.cls-35{fill:#984433;}.cls-36{fill:#eca621;}.cls-37{fill:#aad037;}.cls-38{fill:#f4e010;}.cls-39{fill:#31ac9b;}</style></defs><g class="cls-1"><g id="Layer_2" data-name="Layer 2"><g id="Layer_1-2" data-name="Layer 1"><rect class="cls-2" width="595.28" height="226.81"/><g class="cls-3"><polygon class="cls-4" points="477.28 211.22 399.67 211.22 214.9 0 292.5 0 477.28 211.22"/><polygon class="cls-4" points="526.22 211.22 494.93 211.22 310.14 0 341.45 0 526.22 211.22"/><polygon class="cls-4" points="594.79 211.22 549.6 211.22 364.81 0 410.01 0 594.79 211.22"/></g><path class="cls-5" d="M549.84,142.59c0,5.12-3.62,9.26-8.1,9.26h-23.4c-3.51,0-6.36-3.26-6.36-7.28s2.85-7.28,6.36-7.28a5.66,5.66,0,0,1,2.25.47c1.25-4.21,4.73-7.23,8.83-7.23a9,9,0,0,1,7.63,4.52,7.38,7.38,0,0,1,4.69-1.72C546.22,133.33,549.84,137.48,549.84,142.59Z"/><path class="cls-6" d="M380.52,45.41c0,9,6.37,16.27,14.24,16.27h41.09C442,61.68,447,56,447,48.9s-5-12.79-11.18-12.79a9.9,9.9,0,0,0-4,.82c-2.19-7.38-8.3-12.7-15.51-12.7a15.87,15.87,0,0,0-13.39,8,12.92,12.92,0,0,0-8.24-3C386.89,29.16,380.52,36.44,380.52,45.41Z"/><path class="cls-7" d="M328.75,148.58c0,4.39,3.11,7.94,6.95,7.94h20.06c3,0,5.46-2.8,5.46-6.24s-2.45-6.24-5.46-6.24a4.83,4.83,0,0,0-1.93.4c-1.07-3.61-4.05-6.2-7.57-6.2a7.73,7.73,0,0,0-6.54,3.88,6.32,6.32,0,0,0-4-1.48C331.86,140.64,328.75,144.2,328.75,148.58Z"/><path class="cls-7" d="M380.62,88.52c0,4.39,3.11,8,6.95,8h20.06c3,0,5.46-2.8,5.46-6.24S410.65,84,407.63,84a4.83,4.83,0,0,0-1.93.4c-1.06-3.6-4.05-6.2-7.57-6.2a7.77,7.77,0,0,0-6.54,3.88,6.29,6.29,0,0,0-4-1.47C383.73,80.59,380.62,84.14,380.62,88.52Z"/><path class="cls-8" d="M542.08,61.31c0,9.64-6.83,17.46-15.26,17.46h-44.1c-6.62,0-12-6.15-12-13.72s5.38-13.72,12-13.72a10.62,10.62,0,0,1,4.24.88c2.34-7.93,8.91-13.62,16.63-13.62,6,0,11.2,3.37,14.38,8.52a13.93,13.93,0,0,1,8.85-3.24C535.25,43.87,542.08,51.68,542.08,61.31Z"/><path class="cls-9" d="M460.39,126.1c-3.24,9.67-11.44,16.53-21.07,16.53s-17.81-6.86-21.07-16.53Z"/><path class="cls-10" d="M460.39,122.69a.76.76,0,0,1-.67-.47l-20.4-44.46-20.39,44.46a.72.72,0,0,1-1,.37.92.92,0,0,1-.32-1.17l21.07-45.94a.74.74,0,0,1,1.35,0l21.06,45.94a.92.92,0,0,1-.31,1.17A.7.7,0,0,1,460.39,122.69Z"/><path class="cls-10" d="M439.32,124.83a.82.82,0,0,1-.76-.87V75.88a.77.77,0,1,1,1.53,0V124A.83.83,0,0,1,439.32,124.83Z"/><rect class="cls-11" x="415.25" y="121.82" width="48.14" height="4.28"/><path class="cls-12" d="M463.39,121.82v4.28h-3c-3.24,9.68-11.44,16.53-21.07,16.53V121.82Z"/><path class="cls-13" d="M564.61,126.1c-3.24,9.67-11.44,16.53-21.07,16.53s-17.81-6.86-21.06-16.53Z"/><path class="cls-10" d="M564.61,122.69a.74.74,0,0,1-.67-.47l-20.4-44.46-20.4,44.46a.71.71,0,0,1-1,.37.93.93,0,0,1-.32-1.17l21.07-45.94a.74.74,0,0,1,1.35,0l21.07,45.94a.94.94,0,0,1-.32,1.17A.7.7,0,0,1,564.61,122.69Z"/><path class="cls-10" d="M543.54,124.83a.82.82,0,0,1-.76-.87V75.88a.77.77,0,1,1,1.52,0V124A.81.81,0,0,1,543.54,124.83Z"/><rect class="cls-11" x="519.47" y="121.82" width="48.15" height="4.28"/><path class="cls-12" d="M567.61,121.82v4.28h-3c-3.24,9.68-11.44,16.53-21.07,16.53V121.82Z"/><path class="cls-13" d="M491.21,61.23v8.88c-7.87.18-16.77,5.09-23.87,9.56a25.08,25.08,0,0,1-15.13,3.85c-5.89-.66-11.74-4-17.51-8.12v-5c5.77,4.15,10.62,6.59,17.18,6.86,5.85.24,10.61-3.08,15.46-6.5C474.3,65.93,483.34,61.41,491.21,61.23Z"/><path class="cls-14" d="M439.32,72.43c0,2.79-2,5.06-4.42,5.06s-4.42-2.27-4.42-5.06,2-5.06,4.42-5.06S439.32,69.63,439.32,72.43Z"/><path class="cls-13" d="M491.21,61.23v8.88c7.87.18,16.77,5.09,23.87,9.56a25.11,25.11,0,0,0,15.14,3.85c5.88-.66,11.74-4,17.5-8.12v-5C542,74.59,537.1,77,530.54,77.3c-5.85.24-10.61-3.08-15.46-6.5C508.13,65.93,499.08,61.41,491.21,61.23Z"/><path class="cls-14" d="M543.54,72.43c0,2.79,2,5.06,4.43,5.06s4.42-2.27,4.42-5.06-2-5.06-4.42-5.06S543.54,69.63,543.54,72.43Z"/><rect class="cls-15" x="485.6" y="45.84" width="11.23" height="131.47"/><path class="cls-14" d="M500.74,67.3c0,6-4.27,10.88-9.53,10.88s-9.52-4.87-9.52-10.88,4.26-10.89,9.52-10.89S500.74,61.29,500.74,67.3Z"/><path class="cls-16" d="M498.48,38.19c0,4.59-3.26,8.31-7.27,8.31s-7.27-3.72-7.27-8.31,3.26-8.31,7.27-8.31S498.48,33.6,498.48,38.19Z"/><path class="cls-16" d="M495.67,67.3c0,2.82-2,5.1-4.46,5.1s-4.46-2.28-4.46-5.1,2-5.1,4.46-5.1S495.67,64.48,495.67,67.3Z"/><rect class="cls-9" x="460.38" y="177.31" width="61.66" height="19.63"/><rect class="cls-13" x="435.28" y="196.95" width="111.86" height="14.6"/><rect class="cls-14" x="460.38" y="181.09" width="61.66" height="4.78"/><path class="cls-14" d="M499.66,46.5A3.33,3.33,0,0,1,496.57,50H485.86a3.34,3.34,0,0,1-3.1-3.53h0a3.34,3.34,0,0,1,3.1-3.54h10.71a3.33,3.33,0,0,1,3.09,3.54Z"/><rect class="cls-13" x="491.21" y="177.31" width="30.83" height="19.63"/><rect class="cls-17" x="358.8" y="203.02" width="140.99" height="8.55"/><rect class="cls-18" x="352.5" y="109.68" width="153.36" height="37.38"/><rect class="cls-19" x="355.64" y="147.05" width="147.31" height="55.98"/><rect class="cls-20" x="355.64" y="147.05" width="40.53" height="4.8"/><rect class="cls-21" x="392.4" y="142.88" width="73.05" height="2.15"/><rect class="cls-22" x="468.3" y="156.86" width="10.05" height="15.73"/><rect class="cls-23" x="469.59" y="158.34" width="7.47" height="12.78"/><rect class="cls-22" x="486.41" y="156.86" width="10.05" height="15.73"/><rect class="cls-23" x="487.7" y="158.34" width="7.47" height="12.78"/><rect class="cls-22" x="468.3" y="181.8" width="10.05" height="15.73"/><rect class="cls-23" x="469.59" y="183.28" width="7.47" height="12.78"/><rect class="cls-22" x="486.41" y="181.8" width="10.05" height="15.73"/><rect class="cls-23" x="487.7" y="183.28" width="7.47" height="12.78"/><path class="cls-24" d="M426.24,183.49V203H412.41V183.49c0-4.37,3.09-7.9,6.92-7.9a6.52,6.52,0,0,1,4.89,2.31A8.47,8.47,0,0,1,426.24,183.49Z"/><path class="cls-24" d="M445.45,183.49V203H431.61V183.49c0-4.37,3.1-7.9,6.92-7.9a6.5,6.5,0,0,1,4.89,2.31A8.48,8.48,0,0,1,445.45,183.49Z"/><polygon class="cls-24" points="496.46 156.86 496.46 160.19 489.59 160.19 489.59 172.59 486.41 172.59 486.41 156.86 496.46 156.86"/><polygon class="cls-24" points="478.35 156.86 478.35 160.19 471.47 160.19 471.47 172.59 468.3 172.59 468.3 156.86 478.35 156.86"/><polygon class="cls-24" points="496.46 181.8 496.46 185.13 489.59 185.13 489.59 197.53 486.41 197.53 486.41 181.8 496.46 181.8"/><polygon class="cls-24" points="478.35 181.8 478.35 185.13 471.47 185.13 471.47 197.53 468.3 197.53 468.3 181.8 478.35 181.8"/><rect class="cls-22" x="361.97" y="156.86" width="10.05" height="15.73"/><rect class="cls-23" x="363.26" y="158.34" width="7.47" height="12.78"/><rect class="cls-22" x="380.08" y="156.86" width="10.05" height="15.73"/><rect class="cls-23" x="381.37" y="158.34" width="7.47" height="12.78"/><rect class="cls-22" x="361.97" y="181.8" width="10.05" height="15.73"/><rect class="cls-23" x="363.26" y="183.28" width="7.47" height="12.78"/><polygon class="cls-20" points="502.95 151.85 481.89 151.85 495.17 167.04 496.46 168.51 502.95 175.93 502.95 203.03 499.79 203.03 499.79 211.57 470.4 211.57 470.4 205.88 467.82 205.88 467.82 203.03 444.08 203.03 444.08 203.02 464.79 203.02 464.79 199.41 463.14 199.41 463.14 196.92 461.68 196.92 461.68 147.05 462.63 147.05 462.63 145.01 465.45 145.01 465.45 142.88 467.95 142.88 469.81 140.19 470.71 141 471.46 139.92 477.7 147.05 502.95 147.05 502.95 151.85"/><rect class="cls-22" x="380.08" y="181.8" width="10.05" height="15.73"/><rect class="cls-23" x="381.37" y="183.28" width="7.47" height="12.78"/><polygon class="cls-24" points="390.13 156.86 390.13 160.19 383.25 160.19 383.25 172.59 380.08 172.59 380.08 156.86 390.13 156.86"/><polygon class="cls-24" points="372.02 156.86 372.02 160.19 365.15 160.19 365.15 172.59 361.97 172.59 361.97 156.86 372.02 156.86"/><polygon class="cls-24" points="390.13 181.8 390.13 185.13 383.25 185.13 383.25 197.53 380.08 197.53 380.08 181.8 390.13 181.8"/><polygon class="cls-24" points="372.02 181.8 372.02 185.13 365.15 185.13 365.15 197.53 361.97 197.53 361.97 181.8 372.02 181.8"/><polygon class="cls-20" points="447.17 147.06 447.17 196.93 445.74 196.93 445.74 199.41 444.07 199.41 444.07 203.02 413.78 203.02 413.78 199.41 412.13 199.41 412.13 196.93 410.69 196.93 410.69 147.06 447.17 147.06"/><polygon class="cls-20" points="427.76 211.57 413.78 211.57 413.78 203.04 415.08 203.04 417.58 205.88 420.22 205.88 422.72 208.74 425.27 208.74 427.76 211.57"/><rect class="cls-6" x="447.17" y="147.06" width="14.52" height="49.85"/><polygon class="cls-25" points="471.44 139.93 470.71 141 469.8 140.19 429.03 105.43 388.17 140.27 387.24 141.07 386.51 140.01 429.03 103.77 471.44 139.93"/><polygon class="cls-7" points="469.8 140.19 467.95 142.88 389.96 142.88 388.17 140.27 429.03 105.43 469.8 140.19"/><polygon class="cls-10" points="399.47 137.47 429.03 112.26 458.6 137.47 399.47 137.47"/><polygon class="cls-10" points="465.45 142.88 465.45 145.03 462.63 145.03 462.63 147.06 395.52 147.06 395.52 145.03 392.4 145.03 392.4 142.88 465.45 142.88"/><polygon class="cls-7" points="413.78 199.41 413.78 203.02 393.07 203.02 393.07 199.41 394.73 199.41 394.73 196.91 412.13 196.91 412.13 199.41 413.78 199.41"/><polygon class="cls-7" points="464.78 199.41 464.78 203.02 444.08 203.02 444.08 199.41 445.74 199.41 445.74 196.91 463.13 196.91 463.13 199.41 464.78 199.41"/><rect class="cls-6" x="396.17" y="147.06" width="14.52" height="49.85"/><g class="cls-26"><path class="cls-27" d="M455.69,193.87c0,.92-.56,1.67-1.26,1.67h0c-.69,0-1.26-.75-1.26-1.67V150.49c0-.92.57-1.67,1.26-1.67h0c.7,0,1.26.75,1.26,1.67Z"/><path class="cls-27" d="M459.32,193.87c0,.92-.42,1.67-.94,1.67h0c-.53,0-1-.75-1-1.67V150.49c0-.92.43-1.67,1-1.67h0c.52,0,.94.75.94,1.67Z"/><path class="cls-27" d="M461.37,193.87c0,.92-.21,1.67-.46,1.67h0c-.26,0-.47-.75-.47-1.67V150.49c0-.92.21-1.67.47-1.67h0c.25,0,.46.75.46,1.67Z"/><path class="cls-27" d="M448.33,193.87c0,.92-.21,1.67-.47,1.67h0c-.26,0-.47-.75-.47-1.67V150.49c0-.92.21-1.67.47-1.67h0c.26,0,.47.75.47,1.67Z"/><path class="cls-27" d="M451.24,193.87c0,.92-.4,1.67-.9,1.67h0c-.5,0-.9-.75-.9-1.67V150.49c0-.92.4-1.67.9-1.67h0c.5,0,.9.75.9,1.67Z"/><path class="cls-27" d="M404.69,193.87c0,.92-.56,1.67-1.26,1.67h0c-.69,0-1.26-.75-1.26-1.67V150.49c0-.92.57-1.67,1.26-1.67h0c.7,0,1.26.75,1.26,1.67Z"/><path class="cls-27" d="M408.32,193.87c0,.92-.43,1.67-.95,1.67h0c-.52,0-.95-.75-.95-1.67V150.49c0-.92.43-1.67.95-1.67h0c.52,0,.95.75.95,1.67Z"/><path class="cls-27" d="M410.37,193.87c0,.92-.21,1.67-.46,1.67h0c-.27,0-.47-.75-.47-1.67V150.49c0-.92.2-1.67.47-1.67h0c.25,0,.46.75.46,1.67Z"/><path class="cls-27" d="M397.33,193.87c0,.92-.21,1.67-.47,1.67h0c-.26,0-.47-.75-.47-1.67V150.49c0-.92.21-1.67.47-1.67h0c.26,0,.47.75.47,1.67Z"/><path class="cls-27" d="M400.24,193.87c0,.92-.4,1.67-.9,1.67h0c-.5,0-.91-.75-.91-1.67V150.49c0-.92.41-1.67.91-1.67h0c.5,0,.9.75.9,1.67Z"/></g><rect class="cls-6" x="390.13" y="203.03" width="77.69" height="2.85"/><rect class="cls-28" x="387.55" y="205.88" width="82.86" height="5.7"/><polygon class="cls-21" points="430.65 106.82 389.3 141.93 388.17 140.27 429.03 105.44 430.65 106.82"/><polygon class="cls-21" points="430.49 113.51 402.83 137.47 399.47 137.47 429.03 112.26 430.49 113.51"/><rect class="cls-6" x="413.78" y="203.02" width="30.3" height="2.85"/><rect class="cls-7" x="413.78" y="205.88" width="30.3" height="2.85"/><polygon class="cls-7" points="439.28 199.43 439.28 203.04 418.57 203.04 418.57 199.43 420.23 199.43 420.23 196.94 437.63 196.94 437.63 199.43 439.28 199.43"/><rect class="cls-6" x="421.67" y="147.08" width="14.52" height="49.85"/><path class="cls-29" d="M430.19,193.89c0,.92-.56,1.67-1.26,1.67h0c-.69,0-1.26-.75-1.26-1.67V150.51c0-.92.57-1.67,1.26-1.67h0c.7,0,1.26.75,1.26,1.67Z"/><path class="cls-29" d="M433.82,193.89c0,.92-.42,1.67-.95,1.67h0c-.52,0-.95-.75-.95-1.67V150.51c0-.92.43-1.67.95-1.67h0c.53,0,.95.75.95,1.67Z"/><path class="cls-29" d="M435.88,193.89c0,.92-.22,1.67-.47,1.67h0c-.26,0-.47-.75-.47-1.67V150.51c0-.92.21-1.67.47-1.67h0c.25,0,.47.75.47,1.67Z"/><path class="cls-29" d="M422.83,193.89c0,.92-.21,1.67-.47,1.67h0c-.26,0-.47-.75-.47-1.67V150.51c0-.92.21-1.67.47-1.67h0c.26,0,.47.75.47,1.67Z"/><path class="cls-29" d="M425.74,193.89c0,.92-.4,1.67-.9,1.67h0c-.5,0-.9-.75-.9-1.67V150.51c0-.92.4-1.67.9-1.67h0c.5,0,.9.75.9,1.67Z"/><path class="cls-30" d="M436.19,147.08v4.66a20.2,20.2,0,0,0-14.52.1v-4.76Z"/><path class="cls-30" d="M410.69,147.08v4.66a20.2,20.2,0,0,0-14.52.1v-4.76Z"/><path class="cls-30" d="M461.69,147.08v4.66a20.2,20.2,0,0,0-14.52.1v-4.76Z"/><rect class="cls-31" x="392.4" y="142.88" width="73.05" height="2.15"/><rect class="cls-20" x="358.8" y="203.02" width="31.33" height="2.86"/><path class="cls-32" d="M362.29,89.24c0,7-5,12.65-11.07,12.65h-32c-4.8,0-8.7-4.46-8.7-9.94s3.9-10,8.7-10a7.62,7.62,0,0,1,3.08.64c1.7-5.75,6.45-9.88,12.06-9.88a12.34,12.34,0,0,1,10.42,6.18,10.07,10.07,0,0,1,6.41-2.35C357.34,76.59,362.29,82.25,362.29,89.24Z"/><path class="cls-33" d="M595.28,79.43v21H572.46c-4.33,0-7.85-4-7.85-9s3.52-9,7.85-9a6.92,6.92,0,0,1,2.76.57c1.54-5.18,5.82-8.9,10.87-8.9A11,11,0,0,1,595.28,79.43Z"/><path class="cls-34" d="M370.62,191.91c0,6.78-3.3,12.28-7.36,12.28s-7.36-5.5-7.36-12.28,3.29-12.28,7.36-12.28S370.62,185.13,370.62,191.91Z"/><polygon class="cls-35" points="366.53 194.54 363.25 197.87 363.25 211.23 361.81 211.23 362.43 191.74 363.25 191.9 363.25 197.08 366.31 194.34 366.53 194.54"/><path class="cls-34" d="M513.59,187.78c0,8.23-4,14.9-8.93,14.9s-8.93-6.67-8.93-14.9,4-14.9,8.93-14.9S513.59,179.56,513.59,187.78Z"/><polygon class="cls-35" points="508.63 190.98 504.66 195.01 504.66 211.23 502.91 211.23 503.66 187.58 504.66 187.78 504.66 194.06 508.37 190.74 508.63 190.98"/><path class="cls-36" d="M318.59,195.44c0,6-2.9,10.8-6.47,10.8s-6.48-4.84-6.48-10.8,2.9-10.8,6.48-10.8S318.59,189.47,318.59,195.44Z"/><polygon class="cls-35" points="315 197.75 312.11 200.68 312.11 212.44 310.84 212.44 311.39 195.29 312.11 195.44 312.11 199.99 314.81 197.58 315 197.75"/><path class="cls-37" d="M345.1,193.72c0,6.09,3,11,6.61,11s6.61-4.93,6.61-11-3-11-6.61-11S345.1,187.63,345.1,193.72Z"/><polygon class="cls-35" points="348.77 196.08 351.71 199.07 351.71 211.07 353.01 211.07 352.46 193.56 351.71 193.71 351.71 198.36 348.97 195.9 348.77 196.08"/><path class="cls-37" d="M512.31,193.72c0,6.09,3,11,6.61,11s6.61-4.93,6.61-11-3-11-6.61-11S512.31,187.63,512.31,193.72Z"/><polygon class="cls-35" points="515.98 196.08 518.93 199.07 518.93 211.07 520.22 211.07 519.67 193.56 518.93 193.71 518.93 198.36 516.18 195.9 515.98 196.08"/><path class="cls-38" d="M550.36,191.17c0,7-5,12.64-11.05,12.64s-11-5.66-11-12.64,4.94-12.63,11-12.63S550.36,184.2,550.36,191.17Z"/><polygon class="cls-35" points="540.48 211.36 540.48 188.71 539.83 188.71 539.64 194.16 535.34 191.18 535.09 191.56 539.57 195.73 539.05 211.36 540.48 211.36"/><path class="cls-38" d="M347.15,189.38c0,7.57-5.37,13.72-12,13.72s-12-6.15-12-13.72,5.38-13.72,12-13.72S347.15,181.8,347.15,189.38Z"/><polygon class="cls-35" points="336.42 211.28 336.42 186.7 335.71 186.7 335.52 192.62 330.84 189.38 330.57 189.79 335.44 194.33 334.87 211.28 336.42 211.28"/><path class="cls-36" d="M564.69,188.73c0,8.18-4,14.81-8.88,14.81s-8.88-6.63-8.88-14.81,4-14.81,8.88-14.81S564.69,180.55,564.69,188.73Z"/><polygon class="cls-35" points="559.76 191.91 555.8 195.92 555.8 212.04 554.07 212.04 554.81 188.52 555.8 188.72 555.8 194.97 559.49 191.66 559.76 191.91"/><rect class="cls-39" y="211.57" width="595.28" height="15.24"/><path class="cls-6" d="M111.34,173.84H33.85V150.78h77.49Zm-76-1.69h74.53V152.47H35.33Z"/><path class="cls-6" d="M42.16,164H41.08v3.37h-1.2V156.83H42.5a3,3,0,0,1,1.88,1,4,4,0,0,1,0,5.08,2.78,2.78,0,0,1-1,.82l2.05,3.6H44Zm-1.08-5.8v4.43h1.08a1.76,1.76,0,0,0,1.37-.65,2.32,2.32,0,0,0,.57-1.58,2.27,2.27,0,0,0-.57-1.56,1.75,1.75,0,0,0-1.37-.64Z"/><path class="cls-6" d="M51.6,156.83v1.36H47.83v3.22H51.6v1.37H47.83V166H51.6v1.37h-5V156.83Z"/><path class="cls-6" d="M56.61,156.83,60,167.37H58.7l-1.19-3.73H55.07l-1.18,3.73H52.61L56,156.83Zm.47,5.45-.79-2.47-.78,2.47Z"/><path class="cls-6" d="M62,156.83a4.44,4.44,0,0,1,3.5,1.45,6,6,0,0,1,0,7.63,4.41,4.41,0,0,1-3.5,1.46h-.88V156.83Zm.31,1.39V166a3,3,0,0,0,2.34-1.05,4.43,4.43,0,0,0,0-5.68A3,3,0,0,0,62.31,158.22Z"/><path class="cls-6" d="M73.78,156.83l3,5.91,3-5.91h1.09v10.54H79.65v-7.62l-2.88,5.7-2.89-5.7v7.62H72.69V156.83Z"/><path class="cls-6" d="M90.77,158.27a6,6,0,0,1,0,7.63,4.32,4.32,0,0,1-6.68,0,6,6,0,0,1,0-7.63,4.32,4.32,0,0,1,6.68,0Zm-3.34-.2A3.18,3.18,0,0,0,85,159.24a4.44,4.44,0,0,0,0,5.69,3.21,3.21,0,0,0,5,0,4.44,4.44,0,0,0,0-5.69A3.18,3.18,0,0,0,87.43,158.07Z"/><path class="cls-6" d="M96,164H94.94v3.37H93.75V156.83h2.61a3,3,0,0,1,1.88,1,4,4,0,0,1,0,5.08,2.7,2.7,0,0,1-1,.82l2,3.6H97.87Zm-1.09-5.8v4.43H96a1.76,1.76,0,0,0,1.36-.65A2.32,2.32,0,0,0,98,160.4a2.27,2.27,0,0,0-.57-1.56A1.75,1.75,0,0,0,96,158.2Z"/><path class="cls-6" d="M105.47,156.83v1.36h-3.78v3.22h3.78v1.37h-3.78V166h3.78v1.37h-5V156.83Z"/><path class="cls-6" d="M40.08,48.28A8.61,8.61,0,0,1,36.62,46a5.49,5.49,0,0,1-1.33-3.76,5.56,5.56,0,0,1,1.38-3.78,4.3,4.3,0,0,1,6.65,0,6.85,6.85,0,0,1,1.31,2.74L42.27,42.2a5.75,5.75,0,0,0-.78-1.72A1.93,1.93,0,0,0,40,39.79a1.91,1.91,0,0,0-1.49.7,2.47,2.47,0,0,0-.62,1.7,2.52,2.52,0,0,0,.62,1.71,6.74,6.74,0,0,0,1.91,1.42,9.81,9.81,0,0,1,4,2.76,7.35,7.35,0,0,1,1.85,5.05,7.43,7.43,0,0,1-1.85,5.08,5.71,5.71,0,0,1-8.86,0,8.63,8.63,0,0,1-1.86-4.64l2.52-1a6.44,6.44,0,0,0,1.17,3.6,3.36,3.36,0,0,0,5.21,0,4.65,4.65,0,0,0,0-6A7.72,7.72,0,0,0,40.08,48.28Z"/><path class="cls-6" d="M59.86,37.09h2.61V53.28a8.5,8.5,0,0,1-2,4.68,6.25,6.25,0,0,1-4.84,2.3A6.17,6.17,0,0,1,50.81,58a8.09,8.09,0,0,1-2-5.52V37.09h2.61V52.45a5,5,0,0,0,1.24,3.39,3.87,3.87,0,0,0,6,0,5,5,0,0,0,1.23-3.4Z"/><path class="cls-6" d="M68.84,52.72v7.35h-2.6v-23H72A6.66,6.66,0,0,1,76,39.37a8.65,8.65,0,0,1,0,11.06,6.17,6.17,0,0,1-4.82,2.29Zm0-12.64v9.65h2.38a3.82,3.82,0,0,0,3-1.41,5,5,0,0,0,1.24-3.43,4.93,4.93,0,0,0-1.24-3.4,3.82,3.82,0,0,0-3-1.41Z"/><path class="cls-6" d="M85.61,52.72H83.23v7.35h-2.6v-23h5.71a6.66,6.66,0,0,1,4.09,2.28,8.66,8.66,0,0,1,0,11.07,5.79,5.79,0,0,1-2.11,1.78l4.46,7.85H89.63ZM83.23,40.08v9.65h2.38a3.84,3.84,0,0,0,3-1.41,5.07,5.07,0,0,0,1.24-3.43,5,5,0,0,0-1.24-3.4,3.84,3.84,0,0,0-3-1.41Z"/><path class="cls-6" d="M106.18,37.09v3H98v7h8.23v3H98v7h8.23v3H95.35v-23Z"/><path class="cls-6" d="M112.62,37.09,119.15,50l6.49-12.89H128v23h-2.6V43.47l-6.27,12.41-6.3-12.41v16.6h-2.6v-23Z"/><path class="cls-6" d="M143.24,37.09v3H135v7h8.24v3H135v7h8.24v3H132.4v-23Z"/><path class="cls-6" d="M171.14,54.6l2,2c-2.38,2.48-4.89,3.72-7.55,3.72a9.31,9.31,0,0,1-7.26-3.44,12.16,12.16,0,0,1-3-8.3,12.23,12.23,0,0,1,3-8.3,9.29,9.29,0,0,1,7.26-3.45c2.66,0,5.17,1.24,7.55,3.72l-2,2a7.88,7.88,0,0,0-5.6-2.73,6.94,6.94,0,0,0-5.4,2.56,9.65,9.65,0,0,0,0,12.36,6.94,6.94,0,0,0,5.4,2.56A7.88,7.88,0,0,0,171.14,54.6Z"/><path class="cls-6" d="M193.48,40.24a12.19,12.19,0,0,1,3,8.31,12.2,12.2,0,0,1-3,8.32,9.41,9.41,0,0,1-14.56,0,12.2,12.2,0,0,1-3-8.32,12.19,12.19,0,0,1,3-8.31,9.41,9.41,0,0,1,14.56,0Zm-7.28-.45a7,7,0,0,0-5.42,2.56,9.68,9.68,0,0,0,0,12.41,7,7,0,0,0,10.84,0,9.71,9.71,0,0,0,0-12.41A7,7,0,0,0,186.2,39.79Z"/><path class="cls-6" d="M211,37.09h2.61V53.28a8.44,8.44,0,0,1-2,4.68A6.24,6.24,0,0,1,202,58a8.13,8.13,0,0,1-2-5.52V37.09h2.61V52.45a5,5,0,0,0,1.24,3.39,3.87,3.87,0,0,0,6,0,5,5,0,0,0,1.23-3.4Z"/><path class="cls-6" d="M222.38,52.72H220v7.35h-2.6v-23h5.71a6.66,6.66,0,0,1,4.09,2.28,8.66,8.66,0,0,1,0,11.07,5.79,5.79,0,0,1-2.11,1.78l4.46,7.85H226.4ZM220,40.08v9.65h2.38a3.84,3.84,0,0,0,3-1.41,5.07,5.07,0,0,0,1.24-3.43,5,5,0,0,0-1.24-3.4,3.84,3.84,0,0,0-3-1.41Z"/><path class="cls-6" d="M238.35,40.06v20h-2.62v-20h-4.68v-3h12v3Z"/><path class="cls-6" d="M33.85,87.66V78.21h1.07v8.23h2.95v1.22Z"/><path class="cls-6" d="M41.42,81.09a2.67,2.67,0,0,1,2.08,1,3.72,3.72,0,0,1,0,4.76,2.7,2.7,0,0,1-4.16,0,3.72,3.72,0,0,1,0-4.76A2.66,2.66,0,0,1,41.42,81.09ZM40.11,83a2.33,2.33,0,0,0,0,3,1.71,1.71,0,0,0,1.31.61,1.69,1.69,0,0,0,1.3-.61,2.33,2.33,0,0,0,0-3,1.64,1.64,0,0,0-1.3-.62A1.66,1.66,0,0,0,40.11,83Z"/><path class="cls-6" d="M46.67,82.41a1.86,1.86,0,0,1,1.47-1V82.7a1.32,1.32,0,0,0-.93.43,2.14,2.14,0,0,0-.54,1.41v3.12H45.6V81.59h1.07Z"/><path class="cls-6" d="M50.81,86.29a1.37,1.37,0,0,0,1,.27,1.69,1.69,0,0,0,1.3-.61l.28-.37,1.07.44a8.06,8.06,0,0,1-.57.82,2.7,2.7,0,0,1-4.16,0,3.72,3.72,0,0,1,0-4.76,2.67,2.67,0,0,1,2.08-1,2.65,2.65,0,0,1,1.83.72,3.32,3.32,0,0,1,.25.27l.29.37-.53.62Zm1.79-3.78a1.32,1.32,0,0,0-.81-.16,1.64,1.64,0,0,0-1.3.62A2.17,2.17,0,0,0,50,84.46a1.85,1.85,0,0,0,.14.92Z"/><path class="cls-6" d="M55.68,81.59h1.07v.56a1.17,1.17,0,0,1,1.19-.89q.89,0,1,1a1.27,1.27,0,0,1,1.39-1c.75,0,1.13.52,1.13,1.57v4.83H60.37V83.39q0-.9-.63-.9a.6.6,0,0,0-.46.21,3,3,0,0,0-.19,1.43v3.53H58V83.39c0-.6-.21-.9-.64-.9a.6.6,0,0,0-.46.21,1.78,1.78,0,0,0-.18,1v4H55.68Z"/><path class="cls-6" d="M67.82,79.34a.89.89,0,0,1,.22.6.91.91,0,0,1-.22.61.69.69,0,0,1-.54.25.65.65,0,0,1-.52-.25.87.87,0,0,1-.23-.61.85.85,0,0,1,.23-.6.65.65,0,0,1,.52-.25A.69.69,0,0,1,67.82,79.34Zm0,2.25v6.07H66.75V81.59Z"/><path class="cls-6" d="M70.53,86.91v2.8H69.46V81.59h1.07v.55a2.22,2.22,0,0,1,1.8-1,2.64,2.64,0,0,1,2.08,1,3.72,3.72,0,0,1,0,4.76,2.67,2.67,0,0,1-2.08,1A2.31,2.31,0,0,1,70.53,86.91Zm0-2.93v1a2,2,0,0,0,.5,1,1.67,1.67,0,0,0,1.3.62A1.69,1.69,0,0,0,73.64,86a2.33,2.33,0,0,0,0-3,1.66,1.66,0,0,0-1.31-.62A1.64,1.64,0,0,0,71,83,2,2,0,0,0,70.53,84Z"/><path class="cls-6" d="M77.64,86.36a.6.6,0,0,0,.91,0,.79.79,0,0,0,.18-.53.76.76,0,0,0-.18-.51,4.34,4.34,0,0,0-.55-.46,4.17,4.17,0,0,1-.83-.63,1.73,1.73,0,0,1-.42-1.17,1.75,1.75,0,0,1,.42-1.17,1.35,1.35,0,0,1,1-.49,1.26,1.26,0,0,1,1,.46,1.64,1.64,0,0,1,.37.73l-1,.34a.87.87,0,0,0-.07-.19.34.34,0,0,0-.25-.11.34.34,0,0,0-.27.13.46.46,0,0,0,0,.6,2.67,2.67,0,0,0,.44.36,4.21,4.21,0,0,1,.93.74,2,2,0,0,1,.5,1.37,2,2,0,0,1-.49,1.39,1.56,1.56,0,0,1-2.43,0,2,2,0,0,1-.45-1L77.49,86A.85.85,0,0,0,77.64,86.36Z"/><path class="cls-6" d="M83.37,87.75A2,2,0,0,1,81.75,87a2.63,2.63,0,0,1-.63-1.76V81.59H82.2v3.65a1.32,1.32,0,0,0,.33.9,1.1,1.1,0,0,0,.84.38,1.05,1.05,0,0,0,.8-.38,1.32,1.32,0,0,0,.34-.9V81.59h1.07v3.69A2.63,2.63,0,0,1,85,87,2,2,0,0,1,83.37,87.75Z"/><path class="cls-6" d="M87.13,81.59H88.2v.56a1.17,1.17,0,0,1,1.19-.89c.59,0,.91.34,1,1a1.27,1.27,0,0,1,1.39-1c.75,0,1.13.52,1.13,1.57v4.83H91.82V83.39q0-.9-.63-.9a.6.6,0,0,0-.46.21,3,3,0,0,0-.19,1.43v3.53H89.47V83.39c0-.6-.22-.9-.64-.9a.6.6,0,0,0-.46.21,1.78,1.78,0,0,0-.18,1v4H87.13Z"/><path class="cls-6" d="M102.73,82v-3.8h1.07v9.45h-1.07v-.75a2.31,2.31,0,0,1-1.81.91,2.7,2.7,0,0,1-2.08-1,3.72,3.72,0,0,1,0-4.76,2.67,2.67,0,0,1,2.08-1A2.3,2.3,0,0,1,102.73,82Zm0,2.9V84a2.15,2.15,0,0,0-.5-1,1.66,1.66,0,0,0-1.31-.62,1.64,1.64,0,0,0-1.3.62,2.33,2.33,0,0,0,0,3,1.69,1.69,0,0,0,1.3.61,1.71,1.71,0,0,0,1.31-.61A2.19,2.19,0,0,0,102.73,84.91Z"/><path class="cls-6" d="M108,81.09a2.66,2.66,0,0,1,2.08,1,3.72,3.72,0,0,1,0,4.76,2.7,2.7,0,0,1-4.16,0,3.72,3.72,0,0,1,0-4.76A2.67,2.67,0,0,1,108,81.09ZM106.68,83a2.33,2.33,0,0,0,0,3,1.69,1.69,0,0,0,1.3.61,1.71,1.71,0,0,0,1.31-.61,2.33,2.33,0,0,0,0-3,1.66,1.66,0,0,0-1.31-.62A1.64,1.64,0,0,0,106.68,83Z"/><path class="cls-6" d="M113.24,78.21v9.45h-1.08V78.21Z"/><path class="cls-6" d="M117.42,81.09a2.67,2.67,0,0,1,2.08,1,3.72,3.72,0,0,1,0,4.76,2.7,2.7,0,0,1-4.16,0,3.72,3.72,0,0,1,0-4.76A2.67,2.67,0,0,1,117.42,81.09ZM116.11,83a2.33,2.33,0,0,0,0,3,1.71,1.71,0,0,0,1.31.61,1.69,1.69,0,0,0,1.3-.61,2.33,2.33,0,0,0,0-3,1.64,1.64,0,0,0-1.3-.62A1.66,1.66,0,0,0,116.11,83Z"/><path class="cls-6" d="M122.67,82.41a1.86,1.86,0,0,1,1.47-1V82.7a1.32,1.32,0,0,0-.93.43,2.14,2.14,0,0,0-.54,1.41v3.12H121.6V81.59h1.07Z"/><path class="cls-6" d="M129.91,86.36a.6.6,0,0,0,.91,0,.8.8,0,0,0,.19-.53.72.72,0,0,0-.19-.51,3.7,3.7,0,0,0-.55-.46,3.77,3.77,0,0,1-.82-.63,1.69,1.69,0,0,1-.43-1.17,1.71,1.71,0,0,1,.43-1.17,1.32,1.32,0,0,1,1-.49,1.3,1.3,0,0,1,1,.46,1.52,1.52,0,0,1,.36.73l-1,.34a.54.54,0,0,0-.07-.19.33.33,0,0,0-.25-.11.35.35,0,0,0-.27.13.46.46,0,0,0,0,.6,2.9,2.9,0,0,0,.45.36,4.75,4.75,0,0,1,.93.74,2.15,2.15,0,0,1,0,2.76,1.55,1.55,0,0,1-2.42,0,2,2,0,0,1-.46-1l1.07-.26A.86.86,0,0,0,129.91,86.36Z"/><path class="cls-6" d="M134.55,79.34a.89.89,0,0,1,.22.6.91.91,0,0,1-.22.61.69.69,0,0,1-.54.25.67.67,0,0,1-.52-.25.86.86,0,0,1-.22-.61.84.84,0,0,1,.22-.6.67.67,0,0,1,.52-.25A.69.69,0,0,1,134.55,79.34Zm0,2.25v6.07h-1.07V81.59Z"/><path class="cls-6" d="M136.84,81.59V79.31h1.07v2.28h1v1.22h-1v4.85h-1.07V82.81h-1V81.59Z"/><path class="cls-6" d="M148.37,82v-.42h1.08v6.08h-1.08v-.76a2.28,2.28,0,0,1-1.79.91,2.64,2.64,0,0,1-2.08-1,3.47,3.47,0,0,1-.86-2.38,3.43,3.43,0,0,1,.86-2.37,2.65,2.65,0,0,1,2.08-1A2.31,2.31,0,0,1,148.37,82Zm0,2.9V84a2,2,0,0,0-.49-1,1.7,1.7,0,0,0-2.61,0,2.33,2.33,0,0,0,0,3,1.68,1.68,0,0,0,2.61,0A2,2,0,0,0,148.37,84.91Z"/><path class="cls-6" d="M151,81.59h1.07v.56a1.19,1.19,0,0,1,1.2-.89c.58,0,.91.34,1,1a1.28,1.28,0,0,1,1.4-1c.75,0,1.13.52,1.13,1.57v4.83H155.7V83.39q0-.9-.63-.9a.6.6,0,0,0-.46.21,2.88,2.88,0,0,0-.19,1.43v3.53h-1.07V83.39c0-.6-.22-.9-.64-.9a.6.6,0,0,0-.46.21,1.85,1.85,0,0,0-.19,1v4H151Z"/><path class="cls-6" d="M160,86.29a1.34,1.34,0,0,0,1,.27,1.71,1.71,0,0,0,1.31-.61c0-.06.14-.18.27-.37l1.07.44a8.06,8.06,0,0,1-.57.82,2.67,2.67,0,0,1-2.08,1,2.7,2.7,0,0,1-2.08-1,3.72,3.72,0,0,1,0-4.76,2.67,2.67,0,0,1,2.08-1,2.61,2.61,0,0,1,1.83.72,2.16,2.16,0,0,1,.25.27s.14.16.3.37l-.54.62Zm1.78-3.78a1.32,1.32,0,0,0-.81-.16,1.66,1.66,0,0,0-1.3.62,2.17,2.17,0,0,0-.54,1.49,2,2,0,0,0,.14.92Z"/><path class="cls-6" d="M165.5,81.59V79.31h1.07v2.28h1v1.22h-1v4.85H165.5V82.81h-1V81.59Z"/><path class="cls-6" d="M169.68,86l-1.19,2.84h-1l.66-2.84Z"/><path class="cls-6" d="M178.47,85.58l1.07.44c-.26.41-.45.68-.56.82a2.7,2.7,0,0,1-2.09,1,2.66,2.66,0,0,1-2.07-1,3.69,3.69,0,0,1,0-4.76,2.64,2.64,0,0,1,2.07-1,2.68,2.68,0,0,1,2.09,1,8.5,8.5,0,0,1,.56.81l-1.07.44c-.13-.19-.23-.31-.27-.37a1.68,1.68,0,0,0-1.31-.61,1.66,1.66,0,0,0-1.3.62,2.31,2.31,0,0,0,0,3,1.69,1.69,0,0,0,1.3.62A1.71,1.71,0,0,0,178.2,86C178.24,85.89,178.34,85.77,178.47,85.58Z"/><path class="cls-6" d="M183.41,81.09a2.65,2.65,0,0,1,2.08,1,3.72,3.72,0,0,1,0,4.76,2.69,2.69,0,0,1-4.15,0,3.69,3.69,0,0,1,0-4.76A2.64,2.64,0,0,1,183.41,81.09ZM182.11,83a2.33,2.33,0,0,0,0,3,1.69,1.69,0,0,0,1.3.61,1.71,1.71,0,0,0,1.31-.61,2.33,2.33,0,0,0,0-3,1.66,1.66,0,0,0-1.31-.62A1.64,1.64,0,0,0,182.11,83Z"/><path class="cls-6" d="M188.67,83.22v4.44h-1.08V81.59h1.08v.7a1.32,1.32,0,0,1,1.35-1,1.61,1.61,0,0,1,1.37.7,3,3,0,0,1,.52,1.75v4h-1.07v-3.9a1.32,1.32,0,0,0-.33-.9,1.05,1.05,0,0,0-.8-.38,1.08,1.08,0,0,0-.8.37A1.6,1.6,0,0,0,188.67,83.22Z"/><path class="cls-6" d="M194.55,86.36a.6.6,0,0,0,.46.21.57.57,0,0,0,.45-.21.75.75,0,0,0,.19-.53.72.72,0,0,0-.19-.51,3.7,3.7,0,0,0-.55-.46,4,4,0,0,1-.82-.63,1.73,1.73,0,0,1-.42-1.17,1.75,1.75,0,0,1,.42-1.17,1.32,1.32,0,0,1,1-.49,1.3,1.3,0,0,1,1,.46,1.52,1.52,0,0,1,.36.73l-1,.34a.54.54,0,0,0-.07-.19.31.31,0,0,0-.25-.11.32.32,0,0,0-.26.13.4.4,0,0,0-.11.3.44.44,0,0,0,.1.3,3.53,3.53,0,0,0,.45.36,4.21,4.21,0,0,1,.93.74,2.15,2.15,0,0,1,0,2.76,1.55,1.55,0,0,1-2.42,0,2,2,0,0,1-.45-1l1.06-.26A.86.86,0,0,0,194.55,86.36Z"/><path class="cls-6" d="M199.69,86.29a1.38,1.38,0,0,0,1,.27A1.73,1.73,0,0,0,202,86l.27-.37,1.07.44a8.06,8.06,0,0,1-.57.82,2.7,2.7,0,0,1-4.16,0,3.72,3.72,0,0,1,0-4.76,2.67,2.67,0,0,1,2.08-1,2.65,2.65,0,0,1,1.83.72,3.32,3.32,0,0,1,.25.27l.29.37-.53.62Zm1.79-3.78a1.32,1.32,0,0,0-.81-.16,1.64,1.64,0,0,0-1.3.62,2.17,2.17,0,0,0-.54,1.49,1.85,1.85,0,0,0,.14.92Z"/><path class="cls-6" d="M208.77,85.58l1.07.44a8.06,8.06,0,0,1-.57.82,2.7,2.7,0,0,1-4.16,0,3.72,3.72,0,0,1,0-4.76,2.68,2.68,0,0,1,4.16,0,6.63,6.63,0,0,1,.57.81l-1.07.44-.28-.37a1.66,1.66,0,0,0-1.3-.61,1.64,1.64,0,0,0-1.3.62,2.31,2.31,0,0,0,0,3,1.67,1.67,0,0,0,1.3.62A1.73,1.73,0,0,0,208.5,86Z"/><path class="cls-6" d="M211.73,81.59V79.31h1.07v2.28h.95v1.22h-.95v4.85h-1.07V82.81h-1V81.59Z"/><path class="cls-6" d="M216.65,86.29a1.37,1.37,0,0,0,1,.27,1.69,1.69,0,0,0,1.3-.61l.28-.37,1.07.44a8.06,8.06,0,0,1-.57.82,2.7,2.7,0,0,1-4.16,0,3.72,3.72,0,0,1,0-4.76,2.67,2.67,0,0,1,2.08-1,2.65,2.65,0,0,1,1.83.72,3.32,3.32,0,0,1,.25.27l.29.37-.53.62Zm1.79-3.78a1.32,1.32,0,0,0-.81-.16,1.64,1.64,0,0,0-1.3.62,2.17,2.17,0,0,0-.54,1.49,1.85,1.85,0,0,0,.14.92Z"/><path class="cls-6" d="M222.16,81.59V79.31h1.07v2.28h1v1.22h-1v4.85h-1.07V82.81h-.95V81.59Z"/><path class="cls-6" d="M227.69,87.75a2,2,0,0,1-1.62-.71,2.69,2.69,0,0,1-.64-1.76V81.59h1.08v3.65a1.28,1.28,0,0,0,.34.9,1.07,1.07,0,0,0,.83.38,1,1,0,0,0,.8-.38,1.28,1.28,0,0,0,.34-.9V81.59h1.07v3.69a2.63,2.63,0,0,1-.63,1.76A2,2,0,0,1,227.69,87.75Z"/><path class="cls-6" d="M232.51,82.41a1.86,1.86,0,0,1,1.47-1V82.7a1.32,1.32,0,0,0-.93.43,2.14,2.14,0,0,0-.54,1.41v3.12h-1.07V81.59h1.07Z"/><path class="cls-6" d="M243.29,82v-.42h1.07v6.08h-1.07v-.76a2.31,2.31,0,0,1-1.8.91,2.65,2.65,0,0,1-2.08-1,3.52,3.52,0,0,1-.86-2.38,3.47,3.47,0,0,1,.86-2.37,2.66,2.66,0,0,1,2.08-1A2.34,2.34,0,0,1,243.29,82Zm0,2.9V84a2.06,2.06,0,0,0-.5-1,1.66,1.66,0,0,0-1.3-.61,1.68,1.68,0,0,0-1.31.61,2.33,2.33,0,0,0,0,3,1.69,1.69,0,0,0,1.31.62,1.67,1.67,0,0,0,1.3-.62A2.06,2.06,0,0,0,243.29,84.91Z"/><path class="cls-6" d="M250.53,82v-3.8h1.08v9.45h-1.08v-.75a2.3,2.3,0,0,1-1.8.91,2.68,2.68,0,0,1-2.08-1,3.72,3.72,0,0,1,0-4.76,2.66,2.66,0,0,1,2.08-1A2.28,2.28,0,0,1,250.53,82Zm0,2.9V84a2.06,2.06,0,0,0-.5-1,1.64,1.64,0,0,0-1.3-.62,1.66,1.66,0,0,0-1.31.62,2.33,2.33,0,0,0,0,3,1.71,1.71,0,0,0,1.31.61A1.69,1.69,0,0,0,250,86,2.1,2.1,0,0,0,250.53,84.91Z"/><path class="cls-6" d="M254.31,79.34a.84.84,0,0,1,.22.6.86.86,0,0,1-.22.61.69.69,0,0,1-.53.25.67.67,0,0,1-.53-.25.86.86,0,0,1-.22-.61.84.84,0,0,1,.22-.6.67.67,0,0,1,.53-.25A.69.69,0,0,1,254.31,79.34Zm0,2.25v6.07h-1.06V81.59Z"/><path class="cls-6" d="M257,86.91v2.8H256V81.59H257v.55a2.22,2.22,0,0,1,1.81-1,2.66,2.66,0,0,1,2.08,1,3.72,3.72,0,0,1,0,4.76,2.7,2.7,0,0,1-2.08,1A2.31,2.31,0,0,1,257,86.91ZM257,84v1a2.13,2.13,0,0,0,.5,1,1.69,1.69,0,0,0,1.31.62,1.67,1.67,0,0,0,1.3-.62,2.33,2.33,0,0,0,0-3,1.64,1.64,0,0,0-1.3-.62,1.66,1.66,0,0,0-1.31.62A2.14,2.14,0,0,0,257,84Z"/><path class="cls-6" d="M264.21,79.34a.84.84,0,0,1,.22.6.86.86,0,0,1-.22.61.69.69,0,0,1-.53.25.67.67,0,0,1-.53-.25.86.86,0,0,1-.22-.61.84.84,0,0,1,.22-.6.67.67,0,0,1,.53-.25A.69.69,0,0,1,264.21,79.34Zm0,2.25v6.07h-1.07V81.59Z"/><path class="cls-6" d="M266.93,86.36a.6.6,0,0,0,.91,0,.79.79,0,0,0,.18-.53.76.76,0,0,0-.18-.51,4,4,0,0,0-.56-.46,4.35,4.35,0,0,1-.82-.63,1.73,1.73,0,0,1-.42-1.17,1.75,1.75,0,0,1,.42-1.17,1.35,1.35,0,0,1,1-.49,1.26,1.26,0,0,1,1,.46,1.64,1.64,0,0,1,.37.73l-1,.34a.5.5,0,0,0-.08-.19.3.3,0,0,0-.24-.11.32.32,0,0,0-.27.13.46.46,0,0,0,0,.6,2.67,2.67,0,0,0,.44.36,4.21,4.21,0,0,1,.93.74,2.15,2.15,0,0,1,0,2.76,1.52,1.52,0,0,1-1.21.58,1.55,1.55,0,0,1-1.21-.58,2,2,0,0,1-.45-1l1.06-.26A.75.75,0,0,0,266.93,86.36Z"/><path class="cls-6" d="M274.62,85.58l1.07.44a8.06,8.06,0,0,1-.57.82,2.7,2.7,0,0,1-4.16,0,3.72,3.72,0,0,1,0-4.76,2.68,2.68,0,0,1,4.16,0,6.63,6.63,0,0,1,.57.81l-1.07.44a4.6,4.6,0,0,0-.28-.37,1.66,1.66,0,0,0-1.3-.61,1.64,1.64,0,0,0-1.3.62,2.31,2.31,0,0,0,0,3,1.67,1.67,0,0,0,1.3.62,1.71,1.71,0,0,0,1.31-.61C274.39,85.89,274.49,85.77,274.62,85.58Z"/><path class="cls-6" d="M278.08,79.34a.85.85,0,0,1,.23.6.87.87,0,0,1-.23.61.68.68,0,0,1-1.05,0,.87.87,0,0,1-.23-.61.85.85,0,0,1,.23-.6.68.68,0,0,1,1.05,0Zm0,2.25v6.07H277V81.59Z"/><path class="cls-6" d="M280.8,83.22v4.44h-1.07V81.59h1.07v.7a1.33,1.33,0,0,1,1.35-1,1.59,1.59,0,0,1,1.37.7,3,3,0,0,1,.53,1.75v4H283v-3.9a1.28,1.28,0,0,0-.34-.9,1,1,0,0,0-1.59,0A1.4,1.4,0,0,0,280.8,83.22Z"/><path class="cls-6" d="M290.23,82v-.42h1.07V86.1a4,4,0,0,1-.84,2.74,2.83,2.83,0,0,1-2.08.87,2.8,2.8,0,0,1-2.08-.87,7,7,0,0,1-.57-.82l1.07-.43a2.84,2.84,0,0,0,.28.36,1.67,1.67,0,0,0,1.3.62q1.28,0,1.77-1.92a1.76,1.76,0,0,1-1.73,1.11,2.7,2.7,0,0,1-2.08-1,3.4,3.4,0,0,1-.86-2.35,3.5,3.5,0,0,1,.86-2.38,2.66,2.66,0,0,1,2.08-1A2.31,2.31,0,0,1,290.23,82Zm0,2a2,2,0,0,0-.49-1,1.66,1.66,0,0,0-1.31-.62,1.64,1.64,0,0,0-1.3.62,2.33,2.33,0,0,0,0,3,1.67,1.67,0,0,0,1.3.62,1.69,1.69,0,0,0,1.31-.62,2,2,0,0,0,.49-1Z"/><path class="cls-6" d="M35.5,100.8a1.36,1.36,0,0,0,1,.28,1.67,1.67,0,0,0,1.3-.62s.14-.18.28-.37l1.07.44a6.21,6.21,0,0,1-.57.82,2.68,2.68,0,0,1-4.16,0,3.72,3.72,0,0,1,0-4.76,2.69,2.69,0,0,1,3.91-.26l.25.26.29.37-.53.62ZM37.29,97a1.4,1.4,0,0,0-.81-.16,1.67,1.67,0,0,0-1.3.62A2.19,2.19,0,0,0,34.64,99a1.87,1.87,0,0,0,.14.93Z"/><path class="cls-6" d="M41.44,92.72v9.46H40.37V92.72Z"/><path class="cls-6" d="M44.14,93.85a.92.92,0,0,1,0,1.22.68.68,0,0,1-1,0,.92.92,0,0,1,0-1.22.68.68,0,0,1,1,0Zm0,2.25v6.08H43.08V96.1Z"/><path class="cls-6" d="M46.43,96.1V93.82H47.5V96.1h1v1.22h-1v4.86H46.43V97.32h-1V96.1Z"/><path class="cls-6" d="M50.15,100.79a.92.92,0,0,1,.22.6.94.94,0,0,1-.22.62.72.72,0,0,1-.53.25.7.7,0,0,1-.53-.25.89.89,0,0,1-.22-.62.87.87,0,0,1,.22-.6.7.7,0,0,1,.53-.25A.72.72,0,0,1,50.15,100.79Z"/><path class="cls-6" d="M56,99.16v3H55V92.73H57.3a2.7,2.7,0,0,1,1.68.94,3.52,3.52,0,0,1,0,4.54,2.52,2.52,0,0,1-2,1ZM56,94v4h1a1.58,1.58,0,0,0,1.22-.58,2.07,2.07,0,0,0,.51-1.41,2,2,0,0,0-.51-1.4A1.55,1.55,0,0,0,57,94Z"/><path class="cls-6" d="M60.87,92.73H62v4a1.41,1.41,0,0,1,1.3-1,1.59,1.59,0,0,1,1.36.7,3,3,0,0,1,.52,1.76v4H64.06v-3.9a1.52,1.52,0,0,0-.26-.91A.92.92,0,0,0,63,97a1.13,1.13,0,0,0-1,.81v4.37H60.87Z"/><path class="cls-6" d="M71.29,96.53V96.1h1.08v6.09H71.29v-.77a2.29,2.29,0,0,1-1.79.92,2.67,2.67,0,0,1-2.08-1,3.72,3.72,0,0,1,0-4.76,2.67,2.67,0,0,1,2.08-1A2.28,2.28,0,0,1,71.29,96.53Zm0,2.9v-.9a2,2,0,0,0-.49-1,1.7,1.7,0,0,0-2.61,0A2.19,2.19,0,0,0,67.65,99a2.16,2.16,0,0,0,.54,1.48,1.69,1.69,0,0,0,2.61,0A2,2,0,0,0,71.29,99.43Z"/><path class="cls-6" d="M75,100.87a.58.58,0,0,0,.91,0,.77.77,0,0,0,.18-.52.8.8,0,0,0-.18-.52,4.54,4.54,0,0,0-.55-.45,3.8,3.8,0,0,1-.83-.64,1.83,1.83,0,0,1,0-2.33,1.32,1.32,0,0,1,1-.49,1.23,1.23,0,0,1,1,.46,1.64,1.64,0,0,1,.37.73l-1,.34a.67.67,0,0,0-.08-.2.3.3,0,0,0-.24-.1.34.34,0,0,0-.27.12.49.49,0,0,0-.11.31.44.44,0,0,0,.11.3,3.33,3.33,0,0,0,.44.36,4.22,4.22,0,0,1,.93.73,2,2,0,0,1,.5,1.38,2.05,2.05,0,0,1-.49,1.39,1.56,1.56,0,0,1-2.43,0,2.05,2.05,0,0,1-.45-1l1.06-.26A.71.71,0,0,0,75,100.87Z"/><path class="cls-6" d="M80.13,100.8a1.38,1.38,0,0,0,1,.28,1.69,1.69,0,0,0,1.31-.62s.14-.18.27-.37l1.07.44a6.21,6.21,0,0,1-.57.82,2.68,2.68,0,0,1-4.16,0,3.72,3.72,0,0,1,0-4.76,2.66,2.66,0,0,1,2.08-1,2.61,2.61,0,0,1,1.83.72,3.07,3.07,0,0,1,.25.26l.3.37-.54.62ZM81.92,97a1.4,1.4,0,0,0-.81-.16,1.69,1.69,0,0,0-1.3.62A2.19,2.19,0,0,0,79.27,99a2,2,0,0,0,.14.93Z"/><path class="cls-6" d="M86.08,92.72v9.46H85V92.72Z"/><path class="cls-6" d="M88.7,92.72v9.46H87.63V92.72Z"/><path class="cls-6" d="M92.51,102.26a2,2,0,0,1-1.63-.7,2.65,2.65,0,0,1-.63-1.76V96.1h1.08v3.65a1.36,1.36,0,0,0,.33.91,1.09,1.09,0,0,0,.84.37,1,1,0,0,0,.8-.37,1.33,1.33,0,0,0,.34-.91V96.1h1.07v3.7a2.65,2.65,0,0,1-.63,1.76A2,2,0,0,1,92.51,102.26Z"/><path class="cls-6" d="M97.33,100.87a.58.58,0,0,0,.91,0,.77.77,0,0,0,.19-.52.76.76,0,0,0-.19-.52,3.84,3.84,0,0,0-.55-.45,3.47,3.47,0,0,1-.82-.64,1.79,1.79,0,0,1,0-2.33,1.29,1.29,0,0,1,1-.49,1.27,1.27,0,0,1,1,.46,1.52,1.52,0,0,1,.36.73l-1,.34a.73.73,0,0,0-.07-.2.32.32,0,0,0-.25-.1.37.37,0,0,0-.27.12.49.49,0,0,0-.11.31.44.44,0,0,0,.11.3,3.69,3.69,0,0,0,.45.36A4.77,4.77,0,0,1,99,99a2.17,2.17,0,0,1,0,2.77,1.55,1.55,0,0,1-2.42,0,2.07,2.07,0,0,1-.46-1l1.07-.26A.81.81,0,0,0,97.33,100.87Z"/><path class="cls-6" d="M108.68,100.09l1.07.44a7.8,7.8,0,0,1-.56.82,2.68,2.68,0,0,1-2.09,1,2.64,2.64,0,0,1-2.07-1,3.69,3.69,0,0,1,0-4.76,2.63,2.63,0,0,1,2.07-1,2.67,2.67,0,0,1,2.09,1c.11.14.3.41.56.81l-1.07.45c-.13-.19-.23-.32-.27-.37a1.68,1.68,0,0,0-2.61,0,2.33,2.33,0,0,0,0,3,1.68,1.68,0,0,0,2.61,0S108.55,100.28,108.68,100.09Z"/><path class="cls-6" d="M113.62,95.61a2.64,2.64,0,0,1,2.08,1,3.72,3.72,0,0,1,0,4.76,2.67,2.67,0,0,1-4.15,0,3.69,3.69,0,0,1,0-4.76A2.63,2.63,0,0,1,113.62,95.61Zm-1.3,1.87a2.33,2.33,0,0,0,0,3,1.67,1.67,0,0,0,1.3.62,1.69,1.69,0,0,0,1.31-.62,2.33,2.33,0,0,0,0-3,1.69,1.69,0,0,0-1.31-.62A1.67,1.67,0,0,0,112.32,97.48Z"/><path class="cls-6" d="M118.88,97.73v4.45H117.8V96.1h1.08v.71a1.32,1.32,0,0,1,1.35-1,1.61,1.61,0,0,1,1.37.7,3,3,0,0,1,.52,1.76v4h-1.07v-3.9a1.34,1.34,0,0,0-.33-.91,1,1,0,0,0-1.6,0A1.39,1.39,0,0,0,118.88,97.73Z"/><path class="cls-6" d="M125.56,102.18,123,96.1h1.21l1.59,4,1.61-4h1.21l-2.55,6.08Z"/><path class="cls-6" d="M134.13,96.53V96.1h1.07v6.09h-1.07v-.77a2.32,2.32,0,0,1-1.8.92,2.68,2.68,0,0,1-2.08-1,3.72,3.72,0,0,1,0-4.76,2.68,2.68,0,0,1,2.08-1A2.31,2.31,0,0,1,134.13,96.53Zm0,2.9v-.9a2.06,2.06,0,0,0-.5-1,1.69,1.69,0,0,0-2.6,0,2.19,2.19,0,0,0-.54,1.49,2.16,2.16,0,0,0,.54,1.48,1.63,1.63,0,0,0,1.3.62,1.66,1.66,0,0,0,1.3-.61A2.06,2.06,0,0,0,134.13,99.43Z"/><path class="cls-6" d="M137.83,92.72v9.46h-1.07V92.72Z"/><path class="cls-6" d="M140.46,92.72v9.46h-1.08V92.72Z"/><path class="cls-6" d="M143.16,93.85a1,1,0,0,1,0,1.22.69.69,0,0,1-1.06,0,1,1,0,0,1,0-1.22.69.69,0,0,1,1.06,0Zm0,2.25v6.08H142.1V96.1Z"/><path class="cls-6" d="M145.88,100.87a.58.58,0,0,0,.91,0,.77.77,0,0,0,.18-.52.8.8,0,0,0-.18-.52,4.54,4.54,0,0,0-.55-.45,3.8,3.8,0,0,1-.83-.64,1.83,1.83,0,0,1,0-2.33,1.32,1.32,0,0,1,1-.49,1.23,1.23,0,0,1,1,.46,1.64,1.64,0,0,1,.37.73l-1,.34a.67.67,0,0,0-.08-.2.3.3,0,0,0-.24-.1.34.34,0,0,0-.27.12.49.49,0,0,0-.11.31.44.44,0,0,0,.11.3,3.33,3.33,0,0,0,.44.36,4.22,4.22,0,0,1,.93.73,2,2,0,0,1,.5,1.38,2.05,2.05,0,0,1-.49,1.39,1.56,1.56,0,0,1-2.43,0,2.05,2.05,0,0,1-.45-1l1.06-.26A.71.71,0,0,0,145.88,100.87Z"/><path class="cls-6" d="M154.67,100.8a1.38,1.38,0,0,0,1,.28,1.69,1.69,0,0,0,1.31-.62l.27-.37,1.07.44a6.21,6.21,0,0,1-.57.82,2.68,2.68,0,0,1-4.16,0,3.72,3.72,0,0,1,0-4.76,2.66,2.66,0,0,1,2.08-1,2.61,2.61,0,0,1,1.83.72,3.07,3.07,0,0,1,.25.26l.3.37-.54.62ZM156.46,97a1.4,1.4,0,0,0-.81-.16,1.67,1.67,0,0,0-1.3.62,2.19,2.19,0,0,0-.54,1.49,2,2,0,0,0,.14.93Z"/><path class="cls-6" d="M163.45,96.1,162,98.88l1.67,3.3h-1.24l-1-2-1,2h-1.25l1.67-3.3-1.4-2.78h1.24l.77,1.52.77-1.52Z"/><path class="cls-6" d="M173.14,96.52V92.73h1.08v9.45h-1.08v-.76a2.32,2.32,0,0,1-1.8.92,2.65,2.65,0,0,1-2.08-1,3.72,3.72,0,0,1,0-4.76,2.64,2.64,0,0,1,2.08-1A2.31,2.31,0,0,1,173.14,96.52Zm0,2.91v-.91a2.06,2.06,0,0,0-.5-1,1.67,1.67,0,0,0-1.3-.62,1.69,1.69,0,0,0-1.31.62,2.33,2.33,0,0,0,0,3,1.69,1.69,0,0,0,1.31.62,1.67,1.67,0,0,0,1.3-.62A2,2,0,0,0,173.14,99.43Z"/><path class="cls-6" d="M176.92,93.85a1,1,0,0,1,0,1.22.72.72,0,0,1-.53.25.7.7,0,0,1-.53-.25,1,1,0,0,1,0-1.22.7.7,0,0,1,.53-.25A.72.72,0,0,1,176.92,93.85Zm0,2.25v6.08h-1.07V96.1Z"/><path class="cls-6" d="M182.77,100.09l1.07.44a6.21,6.21,0,0,1-.57.82,2.65,2.65,0,0,1-2.08,1,2.67,2.67,0,0,1-2.08-1,3.72,3.72,0,0,1,0-4.76,2.66,2.66,0,0,1,2.08-1,2.64,2.64,0,0,1,2.08,1,8.86,8.86,0,0,1,.57.81l-1.07.45a3.24,3.24,0,0,0-.28-.37,1.66,1.66,0,0,0-1.3-.62,1.69,1.69,0,0,0-1.3.62,2.33,2.33,0,0,0,0,3,1.68,1.68,0,0,0,2.61,0S182.64,100.28,182.77,100.09Z"/><path class="cls-6" d="M185.73,96.1V93.82h1.07V96.1h.95v1.22h-.95v4.86h-1.07V97.32h-1V96.1Z"/><path class="cls-6" d="M191.25,102.26a2,2,0,0,1-1.62-.7A2.65,2.65,0,0,1,189,99.8V96.1h1.07v3.65a1.37,1.37,0,0,0,.34.91,1.09,1.09,0,0,0,1.64,0,1.32,1.32,0,0,0,.33-.91V96.1h1.07v3.7a2.64,2.64,0,0,1-.62,1.76A2,2,0,0,1,191.25,102.26Z"/><path class="cls-6" d="M195,96.1h1.07v.57a1.18,1.18,0,0,1,1.2-.89c.58,0,.91.34,1,1a1.28,1.28,0,0,1,1.4-1c.75,0,1.13.52,1.13,1.56v4.84H199.7V97.9c0-.6-.21-.89-.63-.89a.6.6,0,0,0-.46.21,2.88,2.88,0,0,0-.19,1.43v3.53h-1.07V97.9c0-.6-.22-.89-.65-.89a.6.6,0,0,0-.45.21,1.82,1.82,0,0,0-.19,1v4H195Z"/><path class="cls-6" d="M203.63,100.54l-1.19,2.83h-1l.66-2.83Z"/><path class="cls-6" d="M209.87,100.8a1.38,1.38,0,0,0,1,.28,1.67,1.67,0,0,0,1.3-.62s.14-.18.28-.37l1.07.44a6.21,6.21,0,0,1-.57.82,2.68,2.68,0,0,1-4.16,0,3.72,3.72,0,0,1,0-4.76,2.69,2.69,0,0,1,3.91-.26l.25.26.29.37-.53.62ZM211.66,97a1.4,1.4,0,0,0-.81-.16,1.67,1.67,0,0,0-1.3.62A2.19,2.19,0,0,0,209,99a1.87,1.87,0,0,0,.14.93Z"/><path class="cls-6" d="M219.35,96.52V96.1h1.08v4.52a4.06,4.06,0,0,1-.84,2.74,3,3,0,0,1-4.17,0,8.51,8.51,0,0,1-.56-.82l1.06-.44.28.37a1.68,1.68,0,0,0,1.3.61c.85,0,1.44-.63,1.77-1.91a1.75,1.75,0,0,1-1.72,1.11,2.69,2.69,0,0,1-2.08-1,3.39,3.39,0,0,1-.86-2.35,3.47,3.47,0,0,1,.86-2.37,2.66,2.66,0,0,1,2.08-1A2.33,2.33,0,0,1,219.35,96.52Zm0,2a2.13,2.13,0,0,0-.5-1,1.67,1.67,0,0,0-1.3-.62,1.69,1.69,0,0,0-1.31.62,2.33,2.33,0,0,0,0,3,1.69,1.69,0,0,0,2.61,0,2.09,2.09,0,0,0,.5-1Z"/><path class="cls-6" d="M223.65,100.8a1.38,1.38,0,0,0,1,.28,1.71,1.71,0,0,0,1.31-.62l.27-.37,1.07.44a6.21,6.21,0,0,1-.57.82,2.68,2.68,0,0,1-4.16,0,3.72,3.72,0,0,1,0-4.76,2.69,2.69,0,0,1,3.91-.26l.25.26.3.37-.54.62ZM225.44,97a1.4,1.4,0,0,0-.81-.16,1.67,1.67,0,0,0-1.3.62,2.19,2.19,0,0,0-.54,1.49,2,2,0,0,0,.14.93Z"/><path class="cls-6" d="M229.59,100.87a.58.58,0,0,0,.46.22.56.56,0,0,0,.45-.22.73.73,0,0,0,.19-.52.76.76,0,0,0-.19-.52,3.84,3.84,0,0,0-.55-.45,3.7,3.7,0,0,1-.82-.64,1.83,1.83,0,0,1,0-2.33,1.29,1.29,0,0,1,1-.49,1.27,1.27,0,0,1,1,.46,1.52,1.52,0,0,1,.36.73l-1,.34a.73.73,0,0,0-.07-.2.3.3,0,0,0-.25-.1.34.34,0,0,0-.26.12.5.5,0,0,0,0,.61,4.77,4.77,0,0,0,.45.36,4.22,4.22,0,0,1,.93.73,2.17,2.17,0,0,1,0,2.77,1.55,1.55,0,0,1-2.42,0,2.05,2.05,0,0,1-.45-1l1.06-.26A.81.81,0,0,0,229.59,100.87Z"/><path class="cls-6" d="M233.8,96.1V93.82h1.07V96.1h1v1.22h-1v4.86H233.8V97.32h-1V96.1Z"/><path class="cls-6" d="M241.68,96.53V96.1h1.08v6.09h-1.08v-.77a2.32,2.32,0,0,1-1.8.92,2.7,2.7,0,0,1-2.08-1,3.72,3.72,0,0,1,0-4.76,2.7,2.7,0,0,1,2.08-1A2.31,2.31,0,0,1,241.68,96.53Zm0,2.9v-.9a2.06,2.06,0,0,0-.5-1,1.69,1.69,0,0,0-2.6,0A2.19,2.19,0,0,0,238,99a2.16,2.16,0,0,0,.54,1.48,1.64,1.64,0,0,0,1.3.62,1.66,1.66,0,0,0,1.3-.61A2.06,2.06,0,0,0,241.68,99.43Z"/><path class="cls-6" d="M245.39,100.87a.57.57,0,0,0,.9,0,.73.73,0,0,0,.19-.52.8.8,0,0,0-.18-.52,4.91,4.91,0,0,0-.56-.45,3.7,3.7,0,0,1-.82-.64,1.83,1.83,0,0,1,0-2.33,1.29,1.29,0,0,1,1-.49,1.25,1.25,0,0,1,1,.46,1.52,1.52,0,0,1,.36.73l-1,.34a.5.5,0,0,0-.07-.2.3.3,0,0,0-.25-.1.34.34,0,0,0-.26.12.44.44,0,0,0-.11.31.4.4,0,0,0,.11.3,3.33,3.33,0,0,0,.44.36,4.22,4.22,0,0,1,.93.73,2.17,2.17,0,0,1,0,2.77,1.55,1.55,0,0,1-1.21.58,1.58,1.58,0,0,1-1.21-.58,2.05,2.05,0,0,1-.45-1l1.06-.26A.71.71,0,0,0,245.39,100.87Z"/><path class="cls-6" d="M257.14,96.52V92.73h1.08v9.45h-1.08v-.76a2.32,2.32,0,0,1-1.8.92,2.65,2.65,0,0,1-2.08-1,3.72,3.72,0,0,1,0-4.76,2.64,2.64,0,0,1,2.08-1A2.31,2.31,0,0,1,257.14,96.52Zm0,2.91v-.91a2.06,2.06,0,0,0-.5-1,1.67,1.67,0,0,0-1.3-.62,1.69,1.69,0,0,0-1.31.62,2.33,2.33,0,0,0,0,3,1.69,1.69,0,0,0,1.31.62,1.67,1.67,0,0,0,1.3-.62A2,2,0,0,0,257.14,99.43Z"/><path class="cls-6" d="M262.4,95.61a2.66,2.66,0,0,1,2.08,1,3.72,3.72,0,0,1,0,4.76,2.68,2.68,0,0,1-4.16,0,3.72,3.72,0,0,1,0-4.76A2.65,2.65,0,0,1,262.4,95.61Zm-1.31,1.87a2.33,2.33,0,0,0,0,3,1.69,1.69,0,0,0,1.31.62,1.67,1.67,0,0,0,1.3-.62,2.33,2.33,0,0,0,0-3,1.67,1.67,0,0,0-1.3-.62A1.69,1.69,0,0,0,261.09,97.48Z"/><path class="cls-6" d="M267.65,92.72v9.46h-1.07V92.72Z"/><path class="cls-6" d="M271.83,95.61a2.64,2.64,0,0,1,2.08,1,3.72,3.72,0,0,1,0,4.76,2.65,2.65,0,0,1-2.08,1,2.67,2.67,0,0,1-2.08-1,3.72,3.72,0,0,1,0-4.76A2.66,2.66,0,0,1,271.83,95.61Zm-1.3,1.87a2.33,2.33,0,0,0,0,3,1.67,1.67,0,0,0,1.3.62,1.69,1.69,0,0,0,1.31-.62,2.33,2.33,0,0,0,0-3,1.69,1.69,0,0,0-1.31-.62A1.67,1.67,0,0,0,270.53,97.48Z"/><path class="cls-6" d="M277.08,96.92a1.85,1.85,0,0,1,1.47-1v1.27a1.32,1.32,0,0,0-.93.43,2.2,2.2,0,0,0-.54,1.41v3.12H276V96.1h1.07Z"/><path class="cls-6" d="M34.49,110.62v-2.28h1.07v2.28h1v1.22h-1v4.86H34.49v-4.86h-1v-1.22Z"/><path class="cls-6" d="M39.42,115.32a1.36,1.36,0,0,0,1,.27A1.68,1.68,0,0,0,41.7,115c0-.06.14-.18.27-.37l1.07.44a9.11,9.11,0,0,1-.56.82,2.68,2.68,0,0,1-2.09,1,2.64,2.64,0,0,1-2.07-1,3.69,3.69,0,0,1,0-4.76,2.64,2.64,0,0,1,2.07-1,2.61,2.61,0,0,1,1.83.72l.26.27.29.37-.54.62Zm1.78-3.78a1.32,1.32,0,0,0-.81-.16,1.69,1.69,0,0,0-1.3.62,2.19,2.19,0,0,0-.54,1.49,2.06,2.06,0,0,0,.14.93Z"/><path class="cls-6" d="M44.28,110.62h1.07v.56a1.19,1.19,0,0,1,1.2-.89c.58,0,.91.34,1,1a1.28,1.28,0,0,1,1.4-1c.75,0,1.13.53,1.13,1.57v4.84H49v-4.28q0-.9-.63-.9a.6.6,0,0,0-.46.21,2.91,2.91,0,0,0-.19,1.43v3.54H46.63v-4.28c0-.6-.22-.9-.65-.9a.6.6,0,0,0-.45.21,1.88,1.88,0,0,0-.19,1v4H44.28Z"/><path class="cls-6" d="M52.68,115.94v2.8H51.61v-8.12h1.07v.55a2.22,2.22,0,0,1,1.8-1,2.67,2.67,0,0,1,2.08,1,3.72,3.72,0,0,1,0,4.76,2.65,2.65,0,0,1-2.08,1A2.32,2.32,0,0,1,52.68,115.94Zm0-2.92v1a2.05,2.05,0,0,0,.5,1,1.67,1.67,0,0,0,1.3.62,1.69,1.69,0,0,0,1.31-.62,2.33,2.33,0,0,0,0-3,1.69,1.69,0,0,0-1.31-.62,1.67,1.67,0,0,0-1.3.62A2,2,0,0,0,52.68,113Z"/><path class="cls-6" d="M61.35,110.12a2.67,2.67,0,0,1,2.08,1,3.72,3.72,0,0,1,0,4.76,2.68,2.68,0,0,1-4.16,0,3.72,3.72,0,0,1,0-4.76A2.66,2.66,0,0,1,61.35,110.12ZM60,112a2.33,2.33,0,0,0,0,3,1.68,1.68,0,0,0,1.31.61,1.66,1.66,0,0,0,1.3-.61,2.33,2.33,0,0,0,0-3,1.67,1.67,0,0,0-1.3-.62A1.69,1.69,0,0,0,60,112Z"/><path class="cls-6" d="M66.6,111.44a1.89,1.89,0,0,1,1.47-1v1.27a1.29,1.29,0,0,0-.93.44,2.09,2.09,0,0,0-.54,1.4v3.13H65.53v-6.08H66.6Z"/><path class="cls-6" d="M69.83,115.05l-1.2,2.84h-1l.67-2.84Z"/><path class="cls-6" d="M75.48,107.24v9.46H74.41v-9.46Z"/><path class="cls-6" d="M79.66,110.12a2.65,2.65,0,0,1,2.08,1,3.72,3.72,0,0,1,0,4.76,2.67,2.67,0,0,1-4.15,0,3.69,3.69,0,0,1,0-4.76A2.66,2.66,0,0,1,79.66,110.12ZM78.36,112a2.33,2.33,0,0,0,0,3,1.66,1.66,0,0,0,1.3.61A1.68,1.68,0,0,0,81,115a2.33,2.33,0,0,0,0-3,1.69,1.69,0,0,0-1.31-.62A1.67,1.67,0,0,0,78.36,112Z"/><path class="cls-6" d="M84.91,115.94v.76H83.84v-9.45h1.07V111a2.33,2.33,0,0,1,1.81-.92,2.67,2.67,0,0,1,2.08,1,3.72,3.72,0,0,1,0,4.76,2.67,2.67,0,0,1-2.08,1A2.33,2.33,0,0,1,84.91,115.94Zm0-2.92v1a2.19,2.19,0,0,0,.5,1,1.68,1.68,0,0,0,1.31.61A1.66,1.66,0,0,0,88,115a2.33,2.33,0,0,0,0-3,1.67,1.67,0,0,0-1.3-.62,1.69,1.69,0,0,0-1.31.62A2.13,2.13,0,0,0,84.91,113Z"/><path class="cls-6" d="M93.71,110.12a2.66,2.66,0,0,1,2.08,1,3.72,3.72,0,0,1,0,4.76,2.68,2.68,0,0,1-4.16,0,3.72,3.72,0,0,1,0-4.76A2.67,2.67,0,0,1,93.71,110.12ZM92.4,112a2.33,2.33,0,0,0,0,3,1.68,1.68,0,0,0,1.31.61A1.66,1.66,0,0,0,95,115a2.33,2.33,0,0,0,0-3,1.67,1.67,0,0,0-1.3-.62A1.69,1.69,0,0,0,92.4,112Z"/><path class="cls-6" d="M99,111.44a1.89,1.89,0,0,1,1.47-1v1.27a1.29,1.29,0,0,0-.93.44,2.09,2.09,0,0,0-.54,1.4v3.13H97.89v-6.08H99Z"/><path class="cls-6" d="M102.32,110.62v-2.28h1.07v2.28h1v1.22h-1v4.86h-1.07v-4.86h-.95v-1.22Z"/><path class="cls-6" d="M106.75,108.37a.91.91,0,0,1,.22.61.89.89,0,0,1-.22.6.69.69,0,0,1-.54.25.67.67,0,0,1-.52-.25.84.84,0,0,1-.22-.6.86.86,0,0,1,.22-.61.67.67,0,0,1,.52-.25A.69.69,0,0,1,106.75,108.37Zm0,2.25v6.08h-1.07v-6.08Z"/><path class="cls-6" d="M109.46,115.39a.6.6,0,0,0,.46.21.57.57,0,0,0,.45-.21.75.75,0,0,0,.19-.53.72.72,0,0,0-.19-.51,3.25,3.25,0,0,0-.55-.45,4,4,0,0,1-.82-.64,1.71,1.71,0,0,1-.42-1.17,1.75,1.75,0,0,1,.42-1.17,1.32,1.32,0,0,1,1-.49,1.27,1.27,0,0,1,1,.47,1.45,1.45,0,0,1,.36.72l-1,.34a.63.63,0,0,0-.07-.19.31.31,0,0,0-.25-.11.35.35,0,0,0-.26.13.43.43,0,0,0-.11.3.48.48,0,0,0,.1.31,4.77,4.77,0,0,0,.45.36,3.94,3.94,0,0,1,.93.73,2,2,0,0,1,.5,1.37,2.09,2.09,0,0,1-.5,1.4,1.55,1.55,0,0,1-1.21.57,1.53,1.53,0,0,1-1.21-.58,2,2,0,0,1-.45-1l1.06-.26A.81.81,0,0,0,109.46,115.39Z"/><path class="cls-6" d="M116.61,110.62h1.07v.56a1.17,1.17,0,0,1,1.19-.89q.87,0,1,1a1.27,1.27,0,0,1,1.39-1c.75,0,1.13.53,1.13,1.57v4.84H121.3v-4.28q0-.9-.63-.9a.6.6,0,0,0-.46.21,3,3,0,0,0-.19,1.43v3.54H119v-4.28c0-.6-.22-.9-.64-.9a.6.6,0,0,0-.46.21,1.8,1.8,0,0,0-.18,1v4h-1.07Z"/><path class="cls-6" d="M128.54,111v-.42h1.08v6.08h-1.08v-.76a2.29,2.29,0,0,1-1.8.92,2.67,2.67,0,0,1-2.08-1,3.71,3.71,0,0,1,0-4.75,2.67,2.67,0,0,1,2.08-1A2.31,2.31,0,0,1,128.54,111Zm0,2.9v-.89a2.09,2.09,0,0,0-.49-1,1.71,1.71,0,0,0-1.31-.62,1.67,1.67,0,0,0-1.3.62,2.16,2.16,0,0,0-.54,1.48,2.19,2.19,0,0,0,.54,1.49,1.67,1.67,0,0,0,1.3.62,1.71,1.71,0,0,0,1.31-.62A2.09,2.09,0,0,0,128.54,113.94Z"/><path class="cls-6" d="M132.25,115.39a.58.58,0,0,0,.45.21.57.57,0,0,0,.45-.21.82.82,0,0,0,0-1,3.46,3.46,0,0,0-.56-.45,4,4,0,0,1-.82-.64,1.71,1.71,0,0,1-.42-1.17,1.75,1.75,0,0,1,.42-1.17,1.34,1.34,0,0,1,1-.49,1.24,1.24,0,0,1,1,.47,1.45,1.45,0,0,1,.36.72l-1,.34a.59.59,0,0,0-.08-.19.3.3,0,0,0-.24-.11.35.35,0,0,0-.27.13.43.43,0,0,0-.11.3.44.44,0,0,0,.11.31,3.33,3.33,0,0,0,.44.36,3.94,3.94,0,0,1,.93.73,2,2,0,0,1,.5,1.37,2,2,0,0,1-.5,1.4,1.56,1.56,0,0,1-2.42,0,2,2,0,0,1-.45-1l1.06-.26A.71.71,0,0,0,132.25,115.39Z"/><path class="cls-6" d="M136.8,115.39a.6.6,0,0,0,.46.21.57.57,0,0,0,.45-.21.75.75,0,0,0,.19-.53.72.72,0,0,0-.19-.51,3.25,3.25,0,0,0-.55-.45,4,4,0,0,1-.82-.64,1.71,1.71,0,0,1-.42-1.17,1.75,1.75,0,0,1,.42-1.17,1.32,1.32,0,0,1,1-.49,1.27,1.27,0,0,1,1,.47,1.45,1.45,0,0,1,.36.72l-1,.34a.63.63,0,0,0-.07-.19.31.31,0,0,0-.25-.11.35.35,0,0,0-.26.13.43.43,0,0,0-.11.3.48.48,0,0,0,.1.31,4.77,4.77,0,0,0,.45.36,3.94,3.94,0,0,1,.93.73,2,2,0,0,1,.5,1.37,2.09,2.09,0,0,1-.5,1.4,1.55,1.55,0,0,1-1.21.57,1.53,1.53,0,0,1-1.21-.58,2,2,0,0,1-.45-1l1.06-.26A.81.81,0,0,0,136.8,115.39Z"/><path class="cls-6" d="M144.9,111v-.42H146v6.08H144.9v-.76a2.32,2.32,0,0,1-1.8.92,2.66,2.66,0,0,1-2.08-1,3.71,3.71,0,0,1,0-4.75,2.66,2.66,0,0,1,2.08-1A2.34,2.34,0,0,1,144.9,111Zm0,2.9v-.89a2.11,2.11,0,0,0-.5-1,1.67,1.67,0,0,0-1.3-.62,1.69,1.69,0,0,0-1.31.62,2.16,2.16,0,0,0-.54,1.48,2.19,2.19,0,0,0,.54,1.49,1.69,1.69,0,0,0,1.31.62,1.67,1.67,0,0,0,1.3-.62A2.11,2.11,0,0,0,144.9,113.94Z"/><path class="cls-6" d="M148.36,115.31a.84.84,0,0,1,.22.6.86.86,0,0,1-.22.61.66.66,0,0,1-.53.25.69.69,0,0,1-.53-.25.91.91,0,0,1-.22-.61.89.89,0,0,1,.22-.6.69.69,0,0,1,.53-.25A.66.66,0,0,1,148.36,115.31Z"/><path class="cls-6" d="M154.24,113.67v3h-1.07v-9.45h2.35a2.73,2.73,0,0,1,1.68.93,3.57,3.57,0,0,1,0,4.55,2.54,2.54,0,0,1-2,.94Zm0-5.2v4h1a1.57,1.57,0,0,0,1.22-.58,2.19,2.19,0,0,0,0-2.81,1.6,1.6,0,0,0-1.22-.58Z"/><path class="cls-6" d="M160.26,115.32a1.38,1.38,0,0,0,1,.27,1.68,1.68,0,0,0,1.31-.61l.27-.37,1.07.44a7,7,0,0,1-.57.82,2.68,2.68,0,0,1-4.16,0,3.72,3.72,0,0,1,0-4.76,2.67,2.67,0,0,1,2.08-1,2.61,2.61,0,0,1,1.83.72,3.2,3.2,0,0,1,.25.27s.14.16.3.37l-.54.62Zm1.79-3.78a1.32,1.32,0,0,0-.81-.16,1.67,1.67,0,0,0-1.3.62,2.19,2.19,0,0,0-.54,1.49,2.06,2.06,0,0,0,.14.93Z"/><path class="cls-6" d="M166.21,107.24v9.46h-1.08v-9.46Z"/><path class="cls-6" d="M168.83,107.24v9.46h-1.07v-9.46Z"/><path class="cls-6" d="M172,115.32a1.34,1.34,0,0,0,1,.27,1.68,1.68,0,0,0,1.31-.61c0-.06.14-.18.27-.37l1.07.44a7,7,0,0,1-.57.82,2.67,2.67,0,0,1-4.15,0,3.69,3.69,0,0,1,0-4.76,2.64,2.64,0,0,1,2.07-1,2.61,2.61,0,0,1,1.83.72,3.2,3.2,0,0,1,.25.27s.14.16.3.37l-.54.62Zm1.78-3.78a1.32,1.32,0,0,0-.81-.16,1.69,1.69,0,0,0-1.3.62,2.19,2.19,0,0,0-.54,1.49,2.06,2.06,0,0,0,.14.93Z"/><path class="cls-6" d="M178,112.25v4.45H176.9v-6.08H178v.71a1.31,1.31,0,0,1,1.35-1,1.61,1.61,0,0,1,1.37.7,3,3,0,0,1,.52,1.75v4h-1.07v-3.91a1.32,1.32,0,0,0-.33-.9,1,1,0,0,0-.8-.37,1.07,1.07,0,0,0-.8.36A1.6,1.6,0,0,0,178,112.25Z"/><path class="cls-6" d="M183.43,110.62v-2.28h1.07v2.28h1v1.22h-1v4.86h-1.07v-4.86h-1v-1.22Z"/><path class="cls-6" d="M188.36,115.32a1.37,1.37,0,0,0,1,.27,1.66,1.66,0,0,0,1.3-.61l.28-.37,1.07.44a7,7,0,0,1-.57.82,2.68,2.68,0,0,1-4.16,0,3.72,3.72,0,0,1,0-4.76,2.68,2.68,0,0,1,3.91-.27c.08.09.17.17.25.27l.29.37-.53.62Zm1.79-3.78a1.32,1.32,0,0,0-.81-.16,1.67,1.67,0,0,0-1.3.62,2.19,2.19,0,0,0-.54,1.49,1.93,1.93,0,0,0,.14.93Z"/><path class="cls-6" d="M194.3,115.39a.6.6,0,0,0,.91,0,.8.8,0,0,0,.19-.53.72.72,0,0,0-.19-.51,3.25,3.25,0,0,0-.55-.45,3.75,3.75,0,0,1-.82-.64,1.68,1.68,0,0,1-.43-1.17,1.71,1.71,0,0,1,.43-1.17,1.32,1.32,0,0,1,1-.49,1.27,1.27,0,0,1,1,.47,1.45,1.45,0,0,1,.36.72l-1,.34a.63.63,0,0,0-.07-.19.33.33,0,0,0-.25-.11.39.39,0,0,0-.27.13.48.48,0,0,0-.11.3.49.49,0,0,0,.11.31,3.69,3.69,0,0,0,.45.36,4.41,4.41,0,0,1,.93.73,2,2,0,0,1,.5,1.37,2.09,2.09,0,0,1-.5,1.4,1.55,1.55,0,0,1-1.21.57,1.52,1.52,0,0,1-1.21-.58,2,2,0,0,1-.46-1l1.07-.26A.81.81,0,0,0,194.3,115.39Z"/><path class="cls-6" d="M202.27,111v-.42h1.07v8.12h-1.07v-2.8a2.32,2.32,0,0,1-1.8.92,2.65,2.65,0,0,1-2.08-1,3.72,3.72,0,0,1,0-4.76,2.67,2.67,0,0,1,2.08-1A2.31,2.31,0,0,1,202.27,111Zm0,2.9V113a2.06,2.06,0,0,0-.5-1,1.67,1.67,0,0,0-1.3-.62,1.69,1.69,0,0,0-1.31.62,2.33,2.33,0,0,0,0,3,1.69,1.69,0,0,0,1.31.62,1.67,1.67,0,0,0,1.3-.62A2,2,0,0,0,202.27,113.94Z"/><path class="cls-6" d="M207.15,116.78a2.07,2.07,0,0,1-1.62-.7,2.6,2.6,0,0,1-.64-1.76v-3.7H206v3.65a1.28,1.28,0,0,0,.34.9,1.07,1.07,0,0,0,.83.38,1,1,0,0,0,.8-.38,1.28,1.28,0,0,0,.34-.9v-3.65h1.07v3.7a2.65,2.65,0,0,1-.63,1.76A2,2,0,0,1,207.15,116.78Z"/><path class="cls-6" d="M212.55,115.32a1.38,1.38,0,0,0,1,.27,1.7,1.7,0,0,0,1.31-.61l.27-.37,1.07.44a7,7,0,0,1-.57.82,2.68,2.68,0,0,1-4.16,0,3.72,3.72,0,0,1,0-4.76,2.67,2.67,0,0,1,2.08-1,2.65,2.65,0,0,1,1.83.72c.08.09.17.17.25.27l.3.37-.54.62Zm1.79-3.78a1.32,1.32,0,0,0-.81-.16,1.67,1.67,0,0,0-1.3.62,2.19,2.19,0,0,0-.54,1.49,2.06,2.06,0,0,0,.14.93Z"/><path class="cls-6" d="M222.15,115.94v2.8h-1.07v-8.12h1.07v.55a2.22,2.22,0,0,1,1.8-1,2.68,2.68,0,0,1,2.08,1,3.72,3.72,0,0,1,0,4.76,2.66,2.66,0,0,1-2.08,1A2.32,2.32,0,0,1,222.15,115.94Zm0-2.92v1a2,2,0,0,0,.5,1,1.67,1.67,0,0,0,1.3.62,1.69,1.69,0,0,0,1.31-.62,2.33,2.33,0,0,0,0-3,1.69,1.69,0,0,0-1.31-.62,1.67,1.67,0,0,0-1.3.62A2,2,0,0,0,222.15,113Z"/><path class="cls-6" d="M229.84,115.32a1.36,1.36,0,0,0,1,.27,1.68,1.68,0,0,0,1.31-.61l.28-.37,1.06.44a9.11,9.11,0,0,1-.56.82,2.68,2.68,0,0,1-2.09,1,2.64,2.64,0,0,1-2.07-1,3.69,3.69,0,0,1,0-4.76,2.64,2.64,0,0,1,2.07-1,2.61,2.61,0,0,1,1.83.72l.26.27.29.37-.54.62Zm1.79-3.78a1.38,1.38,0,0,0-.82-.16,1.69,1.69,0,0,0-1.3.62,2.19,2.19,0,0,0-.54,1.49,2.06,2.06,0,0,0,.14.93Z"/><path class="cls-6" d="M235.78,107.24v9.46H234.7v-9.46Z"/><path class="cls-6" d="M238.4,107.24v9.46h-1.07v-9.46Z"/><path class="cls-6" d="M241.61,115.32a1.37,1.37,0,0,0,1,.27,1.68,1.68,0,0,0,1.3-.61l.28-.37,1.07.44c-.27.41-.46.69-.57.82a2.68,2.68,0,0,1-4.16,0,3.69,3.69,0,0,1,0-4.76,2.66,2.66,0,0,1,2.08-1,2.6,2.6,0,0,1,1.82.72l.26.27.29.37-.54.62Zm1.79-3.78a1.32,1.32,0,0,0-.81-.16,1.67,1.67,0,0,0-1.3.62,2.19,2.19,0,0,0-.54,1.49,1.93,1.93,0,0,0,.14.93Z"/><path class="cls-6" d="M247.55,112.25v4.45h-1.07v-6.08h1.07v.71a1.32,1.32,0,0,1,1.35-1,1.59,1.59,0,0,1,1.37.7,3,3,0,0,1,.53,1.75v4h-1.07v-3.91a1.32,1.32,0,0,0-.34-.9,1,1,0,0,0-.8-.37,1.07,1.07,0,0,0-.8.36A1.6,1.6,0,0,0,247.55,112.25Z"/><path class="cls-6" d="M253,110.62v-2.28h1.07v2.28H255v1.22h-.95v4.86H253v-4.86h-1v-1.22Z"/><path class="cls-6" d="M257.93,115.32a1.38,1.38,0,0,0,1,.27,1.7,1.7,0,0,0,1.31-.61l.27-.37,1.07.44a7,7,0,0,1-.57.82,2.68,2.68,0,0,1-4.16,0,3.72,3.72,0,0,1,0-4.76,2.67,2.67,0,0,1,2.08-1,2.65,2.65,0,0,1,1.83.72c.08.09.17.17.25.27l.3.37-.54.62Zm1.79-3.78a1.32,1.32,0,0,0-.81-.16,1.67,1.67,0,0,0-1.3.62,2.19,2.19,0,0,0-.54,1.49,2.06,2.06,0,0,0,.14.93Z"/><path class="cls-6" d="M263.87,115.39a.6.6,0,0,0,.46.21.58.58,0,0,0,.45-.21.75.75,0,0,0,.19-.53.72.72,0,0,0-.19-.51,3.25,3.25,0,0,0-.55-.45,4,4,0,0,1-.82-.64,1.71,1.71,0,0,1-.42-1.17,1.75,1.75,0,0,1,.42-1.17,1.32,1.32,0,0,1,1-.49,1.27,1.27,0,0,1,1,.47,1.45,1.45,0,0,1,.36.72l-1,.34a.63.63,0,0,0-.07-.19.31.31,0,0,0-.25-.11.35.35,0,0,0-.26.13.43.43,0,0,0-.11.3.48.48,0,0,0,.1.31,4.77,4.77,0,0,0,.45.36,3.94,3.94,0,0,1,.93.73,2,2,0,0,1,.5,1.37,2.09,2.09,0,0,1-.5,1.4,1.55,1.55,0,0,1-1.21.57,1.53,1.53,0,0,1-1.21-.58,2,2,0,0,1-.45-1l1.06-.26A.81.81,0,0,0,263.87,115.39Z"/><path class="cls-6" d="M271.84,111v-.42h1.08v8.12h-1.08v-2.8a2.31,2.31,0,0,1-1.8.92,2.66,2.66,0,0,1-2.08-1,3.72,3.72,0,0,1,0-4.76,2.68,2.68,0,0,1,2.08-1A2.3,2.3,0,0,1,271.84,111Zm0,2.9V113a2.06,2.06,0,0,0-.5-1,1.67,1.67,0,0,0-1.3-.62,1.69,1.69,0,0,0-1.31.62,2.33,2.33,0,0,0,0,3,1.69,1.69,0,0,0,1.31.62,1.67,1.67,0,0,0,1.3-.62A2,2,0,0,0,271.84,113.94Z"/><path class="cls-6" d="M276.72,116.78a2.07,2.07,0,0,1-1.62-.7,2.65,2.65,0,0,1-.63-1.76v-3.7h1.07v3.65a1.28,1.28,0,0,0,.34.9,1.07,1.07,0,0,0,.84.38,1,1,0,0,0,.79-.38,1.28,1.28,0,0,0,.34-.9v-3.65h1.07v3.7a2.69,2.69,0,0,1-.62,1.76A2,2,0,0,1,276.72,116.78Z"/><path class="cls-6" d="M282.13,115.32a1.34,1.34,0,0,0,1,.27,1.68,1.68,0,0,0,1.31-.61c0-.06.14-.18.27-.37l1.07.44a7,7,0,0,1-.57.82,2.65,2.65,0,0,1-2.08,1,2.67,2.67,0,0,1-2.08-1,3.72,3.72,0,0,1,0-4.76,2.67,2.67,0,0,1,2.08-1,2.61,2.61,0,0,1,1.83.72,3.2,3.2,0,0,1,.25.27s.14.16.3.37l-.54.62Zm1.78-3.78a1.32,1.32,0,0,0-.81-.16,1.69,1.69,0,0,0-1.3.62,2.19,2.19,0,0,0-.54,1.49,2.06,2.06,0,0,0,.14.93Z"/><path class="cls-6" d="M35.5,129.83a1.32,1.32,0,0,0,1,.28,1.67,1.67,0,0,0,1.3-.62,4.31,4.31,0,0,0,.28-.36l1.07.43a6.21,6.21,0,0,1-.57.82,2.68,2.68,0,0,1-4.16,0,3.72,3.72,0,0,1,0-4.76,2.68,2.68,0,0,1,2.08-1,2.65,2.65,0,0,1,1.83.72l.25.26.29.38-.53.62Zm1.79-3.78a1.42,1.42,0,0,0-.81-.15,1.66,1.66,0,0,0-1.3.61,2.19,2.19,0,0,0-.54,1.49,1.87,1.87,0,0,0,.14.93Z"/><path class="cls-6" d="M41.44,126a1.87,1.87,0,0,1,1.47-1v1.27a1.28,1.28,0,0,0-.93.43,2.1,2.1,0,0,0-.54,1.41v3.12H40.37v-6.08h1.07Z"/><path class="cls-6" d="M46.47,124.64a2.67,2.67,0,0,1,2.08,1,3.69,3.69,0,0,1,0,4.76,2.67,2.67,0,0,1-4.15,0,3.69,3.69,0,0,1,0-4.76A2.68,2.68,0,0,1,46.47,124.64Zm-1.3,1.88a2.31,2.31,0,0,0,0,3,1.68,1.68,0,0,0,2.61,0,2.31,2.31,0,0,0,0-3,1.68,1.68,0,0,0-2.61,0Z"/><path class="cls-6" d="M51.73,129.91a.6.6,0,0,0,.91,0,.82.82,0,0,0,.19-.53.76.76,0,0,0-.19-.51,4.34,4.34,0,0,0-.55-.46,3.47,3.47,0,0,1-.82-.64,1.79,1.79,0,0,1,0-2.33,1.29,1.29,0,0,1,1-.49,1.27,1.27,0,0,1,1,.46,1.62,1.62,0,0,1,.36.73l-1,.34a.87.87,0,0,0-.07-.19.31.31,0,0,0-.25-.11.34.34,0,0,0-.27.13.46.46,0,0,0,0,.6,3.33,3.33,0,0,0,.44.36,4.22,4.22,0,0,1,.93.73,2,2,0,0,1,.51,1.38,2.06,2.06,0,0,1-.5,1.39,1.58,1.58,0,0,1-1.22.58,1.54,1.54,0,0,1-1.2-.58,1.94,1.94,0,0,1-.46-1l1.07-.26A.8.8,0,0,0,51.73,129.91Z"/><path class="cls-6" d="M60,122.88a.92.92,0,0,1,0,1.22.69.69,0,0,1-.53.25.72.72,0,0,1-.53-.25,1,1,0,0,1,0-1.22.72.72,0,0,1,.53-.25A.69.69,0,0,1,60,122.88Zm0,2.25v6.08H59v-6.08Z"/><path class="cls-6" d="M62.74,130.45v2.8H61.67v-8.12h1.07v.55a2.22,2.22,0,0,1,1.8-1,2.66,2.66,0,0,1,2.08,1,3.71,3.71,0,0,1,0,4.75,2.66,2.66,0,0,1-2.08,1A2.26,2.26,0,0,1,62.74,130.45Zm0-2.92v.95a2,2,0,0,0,.5,1,1.69,1.69,0,0,0,2.6,0,2.21,2.21,0,0,0,.54-1.5,2.16,2.16,0,0,0-.54-1.48,1.67,1.67,0,0,0-2.6,0A2,2,0,0,0,62.74,127.53Z"/><path class="cls-6" d="M69.85,129.91a.58.58,0,0,0,.45.21.57.57,0,0,0,.45-.21.77.77,0,0,0,.19-.53.76.76,0,0,0-.18-.51,4,4,0,0,0-.56-.46,3.7,3.7,0,0,1-.82-.64,1.83,1.83,0,0,1,0-2.33,1.29,1.29,0,0,1,1-.49,1.25,1.25,0,0,1,1,.46,1.52,1.52,0,0,1,.36.73l-1,.34a.5.5,0,0,0-.08-.19.28.28,0,0,0-.25-.11.32.32,0,0,0-.26.13.46.46,0,0,0,0,.6,3.33,3.33,0,0,0,.44.36,4.22,4.22,0,0,1,.93.73,2.07,2.07,0,0,1,.5,1.38,2,2,0,0,1-.5,1.39,1.55,1.55,0,0,1-1.21.58,1.58,1.58,0,0,1-1.21-.58,2,2,0,0,1-.45-1l1.06-.26A.79.79,0,0,0,69.85,129.91Z"/><path class="cls-6" d="M75.58,131.29a2,2,0,0,1-1.62-.7,2.63,2.63,0,0,1-.63-1.76v-3.7H74.4v3.65a1.35,1.35,0,0,0,.34.91,1.07,1.07,0,0,0,1.64,0,1.32,1.32,0,0,0,.33-.91v-3.65h1.07v3.7a2.67,2.67,0,0,1-.62,1.76A2,2,0,0,1,75.58,131.29Z"/><path class="cls-6" d="M79.33,125.13H80.4v.57a1.19,1.19,0,0,1,1.2-.89c.58,0,.91.34,1,1a1.28,1.28,0,0,1,1.4-1c.75,0,1.13.52,1.13,1.56v4.84H84v-4.28c0-.59-.21-.89-.63-.89a.6.6,0,0,0-.46.21,2.88,2.88,0,0,0-.19,1.43v3.53H81.68v-4.28c0-.59-.22-.89-.65-.89a.6.6,0,0,0-.45.21,1.82,1.82,0,0,0-.19,1v4H79.33Z"/><path class="cls-6" d="M88,129.57l-1.19,2.83h-1l.66-2.83Z"/><path class="cls-6" d="M93.62,129.91a.6.6,0,0,0,.91,0,.82.82,0,0,0,.19-.53.72.72,0,0,0-.19-.51,3.7,3.7,0,0,0-.55-.46,3.47,3.47,0,0,1-.82-.64,1.79,1.79,0,0,1,0-2.33,1.29,1.29,0,0,1,1-.49,1.27,1.27,0,0,1,1,.46,1.52,1.52,0,0,1,.36.73l-1,.34a.54.54,0,0,0-.07-.19.3.3,0,0,0-.25-.11.35.35,0,0,0-.27.13.46.46,0,0,0,0,.6,3.69,3.69,0,0,0,.45.36,4.77,4.77,0,0,1,.93.73,2.17,2.17,0,0,1,0,2.77,1.55,1.55,0,0,1-2.42,0,2,2,0,0,1-.46-1l1.07-.26A.91.91,0,0,0,93.62,129.91Z"/><path class="cls-6" d="M98.76,129.83a1.31,1.31,0,0,0,1,.28,1.69,1.69,0,0,0,1.31-.62,4.31,4.31,0,0,0,.28-.36l1.07.43a9.15,9.15,0,0,1-.57.82,2.68,2.68,0,0,1-4.16,0,3.69,3.69,0,0,1,0-4.76,2.68,2.68,0,0,1,2.07-1,2.61,2.61,0,0,1,1.83.72c.09.08.17.17.26.26l.29.38-.54.62Zm1.79-3.78a1.48,1.48,0,0,0-.82-.15,1.68,1.68,0,0,0-1.3.61,2.24,2.24,0,0,0-.54,1.49,2,2,0,0,0,.14.93Z"/><path class="cls-6" d="M108.24,125.55v-3.79h1.07v9.45h-1.07v-.76a2.29,2.29,0,0,1-1.8.92,2.65,2.65,0,0,1-2.08-1,3.72,3.72,0,0,1,0-4.76,2.67,2.67,0,0,1,2.08-1A2.31,2.31,0,0,1,108.24,125.55Zm0,2.91v-.91a2,2,0,0,0-.5-1,1.64,1.64,0,0,0-1.3-.62,1.66,1.66,0,0,0-1.31.62,2.31,2.31,0,0,0,0,3,1.69,1.69,0,0,0,1.31.62,1.67,1.67,0,0,0,1.3-.62A2,2,0,0,0,108.24,128.46Z"/><path class="cls-6" d="M114.52,121.76h1.08v4a1.41,1.41,0,0,1,1.3-1,1.61,1.61,0,0,1,1.36.7,3,3,0,0,1,.53,1.76v4h-1.07v-3.9a1.56,1.56,0,0,0-.26-.9,1,1,0,0,0-.83-.38,1.14,1.14,0,0,0-1,.82v4.36h-1.08Z"/><path class="cls-6" d="M122,129.83a1.32,1.32,0,0,0,1,.28,1.67,1.67,0,0,0,1.3-.62,4.31,4.31,0,0,0,.28-.36l1.07.43a6.21,6.21,0,0,1-.57.82,2.68,2.68,0,0,1-4.16,0,3.72,3.72,0,0,1,0-4.76,2.7,2.7,0,0,1,2.08-1,2.65,2.65,0,0,1,1.83.72l.25.26.29.38-.53.62Zm1.79-3.78a1.42,1.42,0,0,0-.81-.15,1.66,1.66,0,0,0-1.3.61,2.19,2.19,0,0,0-.54,1.49,1.87,1.87,0,0,0,.14.93Z"/><path class="cls-6" d="M127.93,126.76v4.45h-1.07v-6.08h1.07v.71a1.34,1.34,0,0,1,1.35-1,1.62,1.62,0,0,1,1.37.7,3,3,0,0,1,.53,1.76v4h-1.07v-3.9a1.28,1.28,0,0,0-.34-.9,1,1,0,0,0-.8-.38,1,1,0,0,0-.79.37A1.38,1.38,0,0,0,127.93,126.76Z"/><path class="cls-6" d="M137.36,125.55v-3.79h1.07v9.45h-1.07v-.76a2.3,2.3,0,0,1-1.81.92,2.67,2.67,0,0,1-2.08-1,3.72,3.72,0,0,1,0-4.76,2.7,2.7,0,0,1,2.08-1A2.31,2.31,0,0,1,137.36,125.55Zm0,2.91v-.91a2,2,0,0,0-.5-1,1.66,1.66,0,0,0-1.31-.62,1.64,1.64,0,0,0-1.3.62,2.31,2.31,0,0,0,0,3,1.67,1.67,0,0,0,1.3.62,1.69,1.69,0,0,0,1.31-.62A2,2,0,0,0,137.36,128.46Z"/><path class="cls-6" d="M141.05,126a1.87,1.87,0,0,1,1.48-1v1.27a1.28,1.28,0,0,0-.93.43,2.16,2.16,0,0,0-.55,1.41v3.12H140v-6.08h1.07Z"/><path class="cls-6" d="M145.2,129.83a1.31,1.31,0,0,0,1,.28,1.69,1.69,0,0,0,1.31-.62,3.14,3.14,0,0,0,.27-.36l1.07.43a7.8,7.8,0,0,1-.56.82,2.68,2.68,0,0,1-2.09,1,2.64,2.64,0,0,1-2.07-1,3.69,3.69,0,0,1,0-4.76,2.66,2.66,0,0,1,2.07-1,2.61,2.61,0,0,1,1.83.72c.09.08.17.17.26.26l.29.38-.54.62Zm1.78-3.78a1.42,1.42,0,0,0-.81-.15,1.68,1.68,0,0,0-1.3.61,2.19,2.19,0,0,0-.54,1.49,2,2,0,0,0,.14.93Z"/><path class="cls-6" d="M151.13,126a1.87,1.87,0,0,1,1.48-1v1.27a1.28,1.28,0,0,0-.93.43,2.16,2.16,0,0,0-.55,1.41v3.12h-1.07v-6.08h1.07Z"/><path class="cls-6" d="M154.9,122.88a1,1,0,0,1,0,1.22.7.7,0,0,1-.53.25.72.72,0,0,1-.53-.25,1,1,0,0,1,0-1.22.72.72,0,0,1,.53-.25A.7.7,0,0,1,154.9,122.88Zm0,2.25v6.08h-1.07v-6.08Z"/><path class="cls-6" d="M157.19,125.13v-2.28h1.07v2.28h1v1.23h-1v4.85h-1.07v-4.85h-1v-1.23Z"/><path class="cls-6" d="M165.77,129.83a1.34,1.34,0,0,0,1,.28,1.69,1.69,0,0,0,1.31-.62l.27-.36,1.07.43a6.21,6.21,0,0,1-.57.82,2.68,2.68,0,0,1-4.16,0,3.72,3.72,0,0,1,0-4.76,2.7,2.7,0,0,1,2.08-1,2.63,2.63,0,0,1,1.83.72l.25.26s.13.17.3.38l-.54.62Zm1.79-3.78a1.42,1.42,0,0,0-.81-.15,1.66,1.66,0,0,0-1.3.61,2.19,2.19,0,0,0-.54,1.49,2,2,0,0,0,.14.93Z"/><path class="cls-6" d="M171.71,126a1.87,1.87,0,0,1,1.47-1v1.27a1.28,1.28,0,0,0-.93.43,2.1,2.1,0,0,0-.54,1.41v3.12h-1.07v-6.08h1.07Z"/><path class="cls-6" d="M176.75,124.64a2.7,2.7,0,0,1,2.08,1,3.72,3.72,0,0,1,0,4.76,2.68,2.68,0,0,1-4.16,0,3.72,3.72,0,0,1,0-4.76A2.7,2.7,0,0,1,176.75,124.64Zm-1.31,1.88a2.31,2.31,0,0,0,0,3,1.69,1.69,0,0,0,1.31.62,1.67,1.67,0,0,0,1.3-.62,2.31,2.31,0,0,0,0-3,1.64,1.64,0,0,0-1.3-.62A1.66,1.66,0,0,0,175.44,126.52Z"/><path class="cls-6" d="M182,129.91a.6.6,0,0,0,.91,0,.77.77,0,0,0,.19-.53.72.72,0,0,0-.19-.51,3.7,3.7,0,0,0-.55-.46,3.47,3.47,0,0,1-.82-.64,1.79,1.79,0,0,1,0-2.33,1.29,1.29,0,0,1,1-.49,1.27,1.27,0,0,1,1,.46,1.52,1.52,0,0,1,.36.73l-1,.34a.54.54,0,0,0-.07-.19.3.3,0,0,0-.25-.11.32.32,0,0,0-.26.13.41.41,0,0,0-.12.3.44.44,0,0,0,.11.3,4.77,4.77,0,0,0,.45.36,4.77,4.77,0,0,1,.93.73,2.17,2.17,0,0,1,0,2.77,1.55,1.55,0,0,1-2.42,0,2.11,2.11,0,0,1-.46-1l1.07-.26A.91.91,0,0,0,182,129.91Z"/><path class="cls-6" d="M190.8,129.83a1.31,1.31,0,0,0,1,.28,1.69,1.69,0,0,0,1.31-.62,4.31,4.31,0,0,0,.28-.36l1.07.43a9.15,9.15,0,0,1-.57.82,2.68,2.68,0,0,1-4.16,0,3.69,3.69,0,0,1,0-4.76,2.68,2.68,0,0,1,2.07-1,2.61,2.61,0,0,1,1.83.72c.09.08.17.17.26.26l.29.38-.54.62Zm1.79-3.78a1.44,1.44,0,0,0-.82-.15,1.66,1.66,0,0,0-1.29.61,2.19,2.19,0,0,0-.54,1.49,2,2,0,0,0,.13.93Z"/><path class="cls-6" d="M196.91,126.35v4.87h-1.08v-4.87h-.47v-1.22h.47V124a2.06,2.06,0,0,1,.51-1.29,1.48,1.48,0,0,1,1.12-.52,3,3,0,0,1,1,.25l-.36,1.16a2,2,0,0,0-.57-.22.57.57,0,0,0-.42.21.65.65,0,0,0-.18.46v1h1v1.22Z"/><path class="cls-6" d="M200.06,126.35v4.87H199v-4.87h-.48v-1.22H199V124a2,2,0,0,1,.5-1.29,1.5,1.5,0,0,1,1.13-.52,2.9,2.9,0,0,1,1,.25l-.35,1.16a2,2,0,0,0-.58-.22.61.61,0,0,0-.42.21.75.75,0,0,0-.18.46v1h1v1.22Z"/><path class="cls-6" d="M203.06,122.88a1,1,0,0,1,0,1.22.72.72,0,0,1-.54.25.68.68,0,0,1-.52-.25.92.92,0,0,1,0-1.22.68.68,0,0,1,.52-.25A.72.72,0,0,1,203.06,122.88Zm0,2.25v6.08H202v-6.08Z"/><path class="cls-6" d="M208.91,129.13l1.07.43a6.21,6.21,0,0,1-.57.82,2.68,2.68,0,0,1-4.16,0,3.72,3.72,0,0,1,0-4.76,2.7,2.7,0,0,1,4.16,0,8.86,8.86,0,0,1,.57.81l-1.07.45c-.14-.19-.23-.32-.28-.37a1.69,1.69,0,0,0-2.6,0,2.33,2.33,0,0,0,0,3,1.67,1.67,0,0,0,1.3.62,1.71,1.71,0,0,0,1.31-.62Z"/><path class="cls-6" d="M212.37,122.88a1,1,0,0,1,0,1.22.7.7,0,0,1-.53.25.72.72,0,0,1-.53-.25,1,1,0,0,1,0-1.22.72.72,0,0,1,.53-.25A.7.7,0,0,1,212.37,122.88Zm0,2.25v6.08h-1.07v-6.08Z"/><path class="cls-6" d="M214.66,125.13v-2.28h1.07v2.28h1v1.23h-1v4.85h-1.07v-4.85h-1v-1.23Z"/><path class="cls-6" d="M220.18,131.29a2,2,0,0,1-1.62-.7,2.63,2.63,0,0,1-.63-1.76v-3.7H219v3.65a1.34,1.34,0,0,0,.33.91,1.1,1.1,0,0,0,.84.38,1.05,1.05,0,0,0,.8-.38,1.33,1.33,0,0,0,.34-.91v-3.65h1.07v3.7a2.63,2.63,0,0,1-.63,1.76A2,2,0,0,1,220.18,131.29Z"/><path class="cls-6" d="M225,126a1.87,1.87,0,0,1,1.47-1v1.27a1.28,1.28,0,0,0-.93.43,2.1,2.1,0,0,0-.54,1.41v3.12h-1.07v-6.08H225Z"/><path class="cls-6" d="M227.77,129.82a1,1,0,0,1,0,1.22.69.69,0,0,1-.53.25.67.67,0,0,1-.53-.25,1,1,0,0,1,0-1.22.7.7,0,0,1,.53-.25A.72.72,0,0,1,227.77,129.82Z"/></g></g></g></svg>