<svg xmlns="http://www.w3.org/2000/svg" viewBox="0 0 594.22 251.83"><defs><style>.cls-1{isolation:isolate;}.cls-2{fill:#3fb2ab;}.cls-3{opacity:0.24;}.cls-24,.cls-4,.cls-9{fill:#fff;}.cls-5{fill:#c9c9c9;}.cls-6{fill:#dfdfde;}.cls-22,.cls-7{fill:#f3f3f3;}.cls-8{fill:#ccc;}.cls-9{opacity:0.3;}.cls-10{fill:#fbd019;}.cls-11{fill:#f3e215;}.cls-12{fill:#f0d917;}.cls-13{fill:#64596f;}.cls-14{fill:#efb81c;}.cls-15{fill:#d1b92b;}.cls-16{fill:#d4c9b9;}.cls-16,.cls-19,.cls-25,.cls-32,.cls-42,.cls-44,.cls-48,.cls-49{mix-blend-mode:multiply;}.cls-17{fill:#53577c;}.cls-18{fill:#6c7b9b;}.cls-19{fill:#d3bfae;opacity:0.74;}.cls-20{fill:#f58020;}.cls-21{fill:#fad116;}.cls-22{opacity:0.07;}.cls-23{fill:#7277a0;}.cls-24{opacity:0.1;}.cls-25{fill:#c7c5cc;}.cls-26{fill:#e7ebe9;}.cls-27{fill:#e1e3e3;}.cls-28{fill:#e1e5e5;}.cls-29{fill:#eac01d;}.cls-30{fill:#f4d916;}.cls-31{fill:#fdfeff;}.cls-32{fill:#e5dac5;}.cls-33{fill:#b7bfc0;}.cls-34{fill:#d0d8d7;}.cls-35{fill:#8a625a;}.cls-36{fill:#a7766d;}.cls-37{fill:#f2e016;}.cls-38{fill:#79554f;}.cls-39{fill:#f5cb50;}.cls-40{fill:#f7cf1a;}.cls-41{fill:#efb01e;}.cls-42{fill:#d0c5ba;}.cls-43{fill:#e5e5e5;}.cls-45{fill:#d5d8d9;}.cls-46{fill:#fdcd9c;}.cls-47{fill:#f3c21a;}.cls-48{fill:#d6c9cf;}.cls-49,.cls-51{fill:#e5d7ca;}.cls-50{fill:#98564e;}</style></defs><g class="cls-1"><g id="Layer_2" data-name="Layer 2"><g id="Layer_1-2" data-name="Layer 1"><rect class="cls-2" width="594.22" height="251.83"/><g class="cls-3"><path class="cls-4" d="M553.3,84.23a16.79,16.79,0,0,0,1.48-1.11,7.56,7.56,0,0,0,4.61,1.63c5.09,0,9.2-5.22,9.2-11.63s-4.11-11.67-9.2-11.67-9.13,5.22-9.13,11.67c0,.6,0,1.17.07,1.69-8.53,5.76-16.76,9.07-27,9.54-12.17.53-22-7.1-32-15A131.84,131.84,0,0,0,467,54.18a43.69,43.69,0,0,1,.59,7.07,40.42,40.42,0,0,1-2.13,13c9.08,4.23,18,10.06,25.83,15.53,10.55,7.42,23.08,9.87,31.38,8.88,7.41-.91,14.76-4.11,22.08-8.59L505.17,186a2.15,2.15,0,0,0-.2.94h-4.61v9.84h6.22c6.76,22.31,23.73,38.12,43.68,38.12s36.94-15.81,43.63-38.12h.33v-13.4ZM548.64,187H508.32l40.32-97.7Zm3.17,0V89.18L592.14,187Z"/><path class="cls-4" d="M392.34,89.82c7.82-5.47,16.72-11.3,25.78-15.53a41.25,41.25,0,0,1-2.11-13,43.65,43.65,0,0,1,.62-7.07,130.19,130.19,0,0,0-24.29,15.17c-10.08,7.9-20,15.53-32.06,15-9.94-.47-18-3.6-26.21-9a12.15,12.15,0,0,0,.17-2.21c0-6.45-4.1-11.67-9.13-11.67s-9.2,5.22-9.2,11.67,4.11,11.63,9.2,11.63a7.34,7.34,0,0,0,4.15-1.28c.59.46,1.13.88,1.74,1.28L289.19,186a2.62,2.62,0,0,0-.16.94h-4.69v9.84h6.23c6.75,22.31,23.79,38.12,43.67,38.12s37-15.81,43.7-38.12h6.2V187h-4.67a2.43,2.43,0,0,0-.17-.94L340,90.79c7,4.13,13.92,7,20.92,7.91C369.22,99.69,381.73,97.24,392.34,89.82ZM332.7,187H292.36l40.34-97.8Zm43.44,0H335.85V89.28Z"/><path class="cls-4" d="M453.43,42.29V21.42c3.29-.35,5.86-3.82,5.86-8.06,0-4.08-2.24-7.38-5.3-8A20.17,20.17,0,0,0,456.14,0h-28.7a20.47,20.47,0,0,0,2.12,5.32c-3,.66-5.31,4-5.31,8,0,4.24,2.57,7.71,5.91,8.06V42.29c-4.43,4.45-7.27,11.28-7.27,19s2.84,14.62,7.27,19V251.83h23.27V80.27c4.44-4.4,7.26-11.29,7.26-19S457.87,46.74,453.43,42.29ZM441.76,73c-5.06,0-9.23-5.23-9.23-11.76s4.17-11.74,9.23-11.74S451,54.82,451,61.25,446.88,73,441.76,73Z"/></g><path class="cls-5" d="M361.05,42.24A5.47,5.47,0,0,0,356.8,40c-3.32,0-6,3.43-6,7.65h.83c0-3.63,2.32-6.58,5.18-6.58S362,44,362,47.65V92.18h.84V47.65A8.83,8.83,0,0,0,361.05,42.24Z"/><path class="cls-6" d="M362,47.65H351.62c0-3.63,2.32-6.58,5.18-6.58S362,44,362,47.65Z"/><path class="cls-7" d="M391.44,47.65V92.18H373.15c0,3.62-2.32,6.58-5.17,6.58s-5.18-3-5.18-6.58h0V47.65a8.83,8.83,0,0,0-1.76-5.41A5.47,5.47,0,0,0,356.8,40h28.64a5.45,5.45,0,0,1,4.25,2.24A8.82,8.82,0,0,1,391.44,47.65Z"/><path class="cls-5" d="M374,92.18h-.84c0,3.62-2.32,6.58-5.17,6.58s-5.18-3-5.18-6.58H362c0,4.22,2.69,7.64,6,7.64a5.46,5.46,0,0,0,4.25-2.23A8.77,8.77,0,0,0,374,92.18Z"/><path class="cls-4" d="M402.63,92.18H374a8.77,8.77,0,0,1-1.76,5.41A5.46,5.46,0,0,1,368,99.82h28.64a5.44,5.44,0,0,0,4.25-2.23A8.77,8.77,0,0,0,402.63,92.18Z"/><rect class="cls-8" x="365.13" y="48.19" width="23.89" height="2.04"/><rect class="cls-8" x="365.13" y="51.96" width="23.89" height="2.04"/><rect class="cls-8" x="365.13" y="55.72" width="23.89" height="2.04"/><rect class="cls-8" x="365.13" y="59.48" width="23.89" height="2.04"/><rect class="cls-8" x="365.13" y="63.24" width="23.89" height="2.04"/><rect class="cls-8" x="365.13" y="67" width="23.89" height="2.04"/><rect class="cls-8" x="365.13" y="70.77" width="23.89" height="2.04"/><rect class="cls-8" x="365.13" y="74.53" width="23.89" height="2.04"/><rect class="cls-8" x="365.13" y="82.68" width="7.46" height="2.2"/><path class="cls-9" d="M362.82,79.73V47.65a8.83,8.83,0,0,0-1.76-5.41A5.47,5.47,0,0,0,356.81,40h28.64a5.45,5.45,0,0,1,4.25,2.24,8.14,8.14,0,0,1,1.1,1.91Z"/><path class="cls-10" d="M388,81.73a4.86,4.86,0,0,0-2.51-2.64,3.36,3.36,0,0,0-1.37-.28c-2.45,0-4.44,2.53-4.44,5.65a6.54,6.54,0,0,0,.06.89,6.06,6.06,0,0,0,1.66,3.56,3.88,3.88,0,0,0,2.72,1.19c2.45,0,4.44-2.53,4.44-5.64A6.73,6.73,0,0,0,388,81.73Zm-3.88,7a2.82,2.82,0,0,1-1.85-.72,4.59,4.59,0,0,1-1.48-3.51,2.44,2.44,0,0,1,0-.27c.11-2.22,1.55-4,3.32-4a1.63,1.63,0,0,1,.31,0,3.48,3.48,0,0,1,2.71,2.43,5.08,5.08,0,0,1,.31,1.78C387.49,86.79,386,88.69,384.16,88.69Z"/><path class="cls-10" d="M387,84.46c0,2-1.26,3.58-2.81,3.58a2.31,2.31,0,0,1-1.44-.52,3.84,3.84,0,0,1-1.38-3.06,4.55,4.55,0,0,1,.1-.92,3.13,3.13,0,0,1,2.44-2.65h.28a2.91,2.91,0,0,1,2.61,2.24A4.43,4.43,0,0,1,387,84.46Z"/><path class="cls-11" d="M382.31,88l-.87.94a6.06,6.06,0,0,1-1.66-3.56l1.06-1.16a2.44,2.44,0,0,0,0,.27A4.59,4.59,0,0,0,382.31,88Z"/><path class="cls-11" d="M386.77,83.12l-4,4.4a3.84,3.84,0,0,1-1.38-3.06,4.55,4.55,0,0,1,.1-.92l2.44-2.65h.28A2.91,2.91,0,0,1,386.77,83.12Z"/><path class="cls-11" d="M388,81.73l-.86,1a3.48,3.48,0,0,0-2.71-2.43l1.06-1.16A4.86,4.86,0,0,1,388,81.73Z"/><path class="cls-12" d="M355.48,90.91l-1.13,4.18V91.55c0-.16-.1-.3-.22-.3s-.22.14-.22.3v3.54l-1.14-4.18c.5-.26.6-1.18.61-1.85h1.49C354.88,89.73,355,90.65,355.48,90.91Z"/><rect class="cls-13" x="352.35" y="57.62" width="3.56" height="18.43"/><polygon class="cls-13" points="355.39 90.14 352.83 90.14 352.35 77.45 355.91 77.45 355.39 90.14"/><rect class="cls-14" x="352.35" y="76.05" width="3.56" height="1.4"/><rect class="cls-14" x="352.35" y="56.21" width="3.56" height="1.4"/><path class="cls-15" d="M354.35,91.53v3.31h-.44V91.53a.23.23,0,1,1,.44,0Z"/><path class="cls-13" d="M355.91,56.21h-3.56a1.83,1.83,0,1,1,3.56,0Z"/><path class="cls-10" d="M354,67.83a.7.7,0,0,1-.59.76h0a.7.7,0,0,1-.6-.76V57.77a.68.68,0,0,1,.6-.75h0a.69.69,0,0,1,.59.75Z"/><path class="cls-16" d="M355.39,90.14H355a1.16,1.16,0,0,0,.49.77l-1.13,4.18v-.25h-.21V54a2.06,2.06,0,0,1,1.77,2.26V77.45Z"/><rect class="cls-17" x="492.7" y="56.41" width="30.01" height="47.68"/><path class="cls-18" d="M490.49,52.91a3,3,0,0,0,.07.68,2.42,2.42,0,0,0,2.14,2.15h30v.67h-30a2.54,2.54,0,0,1-2.08-1.23,4,4,0,0,1-.66-2.27c0-1.92,1.23-3.49,2.75-3.49h30v.68h-30A2.57,2.57,0,0,0,490.49,52.91Z"/><path class="cls-17" d="M522.71,50.1v5.64h-30a2.6,2.6,0,0,1-2.21-2.83,2.57,2.57,0,0,1,2.22-2.81Z"/><path class="cls-7" d="M521.6,51.55v4.18H492.7a2.42,2.42,0,0,1-2.14-2.15,2.32,2.32,0,0,1,2.07-2Z"/><path class="cls-17" d="M492.7,56.41v47.67c-1.52,0-2.74-1.56-2.74-3.49V52.91C490,54.84,491.18,56.4,492.7,56.41Z"/><rect class="cls-19" x="492.7" y="56.41" width="1.19" height="47.67"/><rect class="cls-20" x="497.09" y="51.29" width="7.11" height="3.65"/><polygon class="cls-20" points="504.2 104.08 504.2 109.5 501.55 107.1 500.65 106.29 499.74 107.1 497.09 109.5 497.09 104.09 504.2 104.08"/><polygon class="cls-19" points="504.2 104.08 504.2 107.1 501.55 107.1 500.65 106.29 499.74 107.1 497.09 107.1 497.09 104.09 504.2 104.08"/><path class="cls-21" d="M504.8,76.67h-2.34V69.45h.86v6.14h1.48Z"/><path class="cls-21" d="M506.49,75l-.21,1.66h-.89l1-7.22h1.18l1,7.22h-.9l-.2-1.66Zm.45-3.9L506.62,74h.64Z"/><path class="cls-21" d="M511.84,69.45h.9l-.89,7.22H511l-.49-4-.46,4h-.81l-1-7.22h.9l.45,3.87.42-3.87H511l.45,3.87Z"/><path class="cls-21" d="M515.73,68.23v9.89a2.19,2.19,0,0,1,1.06-.29v-9.3A2.1,2.1,0,0,1,515.73,68.23Zm-1.35,11.85H501a4.28,4.28,0,0,1,.11,1,2.48,2.48,0,0,1,0,.39h13.17a2.55,2.55,0,0,1,0-.39A4.28,4.28,0,0,1,514.38,80.08Zm-15.76-2.25a2.16,2.16,0,0,1,1.06.29V68.23a2.07,2.07,0,0,1-1.06.3Zm15.65-12.51H501.15a4.21,4.21,0,0,1-.24,1.36H514.5A3.94,3.94,0,0,1,514.27,65.32Z"/><path class="cls-21" d="M515.73,68.23a3,3,0,0,1-1.23-1.56,3.94,3.94,0,0,1-.23-1.35H513.2a6,6,0,0,0,.16,1.36,4.25,4.25,0,0,0,2.37,3,2.93,2.93,0,0,0,1.06.2V68.53A2.1,2.1,0,0,1,515.73,68.23Z"/><path class="cls-21" d="M515.73,76.67a4.32,4.32,0,0,0-2.44,3.41,5,5,0,0,0-.09,1c0,.14,0,.26,0,.39h1.07a2.55,2.55,0,0,1,0-.39,4.28,4.28,0,0,1,.11-1,3.16,3.16,0,0,1,1.35-2,2.19,2.19,0,0,1,1.06-.29V76.47A3.43,3.43,0,0,0,515.73,76.67Z"/><path class="cls-21" d="M501.15,65.31a4.21,4.21,0,0,1-.24,1.36,3,3,0,0,1-1.23,1.56,2.07,2.07,0,0,1-1.06.3v1.35a2.89,2.89,0,0,0,1.06-.2,4.21,4.21,0,0,0,2.37-3,5.45,5.45,0,0,0,.16-1.36Z"/><path class="cls-21" d="M502.13,80.08a4.36,4.36,0,0,0-2.45-3.41,3.12,3.12,0,0,0-1.06-.2v1.36a2.16,2.16,0,0,1,1.06.29,3.09,3.09,0,0,1,1.35,2,4.28,4.28,0,0,1,.11,1,2.48,2.48,0,0,1,0,.39h1.07a2.48,2.48,0,0,0,0-.39A6,6,0,0,0,502.13,80.08Z"/><polygon class="cls-22" points="522.71 56.41 493.89 93.04 493.89 56.41 522.71 56.41"/><polygon class="cls-23" points="438.16 221.09 438.16 224.15 421.51 214.16 417.17 211.55 406.73 205.29 406.73 202.23 409.75 204.04 423.81 212.48 438.16 221.09"/><polygon class="cls-17" points="469.59 202.23 466.56 204.04 453.4 211.95 438.16 221.09 423.81 212.48 409.75 204.04 406.73 202.23 438.16 189.29 469.59 202.23"/><polygon class="cls-24" points="438.16 189.29 438.16 221.09 423.8 212.48 409.75 204.04 406.73 202.24 438.16 189.29"/><path class="cls-17" d="M460.93,210.48v12.13c0,7.82-9.79,14.14-21.88,14.14s-21.89-6.32-21.89-14.14V211.55l4.35,2.61,16.65,10,17.68-10.61Z"/><path class="cls-25" d="M460.93,210.47V217c-5.45.34-11.83,4.16-17.11,10.9a41.88,41.88,0,0,0-5.35,8.83,8.17,8.17,0,0,1-.86,0,42.12,42.12,0,0,0-5.34-8.81c-4.66-5.93-10.14-9.59-15.11-10.63v-5.72l4.36,2.61,16.64,10,17.68-10.6Z"/><polygon class="cls-23" points="469.59 202.23 469.59 205.29 460.94 210.47 455.84 213.54 438.16 224.15 438.16 221.09 453.4 211.95 466.56 204.04 469.59 202.23"/><path class="cls-26" d="M422.44,229.37a1.66,1.66,0,0,1-1.43-1.82V211.66a1.88,1.88,0,0,1,.92-1.71l15.72-7.51a1.37,1.37,0,0,1,1.85,1.07,2,2,0,0,1-.84,2.35l-14.78,7.07v14.62A1.66,1.66,0,0,1,422.44,229.37Z"/><path class="cls-7" d="M422.78,224a.61.61,0,0,0-.13,0l.1,0Z"/><path class="cls-27" d="M427.72,240.41a1,1,0,0,1-1.36-.7l-1.87-5.62.74,7.08a1.3,1.3,0,0,1-.9,1.48h-.13a1.16,1.16,0,0,1-1-1.15l-.72-6.92-.73,6.92a1.16,1.16,0,0,1-1,1.15h-.13a1.3,1.3,0,0,1-.9-1.48l.74-7.08-1.87,5.62a1,1,0,0,1-1.36.7,1.46,1.46,0,0,1-.55-1.73L421.49,224a.3.3,0,0,1,0-.1.76.76,0,0,1,.09-.18.91.91,0,0,1,.11-.16.68.68,0,0,1,.12-.12.8.8,0,0,1,.3-.19.2.2,0,0,1,.11,0,.59.59,0,0,1,.37,0,.2.2,0,0,1,.11,0,.93.93,0,0,1,.31.19l.12.12c0,.05.07.1.1.16a.76.76,0,0,1,.09.18.3.3,0,0,1,0,.1l4.87,14.64A1.45,1.45,0,0,1,427.72,240.41Z"/><path class="cls-7" d="M422.17,223.28a.15.15,0,0,1,.09,0,.2.2,0,0,0-.11,0Z"/><path class="cls-28" d="M426,227.71c0,2.48-1.58,4.48-3.53,4.48s-3.52-2-3.52-4.48,1.58-4.47,3.52-4.47S426,225.24,426,227.71Z"/><polygon class="cls-29" points="454.32 42.15 449.86 43.23 450.39 48.97 440.68 39.92 444.62 33.09 454.32 42.15"/><polygon class="cls-30" points="448.52 50.17 444.49 47.5 442.11 52.42 438.91 37.66 445.32 35.42 448.52 50.17"/><path class="cls-31" d="M467.29,29.53a4.83,4.83,0,0,1-2.55,2.09l-.14.05-18.25,6.58L424.19,54.57l-.06.07c-1.39,1-2.42,1.93-4.09,2a6.75,6.75,0,0,1-4.26-1.2,7.57,7.57,0,0,1-3.11-5.28c-.15-1.48-.41-3.8.52-5,2.35-3.07,8.27,2.49,5.47,5.3-.26.26-1.21-.06-1.13-.13,2.34-2.36-2.21-7.29-3.35-4.8a9.31,9.31,0,0,0,.82,7.88,6.09,6.09,0,0,0,4.22,2.83c2.09.14,3.78-1.2,5.28-3.14h0c2.41-6.08-2.89-13-7.85-14.65,0,0,0,0,0,0-3.58-.48-6,3.42-5.95,5.89,0,.58-1.28.19-1.14-.35.61-2.55,1.66-4.62,3.46-5.66h0l1.5-.58,25.26-9.62,17-12.21.27-.19C461.74,12.37,471.92,22.19,467.29,29.53Z"/><path class="cls-30" d="M446.78,38.86a4.77,4.77,0,0,1-.83,1l-1.11.7a4.11,4.11,0,0,1-2.2.44,6.67,6.67,0,0,0,.11-5.25A10.23,10.23,0,0,0,440.31,32a8.32,8.32,0,0,0-3.67-2.15,3.8,3.8,0,0,0-2.41.32l3.91-2.8.37-.24,0,0C442.62,25,450.54,32.91,446.78,38.86Z"/><path class="cls-32" d="M450.38,49l-2.66-2.48.8,3.68-4-2.67-2.38,4.92L440,42.89l2.14-1.57.46-.34h0a4.22,4.22,0,0,0,2.2-.43l1.1-.7.28-.28a5.16,5.16,0,0,0,.56-.71,5.63,5.63,0,0,0,.49-.94l1.81-.65,5.24,4.88-4.47,1.08Z"/><path class="cls-33" d="M410.61,44.47a.21.21,0,0,0,.08-.21c-.08-2.47,2.38-6.37,5.95-5.89,0,0,0,0,0,0A11.27,11.27,0,0,1,420,40.26Z"/><path class="cls-34" d="M418.66,50.39c2.5-2.51-2-7.22-4.61-6l6.89-3.32a14,14,0,0,1,3.62,5.57Z"/><path class="cls-33" d="M424.5,53v0c-1.49,1.93-3.19,3.27-5.27,3.14A6.14,6.14,0,0,1,415,53.35a9.35,9.35,0,0,1-.82-7.88c1.14-2.49,5.7,2.44,3.35,4.8-.08.08.88.38,1.13.12l5.9-3.74A9.13,9.13,0,0,1,424.5,53Z"/><path class="cls-35" d="M443.64,151.79c0,2.62-1.67,4.74-3.73,4.74H409.23c-2.06,0-3.73-2.12-3.73-4.74h0c0-2.62,1.67-4.75,3.73-4.75h30.68c2.06,0,3.73,2.13,3.73,4.75Z"/><rect class="cls-36" x="403.29" y="151.79" width="42.57" height="7.47"/><rect class="cls-37" x="403.29" y="153.99" width="42.57" height="1.23"/><rect class="cls-38" x="342.45" y="139.57" width="46.32" height="43.45"/><path class="cls-36" d="M390.32,137.81v29.76c-5.4,2.41-14.48,4-24.79,4-10.16,0-19.15-1.53-24.56-3.88V137.81Z"/><path class="cls-36" d="M375.07,135.34H373c0-3-1.9-5.37-4.23-5.37h-6.38c-2.33,0-4.23,2.41-4.23,5.37h-2.08a9.13,9.13,0,0,1,1.85-5.65,5.7,5.7,0,0,1,4.46-2.35h6.38C372.25,127.34,375.07,130.92,375.07,135.34Z"/><rect class="cls-39" x="355.37" y="135.34" width="3.43" height="3.68"/><rect class="cls-39" x="372.41" y="135.34" width="3.43" height="3.68"/><rect class="cls-40" x="362.3" y="166.23" width="6.69" height="10.65"/><path class="cls-41" d="M368.21,170.46v0h-5.15v0c0-1.81,1.16-3.28,2.58-3.28a2.33,2.33,0,0,1,1.82,1A3.79,3.79,0,0,1,368.21,170.46Z"/><rect class="cls-41" x="363.06" y="171.83" width="5.15" height="1.48"/><path class="cls-42" d="M388.8,168.2v6.32H342.48v-6.26c5.5,2,13.8,3.29,23.09,3.29S383.31,170.25,388.8,168.2Z"/><path class="cls-43" d="M407.5,184.24a32.46,32.46,0,0,1-12.58,9.42,91,91,0,0,1-16.87,5.52c-4.68-4-8.72-9-10-14.33,8.74-2,19.09-4.55,25.64-11.62A54.55,54.55,0,0,0,407.5,184.24Z"/><path class="cls-4" d="M403.06,183a32.34,32.34,0,0,1-12.58,9.41,90.25,90.25,0,0,1-16.87,5.53c-4.68-4-8.72-9-10-14.33,8.74-2,19.09-4.55,25.64-11.62A54.55,54.55,0,0,0,403.06,183Z"/><g class="cls-44"><path class="cls-45" d="M403.45,185.47a31.33,31.33,0,0,1-13,8.51,86.08,86.08,0,0,1-14,3.8l-.46-.43a89.28,89.28,0,0,0,14.45-4.95,33.19,33.19,0,0,0,11.37-8C402.38,184.78,402.91,185.14,403.45,185.47Z"/></g><path class="cls-4" d="M111.14,200.87H33.79v-25.6h77.35ZM35.26,199h74.41V177.14H35.26Z"/><path class="cls-4" d="M42.09,189.94H41v3.75H39.81V182h2.61a3,3,0,0,1,1.88,1.16,4.82,4.82,0,0,1,0,5.64,2.73,2.73,0,0,1-1,.91l2.05,4H43.93ZM41,183.5v4.92h1.09a1.69,1.69,0,0,0,1.36-.72,2.94,2.94,0,0,0,0-3.48,1.69,1.69,0,0,0-1.36-.72Z"/><path class="cls-4" d="M51.51,182v1.52H47.74v3.57h3.77v1.52H47.74v3.58h3.77v1.52h-5V182Z"/><path class="cls-4" d="M56.51,182l3.35,11.71H58.6l-1.19-4.14H55l-1.18,4.14H52.52L55.87,182ZM57,188l-.79-2.74L55.41,188Z"/><path class="cls-4" d="M61.89,182a4.24,4.24,0,0,1,3.5,1.62,7.23,7.23,0,0,1,0,8.47,4.24,4.24,0,0,1-3.5,1.62H61V182Zm.31,1.54v8.63A2.83,2.83,0,0,0,64.53,191a5.35,5.35,0,0,0,0-6.31A2.83,2.83,0,0,0,62.2,183.52Z"/><path class="cls-4" d="M73.65,182l3,6.56,3-6.56H80.7v11.71H79.51v-8.46l-2.87,6.32-2.89-6.32v8.46H72.56V182Z"/><path class="cls-4" d="M90.61,183.58a7.2,7.2,0,0,1,0,8.48,4,4,0,0,1-6.66,0,7.2,7.2,0,0,1,0-8.48,4,4,0,0,1,6.66,0Zm-3.33-.22a3.05,3.05,0,0,0-2.48,1.3,5.36,5.36,0,0,0,0,6.32,3,3,0,0,0,5,0,5.36,5.36,0,0,0,0-6.32A3.05,3.05,0,0,0,87.28,183.36Z"/><path class="cls-4" d="M95.86,189.94H94.77v3.75H93.58V182h2.61a3,3,0,0,1,1.88,1.16,4.82,4.82,0,0,1,0,5.64,2.73,2.73,0,0,1-1,.91l2.05,4H97.7Zm-1.09-6.44v4.92h1.09a1.69,1.69,0,0,0,1.36-.72,2.94,2.94,0,0,0,0-3.48,1.69,1.69,0,0,0-1.36-.72Z"/><path class="cls-4" d="M105.28,182v1.52h-3.77v3.57h3.77v1.52h-3.77v3.58h3.77v1.52h-5V182Z"/><path class="cls-4" d="M42.82,69.08a6.58,6.58,0,0,1-1.14,4.12,3.56,3.56,0,0,1-5.88,0,6.55,6.55,0,0,1-1.21-4.14l2.06-1a6.31,6.31,0,0,0,.89,3,1.39,1.39,0,0,0,1.08.43h.05a1.52,1.52,0,0,0,1.18-.59,3.44,3.44,0,0,0,.37-1.93V49h2.6Z"/><path class="cls-4" d="M57.7,49h2.6V67a10,10,0,0,1-2,5.2,5.85,5.85,0,0,1-9.65,0,9.6,9.6,0,0,1-2-6.14V49h2.61v17a6,6,0,0,0,1.23,3.78,3.62,3.62,0,0,0,6,0,5.92,5.92,0,0,0,1.23-3.78Z"/><path class="cls-4" d="M66,49a9.2,9.2,0,0,1,7.63,3.52,14.55,14.55,0,0,1,3,9.23,14.52,14.52,0,0,1-3,9.24A9.2,9.2,0,0,1,66,74.55h-1.9V49Zm.69,3.36V71.2a6.19,6.19,0,0,0,5.09-2.53,11.71,11.71,0,0,0,0-13.75A6.21,6.21,0,0,0,66.66,52.4Z"/><path class="cls-4" d="M96.77,71.06q-3.1,3.76-7.09,3.77A9,9,0,0,1,82.43,71a14.44,14.44,0,0,1-3-9.22,14.47,14.47,0,0,1,3-9.21,8.94,8.94,0,0,1,7.25-3.83c2.65,0,5.17,1.38,7.54,4.13l-1.94,2.25q-2.69-3-5.6-3a6.64,6.64,0,0,0-5.38,2.84,11.64,11.64,0,0,0,0,13.73,6.66,6.66,0,0,0,5.38,2.84,6,6,0,0,0,4.49-1.82V62h2.6Z"/><path class="cls-4" d="M111.48,49v3.3h-8.21v7.8h8.21v3.3h-8.21v7.8h8.21v3.31H100.67V49Z"/><path class="cls-4" d="M137.49,64.65a5.4,5.4,0,0,1,.12,1.12,4.68,4.68,0,0,1-.44,2,3.77,3.77,0,0,1-2.2,2.09,7.17,7.17,0,0,1-1.41,2.6,5.35,5.35,0,0,1-8.85,0,8.88,8.88,0,0,1-1.84-5.64,9.36,9.36,0,0,1,1.8-5.71,3.58,3.58,0,0,1,2-1.48,8,8,0,0,1-1.94-5,6.58,6.58,0,0,1,1.37-4.2,4.08,4.08,0,0,1,3.32-1.75,4.12,4.12,0,0,1,3.32,1.74,8.15,8.15,0,0,1,1.31,3l-2.36,1.18a6.82,6.82,0,0,0-.78-1.91A1.86,1.86,0,0,0,129.4,52a1.83,1.83,0,0,0-1.48.78,2.92,2.92,0,0,0-.62,1.89,3.33,3.33,0,0,0,.65,2,3.9,3.9,0,0,0,1.19,1.15,6.07,6.07,0,0,0,2.23.28v3.18h-1.53a5.53,5.53,0,0,0-3.31,2.07,5.75,5.75,0,0,0-1.08,3.45,5.26,5.26,0,0,0,1.07,3.32,3.24,3.24,0,0,0,2.61,1.37c1,0,2.1-.76,3.26-2.27-.23-.24-.64-.76-1.24-1.54a5.06,5.06,0,0,0-.51-.55.54.54,0,0,0-.29-.14h0c-.09,0-.14.07-.18.18a.5.5,0,0,0,0,.12.52.52,0,0,0,.05.24l-2.14,1.84a4.91,4.91,0,0,1-.4-1.12,5.41,5.41,0,0,1-.1-1,4.32,4.32,0,0,1,.38-1.76,2.92,2.92,0,0,1,1.71-1.67,2.06,2.06,0,0,1,.77-.14,2.26,2.26,0,0,1,1.37.48A5.49,5.49,0,0,1,133,65.73c.47.72.91,1.12,1.32,1.18l.17,0a.7.7,0,0,0,.67-.56.77.77,0,0,0,.06-.3,1.76,1.76,0,0,0-.58-1.12L136,62.13A4,4,0,0,1,137.49,64.65Z"/><path class="cls-4" d="M157.42,69.08a6.58,6.58,0,0,1-1.14,4.12,3.56,3.56,0,0,1-5.88,0,6.55,6.55,0,0,1-1.21-4.14l2.06-1a6.31,6.31,0,0,0,.89,3,1.4,1.4,0,0,0,1.08.43h.05a1.52,1.52,0,0,0,1.18-.59,3.44,3.44,0,0,0,.37-1.93V49h2.6Z"/><path class="cls-4" d="M172.3,49h2.61V67a10,10,0,0,1-2,5.2,5.85,5.85,0,0,1-9.65,0,9.6,9.6,0,0,1-2-6.14V49h2.61v17a6,6,0,0,0,1.23,3.78,3.62,3.62,0,0,0,6,0,5.92,5.92,0,0,0,1.23-3.78Z"/><path class="cls-4" d="M183.77,61.46a8.61,8.61,0,0,1-3.45-2.59,7.18,7.18,0,0,1,.05-8.37,4,4,0,0,1,6.64,0,8.15,8.15,0,0,1,1.31,3L186,54.71a6.82,6.82,0,0,0-.78-1.91,1.81,1.81,0,0,0-3,0,2.92,2.92,0,0,0-.62,1.89,3,3,0,0,0,.62,1.9,6.78,6.78,0,0,0,1.9,1.57,9.75,9.75,0,0,1,4,3.07,9.52,9.52,0,0,1,0,11.25,5.35,5.35,0,0,1-8.85,0,10,10,0,0,1-1.85-5.15l2.52-1.16a7.69,7.69,0,0,0,1.16,4,3.15,3.15,0,0,0,5.2,0,5.21,5.21,0,0,0,1.08-3.32,5.15,5.15,0,0,0-1.08-3.3A7.77,7.77,0,0,0,183.77,61.46Z"/><path class="cls-4" d="M198.51,52.34V74.55H195.9V52.34h-4.67V49h12v3.3Z"/><path class="cls-4" d="M208.55,49V74.55H206V49Z"/><path class="cls-4" d="M228.1,68.48l2,2.21q-3.57,4.14-7.54,4.14A9,9,0,0,1,215.26,71a14.44,14.44,0,0,1-3-9.22,14.47,14.47,0,0,1,3-9.21,8.94,8.94,0,0,1,7.25-3.83q4,0,7.54,4.13l-2,2.25c-1.78-2-3.65-3-5.59-3a6.67,6.67,0,0,0-5.39,2.84,11.64,11.64,0,0,0,0,13.73,6.69,6.69,0,0,0,5.39,2.84C224.45,71.51,226.32,70.5,228.1,68.48Z"/><path class="cls-4" d="M244,49v3.3h-8.22v7.8H244v3.3h-8.22v7.8H244v3.31H233.17V49Z"/><path class="cls-4" d="M33.79,105.19V94.69h1.06v9.13H37.8v1.37Z"/><path class="cls-4" d="M41.34,97.89A2.56,2.56,0,0,1,43.42,99a4.5,4.5,0,0,1,0,5.29,2.52,2.52,0,0,1-4.15,0,4.5,4.5,0,0,1,0-5.29A2.55,2.55,0,0,1,41.34,97.89ZM40,100a2.61,2.61,0,0,0-.54,1.66,2.58,2.58,0,0,0,.54,1.65,1.62,1.62,0,0,0,1.3.68,1.64,1.64,0,0,0,1.31-.68,2.63,2.63,0,0,0,.53-1.65,2.66,2.66,0,0,0-.53-1.66,1.61,1.61,0,0,0-1.31-.68A1.59,1.59,0,0,0,40,100Z"/><path class="cls-4" d="M46.58,99.35a1.84,1.84,0,0,1,1.47-1.08v1.41a1.2,1.2,0,0,0-.92.48,2.55,2.55,0,0,0-.55,1.56v3.47H45.52V98.44h1.06Z"/><path class="cls-4" d="M50.72,103.66a1.27,1.27,0,0,0,1,.3,1.63,1.63,0,0,0,1.3-.68c0-.06.14-.2.27-.41l1.07.49a7.92,7.92,0,0,1-.57.91,2.55,2.55,0,0,1-2.07,1.09,2.58,2.58,0,0,1-2.08-1.09,4.5,4.5,0,0,1,0-5.29,2.58,2.58,0,0,1,2.08-1.09,2.48,2.48,0,0,1,1.82.8,3.47,3.47,0,0,1,.25.29l.3.42-.54.69Zm1.79-4.2a1.27,1.27,0,0,0-.81-.17,1.59,1.59,0,0,0-1.3.68,2.61,2.61,0,0,0-.54,1.66,2.45,2.45,0,0,0,.14,1Z"/><path class="cls-4" d="M55.58,98.44h1.07v.63a1.19,1.19,0,0,1,1.19-1c.58,0,.91.37,1,1.13a1.3,1.3,0,0,1,1.4-1.13c.75,0,1.12.58,1.12,1.74v5.37H60.27v-4.75c0-.66-.21-1-.64-1a.57.57,0,0,0-.45.24,3.54,3.54,0,0,0-.19,1.59v3.92H57.92v-4.75c0-.66-.22-1-.64-1a.57.57,0,0,0-.46.24,2.11,2.11,0,0,0-.18,1.07v4.44H55.58Z"/><path class="cls-4" d="M67.7,95.94a1.15,1.15,0,0,1,0,1.35.66.66,0,0,1-.54.28.64.64,0,0,1-.52-.28,1.15,1.15,0,0,1,0-1.35.66.66,0,0,1,.52-.27A.68.68,0,0,1,67.7,95.94Zm0,2.5v6.75H66.63V98.44Z"/><path class="cls-4" d="M70.4,104.35v3.11H69.34v-9H70.4v.61a2.19,2.19,0,0,1,1.8-1.15A2.55,2.55,0,0,1,74.28,99a4.48,4.48,0,0,1,0,5.28,2.55,2.55,0,0,1-2.08,1.09A2.23,2.23,0,0,1,70.4,104.35Zm0-3.25v1.06a2.56,2.56,0,0,0,.5,1.13,1.59,1.59,0,0,0,2.61,0,2.58,2.58,0,0,0,.54-1.65,2.61,2.61,0,0,0-.54-1.66,1.59,1.59,0,0,0-2.61,0A2.56,2.56,0,0,0,70.4,101.1Z"/><path class="cls-4" d="M77.5,103.74a.57.57,0,0,0,.91,0,1,1,0,0,0,.19-.59.93.93,0,0,0-.19-.57,4.49,4.49,0,0,0-.55-.5,3.67,3.67,0,0,1-.82-.71,2.17,2.17,0,0,1,0-2.59,1.25,1.25,0,0,1,1-.54,1.2,1.2,0,0,1,1,.51,1.89,1.89,0,0,1,.37.8l-1,.38a1,1,0,0,0-.07-.21.32.32,0,0,0-.25-.12.36.36,0,0,0-.27.14.55.55,0,0,0-.11.34.52.52,0,0,0,.11.33,4.23,4.23,0,0,0,.44.4,4.18,4.18,0,0,1,.93.82,2.34,2.34,0,0,1,.5,1.52,2.45,2.45,0,0,1-.49,1.55,1.46,1.46,0,0,1-2.42,0,2.49,2.49,0,0,1-.46-1.1l1.07-.29A1.07,1.07,0,0,0,77.5,103.74Z"/><path class="cls-4" d="M83.23,105.28a2,2,0,0,1-1.62-.78,3.13,3.13,0,0,1-.63-2v-4.1h1.07v4a1.54,1.54,0,0,0,.34,1,1,1,0,0,0,.83.42,1,1,0,0,0,.8-.42,1.58,1.58,0,0,0,.34-1v-4h1.06v4.1a3.12,3.12,0,0,1-.62,2A1.91,1.91,0,0,1,83.23,105.28Z"/><path class="cls-4" d="M87,98.44H88v.63a1.2,1.2,0,0,1,1.19-1c.59,0,.91.37,1,1.13a1.29,1.29,0,0,1,1.39-1.13c.75,0,1.12.58,1.12,1.74v5.37H91.66v-4.75c0-.66-.21-1-.63-1a.57.57,0,0,0-.46.24,3.71,3.71,0,0,0-.19,1.59v3.92H89.31v-4.75c0-.66-.21-1-.64-1a.54.54,0,0,0-.45.24,2.07,2.07,0,0,0-.19,1.07v4.44H87Z"/><path class="cls-4" d="M102.54,98.9V94.69h1.08v10.5h-1.08v-.84a2.21,2.21,0,0,1-1.8,1,2.55,2.55,0,0,1-2.07-1.09,4.5,4.5,0,0,1,0-5.29,2.55,2.55,0,0,1,2.07-1.09A2.23,2.23,0,0,1,102.54,98.9Zm0,3.23v-1A2.32,2.32,0,0,0,102,100a1.58,1.58,0,0,0-1.3-.68,1.6,1.6,0,0,0-1.3.68,2.61,2.61,0,0,0-.54,1.66,2.58,2.58,0,0,0,.54,1.65,1.63,1.63,0,0,0,1.3.68,1.6,1.6,0,0,0,1.3-.68A2.32,2.32,0,0,0,102.54,102.13Z"/><path class="cls-4" d="M107.79,97.89A2.58,2.58,0,0,1,109.87,99a4.5,4.5,0,0,1,0,5.29,2.58,2.58,0,0,1-2.08,1.09,2.55,2.55,0,0,1-2.07-1.09,4.5,4.5,0,0,1,0-5.29A2.55,2.55,0,0,1,107.79,97.89Zm-1.3,2.08a2.61,2.61,0,0,0-.54,1.66,2.58,2.58,0,0,0,.54,1.65,1.58,1.58,0,0,0,2.6,0,2.58,2.58,0,0,0,.54-1.65,2.61,2.61,0,0,0-.54-1.66,1.58,1.58,0,0,0-2.6,0Z"/><path class="cls-4" d="M113,94.69v10.5H112V94.69Z"/><path class="cls-4" d="M117.21,97.89A2.58,2.58,0,0,1,119.29,99a4.54,4.54,0,0,1,0,5.29,2.58,2.58,0,0,1-2.08,1.09,2.55,2.55,0,0,1-2.07-1.09,4.46,4.46,0,0,1,0-5.29A2.55,2.55,0,0,1,117.21,97.89Zm-1.3,2.08a2.61,2.61,0,0,0-.54,1.66,2.58,2.58,0,0,0,.54,1.65,1.58,1.58,0,0,0,2.6,0,2.58,2.58,0,0,0,.54-1.65,2.61,2.61,0,0,0-.54-1.66,1.58,1.58,0,0,0-2.6,0Z"/><path class="cls-4" d="M122.45,99.35a1.84,1.84,0,0,1,1.47-1.08v1.41a1.22,1.22,0,0,0-.93.48,2.48,2.48,0,0,0-.54,1.56v3.47h-1.07V98.44h1.07Z"/><path class="cls-4" d="M129.68,103.74a.57.57,0,0,0,.91,0,1,1,0,0,0,.19-.59.93.93,0,0,0-.19-.57,4.49,4.49,0,0,0-.55-.5,3.67,3.67,0,0,1-.82-.71,2.17,2.17,0,0,1,0-2.59,1.25,1.25,0,0,1,1-.54,1.2,1.2,0,0,1,1,.51,1.89,1.89,0,0,1,.37.8l-1,.38a1,1,0,0,0-.07-.21.32.32,0,0,0-.25-.12.36.36,0,0,0-.27.14.55.55,0,0,0-.11.34.52.52,0,0,0,.11.33,4.23,4.23,0,0,0,.44.4,4.18,4.18,0,0,1,.93.82,2.34,2.34,0,0,1,.5,1.52,2.45,2.45,0,0,1-.49,1.55,1.46,1.46,0,0,1-2.42,0,2.49,2.49,0,0,1-.46-1.1l1.07-.29A1.07,1.07,0,0,0,129.68,103.74Z"/><path class="cls-4" d="M134.31,95.94a1.15,1.15,0,0,1,0,1.35.66.66,0,0,1-.53.28.65.65,0,0,1-.53-.28,1.15,1.15,0,0,1,0-1.35.66.66,0,0,1,.53-.27A.68.68,0,0,1,134.31,95.94Zm0,2.5v6.75h-1.06V98.44Z"/><path class="cls-4" d="M136.59,98.44V95.91h1.07v2.53h1V99.8h-1v5.39h-1.07V99.8h-1V98.44Z"/><path class="cls-4" d="M148.11,98.91v-.47h1.07v6.75h-1.07v-.84a2.2,2.2,0,0,1-1.79,1,2.55,2.55,0,0,1-2.08-1.09,4.48,4.48,0,0,1,0-5.28,2.58,2.58,0,0,1,2.08-1.09A2.23,2.23,0,0,1,148.11,98.91Zm0,3.22v-1a2.5,2.5,0,0,0-.49-1.15,1.59,1.59,0,0,0-2.61,0,2.83,2.83,0,0,0,0,3.3,1.59,1.59,0,0,0,2.61,0A2.49,2.49,0,0,0,148.11,102.13Z"/><path class="cls-4" d="M150.74,98.44h1.07v.63a1.19,1.19,0,0,1,1.19-1c.58,0,.91.37,1,1.13a1.29,1.29,0,0,1,1.39-1.13c.75,0,1.13.58,1.13,1.74v5.37h-1.07v-4.75c0-.66-.22-1-.64-1a.56.56,0,0,0-.45.24,3.54,3.54,0,0,0-.19,1.59v3.92h-1.07v-4.75c0-.66-.21-1-.64-1a.57.57,0,0,0-.45.24,2.11,2.11,0,0,0-.18,1.07v4.44h-1.07Z"/><path class="cls-4" d="M159.7,103.66a1.29,1.29,0,0,0,1,.3,1.62,1.62,0,0,0,1.3-.68c.05-.06.14-.2.28-.41l1.06.49a10.33,10.33,0,0,1-.56.91,2.53,2.53,0,0,1-4.16,0,4.5,4.5,0,0,1,0-5.29,2.58,2.58,0,0,1,2.08-1.09,2.48,2.48,0,0,1,1.82.8c.09.09.17.19.26.29l.29.42-.54.69Zm1.79-4.2a1.24,1.24,0,0,0-.81-.17,1.59,1.59,0,0,0-1.3.68,2.61,2.61,0,0,0-.54,1.66,2.45,2.45,0,0,0,.14,1Z"/><path class="cls-4" d="M165.21,98.44V95.91h1.06v2.53h1V99.8h-1v5.39h-1.06V99.8h-1V98.44Z"/><path class="cls-4" d="M169.38,103.36l-1.19,3.15h-1l.66-3.15Z"/><path class="cls-4" d="M178.16,102.87l1.07.49a9.69,9.69,0,0,1-.57.91,2.58,2.58,0,0,1-2.08,1.09,2.55,2.55,0,0,1-2.07-1.09,4.46,4.46,0,0,1,0-5.29,2.55,2.55,0,0,1,2.07-1.09A2.58,2.58,0,0,1,178.66,99a10.58,10.58,0,0,1,.57.9l-1.07.5c-.14-.21-.23-.35-.28-.41a1.58,1.58,0,0,0-2.6,0,2.81,2.81,0,0,0,0,3.31,1.58,1.58,0,0,0,2.6,0C177.93,103.22,178,103.08,178.16,102.87Z"/><path class="cls-4" d="M183.09,97.89A2.58,2.58,0,0,1,185.17,99a4.54,4.54,0,0,1,0,5.29,2.58,2.58,0,0,1-2.08,1.09,2.55,2.55,0,0,1-2.07-1.09A4.46,4.46,0,0,1,181,99,2.55,2.55,0,0,1,183.09,97.89Zm-1.3,2.08a2.61,2.61,0,0,0-.54,1.66,2.58,2.58,0,0,0,.54,1.65,1.58,1.58,0,0,0,2.6,0,2.58,2.58,0,0,0,.54-1.65,2.61,2.61,0,0,0-.54-1.66,1.58,1.58,0,0,0-2.6,0Z"/><path class="cls-4" d="M188.34,100.25v4.94h-1.08V98.44h1.08v.79a1.35,1.35,0,0,1,1.34-1.16,1.56,1.56,0,0,1,1.37.78,3.58,3.58,0,0,1,.52,2v4.39h-1.06v-4.34a1.52,1.52,0,0,0-.34-1,1,1,0,0,0-.8-.41,1,1,0,0,0-.79.4A1.32,1.32,0,0,0,188.34,100.25Z"/><path class="cls-4" d="M194.21,103.74a.57.57,0,0,0,.91,0,.94.94,0,0,0,.18-.59.92.92,0,0,0-.18-.57,4.49,4.49,0,0,0-.55-.5,3.67,3.67,0,0,1-.82-.71,2.17,2.17,0,0,1,0-2.59,1.25,1.25,0,0,1,1-.54,1.2,1.2,0,0,1,1,.51,1.76,1.76,0,0,1,.36.8l-1,.38a1,1,0,0,0-.07-.21.32.32,0,0,0-.25-.12.35.35,0,0,0-.27.14.55.55,0,0,0-.11.34.52.52,0,0,0,.11.33,3.36,3.36,0,0,0,.44.4,4.18,4.18,0,0,1,.93.82,2.61,2.61,0,0,1,0,3.07,1.47,1.47,0,0,1-1.21.64,1.49,1.49,0,0,1-1.2-.64,2.49,2.49,0,0,1-.46-1.1l1.07-.29A1.07,1.07,0,0,0,194.21,103.74Z"/><path class="cls-4" d="M199.34,103.66a1.26,1.26,0,0,0,1,.3,1.64,1.64,0,0,0,1.31-.68l.27-.41,1.07.49a7.92,7.92,0,0,1-.57.91,2.52,2.52,0,0,1-4.15,0,4.5,4.5,0,0,1,0-5.29,2.55,2.55,0,0,1,2.07-1.09,2.49,2.49,0,0,1,1.83.8l.25.29.3.42-.54.69Zm1.78-4.2a1.24,1.24,0,0,0-.81-.17A1.57,1.57,0,0,0,199,100a2.61,2.61,0,0,0-.54,1.66,2.29,2.29,0,0,0,.14,1Z"/><path class="cls-4" d="M208.4,102.87l1.07.49a7.92,7.92,0,0,1-.57.91,2.52,2.52,0,0,1-4.15,0,4.5,4.5,0,0,1,0-5.29,2.52,2.52,0,0,1,4.15,0,8.49,8.49,0,0,1,.57.9l-1.07.5c-.14-.21-.23-.35-.28-.41a1.58,1.58,0,0,0-2.6,0,2.85,2.85,0,0,0,0,3.31,1.59,1.59,0,0,0,2.61,0Z"/><path class="cls-4" d="M211.35,98.44V95.91h1.07v2.53h1V99.8h-1v5.39h-1.07V99.8h-.95V98.44Z"/><path class="cls-4" d="M216.27,103.66a1.26,1.26,0,0,0,1,.3,1.64,1.64,0,0,0,1.31-.68l.27-.41,1.07.49a7.92,7.92,0,0,1-.57.91,2.52,2.52,0,0,1-4.15,0,4.5,4.5,0,0,1,0-5.29,2.55,2.55,0,0,1,2.07-1.09,2.5,2.5,0,0,1,1.83.8l.25.29.29.42-.53.69Zm1.78-4.2a1.24,1.24,0,0,0-.81-.17,1.6,1.6,0,0,0-1.3.68,2.66,2.66,0,0,0-.53,1.66,2.5,2.5,0,0,0,.13,1Z"/><path class="cls-4" d="M221.77,98.44V95.91h1.07v2.53h.95V99.8h-.95v5.39h-1.07V99.8h-1V98.44Z"/><path class="cls-4" d="M227.28,105.28a2,2,0,0,1-1.62-.78,3.19,3.19,0,0,1-.62-2v-4.1h1.07v4a1.59,1.59,0,0,0,.33,1,1.05,1.05,0,0,0,.84.42,1,1,0,0,0,.8-.42,1.57,1.57,0,0,0,.33-1v-4h1.07v4.1a3.19,3.19,0,0,1-.62,2A1.93,1.93,0,0,1,227.28,105.28Z"/><path class="cls-4" d="M232.1,99.35a1.84,1.84,0,0,1,1.47-1.08v1.41a1.22,1.22,0,0,0-.93.48,2.48,2.48,0,0,0-.54,1.56v3.47H231V98.44h1.07Z"/><path class="cls-4" d="M242.86,98.91v-.47h1.07v6.75h-1.07v-.84a2.23,2.23,0,0,1-1.8,1,2.55,2.55,0,0,1-2.07-1.09A4.48,4.48,0,0,1,239,99a2.57,2.57,0,0,1,2.07-1.09A2.26,2.26,0,0,1,242.86,98.91Zm0,3.22v-1a2.42,2.42,0,0,0-.5-1.15,1.58,1.58,0,0,0-2.6,0,2.79,2.79,0,0,0,0,3.3,1.6,1.6,0,0,0,1.3.69,1.62,1.62,0,0,0,1.3-.68A2.41,2.41,0,0,0,242.86,102.13Z"/><path class="cls-4" d="M250.09,98.9V94.69h1.07v10.5h-1.07v-.84a2.23,2.23,0,0,1-1.8,1,2.58,2.58,0,0,1-2.08-1.09,4.5,4.5,0,0,1,0-5.29,2.58,2.58,0,0,1,2.08-1.09A2.26,2.26,0,0,1,250.09,98.9Zm0,3.23v-1a2.41,2.41,0,0,0-.5-1.16,1.58,1.58,0,0,0-2.6,0,2.61,2.61,0,0,0-.54,1.66,2.58,2.58,0,0,0,.54,1.65,1.58,1.58,0,0,0,2.6,0A2.42,2.42,0,0,0,250.09,102.13Z"/><path class="cls-4" d="M253.86,95.94a1.15,1.15,0,0,1,0,1.35.64.64,0,0,1-1.06,0,1.15,1.15,0,0,1,0-1.35.66.66,0,0,1,1.06,0Zm0,2.5v6.75H252.8V98.44Z"/><path class="cls-4" d="M256.57,104.35v3.11H255.5v-9h1.07v.61a2.16,2.16,0,0,1,1.8-1.15A2.55,2.55,0,0,1,260.44,99a4.48,4.48,0,0,1,0,5.28,2.55,2.55,0,0,1-2.07,1.09A2.21,2.21,0,0,1,256.57,104.35Zm0-3.25v1.06a2.35,2.35,0,0,0,.5,1.13,1.62,1.62,0,0,0,1.3.68,1.6,1.6,0,0,0,1.3-.69,2.58,2.58,0,0,0,.54-1.65,2.61,2.61,0,0,0-.54-1.66,1.58,1.58,0,0,0-2.6,0A2.35,2.35,0,0,0,256.57,101.1Z"/><path class="cls-4" d="M263.74,95.94a1.15,1.15,0,0,1,0,1.35.63.63,0,0,1-1.05,0,1.11,1.11,0,0,1,0-1.35.65.65,0,0,1,1.05,0Zm0,2.5v6.75h-1.07V98.44Z"/><path class="cls-4" d="M266.46,103.74a.56.56,0,0,0,.9,0,.89.89,0,0,0,.19-.59.87.87,0,0,0-.19-.57,3.82,3.82,0,0,0-.55-.5,3.91,3.91,0,0,1-.82-.71,2.21,2.21,0,0,1,0-2.59,1.25,1.25,0,0,1,1-.54,1.23,1.23,0,0,1,1,.51,1.76,1.76,0,0,1,.36.8l-1,.38a.61.61,0,0,0-.07-.21.29.29,0,0,0-.25-.12.33.33,0,0,0-.26.14.5.5,0,0,0-.11.34.52.52,0,0,0,.1.33,4.73,4.73,0,0,0,.45.4,4.7,4.7,0,0,1,.93.82,2.4,2.4,0,0,1,.5,1.52,2.46,2.46,0,0,1-.5,1.55,1.48,1.48,0,0,1-1.21.64,1.52,1.52,0,0,1-1.21-.64,2.37,2.37,0,0,1-.45-1.1l1.06-.29A.93.93,0,0,0,266.46,103.74Z"/><path class="cls-4" d="M274.14,102.87l1.06.49a10.33,10.33,0,0,1-.56.91,2.53,2.53,0,0,1-4.16,0,4.5,4.5,0,0,1,0-5.29,2.53,2.53,0,0,1,4.16,0c.11.15.3.45.56.9l-1.06.5c-.14-.21-.23-.35-.28-.41a1.58,1.58,0,0,0-2.6,0,2.81,2.81,0,0,0,0,3.31,1.58,1.58,0,0,0,2.6,0C273.91,103.22,274,103.08,274.14,102.87Z"/><path class="cls-4" d="M277.59,95.94a1.15,1.15,0,0,1,0,1.35.65.65,0,0,1-.53.28.63.63,0,0,1-.52-.28,1.11,1.11,0,0,1,0-1.35.64.64,0,0,1,.52-.27A.66.66,0,0,1,277.59,95.94Zm0,2.5v6.75h-1.07V98.44Z"/><path class="cls-4" d="M280.31,100.25v4.94h-1.08V98.44h1.08v.79a1.35,1.35,0,0,1,1.34-1.16,1.56,1.56,0,0,1,1.37.78,3.58,3.58,0,0,1,.52,2v4.39h-1.06v-4.34a1.52,1.52,0,0,0-.34-1,1,1,0,0,0-.8-.41,1,1,0,0,0-.79.4A1.32,1.32,0,0,0,280.31,100.25Z"/><path class="cls-4" d="M289.71,98.9v-.46h1.08v5a4.79,4.79,0,0,1-.84,3,2.72,2.72,0,0,1-4.16,0,7.39,7.39,0,0,1-.56-.9l1.06-.49c.14.21.23.35.28.41a1.62,1.62,0,0,0,1.3.68c.85,0,1.43-.71,1.76-2.12a1.74,1.74,0,0,1-1.72,1.23,2.57,2.57,0,0,1-2.07-1.06,4,4,0,0,1-.86-2.61,4.14,4.14,0,0,1,.86-2.64,2.55,2.55,0,0,1,2.07-1.09A2.22,2.22,0,0,1,289.71,98.9Zm0,2.2a2.45,2.45,0,0,0-.5-1.13,1.58,1.58,0,0,0-1.3-.68,1.6,1.6,0,0,0-1.3.68,2.61,2.61,0,0,0-.54,1.66,2.58,2.58,0,0,0,.54,1.65,1.58,1.58,0,0,0,2.6,0,2.41,2.41,0,0,0,.5-1.12Z"/><path class="cls-4" d="M35.44,119.78a1.26,1.26,0,0,0,1,.3,1.64,1.64,0,0,0,1.31-.68L38,119l1.07.49a7.92,7.92,0,0,1-.57.91,2.52,2.52,0,0,1-4.15,0,4.5,4.5,0,0,1,0-5.29A2.55,2.55,0,0,1,36.41,114a2.47,2.47,0,0,1,1.83.8l.25.29.29.42-.53.68Zm1.78-4.2a1.22,1.22,0,0,0-.81-.18,1.62,1.62,0,0,0-1.3.69,2.63,2.63,0,0,0-.53,1.65,2.47,2.47,0,0,0,.13,1Z"/><path class="cls-4" d="M41.37,110.81v10.5H40.3v-10.5Z"/><path class="cls-4" d="M44.07,112.06a1.15,1.15,0,0,1,0,1.35.69.69,0,0,1-.53.28.67.67,0,0,1-.53-.28,1.15,1.15,0,0,1,0-1.35.67.67,0,0,1,.53-.28A.69.69,0,0,1,44.07,112.06Zm0,2.5v6.75H43v-6.75Z"/><path class="cls-4" d="M46.35,114.56V112h1.07v2.53h.95v1.36h-.95v5.39H46.35v-5.39h-1v-1.36Z"/><path class="cls-4" d="M50.06,119.76a1.1,1.1,0,0,1,.22.67,1.14,1.14,0,0,1-.22.69.66.66,0,0,1-.53.27.68.68,0,0,1-.53-.27,1.14,1.14,0,0,1-.22-.69,1.1,1.1,0,0,1,.22-.67.68.68,0,0,1,.53-.27A.66.66,0,0,1,50.06,119.76Z"/><path class="cls-4" d="M55.92,118v3.36H54.86v-10.5H57.2a2.69,2.69,0,0,1,1.68,1,3.9,3.9,0,0,1,.82,2.51,4,4,0,0,1-.82,2.53,2.45,2.45,0,0,1-2,1Zm0-5.77v4.4h1a1.51,1.51,0,0,0,1.22-.64,2.64,2.64,0,0,0,0-3.12,1.51,1.51,0,0,0-1.22-.64Z"/><path class="cls-4" d="M60.76,110.81h1.08v4.48c.3-.74.73-1.1,1.3-1.1a1.57,1.57,0,0,1,1.36.78,3.64,3.64,0,0,1,.52,2v4.39H64V117a1.88,1.88,0,0,0-.26-1,.89.89,0,0,0-.82-.42c-.45,0-.79.31-1,.91v4.85H60.76Z"/><path class="cls-4" d="M71.17,115v-.47h1.07v6.75H71.17v-.84a2.26,2.26,0,0,1-1.8,1,2.55,2.55,0,0,1-2.07-1.09,4.48,4.48,0,0,1,0-5.28A2.55,2.55,0,0,1,69.37,114,2.26,2.26,0,0,1,71.17,115Zm0,3.22v-1a2.38,2.38,0,0,0-.5-1.15,1.58,1.58,0,0,0-2.6,0,2.56,2.56,0,0,0-.54,1.65,2.6,2.6,0,0,0,.54,1.65,1.57,1.57,0,0,0,2.6,0A2.38,2.38,0,0,0,71.17,118.25Z"/><path class="cls-4" d="M74.87,119.86a.56.56,0,0,0,.9,0,.91.91,0,0,0,.19-.59.87.87,0,0,0-.19-.57,3.3,3.3,0,0,0-.55-.5,4.23,4.23,0,0,1-.82-.71,2.21,2.21,0,0,1,0-2.59,1.24,1.24,0,0,1,1-.55,1.21,1.21,0,0,1,1,.52,1.71,1.71,0,0,1,.36.8l-1,.38a.61.61,0,0,0-.07-.21.29.29,0,0,0-.25-.12.3.3,0,0,0-.26.14.5.5,0,0,0-.11.34.52.52,0,0,0,.1.33,4.73,4.73,0,0,0,.45.4,5,5,0,0,1,.93.81,2.62,2.62,0,0,1,0,3.08,1.46,1.46,0,0,1-2.42,0,2.29,2.29,0,0,1-.45-1.09l1.06-.29A.93.93,0,0,0,74.87,119.86Z"/><path class="cls-4" d="M80,119.78a1.29,1.29,0,0,0,1,.3,1.62,1.62,0,0,0,1.3-.68c0-.06.14-.2.28-.41l1.06.49a10.33,10.33,0,0,1-.56.91,2.53,2.53,0,0,1-4.16,0,4.5,4.5,0,0,1,0-5.29A2.58,2.58,0,0,1,81,114a2.45,2.45,0,0,1,1.82.8c.09.09.17.19.26.29l.29.42-.54.68Zm1.79-4.2a1.22,1.22,0,0,0-.81-.18,1.6,1.6,0,0,0-1.3.69,2.58,2.58,0,0,0-.54,1.65,2.42,2.42,0,0,0,.14,1Z"/><path class="cls-4" d="M85.92,110.81v10.5H84.85v-10.5Z"/><path class="cls-4" d="M88.55,110.81v10.5H87.47v-10.5Z"/><path class="cls-4" d="M92.34,121.4a2,2,0,0,1-1.62-.78,3.13,3.13,0,0,1-.63-2v-4.1h1.08v4a1.56,1.56,0,0,0,.33,1,1,1,0,0,0,.84.42,1,1,0,0,0,.79-.41,1.54,1.54,0,0,0,.34-1v-4h1.07v4.1a3.13,3.13,0,0,1-.63,2A1.9,1.9,0,0,1,92.34,121.4Z"/><path class="cls-4" d="M97.16,119.86a.59.59,0,0,0,.45.23.56.56,0,0,0,.45-.23.91.91,0,0,0,.19-.59.92.92,0,0,0-.18-.57,3.79,3.79,0,0,0-.55-.5,3.94,3.94,0,0,1-.82-.71,2.17,2.17,0,0,1,0-2.59,1.24,1.24,0,0,1,1-.55,1.18,1.18,0,0,1,1,.52,1.71,1.71,0,0,1,.36.8l-1,.38a.56.56,0,0,0-.08-.21.29.29,0,0,0-.24-.12.32.32,0,0,0-.27.14.55.55,0,0,0-.11.34.52.52,0,0,0,.11.33,3.36,3.36,0,0,0,.44.4,4.45,4.45,0,0,1,.93.81,2.44,2.44,0,0,1,.5,1.53,2.4,2.4,0,0,1-.5,1.55,1.5,1.5,0,0,1-1.21.64,1.48,1.48,0,0,1-1.2-.65,2.3,2.3,0,0,1-.46-1.09l1.07-.29A.94.94,0,0,0,97.16,119.86Z"/><path class="cls-4" d="M108.49,119l1.07.49a7.92,7.92,0,0,1-.57.91,2.52,2.52,0,0,1-4.15,0,4.5,4.5,0,0,1,0-5.29,2.52,2.52,0,0,1,4.15,0,8.49,8.49,0,0,1,.57.9l-1.07.5a4.77,4.77,0,0,0-.28-.41,1.56,1.56,0,0,0-2.59,0,2.79,2.79,0,0,0,0,3.3,1.6,1.6,0,0,0,1.29.69,1.64,1.64,0,0,0,1.31-.68Z"/><path class="cls-4" d="M113.42,114a2.56,2.56,0,0,1,2.08,1.09,4.5,4.5,0,0,1,0,5.29,2.52,2.52,0,0,1-4.15,0,4.5,4.5,0,0,1,0-5.29A2.56,2.56,0,0,1,113.42,114Zm-1.3,2.08a2.81,2.81,0,0,0,0,3.31,1.62,1.62,0,0,0,1.3.68,1.64,1.64,0,0,0,1.31-.68,2.85,2.85,0,0,0,0-3.31,1.62,1.62,0,0,0-1.31-.69A1.6,1.6,0,0,0,112.12,116.09Z"/><path class="cls-4" d="M118.67,116.37v4.94H117.6v-6.75h1.07v.78a1.35,1.35,0,0,1,1.35-1.15,1.54,1.54,0,0,1,1.36.78,3.56,3.56,0,0,1,.53,2v4.39h-1.07V117a1.56,1.56,0,0,0-.33-1,1,1,0,0,0-.8-.42,1,1,0,0,0-.8.41A1.7,1.7,0,0,0,118.67,116.37Z"/><path class="cls-4" d="M125.33,121.31l-2.53-6.75H124l1.59,4.38,1.6-4.38h1.21l-2.54,6.75Z"/><path class="cls-4" d="M133.89,115v-.47H135v6.75h-1.07v-.84a2.24,2.24,0,0,1-1.79,1,2.55,2.55,0,0,1-2.08-1.09,4.48,4.48,0,0,1,0-5.28A2.55,2.55,0,0,1,132.1,114,2.24,2.24,0,0,1,133.89,115Zm0,3.22v-1a2.46,2.46,0,0,0-.49-1.15,1.59,1.59,0,0,0-2.61,0,2.56,2.56,0,0,0-.54,1.65,2.6,2.6,0,0,0,.54,1.65,1.58,1.58,0,0,0,2.61,0A2.46,2.46,0,0,0,133.89,118.25Z"/><path class="cls-4" d="M137.59,110.81v10.5h-1.07v-10.5Z"/><path class="cls-4" d="M140.21,110.81v10.5h-1.07v-10.5Z"/><path class="cls-4" d="M142.91,112.06a1.15,1.15,0,0,1,0,1.35.69.69,0,0,1-.53.28.67.67,0,0,1-.53-.28,1.15,1.15,0,0,1,0-1.35.67.67,0,0,1,.53-.28A.69.69,0,0,1,142.91,112.06Zm0,2.5v6.75h-1.07v-6.75Z"/><path class="cls-4" d="M145.62,119.86a.57.57,0,0,0,.91,0,1,1,0,0,0,.18-.59.92.92,0,0,0-.18-.57,3.79,3.79,0,0,0-.55-.5,3.94,3.94,0,0,1-.82-.71,2.17,2.17,0,0,1,0-2.59,1.24,1.24,0,0,1,1-.55,1.18,1.18,0,0,1,1,.52,1.71,1.71,0,0,1,.36.8l-1,.38a1,1,0,0,0-.07-.21.33.33,0,0,0-.52,0,.55.55,0,0,0-.11.34.52.52,0,0,0,.11.33,3.36,3.36,0,0,0,.44.4,4.45,4.45,0,0,1,.93.81,2.44,2.44,0,0,1,.5,1.53,2.4,2.4,0,0,1-.5,1.55,1.5,1.5,0,0,1-1.21.64,1.48,1.48,0,0,1-1.2-.65,2.41,2.41,0,0,1-.46-1.09l1.07-.29A1.07,1.07,0,0,0,145.62,119.86Z"/><path class="cls-4" d="M154.4,119.78a1.26,1.26,0,0,0,1,.3,1.64,1.64,0,0,0,1.31-.68c0-.06.14-.2.27-.41l1.07.49a7.92,7.92,0,0,1-.57.91,2.52,2.52,0,0,1-4.15,0,4.5,4.5,0,0,1,0-5.29,2.57,2.57,0,0,1,2.07-1.09,2.45,2.45,0,0,1,1.83.8,3.47,3.47,0,0,1,.25.29,4.23,4.23,0,0,1,.3.42l-.54.68Zm1.78-4.2a1.22,1.22,0,0,0-.81-.18,1.6,1.6,0,0,0-1.29.69,2.58,2.58,0,0,0-.54,1.65,2.26,2.26,0,0,0,.14,1Z"/><path class="cls-4" d="M163.16,114.56l-1.4,3.08,1.66,3.67h-1.24l-1-2.27-1,2.27h-1.24l1.67-3.67-1.4-3.08h1.23l.78,1.68.77-1.68Z"/><path class="cls-4" d="M172.83,115v-4.21h1.08v10.5h-1.08v-.84a2.23,2.23,0,0,1-1.8,1,2.55,2.55,0,0,1-2.07-1.09,4.5,4.5,0,0,1,0-5.29A2.55,2.55,0,0,1,171,114,2.21,2.21,0,0,1,172.83,115Zm0,3.23v-1a2.32,2.32,0,0,0-.5-1.16,1.59,1.59,0,0,0-1.3-.69,1.62,1.62,0,0,0-1.3.69,2.81,2.81,0,0,0,0,3.31,1.63,1.63,0,0,0,1.3.68,1.6,1.6,0,0,0,1.3-.68A2.32,2.32,0,0,0,172.83,118.25Z"/><path class="cls-4" d="M176.61,112.06a1.15,1.15,0,0,1,0,1.35.69.69,0,0,1-.54.28.67.67,0,0,1-.52-.28,1.15,1.15,0,0,1,0-1.35.67.67,0,0,1,.52-.28A.69.69,0,0,1,176.61,112.06Zm0,2.5v6.75h-1.07v-6.75Z"/><path class="cls-4" d="M182.45,119l1.07.49a7.92,7.92,0,0,1-.57.91,2.52,2.52,0,0,1-4.15,0,4.5,4.5,0,0,1,0-5.29,2.52,2.52,0,0,1,4.15,0,8.49,8.49,0,0,1,.57.9l-1.07.5a4.77,4.77,0,0,0-.28-.41,1.57,1.57,0,0,0-2.6,0,2.83,2.83,0,0,0,0,3.3,1.62,1.62,0,0,0,1.3.69,1.64,1.64,0,0,0,1.31-.68Z"/><path class="cls-4" d="M185.4,114.56V112h1.07v2.53h.95v1.36h-.95v5.39H185.4v-5.39h-1v-1.36Z"/><path class="cls-4" d="M190.91,121.4a2,2,0,0,1-1.62-.78,3.19,3.19,0,0,1-.62-2v-4.1h1.07v4a1.56,1.56,0,0,0,.33,1,1.05,1.05,0,0,0,.84.42,1,1,0,0,0,.8-.41,1.59,1.59,0,0,0,.33-1v-4h1.07v4.1a3.19,3.19,0,0,1-.62,2A1.93,1.93,0,0,1,190.91,121.4Z"/><path class="cls-4" d="M194.66,114.56h1.07v.63a1.19,1.19,0,0,1,1.19-1c.58,0,.91.37,1,1.12a1.3,1.3,0,0,1,1.4-1.12c.75,0,1.12.58,1.12,1.73v5.38h-1.07v-4.75c0-.67-.21-1-.64-1a.57.57,0,0,0-.45.24,3.46,3.46,0,0,0-.19,1.58v3.93H197v-4.75c0-.67-.22-1-.64-1a.57.57,0,0,0-.46.24,2.11,2.11,0,0,0-.18,1.07v4.44h-1.07Z"/><path class="cls-4" d="M203.27,119.48l-1.19,3.15h-1l.66-3.15Z"/><path class="cls-4" d="M209.5,119.78a1.26,1.26,0,0,0,1,.3,1.64,1.64,0,0,0,1.31-.68c0-.06.14-.2.27-.41l1.07.49a7.92,7.92,0,0,1-.57.91,2.52,2.52,0,0,1-4.15,0,4.5,4.5,0,0,1,0-5.29,2.57,2.57,0,0,1,2.07-1.09,2.45,2.45,0,0,1,1.83.8,3.47,3.47,0,0,1,.25.29,4.23,4.23,0,0,1,.3.42l-.54.68Zm1.78-4.2a1.22,1.22,0,0,0-.81-.18,1.6,1.6,0,0,0-1.29.69,2.58,2.58,0,0,0-.54,1.65,2.26,2.26,0,0,0,.14,1Z"/><path class="cls-4" d="M219,115v-.46H220v5a4.8,4.8,0,0,1-.84,3,2.72,2.72,0,0,1-4.16,0,7.39,7.39,0,0,1-.56-.9l1.06-.49.28.41a1.62,1.62,0,0,0,1.3.68c.85,0,1.44-.71,1.76-2.13a1.74,1.74,0,0,1-1.72,1.24,2.58,2.58,0,0,1-2.07-1.07,4,4,0,0,1-.86-2.61,4.12,4.12,0,0,1,.86-2.63,2.56,2.56,0,0,1,2.07-1.1A2.23,2.23,0,0,1,219,115Zm0,2.2a2.4,2.4,0,0,0-.5-1.13,1.59,1.59,0,0,0-1.3-.69,1.62,1.62,0,0,0-1.3.69,2.81,2.81,0,0,0,0,3.31,1.62,1.62,0,0,0,1.3.69,1.59,1.59,0,0,0,1.3-.69,2.34,2.34,0,0,0,.5-1.11Z"/><path class="cls-4" d="M223.26,119.78a1.25,1.25,0,0,0,1,.3,1.65,1.65,0,0,0,1.31-.68l.27-.41,1.07.49a7.92,7.92,0,0,1-.57.91,2.52,2.52,0,0,1-4.15,0,4.5,4.5,0,0,1,0-5.29,2.55,2.55,0,0,1,2.07-1.09,2.47,2.47,0,0,1,1.83.8l.25.29.29.42-.53.68Zm1.78-4.2a1.22,1.22,0,0,0-.81-.18,1.62,1.62,0,0,0-1.3.69,2.58,2.58,0,0,0-.54,1.65,2.42,2.42,0,0,0,.14,1Z"/><path class="cls-4" d="M229.19,119.86a.59.59,0,0,0,.45.23.56.56,0,0,0,.45-.23.91.91,0,0,0,.19-.59.92.92,0,0,0-.18-.57,3.5,3.5,0,0,0-.56-.5,4.56,4.56,0,0,1-.82-.71,2.21,2.21,0,0,1,0-2.59,1.27,1.27,0,0,1,1-.55,1.19,1.19,0,0,1,1,.52,1.71,1.71,0,0,1,.36.8l-1,.38a.45.45,0,0,0-.07-.21.29.29,0,0,0-.24-.12.31.31,0,0,0-.27.14.55.55,0,0,0-.11.34.47.47,0,0,0,.11.33,3.36,3.36,0,0,0,.44.4,4.45,4.45,0,0,1,.93.81,2.62,2.62,0,0,1,0,3.08,1.46,1.46,0,0,1-2.42,0,2.29,2.29,0,0,1-.45-1.09l1.06-.29A.93.93,0,0,0,229.19,119.86Z"/><path class="cls-4" d="M233.39,114.56V112h1.06v2.53h1v1.36h-1v5.39h-1.06v-5.39h-1v-1.36Z"/><path class="cls-4" d="M241.25,115v-.47h1.08v6.75h-1.08v-.84a2.23,2.23,0,0,1-1.79,1,2.56,2.56,0,0,1-2.08-1.09,4.48,4.48,0,0,1,0-5.28,2.56,2.56,0,0,1,2.08-1.09A2.23,2.23,0,0,1,241.25,115Zm0,3.22v-1a2.36,2.36,0,0,0-.49-1.15,1.6,1.6,0,0,0-1.3-.68,1.58,1.58,0,0,0-1.3.68,2.56,2.56,0,0,0-.54,1.65,2.6,2.6,0,0,0,.54,1.65,1.59,1.59,0,0,0,1.3.69,1.62,1.62,0,0,0,1.3-.69A2.36,2.36,0,0,0,241.25,118.25Z"/><path class="cls-4" d="M245,119.86a.57.57,0,0,0,.91,0,1,1,0,0,0,.18-.59.92.92,0,0,0-.18-.57,3.79,3.79,0,0,0-.55-.5,3.94,3.94,0,0,1-.82-.71,2.17,2.17,0,0,1,0-2.59,1.24,1.24,0,0,1,1-.55,1.18,1.18,0,0,1,1,.52,1.84,1.84,0,0,1,.37.8l-1,.38a1,1,0,0,0-.07-.21.32.32,0,0,0-.25-.12.33.33,0,0,0-.27.14.55.55,0,0,0-.11.34.52.52,0,0,0,.11.33,4.23,4.23,0,0,0,.44.4,4.45,4.45,0,0,1,.93.81,2.39,2.39,0,0,1,.5,1.53,2.45,2.45,0,0,1-.49,1.55,1.52,1.52,0,0,1-1.21.64,1.48,1.48,0,0,1-1.21-.65,2.41,2.41,0,0,1-.46-1.09l1.07-.29A1.07,1.07,0,0,0,245,119.86Z"/><path class="cls-4" d="M256.69,115v-4.21h1.07v10.5h-1.07v-.84a2.26,2.26,0,0,1-1.8,1,2.55,2.55,0,0,1-2.08-1.09,4.5,4.5,0,0,1,0-5.29,2.55,2.55,0,0,1,2.08-1.09A2.23,2.23,0,0,1,256.69,115Zm0,3.23v-1a2.51,2.51,0,0,0-.5-1.16,1.58,1.58,0,0,0-2.61,0,2.81,2.81,0,0,0,0,3.31,1.59,1.59,0,0,0,2.61,0A2.52,2.52,0,0,0,256.69,118.25Z"/><path class="cls-4" d="M261.93,114A2.56,2.56,0,0,1,264,115.1a4.5,4.5,0,0,1,0,5.29,2.52,2.52,0,0,1-4.15,0,4.5,4.5,0,0,1,0-5.29A2.55,2.55,0,0,1,261.93,114Zm-1.3,2.08a2.81,2.81,0,0,0,0,3.31,1.58,1.58,0,0,0,2.6,0,2.81,2.81,0,0,0,0-3.31,1.57,1.57,0,0,0-2.6,0Z"/><path class="cls-4" d="M267.18,110.81v10.5h-1.07v-10.5Z"/><path class="cls-4" d="M271.35,114a2.58,2.58,0,0,1,2.08,1.09,4.5,4.5,0,0,1,0,5.29,2.58,2.58,0,0,1-2.08,1.09,2.55,2.55,0,0,1-2.07-1.09,4.5,4.5,0,0,1,0-5.29A2.55,2.55,0,0,1,271.35,114Zm-1.3,2.08a2.81,2.81,0,0,0,0,3.31,1.58,1.58,0,0,0,2.6,0,2.81,2.81,0,0,0,0-3.31,1.57,1.57,0,0,0-2.6,0Z"/><path class="cls-4" d="M276.59,115.47a1.84,1.84,0,0,1,1.47-1.08v1.41a1.19,1.19,0,0,0-.93.48,2.58,2.58,0,0,0-.54,1.56v3.47h-1.07v-6.75h1.07Z"/><path class="cls-4" d="M34.43,130.67v-2.53H35.5v2.53h1V132h-1v5.39H34.43V132h-1v-1.36Z"/><path class="cls-4" d="M39.35,135.89a1.26,1.26,0,0,0,1,.31,1.62,1.62,0,0,0,1.31-.69l.27-.4,1.07.48a7.08,7.08,0,0,1-.57.91,2.51,2.51,0,0,1-4.15,0,4.48,4.48,0,0,1,0-5.28,2.56,2.56,0,0,1,2.07-1.1,2.5,2.5,0,0,1,1.83.8c.08.1.17.19.25.3l.29.41-.53.69Zm1.78-4.19a1.22,1.22,0,0,0-.81-.18,1.62,1.62,0,0,0-1.3.69,2.63,2.63,0,0,0-.53,1.65,2.5,2.5,0,0,0,.13,1Z"/><path class="cls-4" d="M44.21,130.67h1.06v.63a1.21,1.21,0,0,1,1.19-1c.59,0,.92.38,1,1.13a1.3,1.3,0,0,1,1.39-1.13c.75,0,1.13.58,1.13,1.74v5.37H48.89v-4.75q0-1-.63-1a.56.56,0,0,0-.45.23,3.54,3.54,0,0,0-.19,1.59v3.92H46.55v-4.75c0-.66-.21-1-.64-1a.59.59,0,0,0-.45.23,2.27,2.27,0,0,0-.19,1.08v4.43H44.21Z"/><path class="cls-4" d="M52.59,136.58v3.11H51.52v-9h1.07v.61a2.16,2.16,0,0,1,1.8-1.15,2.55,2.55,0,0,1,2.07,1.09,4.48,4.48,0,0,1,0,5.28,2.53,2.53,0,0,1-2.07,1.1A2.22,2.22,0,0,1,52.59,136.58Zm0-3.24v1a2.31,2.31,0,0,0,.5,1.13,1.59,1.59,0,0,0,1.3.68,1.62,1.62,0,0,0,1.3-.68,2.81,2.81,0,0,0,0-3.31,1.57,1.57,0,0,0-2.6,0A2.31,2.31,0,0,0,52.59,133.34Z"/><path class="cls-4" d="M61.24,130.12a2.56,2.56,0,0,1,2.07,1.1,4.48,4.48,0,0,1,0,5.28,2.53,2.53,0,0,1-2.07,1.1,2.56,2.56,0,0,1-2.08-1.1,4.48,4.48,0,0,1,0-5.28A2.59,2.59,0,0,1,61.24,130.12Zm-1.3,2.09a2.6,2.6,0,0,0-.54,1.65,2.56,2.56,0,0,0,.54,1.65,1.57,1.57,0,0,0,2.6,0,2.56,2.56,0,0,0,.54-1.65,2.6,2.6,0,0,0-.54-1.65,1.57,1.57,0,0,0-2.6,0Z"/><path class="cls-4" d="M66.48,131.59A1.88,1.88,0,0,1,68,130.5v1.41a1.26,1.26,0,0,0-.93.48,2.5,2.5,0,0,0-.54,1.56v3.47H65.41v-6.75h1.07Z"/><path class="cls-4" d="M69.7,135.6l-1.19,3.15h-1l.67-3.15Z"/><path class="cls-4" d="M75.35,126.92v10.5H74.28v-10.5Z"/><path class="cls-4" d="M79.52,130.12a2.56,2.56,0,0,1,2.08,1.1,4.48,4.48,0,0,1,0,5.28,2.51,2.51,0,0,1-4.15,0,4.48,4.48,0,0,1,0-5.28A2.57,2.57,0,0,1,79.52,130.12Zm-1.3,2.09a2.6,2.6,0,0,0-.54,1.65,2.56,2.56,0,0,0,.54,1.65,1.6,1.6,0,0,0,1.3.69,1.62,1.62,0,0,0,1.31-.69,2.56,2.56,0,0,0,.54-1.65,2.6,2.6,0,0,0-.54-1.65,1.62,1.62,0,0,0-1.31-.69A1.6,1.6,0,0,0,78.22,132.21Z"/><path class="cls-4" d="M84.76,136.58v.84H83.7V126.93h1.06v4.21a2.24,2.24,0,0,1,1.8-1,2.56,2.56,0,0,1,2.08,1.1,4.48,4.48,0,0,1,0,5.28,2.53,2.53,0,0,1-2.08,1.1A2.24,2.24,0,0,1,84.76,136.58Zm0-3.24v1a2.37,2.37,0,0,0,.5,1.12,1.58,1.58,0,0,0,2.61,0,2.56,2.56,0,0,0,.54-1.65,2.6,2.6,0,0,0-.54-1.65,1.58,1.58,0,0,0-2.61,0A2.4,2.4,0,0,0,84.76,133.34Z"/><path class="cls-4" d="M93.54,130.12a2.56,2.56,0,0,1,2.08,1.1,4.48,4.48,0,0,1,0,5.28,2.51,2.51,0,0,1-4.15,0,4.48,4.48,0,0,1,0-5.28A2.57,2.57,0,0,1,93.54,130.12Zm-1.3,2.09a2.6,2.6,0,0,0-.54,1.65,2.56,2.56,0,0,0,.54,1.65,1.6,1.6,0,0,0,1.3.69,1.62,1.62,0,0,0,1.31-.69,2.56,2.56,0,0,0,.54-1.65,2.6,2.6,0,0,0-.54-1.65,1.62,1.62,0,0,0-1.31-.69A1.6,1.6,0,0,0,92.24,132.21Z"/><path class="cls-4" d="M98.78,131.59a1.88,1.88,0,0,1,1.47-1.09v1.41a1.25,1.25,0,0,0-.92.48,2.57,2.57,0,0,0-.55,1.56v3.47H97.72v-6.75h1.06Z"/><path class="cls-4" d="M102.14,130.67v-2.53h1.07v2.53h1V132h-1v5.39h-1.07V132h-1v-1.36Z"/><path class="cls-4" d="M106.56,128.18a1,1,0,0,1,.22.67,1,1,0,0,1-.22.68.68.68,0,0,1-.53.27.66.66,0,0,1-.53-.27,1,1,0,0,1-.22-.68,1,1,0,0,1,.22-.67.65.65,0,0,1,.53-.28A.66.66,0,0,1,106.56,128.18Zm0,2.49v6.75h-1.07v-6.75Z"/><path class="cls-4" d="M109.27,136a.55.55,0,0,0,.91,0,.91.91,0,0,0,.18-.58.92.92,0,0,0-.18-.57,4.34,4.34,0,0,0-.55-.51,3.67,3.67,0,0,1-.82-.7,2.18,2.18,0,0,1,0-2.6,1.25,1.25,0,0,1,1-.54,1.2,1.2,0,0,1,1,.51,1.75,1.75,0,0,1,.36.81l-1,.38a1.44,1.44,0,0,0-.07-.22.31.31,0,0,0-.25-.11.32.32,0,0,0-.27.14.52.52,0,0,0-.11.33.55.55,0,0,0,.11.34,3.36,3.36,0,0,0,.44.4,4.45,4.45,0,0,1,.93.81,2.61,2.61,0,0,1,0,3.07,1.45,1.45,0,0,1-2.41,0,2.45,2.45,0,0,1-.46-1.09l1.07-.29A1,1,0,0,0,109.27,136Z"/><path class="cls-4" d="M116.4,130.67h1.07v.63a1.19,1.19,0,0,1,1.19-1c.58,0,.91.38,1,1.13a1.31,1.31,0,0,1,1.4-1.13c.75,0,1.12.58,1.12,1.74v5.37h-1.07v-4.75c0-.66-.21-1-.64-1a.59.59,0,0,0-.45.23,3.54,3.54,0,0,0-.19,1.59v3.92h-1.07v-4.75c0-.66-.22-1-.64-1a.59.59,0,0,0-.46.23,2.18,2.18,0,0,0-.18,1.08v4.43H116.4Z"/><path class="cls-4" d="M128.31,131.15v-.48h1.08v6.76h-1.08v-.85a2.21,2.21,0,0,1-1.79,1,2.58,2.58,0,0,1-2.08-1.09,4.48,4.48,0,0,1,0-5.28,2.58,2.58,0,0,1,2.08-1.09A2.2,2.2,0,0,1,128.31,131.15Zm0,3.22v-1a2.36,2.36,0,0,0-.49-1.15,1.57,1.57,0,0,0-2.6,0,2.56,2.56,0,0,0-.54,1.65,2.6,2.6,0,0,0,.54,1.65,1.62,1.62,0,0,0,1.3.68,1.59,1.59,0,0,0,1.3-.68A2.36,2.36,0,0,0,128.31,134.37Z"/><path class="cls-4" d="M132,136a.55.55,0,0,0,.91,0,.92.92,0,0,0,.19-.58.93.93,0,0,0-.19-.57,3.71,3.71,0,0,0-.55-.51,3.67,3.67,0,0,1-.82-.7,2.22,2.22,0,0,1,0-2.6,1.25,1.25,0,0,1,1-.54,1.23,1.23,0,0,1,1,.51,1.86,1.86,0,0,1,.36.81l-1,.38a.8.8,0,0,0-.07-.22.3.3,0,0,0-.25-.11.33.33,0,0,0-.27.14.52.52,0,0,0-.11.33.55.55,0,0,0,.11.34,4.73,4.73,0,0,0,.45.4,4.62,4.62,0,0,1,.92.81,2.39,2.39,0,0,1,.5,1.53,2.43,2.43,0,0,1-.49,1.54,1.46,1.46,0,0,1-2.42,0,2.34,2.34,0,0,1-.45-1.09l1.06-.29A1,1,0,0,0,132,136Z"/><path class="cls-4" d="M136.56,136a.55.55,0,0,0,.91,0,.92.92,0,0,0,.19-.58.93.93,0,0,0-.19-.57,4.34,4.34,0,0,0-.55-.51,3.67,3.67,0,0,1-.82-.7,2.22,2.22,0,0,1,0-2.6,1.25,1.25,0,0,1,1-.54,1.23,1.23,0,0,1,1,.51,2,2,0,0,1,.36.81l-1,.38a.8.8,0,0,0-.07-.22.3.3,0,0,0-.25-.11.33.33,0,0,0-.27.14.52.52,0,0,0-.11.33.55.55,0,0,0,.11.34,3.69,3.69,0,0,0,.45.4,4.62,4.62,0,0,1,.92.81,2.39,2.39,0,0,1,.5,1.53,2.43,2.43,0,0,1-.49,1.54,1.46,1.46,0,0,1-2.42,0,2.34,2.34,0,0,1-.45-1.09l1.06-.29A1,1,0,0,0,136.56,136Z"/><path class="cls-4" d="M144.64,131.15v-.48h1.07v6.76h-1.07v-.85a2.23,2.23,0,0,1-1.79,1,2.55,2.55,0,0,1-2.08-1.09,4.48,4.48,0,0,1,0-5.28,2.55,2.55,0,0,1,2.08-1.09A2.22,2.22,0,0,1,144.64,131.15Zm0,3.22v-1a2.46,2.46,0,0,0-.49-1.15,1.58,1.58,0,0,0-2.61,0,2.56,2.56,0,0,0-.54,1.65,2.6,2.6,0,0,0,.54,1.65,1.64,1.64,0,0,0,1.31.68,1.62,1.62,0,0,0,1.3-.68A2.46,2.46,0,0,0,144.64,134.37Z"/><path class="cls-4" d="M148.1,135.88a1.15,1.15,0,0,1,0,1.35.65.65,0,0,1-.53.28.66.66,0,0,1-.53-.28,1.15,1.15,0,0,1,0-1.35.68.68,0,0,1,.53-.27A.66.66,0,0,1,148.1,135.88Z"/><path class="cls-4" d="M154,134.06v3.36H152.9V126.93h2.34a2.67,2.67,0,0,1,1.68,1,4.3,4.3,0,0,1,0,5.05,2.41,2.41,0,0,1-2,1Zm0-5.77v4.41h1a1.51,1.51,0,0,0,1.22-.65,2.63,2.63,0,0,0,0-3.11,1.51,1.51,0,0,0-1.22-.65Z"/><path class="cls-4" d="M160,135.89a1.27,1.27,0,0,0,1,.31,1.62,1.62,0,0,0,1.3-.69,4.11,4.11,0,0,0,.27-.4l1.07.48a7.08,7.08,0,0,1-.57.91,2.53,2.53,0,0,1-2.07,1.1,2.56,2.56,0,0,1-2.08-1.1,4.48,4.48,0,0,1,0-5.28,2.59,2.59,0,0,1,2.08-1.1,2.48,2.48,0,0,1,1.82.8,3.61,3.61,0,0,1,.25.3,5,5,0,0,1,.3.41l-.54.69Zm1.79-4.19a1.24,1.24,0,0,0-.81-.18,1.6,1.6,0,0,0-1.3.69,2.58,2.58,0,0,0-.54,1.65,2.45,2.45,0,0,0,.14,1Z"/><path class="cls-4" d="M165.91,126.92v10.5h-1.07v-10.5Z"/><path class="cls-4" d="M168.53,126.92v10.5h-1.07v-10.5Z"/><path class="cls-4" d="M171.73,135.89a1.27,1.27,0,0,0,1,.31,1.62,1.62,0,0,0,1.3-.69,4.11,4.11,0,0,0,.27-.4l1.07.48a7.08,7.08,0,0,1-.57.91,2.53,2.53,0,0,1-2.07,1.1,2.56,2.56,0,0,1-2.08-1.1,4.48,4.48,0,0,1,0-5.28,2.59,2.59,0,0,1,2.08-1.1,2.48,2.48,0,0,1,1.82.8,3.61,3.61,0,0,1,.25.3,5,5,0,0,1,.3.41l-.54.69Zm1.79-4.19a1.22,1.22,0,0,0-.81-.18,1.6,1.6,0,0,0-1.3.69,2.58,2.58,0,0,0-.54,1.65,2.45,2.45,0,0,0,.14,1Z"/><path class="cls-4" d="M177.66,132.48v4.94h-1.07v-6.75h1.07v.79a1.36,1.36,0,0,1,1.35-1.15,1.58,1.58,0,0,1,1.37.77,3.59,3.59,0,0,1,.52,2v4.38h-1.07v-4.33a1.56,1.56,0,0,0-.33-1,1,1,0,0,0-1.59,0A1.63,1.63,0,0,0,177.66,132.48Z"/><path class="cls-4" d="M183.11,130.67v-2.53h1.07v2.53h.95V132h-.95v5.39h-1.07V132h-1v-1.36Z"/><path class="cls-4" d="M188,135.89a1.25,1.25,0,0,0,1,.31,1.63,1.63,0,0,0,1.31-.69l.27-.4,1.07.48a7.08,7.08,0,0,1-.57.91,2.51,2.51,0,0,1-4.15,0,4.48,4.48,0,0,1,0-5.28,2.56,2.56,0,0,1,2.07-1.1,2.5,2.5,0,0,1,1.83.8c.08.1.17.19.25.3l.29.41-.53.69Zm1.78-4.19a1.22,1.22,0,0,0-.81-.18,1.62,1.62,0,0,0-1.3.69,2.58,2.58,0,0,0-.54,1.65,2.45,2.45,0,0,0,.14,1Z"/><path class="cls-4" d="M194,136a.56.56,0,0,0,.45.24.54.54,0,0,0,.45-.24.86.86,0,0,0,.19-.58.92.92,0,0,0-.18-.57,4,4,0,0,0-.56-.51,4.21,4.21,0,0,1-.82-.7,2.22,2.22,0,0,1,0-2.6,1.28,1.28,0,0,1,1-.54,1.21,1.21,0,0,1,1,.51,1.75,1.75,0,0,1,.36.81l-1,.38a.56.56,0,0,0-.07-.22.28.28,0,0,0-.25-.11.3.3,0,0,0-.26.14.52.52,0,0,0-.11.33.5.5,0,0,0,.11.34,3.36,3.36,0,0,0,.44.4,4.45,4.45,0,0,1,.93.81,2.61,2.61,0,0,1,0,3.07,1.47,1.47,0,0,1-1.21.64,1.5,1.5,0,0,1-1.21-.64,2.34,2.34,0,0,1-.45-1.09l1.06-.29A.84.84,0,0,0,194,136Z"/><path class="cls-4" d="M201.91,131.14v-.47H203v9h-1.07v-3.11a2.22,2.22,0,0,1-1.8,1,2.53,2.53,0,0,1-2.07-1.1,4.48,4.48,0,0,1,0-5.28,2.55,2.55,0,0,1,2.07-1.09A2.23,2.23,0,0,1,201.91,131.14Zm0,3.23v-1a2.38,2.38,0,0,0-.5-1.15,1.57,1.57,0,0,0-2.6,0,2.81,2.81,0,0,0,0,3.31,1.62,1.62,0,0,0,1.3.68,1.59,1.59,0,0,0,1.3-.68A2.38,2.38,0,0,0,201.91,134.37Z"/><path class="cls-4" d="M206.78,137.51a1.94,1.94,0,0,1-1.62-.78,3.12,3.12,0,0,1-.63-1.95v-4.11h1.07v4.06a1.57,1.57,0,0,0,.34,1,1,1,0,0,0,.84.42,1,1,0,0,0,.79-.42,1.5,1.5,0,0,0,.34-1v-4.06H209v4.11a3.12,3.12,0,0,1-.63,1.95A1.88,1.88,0,0,1,206.78,137.51Z"/><path class="cls-4" d="M212.18,135.89a1.25,1.25,0,0,0,1,.31,1.62,1.62,0,0,0,1.31-.69l.27-.4,1.07.48a7.08,7.08,0,0,1-.57.91,2.51,2.51,0,0,1-4.15,0,4.48,4.48,0,0,1,0-5.28,2.56,2.56,0,0,1,2.07-1.1,2.5,2.5,0,0,1,1.83.8c.08.1.17.19.25.3l.29.41-.53.69ZM214,131.7a1.22,1.22,0,0,0-.81-.18,1.62,1.62,0,0,0-1.3.69,2.58,2.58,0,0,0-.54,1.65,2.45,2.45,0,0,0,.14,1Z"/><path class="cls-4" d="M221.76,136.58v3.11h-1.07v-9h1.07v.61a2.16,2.16,0,0,1,1.8-1.15,2.55,2.55,0,0,1,2.07,1.09,4.48,4.48,0,0,1,0,5.28,2.53,2.53,0,0,1-2.07,1.1A2.22,2.22,0,0,1,221.76,136.58Zm0-3.24v1a2.31,2.31,0,0,0,.5,1.13,1.58,1.58,0,0,0,1.3.68,1.63,1.63,0,0,0,1.3-.68,2.81,2.81,0,0,0,0-3.31,1.62,1.62,0,0,0-1.3-.69,1.59,1.59,0,0,0-1.3.69A2.31,2.31,0,0,0,221.76,133.34Z"/><path class="cls-4" d="M229.43,135.89a1.27,1.27,0,0,0,1,.31,1.62,1.62,0,0,0,1.3-.69c0-.06.14-.19.27-.4l1.07.48a7.08,7.08,0,0,1-.57.91,2.53,2.53,0,0,1-2.07,1.1,2.56,2.56,0,0,1-2.08-1.1,4.48,4.48,0,0,1,0-5.28,2.59,2.59,0,0,1,2.08-1.1,2.48,2.48,0,0,1,1.82.8,3.61,3.61,0,0,1,.25.3,5,5,0,0,1,.3.41l-.54.69Zm1.79-4.19a1.24,1.24,0,0,0-.81-.18,1.6,1.6,0,0,0-1.3.69,2.58,2.58,0,0,0-.54,1.65,2.45,2.45,0,0,0,.14,1Z"/><path class="cls-4" d="M235.36,126.92v10.5h-1.07v-10.5Z"/><path class="cls-4" d="M238,126.92v10.5h-1.07v-10.5Z"/><path class="cls-4" d="M241.18,135.89a1.27,1.27,0,0,0,1,.31,1.62,1.62,0,0,0,1.3-.69,4.11,4.11,0,0,0,.27-.4l1.07.48a7.08,7.08,0,0,1-.57.91,2.53,2.53,0,0,1-2.07,1.1,2.56,2.56,0,0,1-2.08-1.1,4.48,4.48,0,0,1,0-5.28,2.59,2.59,0,0,1,2.08-1.1,2.48,2.48,0,0,1,1.82.8,3.61,3.61,0,0,1,.25.3,5,5,0,0,1,.3.41l-.54.69ZM243,131.7a1.24,1.24,0,0,0-.81-.18,1.6,1.6,0,0,0-1.3.69,2.58,2.58,0,0,0-.54,1.65,2.45,2.45,0,0,0,.14,1Z"/><path class="cls-4" d="M247.11,132.48v4.94H246v-6.75h1.07v.79a1.36,1.36,0,0,1,1.35-1.15,1.58,1.58,0,0,1,1.37.77,3.59,3.59,0,0,1,.52,2v4.38h-1.07v-4.33a1.56,1.56,0,0,0-.33-1,1,1,0,0,0-1.59,0A1.63,1.63,0,0,0,247.11,132.48Z"/><path class="cls-4" d="M252.56,130.67v-2.53h1.07v2.53h1V132h-1v5.39h-1.07V132h-.95v-1.36Z"/><path class="cls-4" d="M257.48,135.89a1.25,1.25,0,0,0,1,.31,1.63,1.63,0,0,0,1.31-.69l.27-.4,1.07.48a7.08,7.08,0,0,1-.57.91,2.56,2.56,0,0,1-2.08,1.1,2.53,2.53,0,0,1-2.07-1.1,4.48,4.48,0,0,1,0-5.28,2.56,2.56,0,0,1,2.07-1.1,2.52,2.52,0,0,1,1.83.8c.08.1.17.19.25.3l.29.41-.53.69Zm1.78-4.19a1.22,1.22,0,0,0-.81-.18,1.6,1.6,0,0,0-1.3.69,2.58,2.58,0,0,0-.54,1.65,2.45,2.45,0,0,0,.14,1Z"/><path class="cls-4" d="M263.41,136a.56.56,0,0,0,.45.24.54.54,0,0,0,.45-.24.86.86,0,0,0,.19-.58.92.92,0,0,0-.18-.57,4,4,0,0,0-.56-.51,4.21,4.21,0,0,1-.82-.7,2.22,2.22,0,0,1,0-2.6,1.27,1.27,0,0,1,1-.54,1.21,1.21,0,0,1,1,.51,1.75,1.75,0,0,1,.36.81l-1,.38a.56.56,0,0,0-.07-.22.28.28,0,0,0-.25-.11.3.3,0,0,0-.26.14.47.47,0,0,0-.11.33.5.5,0,0,0,.11.34,3.36,3.36,0,0,0,.44.4,4.45,4.45,0,0,1,.93.81,2.61,2.61,0,0,1,0,3.07,1.47,1.47,0,0,1-1.21.64,1.5,1.5,0,0,1-1.21-.64,2.34,2.34,0,0,1-.45-1.09l1.06-.29A.84.84,0,0,0,263.41,136Z"/><path class="cls-4" d="M271.36,131.14v-.47h1.07v9h-1.07v-3.11a2.22,2.22,0,0,1-1.8,1,2.56,2.56,0,0,1-2.08-1.1,4.52,4.52,0,0,1,0-5.28,2.58,2.58,0,0,1,2.08-1.09A2.23,2.23,0,0,1,271.36,131.14Zm0,3.23v-1a2.38,2.38,0,0,0-.5-1.15,1.57,1.57,0,0,0-2.6,0,2.81,2.81,0,0,0,0,3.31,1.62,1.62,0,0,0,1.3.68,1.59,1.59,0,0,0,1.3-.68A2.38,2.38,0,0,0,271.36,134.37Z"/><path class="cls-4" d="M276.23,137.51a1.94,1.94,0,0,1-1.62-.78,3.12,3.12,0,0,1-.63-1.95v-4.11h1.07v4.06a1.57,1.57,0,0,0,.34,1,1,1,0,0,0,.84.42,1,1,0,0,0,.79-.42,1.5,1.5,0,0,0,.34-1v-4.06h1.07v4.11a3.12,3.12,0,0,1-.63,1.95A1.88,1.88,0,0,1,276.23,137.51Z"/><path class="cls-4" d="M281.63,135.89a1.25,1.25,0,0,0,1,.31,1.63,1.63,0,0,0,1.31-.69l.27-.4,1.07.48a7.08,7.08,0,0,1-.57.91,2.51,2.51,0,0,1-4.15,0,4.48,4.48,0,0,1,0-5.28,2.56,2.56,0,0,1,2.07-1.1,2.5,2.5,0,0,1,1.83.8c.08.1.17.19.25.3l.29.41-.53.69Zm1.78-4.19a1.22,1.22,0,0,0-.81-.18,1.62,1.62,0,0,0-1.3.69,2.58,2.58,0,0,0-.54,1.65,2.45,2.45,0,0,0,.14,1Z"/><path class="cls-4" d="M35.44,152a1.26,1.26,0,0,0,1,.3,1.61,1.61,0,0,0,1.31-.68l.27-.41,1.07.49a7.92,7.92,0,0,1-.57.91,2.51,2.51,0,0,1-4.15,0,4.48,4.48,0,0,1,0-5.28,2.53,2.53,0,0,1,2.07-1.1,2.5,2.5,0,0,1,1.83.8c.08.09.17.19.25.3l.29.41-.53.69Zm1.78-4.2a1.3,1.3,0,0,0-.81-.17,1.63,1.63,0,0,0-1.3.68,2.66,2.66,0,0,0-.53,1.66,2.5,2.5,0,0,0,.13,1Z"/><path class="cls-4" d="M41.36,147.7a1.88,1.88,0,0,1,1.47-1.08V148a1.24,1.24,0,0,0-.92.48,2.57,2.57,0,0,0-.55,1.56v3.47H40.3v-6.75h1.06Z"/><path class="cls-4" d="M46.39,146.24a2.55,2.55,0,0,1,2.08,1.1,4.48,4.48,0,0,1,0,5.28,2.51,2.51,0,0,1-4.15,0,4.48,4.48,0,0,1,0-5.28A2.53,2.53,0,0,1,46.39,146.24Zm-1.3,2.09a2.79,2.79,0,0,0,0,3.3,1.59,1.59,0,0,0,1.3.68,1.61,1.61,0,0,0,1.31-.68,2.83,2.83,0,0,0,0-3.3,1.62,1.62,0,0,0-1.31-.69A1.6,1.6,0,0,0,45.09,148.33Z"/><path class="cls-4" d="M51.64,152.09a.57.57,0,0,0,.45.24.54.54,0,0,0,.45-.24,1,1,0,0,0,0-1.15,4,4,0,0,0-.56-.51,3.89,3.89,0,0,1-.82-.71,2.21,2.21,0,0,1,0-2.59,1.29,1.29,0,0,1,1-.54,1.21,1.21,0,0,1,1,.51,1.75,1.75,0,0,1,.36.81l-1,.38a.73.73,0,0,0-.08-.22.29.29,0,0,0-.24-.12.33.33,0,0,0-.27.14.58.58,0,0,0-.11.34.52.52,0,0,0,.11.33,2.76,2.76,0,0,0,.44.4,4.18,4.18,0,0,1,.93.82,2.61,2.61,0,0,1,0,3.07,1.45,1.45,0,0,1-2.41,0,2.34,2.34,0,0,1-.46-1.1l1.06-.29A.89.89,0,0,0,51.64,152.09Z"/><path class="cls-4" d="M59.92,144.29a1,1,0,0,1,.22.68,1,1,0,0,1-.22.67.66.66,0,0,1-.53.28.65.65,0,0,1-.53-.28,1,1,0,0,1-.22-.67,1,1,0,0,1,.22-.68.66.66,0,0,1,.53-.27A.68.68,0,0,1,59.92,144.29Zm0,2.5v6.75H58.85v-6.75Z"/><path class="cls-4" d="M62.63,152.7v3.11H61.56v-9h1.07v.61a2.16,2.16,0,0,1,1.8-1.15,2.55,2.55,0,0,1,2.07,1.09,4.48,4.48,0,0,1,0,5.28,2.56,2.56,0,0,1-2.07,1.1A2.22,2.22,0,0,1,62.63,152.7Zm0-3.25v1.06a2.31,2.31,0,0,0,.5,1.13,1.58,1.58,0,0,0,2.6,0,2.79,2.79,0,0,0,0-3.3,1.62,1.62,0,0,0-1.3-.69,1.59,1.59,0,0,0-1.3.69A2.28,2.28,0,0,0,62.63,149.45Z"/><path class="cls-4" d="M69.72,152.09a.55.55,0,0,0,.91,0,.94.94,0,0,0,.19-.58.89.89,0,0,0-.19-.57,3.71,3.71,0,0,0-.55-.51,3.43,3.43,0,0,1-.82-.71,2.21,2.21,0,0,1,0-2.59,1.25,1.25,0,0,1,1-.54,1.23,1.23,0,0,1,1,.51,1.86,1.86,0,0,1,.36.81l-1,.38a.8.8,0,0,0-.07-.22.3.3,0,0,0-.25-.12.36.36,0,0,0-.27.14.58.58,0,0,0-.11.34.52.52,0,0,0,.11.33,3.63,3.63,0,0,0,.45.4,4.33,4.33,0,0,1,.92.82,2.39,2.39,0,0,1,.5,1.53,2.45,2.45,0,0,1-.49,1.54,1.46,1.46,0,0,1-2.42,0,2.33,2.33,0,0,1-.45-1.1l1.06-.29A1,1,0,0,0,69.72,152.09Z"/><path class="cls-4" d="M75.45,153.63a2,2,0,0,1-1.62-.78,3.12,3.12,0,0,1-.63-1.95v-4.11h1.07v4.05a1.54,1.54,0,0,0,.34,1,1,1,0,0,0,.83.42,1,1,0,0,0,.8-.42,1.52,1.52,0,0,0,.34-1v-4.05h1.07v4.11a3.12,3.12,0,0,1-.63,1.95A1.91,1.91,0,0,1,75.45,153.63Z"/><path class="cls-4" d="M79.19,146.79h1.07v.63a1.2,1.2,0,0,1,1.19-1c.59,0,.92.38,1,1.13a1.3,1.3,0,0,1,1.39-1.13c.75,0,1.13.58,1.13,1.74v5.37H83.88v-4.75c0-.66-.21-1-.63-1a.57.57,0,0,0-.46.24,3.71,3.71,0,0,0-.19,1.59v3.92H81.54v-4.75c0-.66-.21-1-.64-1a.56.56,0,0,0-.45.24,2.12,2.12,0,0,0-.19,1.08v4.43H79.19Z"/><path class="cls-4" d="M87.81,151.72l-1.19,3.14h-1l.66-3.14Z"/><path class="cls-4" d="M93.46,152.09a.54.54,0,0,0,.9,0,.88.88,0,0,0,.19-.58.84.84,0,0,0-.19-.57,3.71,3.71,0,0,0-.55-.51,3.64,3.64,0,0,1-.82-.71,2.21,2.21,0,0,1,0-2.59,1.25,1.25,0,0,1,1-.54,1.23,1.23,0,0,1,1,.51,1.75,1.75,0,0,1,.36.81l-1,.38a.8.8,0,0,0-.07-.22A.29.29,0,0,0,94,148a.33.33,0,0,0-.26.14.59.59,0,0,0,0,.67,3.63,3.63,0,0,0,.45.4,4.7,4.7,0,0,1,.93.82,2.61,2.61,0,0,1,0,3.07,1.46,1.46,0,0,1-2.42,0,2.33,2.33,0,0,1-.45-1.1l1.06-.29A.89.89,0,0,0,93.46,152.09Z"/><path class="cls-4" d="M98.58,152a1.29,1.29,0,0,0,1,.3,1.59,1.59,0,0,0,1.3-.68c0-.06.14-.2.28-.41l1.06.49a10.33,10.33,0,0,1-.56.91,2.52,2.52,0,0,1-4.16,0,4.48,4.48,0,0,1,0-5.28,2.56,2.56,0,0,1,2.08-1.1,2.48,2.48,0,0,1,1.82.8c.09.09.17.19.26.3l.29.41-.54.69Zm1.79-4.2a1.3,1.3,0,0,0-.81-.17,1.62,1.62,0,0,0-1.3.68,2.61,2.61,0,0,0-.54,1.66,2.45,2.45,0,0,0,.14,1Z"/><path class="cls-4" d="M108.05,147.26v-4.21h1.07v10.49h-1.07v-.84a2.24,2.24,0,0,1-1.8,1,2.57,2.57,0,0,1-2.08-1.1,4.48,4.48,0,0,1,0-5.28,2.55,2.55,0,0,1,2.08-1.1A2.24,2.24,0,0,1,108.05,147.26Zm0,3.22v-1a2.38,2.38,0,0,0-.5-1.15,1.57,1.57,0,0,0-2.6,0,2.79,2.79,0,0,0,0,3.3,1.58,1.58,0,0,0,2.6,0A2.38,2.38,0,0,0,108.05,150.48Z"/><path class="cls-4" d="M114.32,143.05h1.07v4.47c.3-.73.74-1.1,1.3-1.1a1.55,1.55,0,0,1,1.36.78,3.58,3.58,0,0,1,.53,2v4.39h-1.07V149.2a1.88,1.88,0,0,0-.26-1,.92.92,0,0,0-.82-.41c-.45,0-.79.3-1,.9v4.85h-1.07Z"/><path class="cls-4" d="M121.77,152a1.29,1.29,0,0,0,1,.3,1.59,1.59,0,0,0,1.3-.68c0-.06.14-.2.28-.41l1.07.49c-.27.46-.46.76-.57.91a2.59,2.59,0,0,1-2.08,1.1,2.56,2.56,0,0,1-2.07-1.1,4.44,4.44,0,0,1,0-5.28,2.5,2.5,0,0,1,3.9-.3c.08.09.17.19.25.3l.29.41-.53.69Zm1.79-4.2a1.3,1.3,0,0,0-.81-.17,1.62,1.62,0,0,0-1.3.68,2.61,2.61,0,0,0-.54,1.66,2.45,2.45,0,0,0,.14,1Z"/><path class="cls-4" d="M127.71,148.6v4.94h-1.08v-6.75h1.08v.79a1.35,1.35,0,0,1,1.34-1.16,1.56,1.56,0,0,1,1.37.78,3.58,3.58,0,0,1,.53,2v4.39h-1.07V149.2a1.52,1.52,0,0,0-.34-1,1,1,0,0,0-.8-.41,1,1,0,0,0-.79.4A1.22,1.22,0,0,0,127.71,148.6Z"/><path class="cls-4" d="M137.11,147.26v-4.21h1.08v10.49h-1.08v-.84a2.22,2.22,0,0,1-1.8,1,2.56,2.56,0,0,1-2.07-1.1,4.48,4.48,0,0,1,0-5.28,2.53,2.53,0,0,1,2.07-1.1A2.22,2.22,0,0,1,137.11,147.26Zm0,3.22v-1a2.29,2.29,0,0,0-.5-1.15,1.59,1.59,0,0,0-1.3-.69,1.62,1.62,0,0,0-1.3.69,2.79,2.79,0,0,0,0,3.3,1.6,1.6,0,0,0,1.3.68,1.58,1.58,0,0,0,1.3-.68A2.29,2.29,0,0,0,137.11,150.48Z"/><path class="cls-4" d="M140.8,147.7a1.88,1.88,0,0,1,1.47-1.08V148a1.26,1.26,0,0,0-.93.48,2.63,2.63,0,0,0-.54,1.56v3.47h-1.07v-6.75h1.07Z"/><path class="cls-4" d="M144.94,152a1.26,1.26,0,0,0,1,.3,1.61,1.61,0,0,0,1.31-.68c0-.06.14-.2.27-.41l1.07.49a7.92,7.92,0,0,1-.57.91,2.51,2.51,0,0,1-4.15,0,4.48,4.48,0,0,1,0-5.28,2.56,2.56,0,0,1,2.07-1.1,2.63,2.63,0,0,1,2.08,1.1,5,5,0,0,1,.3.41l-.54.69Zm1.78-4.2a1.3,1.3,0,0,0-.81-.17,1.61,1.61,0,0,0-1.29.68,2.61,2.61,0,0,0-.54,1.66,2.29,2.29,0,0,0,.14,1Z"/><path class="cls-4" d="M150.87,147.7a1.88,1.88,0,0,1,1.47-1.08V148a1.26,1.26,0,0,0-.93.48,2.5,2.5,0,0,0-.54,1.56v3.47H149.8v-6.75h1.07Z"/><path class="cls-4" d="M154.63,144.29a1.11,1.11,0,0,1,.22.68,1.08,1.08,0,0,1-.22.67.66.66,0,0,1-.53.28.65.65,0,0,1-.53-.28,1,1,0,0,1-.22-.67,1,1,0,0,1,.22-.68.66.66,0,0,1,.53-.27A.68.68,0,0,1,154.63,144.29Zm0,2.5v6.75h-1.07v-6.75Z"/><path class="cls-4" d="M156.91,146.79v-2.53H158v2.53h1v1.36h-1v5.39h-1.07v-5.39H156v-1.36Z"/><path class="cls-4" d="M165.48,152a1.26,1.26,0,0,0,1,.3,1.61,1.61,0,0,0,1.31-.68c0-.06.14-.2.27-.41l1.07.49a7.92,7.92,0,0,1-.57.91,2.51,2.51,0,0,1-4.15,0,4.48,4.48,0,0,1,0-5.28,2.56,2.56,0,0,1,2.07-1.1,2.63,2.63,0,0,1,2.08,1.1,5,5,0,0,1,.3.41l-.54.69Zm1.78-4.2a1.3,1.3,0,0,0-.81-.17,1.61,1.61,0,0,0-1.29.68,2.61,2.61,0,0,0-.54,1.66,2.29,2.29,0,0,0,.14,1Z"/><path class="cls-4" d="M171.41,147.7a1.88,1.88,0,0,1,1.47-1.08V148a1.26,1.26,0,0,0-.93.48,2.5,2.5,0,0,0-.54,1.56v3.47h-1.07v-6.75h1.07Z"/><path class="cls-4" d="M176.44,146.24a2.53,2.53,0,0,1,2.07,1.1,4.48,4.48,0,0,1,0,5.28,2.56,2.56,0,0,1-2.07,1.1,2.59,2.59,0,0,1-2.08-1.1,4.48,4.48,0,0,1,0-5.28A2.56,2.56,0,0,1,176.44,146.24Zm-1.31,2.09a2.79,2.79,0,0,0,0,3.3,1.59,1.59,0,0,0,2.61,0,2.79,2.79,0,0,0,0-3.3,1.58,1.58,0,0,0-2.61,0Z"/><path class="cls-4" d="M181.68,152.09a.55.55,0,0,0,.91,0,.93.93,0,0,0,.18-.58.88.88,0,0,0-.18-.57,4.34,4.34,0,0,0-.55-.51,3.43,3.43,0,0,1-.82-.71,2.17,2.17,0,0,1,0-2.59,1.25,1.25,0,0,1,1-.54,1.2,1.2,0,0,1,1,.51,1.87,1.87,0,0,1,.37.81l-1,.38a1.44,1.44,0,0,0-.07-.22.32.32,0,0,0-.25-.12.36.36,0,0,0-.27.14.58.58,0,0,0-.11.34.52.52,0,0,0,.11.33,3.32,3.32,0,0,0,.44.4,4.18,4.18,0,0,1,.93.82,2.61,2.61,0,0,1,0,3.07,1.45,1.45,0,0,1-2.41,0,2.45,2.45,0,0,1-.46-1.1l1.07-.29A1,1,0,0,0,181.68,152.09Z"/><path class="cls-4" d="M190.46,152a1.27,1.27,0,0,0,1,.3,1.6,1.6,0,0,0,1.3-.68c0-.06.14-.2.27-.41l1.07.49a7.92,7.92,0,0,1-.57.91,2.56,2.56,0,0,1-2.07,1.1,2.59,2.59,0,0,1-2.08-1.1,4.48,4.48,0,0,1,0-5.28,2.56,2.56,0,0,1,2.08-1.1,2.63,2.63,0,0,1,2.07,1.1,5,5,0,0,1,.3.41l-.54.69Zm1.79-4.2a1.32,1.32,0,0,0-.81-.17,1.62,1.62,0,0,0-1.3.68,2.61,2.61,0,0,0-.54,1.66,2.45,2.45,0,0,0,.14,1Z"/><path class="cls-4" d="M196.56,148.14v5.41h-1.08v-5.41H195v-1.36h.47v-1.21a2.51,2.51,0,0,1,.51-1.44,1.42,1.42,0,0,1,1.12-.58,2.88,2.88,0,0,1,1,.28l-.35,1.29a1.86,1.86,0,0,0-.57-.24.53.53,0,0,0-.42.23.76.76,0,0,0-.18.51v1.16h.95v1.36Z"/><path class="cls-4" d="M199.71,148.14v5.41h-1.07v-5.41h-.48v-1.36h.48v-1.21a2.43,2.43,0,0,1,.5-1.44,1.43,1.43,0,0,1,1.13-.58,3,3,0,0,1,1,.28l-.36,1.29a1.86,1.86,0,0,0-.57-.24.53.53,0,0,0-.42.23.87.87,0,0,0-.18.51v1.16h.95v1.36Z"/><path class="cls-4" d="M202.7,144.29a1.11,1.11,0,0,1,.22.68,1.08,1.08,0,0,1-.22.67.66.66,0,0,1-.54.28.64.64,0,0,1-.52-.28,1,1,0,0,1-.22-.67,1,1,0,0,1,.22-.68.66.66,0,0,1,.52-.27A.68.68,0,0,1,202.7,144.29Zm0,2.5v6.75h-1.07v-6.75Z"/><path class="cls-4" d="M208.54,151.22l1.07.49a7.92,7.92,0,0,1-.57.91,2.51,2.51,0,0,1-4.15,0,4.48,4.48,0,0,1,0-5.28,2.51,2.51,0,0,1,4.15,0,7.13,7.13,0,0,1,.57.89l-1.07.5c-.14-.21-.23-.35-.28-.41a1.59,1.59,0,0,0-1.3-.68,1.63,1.63,0,0,0-1.3.68,2.85,2.85,0,0,0,0,3.31,1.63,1.63,0,0,0,1.3.68,1.61,1.61,0,0,0,1.31-.68Z"/><path class="cls-4" d="M212,144.29a1.11,1.11,0,0,1,.22.68,1.08,1.08,0,0,1-.22.67.66.66,0,0,1-.54.28.64.64,0,0,1-.52-.28,1,1,0,0,1-.22-.67,1,1,0,0,1,.22-.68.66.66,0,0,1,.52-.27A.68.68,0,0,1,212,144.29Zm0,2.5v6.75h-1.07v-6.75Z"/><path class="cls-4" d="M214.28,146.79v-2.53h1.07v2.53h1v1.36h-1v5.39h-1.07v-5.39h-.95v-1.36Z"/><path class="cls-4" d="M219.79,153.63a1.93,1.93,0,0,1-1.61-.78,3.12,3.12,0,0,1-.63-1.95v-4.11h1.07v4.05a1.59,1.59,0,0,0,.33,1,1.05,1.05,0,0,0,.84.42,1,1,0,0,0,.8-.42,1.57,1.57,0,0,0,.33-1v-4.05H222v4.11a3.18,3.18,0,0,1-.62,1.95A1.93,1.93,0,0,1,219.79,153.63Z"/><path class="cls-4" d="M224.61,147.7a1.88,1.88,0,0,1,1.47-1.08V148a1.26,1.26,0,0,0-.93.48,2.5,2.5,0,0,0-.54,1.56v3.47h-1.07v-6.75h1.07Z"/><path class="cls-4" d="M227.36,152a1,1,0,0,1,.22.67,1,1,0,0,1-.22.68.64.64,0,0,1-.52.27.66.66,0,0,1-.53-.27,1,1,0,0,1-.22-.68,1,1,0,0,1,.22-.67.65.65,0,0,1,.53-.28A.63.63,0,0,1,227.36,152Z"/><path class="cls-46" d="M516.48,170.55c-1.82,1.38-3.52,4.41-5.87,7.17a42.2,42.2,0,0,1-9,7.07l-.07,0-1.31.71-.07,0-4.2,2.31c-6.5,3.55-14-.26-16.83-8.52l-4.94-14.58c-2.8-8.26.19-17.84,6.69-21.4l13.37-7.33c6.5-3.55,14,.26,16.83,8.52L516,159.16A20.43,20.43,0,0,1,516.48,170.55Z"/><path class="cls-46" d="M508,139.87h0l-16.58,7.81a20.38,20.38,0,0,1-2-2.55c-.66-.84-1.34-1.42-2-2.21a4.75,4.75,0,0,1-.49-.6h0c-.59-.81-1-1.69-1.89-2.06a19,19,0,0,1-3.08-1.51l.52.3a14.16,14.16,0,0,1-3.46-2.78,38.09,38.09,0,0,1-3.54-4.41c-2-2.94-3.43-6.16-3.51-7.54,0,0,0,0,0-.08a3.69,3.69,0,0,1,.53-2.53,3.26,3.26,0,0,1,1.68-1.45c1.55-.51,3.36.73,5.12,2.25a19.87,19.87,0,0,0,5.43,3.74,26.15,26.15,0,0,1,7.42,3.1c2.41,1.67,9.66,5.58,12.06,7C504.73,136.77,507.45,139.44,508,139.87Z"/><rect class="cls-46" x="501.27" y="135.29" width="35.05" height="38.4"/><path class="cls-35" d="M441.45,127a1.59,1.59,0,0,1-2.57-.43L425.63,104.6a2.75,2.75,0,0,1,.33-3.25L457,71a1.58,1.58,0,0,1,2.56.43l13.26,21.91a2.78,2.78,0,0,1-.34,3.26Z"/><path class="cls-36" d="M468.73,102.58a.53.53,0,0,1-.86-.14l-16.5-27.28a.91.91,0,0,1,.11-1.09l3.22-3.15a.52.52,0,0,1,.85.14l16.51,27.28a.91.91,0,0,1-.11,1.09Z"/><path class="cls-36" d="M463.34,107.85a.53.53,0,0,1-.85-.15L446,80.42a.93.93,0,0,1,.11-1.08l3.23-3.16a.53.53,0,0,1,.85.15l16.51,27.28a.93.93,0,0,1-.11,1.08Z"/><path class="cls-36" d="M449.26,121.62a.52.52,0,0,1-.85-.14L431.9,94.2a.91.91,0,0,1,.11-1.09L435.23,90a.53.53,0,0,1,.86.14l16.51,27.28a.93.93,0,0,1-.12,1.09Z"/><path class="cls-36" d="M443.88,126.89a.53.53,0,0,1-.86-.14l-16.5-27.28a.93.93,0,0,1,.1-1.09l3.23-3.16a.54.54,0,0,1,.86.15l16.5,27.28a.92.92,0,0,1-.11,1.09Z"/><polygon class="cls-47" points="452.09 116.54 436.6 90.94 446.49 81.27 461.98 106.86 452.09 116.54"/><path class="cls-48" d="M467.37,101.6l-1.2,1.17.51.84a.93.93,0,0,1-.11,1.08l-3.23,3.16a.53.53,0,0,1-.85-.15l-.51-.84-9.89,9.68.51.84a.93.93,0,0,1-.12,1.09l-3.22,3.15a.52.52,0,0,1-.85-.15l-.51-.83-1.2,1.17.52.84a.92.92,0,0,1-.12,1.08l-3.22,3.16a.54.54,0,0,1-.86-.14l-.51-.85-1.06,1a1.59,1.59,0,0,1-2.56-.43l-6.63-11,33.9-33.15,6.63,11a2.78,2.78,0,0,1-.34,3.26l-.9.88.51.84a.92.92,0,0,1-.11,1.09l-3.22,3.15a.53.53,0,0,1-.85-.14Z"/><path class="cls-35" d="M509.12,197.79c-1.86,1.82-4.54,1.38-6-1a6.43,6.43,0,0,1,.78-7.6c1.86-1.82,4.54-1.38,6,1A6.45,6.45,0,0,1,509.12,197.79Z"/><path class="cls-36" d="M507.64,195.33c-2.64,2.59-6.44,2-8.47-1.4l-.19-.34-45.17-78.33a6.44,6.44,0,0,1,.79-7.59c1.86-1.83,4.53-1.39,6,1l48,75.59.21.33C510.77,187.93,510.28,192.75,507.64,195.33Z"/><path class="cls-35" d="M497,189.2a3.18,3.18,0,0,0-.38,3.75h0a1.82,1.82,0,0,0,3,.49l8.66-8.47a3.2,3.2,0,0,0,.38-3.76h0a1.82,1.82,0,0,0-2.95-.48Z"/><polygon class="cls-37" points="442.24 98.6 438.16 91.86 446.81 83.4 450.89 90.14 442.24 98.6"/><path class="cls-46" d="M501.43,174.51c1.31,3.06.42,6.9-2,8.57l-15,10.38c-2.41,1.67-5.44.54-6.75-2.52h0c-1.31-3.07-.43-6.91,2-8.58l15-10.38c2.41-1.67,5.43-.54,6.75,2.53Z"/><path class="cls-46" d="M494.05,155.67c1.09,3.21-.07,6.93-2.59,8.31l-20.69,11.34c-2.53,1.38-5.45-.1-6.54-3.31h0c-1.08-3.21.08-6.93,2.6-8.31l20.69-11.33c2.52-1.38,5.45.1,6.53,3.3Z"/><path class="cls-46" d="M488.71,145.78c1.09,3.21-.08,6.93-2.6,8.31l-19,10.41c-2.52,1.38-5.44-.09-6.53-3.3h0c-1.09-3.21.08-6.92,2.6-8.31l19-10.41c2.52-1.38,5.45.09,6.53,3.3Z"/><path class="cls-46" d="M498.55,166.35c1.09,3.2-.07,6.92-2.59,8.3l-19,10.42c-2.52,1.38-5.44-.1-6.53-3.31h0c-1.09-3.2.08-6.92,2.6-8.3L492,163c2.52-1.38,5.45.1,6.53,3.31Z"/><path class="cls-49" d="M536.31,166.58v7.11H513.63a20.71,20.71,0,0,0,2.57-7.11Z"/><rect class="cls-4" x="520.09" y="132.24" width="20.19" height="44.51"/><rect class="cls-50" x="530.18" y="130.32" width="64.04" height="48.85"/><rect class="cls-42" x="530.18" y="154.74" width="64.04" height="24.42"/><path class="cls-49" d="M492.21,148.52a12.66,12.66,0,0,0-.54,4,4,4,0,0,0-3.55-.41h0v0a7.77,7.77,0,0,0,.6-6.29c-.92-2.74-3.17-4.21-5.38-3.74l2.35-1.29.09,0c2.63,0,5.29,3.34,6.21,6.71C492.08,147.79,492.15,148.16,492.21,148.52Z"/><g class="cls-44"><path class="cls-51" d="M508.22,180c-.14.12-.29.24-.43.34a1.58,1.58,0,0,0-1.69.05l-4.27-6.74-.56-.89L499,169.15a7.75,7.75,0,0,0-.4-2.81,5.33,5.33,0,0,0-3.76-3.73l-.92-1.48a8,8,0,0,0,.59-2.82,17.88,17.88,0,0,0,6.81,3.33,6.66,6.66,0,0,0,2.18,0c-1,3.38-.07,8.29.93,11.22a6.7,6.7,0,0,0,.28.79A36.58,36.58,0,0,0,508.22,180Z"/></g></g></g></g></svg>