<svg xmlns="http://www.w3.org/2000/svg" xmlns:xlink="http://www.w3.org/1999/xlink" viewBox="0 0 755.18 455.71"><defs><style>.cls-1{mask:url(#mask);filter:url(#luminosity-noclip-3);}.cls-2,.cls-4{mix-blend-mode:multiply;}.cls-2{fill:url(#linear-gradient);}.cls-3{mask:url(#mask-2);filter:url(#luminosity-noclip-4);}.cls-4{fill:url(#linear-gradient-2);}.cls-5{fill:#fff;}.cls-6{fill:url(#linear-gradient-3);}.cls-7{fill:url(#linear-gradient-4);}.cls-8{fill:#fa5;}.cls-9{fill:url(#linear-gradient-5);}.cls-10{mask:url(#mask-3);}.cls-11{fill:url(#linear-gradient-6);}.cls-12{mask:url(#mask-4);}.cls-13{fill:url(#linear-gradient-7);}.cls-14{fill:url(#linear-gradient-8);}.cls-15{fill:#fdbf67;}.cls-16{fill:url(#linear-gradient-9);}.cls-17{fill:#fbb456;}.cls-18{fill:url(#linear-gradient-10);}.cls-19{fill:url(#linear-gradient-11);}.cls-20{fill:url(#linear-gradient-12);}.cls-21{fill:#dbdff0;}.cls-22{fill:url(#linear-gradient-13);}.cls-23{fill:url(#linear-gradient-14);}.cls-24{fill:#f9ab48;}.cls-25{fill:#965722;}.cls-26{fill:#323657;}.cls-27{fill:#424773;}.cls-28{fill:#292c47;}.cls-29{fill:#eea886;}.cls-30{fill:#a77860;}.cls-31{fill:#a5a8b5;}.cls-32{fill:#eea987;}.cls-33{fill:#ebcfcf;}.cls-34{fill:#16202e;}.cls-35{fill:#8899db;}.cls-36{fill:#2d3466;}.cls-37{fill:#191d38;}.cls-38{fill:#464240;}.cls-39{fill:#ba3838;}.cls-40{fill:#252e3b;}.cls-41{fill:#6e82db;}.cls-42{fill:#434f85;}.cls-43{fill:url(#linear-gradient-15);}.cls-44{fill:#404040;}.cls-45{fill:url(#linear-gradient-16);}.cls-46{fill:url(#linear-gradient-17);}.cls-47{fill:#cf8c6c;}.cls-48{fill:#db9c7c;}.cls-49{fill:#163342;}.cls-50{fill:#2f6b8c;}.cls-51{fill:#1d3b54;}.cls-52{fill:#272a45;}.cls-53{fill:#ead8cf;}.cls-54{fill:#eddad3;}.cls-55{fill:#d1c1b9;}.cls-56{fill:#fae6de;}.cls-57{fill:#ffca77;}.cls-58{font-size:12px;font-family:MyriadPro-Regular, Myriad Pro;}.cls-59{letter-spacing:-0.01em;}.cls-60{letter-spacing:-0.01em;}.cls-61{letter-spacing:0em;}.cls-62{letter-spacing:-0.01em;}.cls-63{letter-spacing:0.01em;}.cls-64{letter-spacing:-0.01em;}.cls-65{letter-spacing:0em;}.cls-66{letter-spacing:0em;}.cls-67{letter-spacing:-0.01em;}.cls-68{letter-spacing:0em;}.cls-69{letter-spacing:-0.01em;}.cls-70{letter-spacing:0em;}.cls-71{letter-spacing:0em;}.cls-72{letter-spacing:0em;}.cls-73{letter-spacing:-0.02em;}.cls-74{letter-spacing:0.02em;}.cls-75{letter-spacing:0em;}.cls-76{letter-spacing:0em;}.cls-77{filter:url(#luminosity-noclip-2);}.cls-78{filter:url(#luminosity-noclip);}</style><filter id="luminosity-noclip" x="236.54" y="-8420" width="91.36" height="32766" filterUnits="userSpaceOnUse" color-interpolation-filters="sRGB"><feFlood flood-color="#fff" result="bg"/><feBlend in="SourceGraphic" in2="bg"/></filter><mask id="mask" x="236.54" y="-8420" width="91.36" height="32766" maskUnits="userSpaceOnUse"><g class="cls-78"/></mask><linearGradient id="linear-gradient" x1="227.48" y1="434.73" x2="227.48" y2="385.77" gradientTransform="matrix(-0.53, 0, 0, 1, 403.88, 0)" gradientUnits="userSpaceOnUse"><stop offset="0"/><stop offset="0.99" stop-color="#fff"/></linearGradient><filter id="luminosity-noclip-2" x="454.37" y="-8420" width="91.36" height="32766" filterUnits="userSpaceOnUse" color-interpolation-filters="sRGB"><feFlood flood-color="#fff" result="bg"/><feBlend in="SourceGraphic" in2="bg"/></filter><mask id="mask-2" x="454.37" y="-8420" width="91.36" height="32766" maskUnits="userSpaceOnUse"><g class="cls-77"/></mask><linearGradient id="linear-gradient-2" x1="-179.83" y1="434.73" x2="-179.83" y2="385.77" xlink:href="#linear-gradient"/><linearGradient id="linear-gradient-3" x1="331.87" y1="44.12" x2="522.69" y2="44.12" gradientUnits="userSpaceOnUse"><stop offset="0.01" stop-color="#f7fff9"/><stop offset="1" stop-color="#f5f7ff"/></linearGradient><linearGradient id="linear-gradient-4" x1="-656.88" y1="283.9" x2="418.53" y2="283.9" gradientTransform="matrix(-0.53, 0, 0, 1, 403.88, 0)" gradientUnits="userSpaceOnUse"><stop offset="0" stop-color="#9a5cff"/><stop offset="0.99" stop-color="#4059bf"/></linearGradient><linearGradient id="linear-gradient-5" x1="316.35" y1="396.49" x2="228.39" y2="414.74" gradientTransform="matrix(0.53, 0, 0, -1, 160.56, 829.85)" gradientUnits="userSpaceOnUse"><stop offset="0" stop-color="#ffcd7d"/><stop offset="0.05" stop-color="#ffcb79"/><stop offset="0.99" stop-color="#f7a037"/></linearGradient><filter id="luminosity-noclip-3" x="236.54" y="419.91" width="91.36" height="35.8" filterUnits="userSpaceOnUse" color-interpolation-filters="sRGB"><feFlood flood-color="#fff" result="bg"/><feBlend in="SourceGraphic" in2="bg"/></filter><mask id="mask-3" x="236.54" y="419.91" width="91.36" height="35.8" maskUnits="userSpaceOnUse"><g class="cls-1"><rect class="cls-2" x="236.54" y="419.91" width="91.36" height="35.8"/></g></mask><linearGradient id="linear-gradient-6" x1="227.48" y1="434.73" x2="227.48" y2="385.77" gradientTransform="matrix(-0.53, 0, 0, 1, 403.88, 0)" gradientUnits="userSpaceOnUse"><stop offset="0" stop-color="#ffcd7d"/><stop offset="0.99" stop-color="#f7a037"/></linearGradient><filter id="luminosity-noclip-4" x="454.37" y="419.91" width="91.36" height="35.8" filterUnits="userSpaceOnUse" color-interpolation-filters="sRGB"><feFlood flood-color="#fff" result="bg"/><feBlend in="SourceGraphic" in2="bg"/></filter><mask id="mask-4" x="454.37" y="419.91" width="91.36" height="35.8" maskUnits="userSpaceOnUse"><g class="cls-3"><rect class="cls-4" x="454.37" y="419.91" width="91.36" height="35.8"/></g></mask><linearGradient id="linear-gradient-7" x1="-179.83" y1="434.73" x2="-179.83" y2="385.77" xlink:href="#linear-gradient-6"/><linearGradient id="linear-gradient-8" x1="296.5" y1="391.84" x2="228.18" y2="406.01" gradientTransform="matrix(0.53, 0, 0, -1, 160.56, 812.3)" xlink:href="#linear-gradient-5"/><linearGradient id="linear-gradient-9" x1="-109.83" y1="308.87" x2="-195.82" y2="326.7" gradientTransform="matrix(-0.53, 0, 0, 1, 403.88, 0)" xlink:href="#linear-gradient-5"/><linearGradient id="linear-gradient-10" x1="-137.52" y1="209.81" x2="-216.3" y2="223.05" gradientTransform="matrix(-0.53, 0, 0, 1, 403.88, 0)" xlink:href="#linear-gradient-5"/><linearGradient id="linear-gradient-11" x1="-131.37" y1="179.17" x2="-242.72" y2="218.43" gradientTransform="matrix(-0.02, -0.53, -1, 0.03, 691.95, 94.67)" xlink:href="#linear-gradient-5"/><linearGradient id="linear-gradient-12" x1="-11485.61" y1="323.23" x2="-11340.98" y2="323.23" gradientTransform="translate(6703.67) scale(0.53 1)" xlink:href="#linear-gradient-5"/><linearGradient id="linear-gradient-13" x1="-10883.91" y1="-8606.92" x2="-10921.41" y2="-8605.42" gradientTransform="matrix(0.08, -0.99, 0.53, 0.15, 5673.14, -9181.17)" gradientUnits="userSpaceOnUse"><stop offset="0" stop-color="#c79850"/><stop offset="1" stop-color="#8c4a18"/></linearGradient><linearGradient id="linear-gradient-14" x1="-10907.12" y1="-8490.11" x2="-10923.32" y2="-8489.03" xlink:href="#linear-gradient-13"/><linearGradient id="linear-gradient-15" x1="-11863.25" y1="343.68" x2="-11718.61" y2="343.68" gradientTransform="translate(6703.67) scale(0.53 1)" xlink:href="#linear-gradient-5"/><linearGradient id="linear-gradient-16" x1="25.61" y1="212.38" x2="177.57" y2="212.38" gradientUnits="userSpaceOnUse"><stop offset="0" stop-color="#9a5cff"/><stop offset="1" stop-color="#57f"/></linearGradient><linearGradient id="linear-gradient-17" x1="-722.13" y1="230.66" x2="-359.87" y2="-49.28" xlink:href="#linear-gradient-4"/></defs><g id="Layer_2" data-name="Layer 2"><g id="Слой_1" data-name="Слой 1"><rect class="cls-5" width="755.18" height="455.71"/><path class="cls-6" d="M522.69,0a95.7,95.7,0,0,1-95.41,88.23A95.7,95.7,0,0,1,331.87,0Z"/><path class="cls-7" d="M194.19,455.71h561v-310c-166.37-80.27-311.34-2-325,80.26s-94,95-191.21,118.83S194.19,455.71,194.19,455.71Z"/><path class="cls-8" d="M599.74,236.42,563,319.1h73.57Zm0,4.29,34.11,76.65H565.64Z"/><path class="cls-8" d="M397.78,256.87,361,339.55h73.57Zm0,4.29,34.11,76.64H363.68Z"/><rect class="cls-9" x="236.54" y="409.68" width="91.36" height="10.48" transform="translate(564.44 829.85) rotate(180)"/><g class="cls-10"><rect class="cls-11" x="236.54" y="419.91" width="91.36" height="35.8"/></g><g class="cls-12"><rect class="cls-13" x="454.37" y="419.91" width="91.36" height="35.8"/></g><rect class="cls-14" x="246.68" y="402.62" width="71.08" height="7.06" transform="translate(564.44 812.3) rotate(180)"/><path class="cls-15" d="M498,244.71a66.06,66.06,0,0,0-15.62-2.17c-8.08-.17-19.72,1.14-29.2,8.36-9.74,7.39-21.41,9.89-29.49,10.68-1.68.16-3.2.25-4.52.29-11.12.39-21.07-1.87-24.79-5.61a15.31,15.31,0,0,1-2.53-3.34c-1.6-2.87-1.78-5.78-.53-8.19a5.87,5.87,0,0,1,6.49-3.3,6.78,6.78,0,0,1,5.26,5.39l-3.39.79a3,3,0,0,0-2.39-2.29,2.61,2.61,0,0,0-3,1.49c-1.47,2.82,2.23,6.43,2.27,6.47l0,0c2.55,2.58,11,5,22.34,4.6,7.28-.25,21.16-1.93,32.21-10.33A42.92,42.92,0,0,1,467,240.17a59.15,59.15,0,0,1,15.39-1.58,69.93,69.93,0,0,1,15.75,2.12,70.22,70.22,0,0,1,15-5.13,59.64,59.64,0,0,1,15.41-1.43,43.17,43.17,0,0,1,17,4.21c12.47,6.11,26.4,5.07,33.6,3.91,11.16-1.81,19-5.82,21-8.84l0-.05s3-4.3,1-6.79a2.62,2.62,0,0,0-3.19-.88,3.06,3.06,0,0,0-1.9,2.71l-3.48-.12a6.79,6.79,0,0,1,4.11-6.31,5.88,5.88,0,0,1,7,2c1.7,2.13,2.08,5,1.07,8.15a15.92,15.92,0,0,1-1.83,3.76c-2.93,4.39-12.26,8.53-23.24,10.31-1.31.21-2.82.41-4.5.58-8.07.78-20,.6-31-4.78-10.73-5.25-22.43-4.27-30.36-2.52a65.87,65.87,0,0,0-14.81,5.12Z"/><path class="cls-15" d="M403.16,247.71a3.54,3.54,0,1,1-3.54-3.54A3.54,3.54,0,0,1,403.16,247.71Z"/><path class="cls-15" d="M599.74,228.11a3.54,3.54,0,1,1-3.54-3.54A3.54,3.54,0,0,1,599.74,228.11Z"/><path class="cls-16" d="M465,412.39v-7.77h24.15v0a3.7,3.7,0,0,1,0-7.37V358.58h.36a3.71,3.71,0,0,1-3.71-3.7h0a3.71,3.71,0,0,1,3.71-3.71H492v-90h-1.42a2.11,2.11,0,0,1-2.11-2.11v-1.39a2.11,2.11,0,0,1,2.11-2.1H492V211.32h14.25v44.27h1.42a2.11,2.11,0,0,1,2.11,2.1v1.39a2.11,2.11,0,0,1-2.11,2.11h-1.42v90h2.57a3.71,3.71,0,0,1,3.71,3.71h0a3.71,3.71,0,0,1-3.71,3.7h.36v38.65a3.7,3.7,0,0,1,0,7.37v0h24.15v7.77H544v7.77H454.37v-7.77Z"/><circle class="cls-17" cx="499.17" cy="242" r="11.2" transform="translate(-3.51 7.38) rotate(-0.84)"/><path class="cls-18" d="M510.37,206.33v2.27h0s-2.53,2.1-2.53,6.65h0v12.51H490.49V215.25c0-4.55-2.52-6.65-2.52-6.65h0v-2.27Z"/><circle class="cls-19" cx="499.17" cy="195.67" r="11.79" transform="translate(288.91 688.87) rotate(-88.32)"/><path class="cls-20" d="M561.07,314.41c0,9.74,17.31,17.64,38.67,17.64s38.68-7.9,38.68-17.64Z"/><path class="cls-21" d="M290.61,321.64l-3.91-6.75s2.05-.78,2.72-1,2.29-2.56,4.05-3.68c0,0-6.69-1.12-7.47-1.46l.57-3.4s5.34,2,8.27,1.76,5.5,1.19,5.3,3.41-5.86,6.32-7.1,7.55A12.46,12.46,0,0,0,290.61,321.64Z"/><path class="cls-22" d="M220.51,271.61l-.09.58-.21,0a.64.64,0,0,0-.74.54l-.32,2.07a.63.63,0,0,0,.54.74l.21,0,2.28,3,.26,0a1,1,0,0,0-1.18.87l-.2,1.3a1,1,0,0,0,.86,1.19H222a2.09,2.09,0,0,1,.93,1.91h0a1,1,0,0,0-.68.78l-4.63,29.9a1,1,0,0,0,.81,1.1l-.42-.06a2.06,2.06,0,0,1-1.46,1.54h0a1,1,0,0,0-1.19.87l-.2,1.3a1,1,0,0,0,.87,1.19l-.26,0-3.07,2.13-.22,0a.65.65,0,0,0-.74.54l-.32,2.07a.64.64,0,0,0,.54.74l.22,0-.09.57a1.12,1.12,0,0,0,.93,1.28l26.29,4.07a1.13,1.13,0,0,0,1.28-.93l.09-.58.21,0a.64.64,0,0,0,.74-.54l.32-2.07a.64.64,0,0,0-.54-.74l-.21,0-2.29-3-.26,0a1,1,0,0,0,1.19-.86l.2-1.31a1,1,0,0,0-.87-1.18h0a2.08,2.08,0,0,1-.93-1.91l-.41-.06a1,1,0,0,0,1.1-.81l4.63-29.9a1,1,0,0,0-.41-.95h0a2.08,2.08,0,0,1,1.47-1.53h0a1,1,0,0,0,1.18-.86l.21-1.31a1,1,0,0,0-.87-1.19l.26.05L248.4,280l.21,0a.66.66,0,0,0,.75-.55l.32-2.07a.65.65,0,0,0-.55-.74l-.21,0L249,276a1.11,1.11,0,0,0-.93-1.27l-26.3-4.08A1.12,1.12,0,0,0,220.51,271.61Z"/><path class="cls-23" d="M244.37,298.39l-.1.62-3.8-.54-1.29,8.32,3.79.63-.1.63a.79.79,0,0,0,.66.9l.75.11a.77.77,0,0,0,.89-.65l.1-.6,95,15.82a4.28,4.28,0,0,0,4.94-3.57l.33-2.16a4.28,4.28,0,0,0-3.63-4.9l-95.34-13.65.09-.6a.79.79,0,0,0-.65-.9l-.76-.12A.78.78,0,0,0,244.37,298.39Z"/><path class="cls-24" d="M222.22,284.63l21.22,3.29a1,1,0,0,1,.82,1.12l-4.32,27.89a1,1,0,0,1-1.12.82l-21.22-3.29a1,1,0,0,1-.81-1.11l4.32-27.9A1,1,0,0,1,222.22,284.63Z"/><rect class="cls-25" x="225.83" y="308.02" width="3.4" height="24.97" rx="1.04" transform="translate(-124.01 496.31) rotate(-81.2)"/><path class="cls-25" d="M212.41,322.49,241.34,327a.64.64,0,0,1,.54.74l-.32,2.07a.64.64,0,0,1-.74.54l-28.93-4.48a.64.64,0,0,1-.54-.74l.32-2.07A.65.65,0,0,1,212.41,322.49Z"/><path class="cls-25" d="M221.92,281.91l22.63,3.5a1,1,0,0,0,1.18-.86l.21-1.31a1,1,0,0,0-.87-1.19l-22.63-3.5a1,1,0,0,0-1.18.87l-.2,1.3A1,1,0,0,0,221.92,281.91Z"/><path class="cls-25" d="M219.69,275.51,248.61,280a.66.66,0,0,0,.75-.55l.32-2.07a.65.65,0,0,0-.55-.74l-28.92-4.48a.64.64,0,0,0-.74.54l-.32,2.07A.63.63,0,0,0,219.69,275.51Z"/><path class="cls-26" d="M280.34,307.45c.53,1.38.11,2.83-.94,3.24s-2.34-.4-2.87-1.79-.1-2.84,1-3.24S279.81,306.06,280.34,307.45Z"/><path class="cls-27" d="M286.83,402.91c1,.29,1.29,2,2.13,2.48s5,.84,5.11-.45-1.73-2.44-2.57-3.09a18.38,18.38,0,0,1-3.38-3.79,1,1,0,0,1-1,.44c-1-.09-1.25-.32-1.25-.32-.16,1-.31,1.71-.41,2.1A2.06,2.06,0,0,0,286.83,402.91Z"/><path class="cls-27" d="M272.07,403.22c1,.3,1.29,2,2.14,2.48s5,.85,5.11-.44-1.73-2.45-2.57-3.09a18.09,18.09,0,0,1-3.38-3.79,1,1,0,0,1-1,.44c-1-.09-1.25-.32-1.25-.32-.17,1-.31,1.71-.42,2.09A2.08,2.08,0,0,0,272.07,403.22Z"/><path class="cls-28" d="M275.2,338.51a20.8,20.8,0,0,0-3.57,8c-.76,4.34,0,19,0,21.12s-1.25,6.83-1.19,11.43c.05,4.06-.18,20.61-.18,20.61l4.63-.07s1.77-17.89,2-19.59,1.54-7.18,1.64-7.88,4.39-20.3,4.39-23.43S282,333.41,275.2,338.51Z"/><path class="cls-28" d="M289.23,340.1c.18,1,3.42,18.29,3.67,20.52a63.58,63.58,0,0,1,.67,6.52c-.25,2.4-.46,4.75-.46,4.75l-3.46,27.33-4.61-.09s.22-15,.31-18.34,2.07-6.6,1.1-11.61c-.28-1.46-6.44-17.12-6.44-17.12S275.6,333.53,289.23,340.1Z"/><path class="cls-21" d="M275.47,335.1c-.31.63-3.32,7.88-3.47,8.74,0,0,11.22,6.81,19,4.29,0,0-1.51-8.56-1.68-9.75a45.53,45.53,0,0,1-.27-5.36,32.13,32.13,0,0,1,.67-3.67c.07-.3.16-.6.25-.88s.24-.68.42-1.28a10.13,10.13,0,0,0,.18-6.26s-.77-4.65-1.68-5.53c-.46-.44-5.18-1.21-5.18-1.21h-4S276,315.6,275,315.78s-3.2.7-3.64,1.84a.62.62,0,0,0,0,.22c0,1,1.22,4.27,2.46,7.29.32.78.53,1.29.83,2a22.4,22.4,0,0,1,1.19,3.42A7.6,7.6,0,0,1,275.47,335.1Z"/><path class="cls-29" d="M281.09,297.63c1.43-.15,4.88.83,5.33,6.11s-.84,7.93-2,8.5-4.42-.33-5.87-2.88-3.25-8.48-1.2-10.14A6.09,6.09,0,0,1,281.09,297.63Z"/><path class="cls-26" d="M284.82,302.81a5.27,5.27,0,0,1,1.69,2.09s.94-6.67-4.75-7.22a4.66,4.66,0,0,0-5.4,5.41,27,27,0,0,0,1.45,4.92s.41-1.34,1.18-1.38S284.69,303.69,284.82,302.81Z"/><path class="cls-29" d="M282,317c-2.44,0-3-2.57-3-2.57s.53-3.45-.84-5.76,5.55,3.71,5.55,3.71,0,.56,0,1.24a5.37,5.37,0,0,0,.33,1.81S284.47,317,282,317Z"/><path class="cls-29" d="M279.55,305.29c-.26-.25-1.48-.67-1.51.89s1.75,2.7,1.9,1.61A3.13,3.13,0,0,0,279.55,305.29Z"/><path class="cls-30" d="M283.77,313.65l-.28-.09a6.92,6.92,0,0,1-3.37-2.42,5.87,5.87,0,0,0,3.62,1.27S283.73,313,283.77,313.65Z"/><path class="cls-29" d="M288.88,305.49a3.71,3.71,0,0,1,3.21-.91c2.23.42,2.75,1.5,2.54,1.92S289.06,306.59,288.88,305.49Z"/><path class="cls-29" d="M289.65,305s-1.76.14-1.53.62,1.3.13,1.3.13Z"/><path class="cls-29" d="M298,315a1.4,1.4,0,0,0,0-.78c-.26-.59-1.15-1-.87-1.86s3.14-.62,3.62-.28.44,1.64-.35,3.37S298,315,298,315Z"/><path class="cls-29" d="M297.05,312.65a28.88,28.88,0,0,1-.1-2.92c0-1.35.3-2.91.55-3s.17,1.37.23,2.71.24,1,.24,1-.05.06.14-1.29.55-2.93.87-3c.15,0,.24,0,.24.58.06-.31.15-.33.28-.32.66.09.68,2.29.69,3.17,0-.67.06-1.16.44-.83s.32,3.48.39,4.6S297.05,312.65,297.05,312.65Z"/><path class="cls-21" d="M271.31,317.63a4.5,4.5,0,0,0,2.88,5.14,26.18,26.18,0,0,0,6.13,1.78c1.5.38,5.75,1.65,6.19,1.74s5.54,1.73,7.33.69,7-11.51,7.36-11.45-3.33-1.46-3.33-1.46-3,3.95-3.71,4.65c-1.16,1.13-2.39,3.51-3.85,3-1.72-.55-7.51-2.19-8.36-2.58S272,315,271.31,317.63Z"/><path class="cls-31" d="M279.67,324.4a79.12,79.12,0,0,0,10.09,5c.07-.3.16-.6.25-.88s.24-.68.42-1.28C290.43,327.19,282.63,325.09,279.67,324.4Z"/><path class="cls-32" d="M579.79,311.27a17.26,17.26,0,0,1-2.47,1.64,37.45,37.45,0,0,1-4.66.78c-.37-.15-.83.82.39.76s5.74.07,7,0,2.57,1.91,3,1.89.39-.63-.27-1.79-1.27-1.78-.76-3.24S579.79,311.27,579.79,311.27Z"/><path class="cls-33" d="M602.74,274.39a7.42,7.42,0,0,1,4.51,4.95c.56,1.86,3.1,10.83,3.82,11.55s6.79,14.54,6.79,14.54l-3.12-.18s-6.21-11.49-6.61-12-4.49-10-4.84-11.42S599.75,272.63,602.74,274.39Z"/><path class="cls-34" d="M603.29,256.09s3.93,1.92,3,7.15-1.4,5.94-.31,8,2.37,10.76,1.39,12.41-12.12-7.26-13.66-14.74,1-10.81,1.87-12S599.82,254.33,603.29,256.09Z"/><polygon class="cls-32" points="602.42 342.22 601.8 342.97 599.31 340.66 599.87 339.88 602.42 342.22"/><path class="cls-35" d="M601.8,343s.65,3.94,1.16,4.45,3.12,3.25,2.53,4-6.28-3.26-7.09-4.69-2.48-1.69-2.74-3.13,3.65-2.91,3.65-2.91Z"/><path class="cls-36" d="M604.06,305.18s15.86,16.05,16,18.09-17.25,18.88-17.42,19.49l-3-2.88s7.71-10.95,10.06-13.3a48.9,48.9,0,0,1,3.66-3.35s-18.88-7.07-20.27-9-2.87-5.29-1.31-8.36S604.06,305.18,604.06,305.18Z"/><path class="cls-36" d="M605,315.53h20.84a40.43,40.43,0,0,0-1.33,6c-.4,3-1.56,19.27-1.56,19.27l4.13,1.17c-.52-1.82,5.64-26.56,5.91-27.68.79-3.24-3.42-3.77-7.88-6.07s-16-5.19-16-5.19C592.82,302.94,605,315.53,605,315.53Z"/><polygon class="cls-32" points="626.51 341.77 626.47 342.76 623.21 341.82 623.35 340.87 626.51 341.77"/><path class="cls-35" d="M626.47,342.76s2.35,3.23,3,3.46,4.24,1.5,4,2.41-7.08-.1-8.45-1-3-.39-3.85-1.57,2-4.23,2-4.23Z"/><path class="cls-32" d="M602.72,256.67s5.71,1.79,2.61,11.65-10.89-1.15-10.08-7.15S602.72,256.67,602.72,256.67Z"/><path class="cls-33" d="M596.59,273.3s-6,2.52-7.51,5.58,1.54,8.61,2.19,10.54,1.86,6.3,1.6,8.48-1,6.62-1.18,8c0,0,12.56,1.05,17.49-2.9,0,0-3.26-2.51-3.53-5.45a20.72,20.72,0,0,1,.72-6.85c.2-.39,2.94-2.8,2.25-5.12s-1.73-8-3.35-9.56a12.2,12.2,0,0,0-3.63-2.31Z"/><path class="cls-33" d="M593,277.15c.57.56,2.19,2.09.26,6.36s-5.54,9.92-5.64,10.7-5.28,17.2-5.41,17.52-2.7-.4-2.7-.4,3.41-15.83,3.74-17.65C583.21,293.68,588.63,272.91,593,277.15Z"/><path class="cls-32" d="M596.59,273.3c-.05,2.21,2.58,5.86,4.72,5s.33-4.65.33-4.65l-.66-.24a1.65,1.65,0,0,1,.08-.34,6.05,6.05,0,0,1,.41-.88s-5.49-7.29-4.83-4.67A14,14,0,0,1,596.59,273.3Z"/><path class="cls-34" d="M605.92,262.42a12.92,12.92,0,0,1-7.59,3.13,10,10,0,0,0-1.74,2.74s-4.46-7,.75-11.31S607.83,260.63,605.92,262.42Z"/><path class="cls-32" d="M598.33,265.31c0-.72-.48-2.35-1.55-1.89s.07,3.78.77,3.57C597.55,267,598.41,267,598.33,265.31Z"/><path class="cls-37" d="M607,308.23c1.42,1.46,6.88,7.3,6.88,7.3h2.19A50.94,50.94,0,0,0,607,308.23Z"/><path class="cls-38" d="M395.89,221.55a4.8,4.8,0,0,0-4.89,3.09c-1.29,3.47-2.51,4.61-2.67,6.44-.62,7.37-4.06,5.71-3.09,10s1.64,4.9,1.64,4.9l8.24-1.62,8.34,0s-3.26-1.63-2.54-5.11,2.54-9.16,1.52-13S398,221.84,395.89,221.55Z"/><path class="cls-39" d="M416.89,336s2.82,3.8,2.44,4.4-3.36.69-5.17,0-1.85-5.14-2.66-7.05c-.34-.8.39-3.17,1.42-3.34a4.37,4.37,0,0,1,2.15.33S414,333.05,416.89,336Z"/><path class="cls-40" d="M415.09,330.32a28.36,28.36,0,0,1,.62,3.08c.18,1.28,2.2,4.09,2.11,4.43s-2.41.66-3.35-.23-1.56-3.47-1.77-5a11.85,11.85,0,0,0-.44-2.15S414.18,329.38,415.09,330.32Z"/><polygon class="cls-39" points="411.42 333.02 411.42 337 411.94 337 411.94 333.93 411.42 333.02"/><path class="cls-39" d="M392.5,336s2.82,3.8,2.44,4.4-3.36.69-5.17,0-1.85-5.14-2.66-7.05c-.34-.8.39-3.17,1.42-3.34a4.37,4.37,0,0,1,2.15.33S389.61,333.05,392.5,336Z"/><path class="cls-40" d="M390.7,330.32a28.36,28.36,0,0,1,.62,3.08c.18,1.28,2.2,4.09,2.11,4.43s-2.41.66-3.35-.23-1.56-3.47-1.77-5a11.85,11.85,0,0,0-.44-2.15S389.79,329.38,390.7,330.32Z"/><polygon class="cls-39" points="387.03 333.02 387.03 337 387.55 337 387.55 333.93 387.03 333.02"/><path class="cls-40" d="M404.57,269s2,11.25,2.59,14.07,2.1,16.45,2.26,18.77,2.51,11,2.4,11.88,3.47,17.46,3.47,17.46a2.16,2.16,0,0,1-2.51.09c-.66-.46-6.1-14.26-7.14-18.27s-3.91-13.33-4.46-14.61c-5.07-11.9-5.11-16.84-5.78-17.61s-.72.48-1.1,2.19-1.22,16.5-1.71,18.38-.11,8.22-.39,11.43-1.49,17.68-1.49,17.68-2.39,1.87-2.84,0c-.1-.42-1.69-16.06-1.74-19.87s-.11-9.06-.22-10.71c-1-15.78-3.54-18,.42-29.21C393.74,249.74,404.57,269,404.57,269Z"/><path class="cls-41" d="M393.79,239.94S390,241,389,241.13s-1.85,1.79-1.19,3.83-1.33,12.67-1.33,12.67,2.28,6.58,2.22,7.47a15.09,15.09,0,0,1-1.31,3.27h8.34V239.94A4.85,4.85,0,0,0,393.79,239.94Z"/><path class="cls-41" d="M397.64,239.94s3.79,1.06,4.81,1.19,1.85,1.79,1.18,3.83S405,257.63,405,257.63s-2.28,6.58-2.21,7.47a14.68,14.68,0,0,0,1.3,3.27h-8.34V239.94A4.9,4.9,0,0,1,397.64,239.94Z"/><path class="cls-41" d="M388.06,266s-6.08,9.71-3.88,27.84c0,0,15.22-1.51,25.28-2.28,0,0-3.59-19.24-4.89-22.51S388.06,266,388.06,266Z"/><path class="cls-41" d="M403.46,265.92a10.18,10.18,0,0,1,.31-4.68c.23-.78-6.31-.18-11,.36-1.25.14-2.38.27-3.22.38l-1.55.2a.39.39,0,0,1,0,.1,3.85,3.85,0,0,1,.09,1.58,10.77,10.77,0,0,1-.87,3.07,23.07,23.07,0,0,0-1.74,5.27l20.25.41S403.84,267,403.46,265.92Z"/><path class="cls-29" d="M395.42,223.58s-4.76.68-4.07,7.71,4.9,6.48,5.19,6.47,4.21.15,4.55-8.43C401.09,229.33,401.25,223,395.42,223.58Z"/><path class="cls-29" d="M393.3,236.51s.3,3.66-.41,4.76.61,2.58,3.3,2.07,2.53-2,2.53-2a11.24,11.24,0,0,1-.53-4.07C398.41,235.44,393.3,236.51,393.3,236.51Z"/><path class="cls-38" d="M396,226.12s-2.22,2.34-3.25,3.53a6.78,6.78,0,0,0-1.16,3.47,5.47,5.47,0,0,1-1-4.6c.73-2.48,2.45-7.3,6.81-5.82s4.52,8,4,11.23C401.36,233.93,399.41,226.8,396,226.12Z"/><path class="cls-30" d="M397.84,237.44a4.16,4.16,0,0,1-4-.45,2.55,2.55,0,0,0,2,1.29A2,2,0,0,0,397.84,237.44Z"/><path class="cls-42" d="M388.05,249.94s-.14,3.62.21,3.85,6.95,1.08,8.42,1.68-10.86.29-10.86.29Z"/><path class="cls-41" d="M388.84,241.16s-3.57.61-4.36,1.64a9.93,9.93,0,0,0-1.39,5.12,71,71,0,0,1-1.3,9.11c-.32,1-1.47,4.75,1.19,5.39s8.74-.83,11.08-1.34a48,48,0,0,1,6.15-.72s-12.88-2.9-13.35-2.9,1.19-7.52,1.19-7.52S389.71,243.63,388.84,241.16Z"/><path class="cls-42" d="M403.66,248.93s-.31,4-.2,5.67a13.13,13.13,0,0,1-.17,3.08l2.43.61S406.39,249.54,403.66,248.93Z"/><path class="cls-42" d="M388.08,263.86c.38-.51,3-1.61,4.64-2.26a7.71,7.71,0,0,0,1.34-.69l-4.53,1-1.54.35A3.85,3.85,0,0,1,388.08,263.86Z"/><path class="cls-29" d="M389.36,262s.15-3.44-.54-4.23l12.55.16-2.05,1.95S391.41,261.46,389.36,262Z"/><path class="cls-41" d="M402.68,241.19s2.9.18,4.15,2.13,1.08,4.3,1.42,5.23a30.72,30.72,0,0,1,1.11,5.86c0,1.15.08,7-.32,7.29s-.71.44-2,.24-20.2-4.48-20.2-4.48.17-2.4.22-2.69c0,0,14.76,1.14,16.49,1.51a11.13,11.13,0,0,1,1.2.29S401.78,244.28,402.68,241.19Z"/><path class="cls-29" d="M400.34,255.86s1.77-1.45,2-1.68a27.05,27.05,0,0,1,3.88-1.55c.42-.08.52.25.42.4s-3.3,1.42-3.34,1.51.3,0,.3,0a22.49,22.49,0,0,1,3.88-.66c.3.19.06.48-.07.57s.41.3.07.54a5.83,5.83,0,0,1-.84.45s.53.14.27.43a9.34,9.34,0,0,1-2.15.71A31.64,31.64,0,0,0,400.34,255.86Z"/><path class="cls-29" d="M400.87,255.87a18.09,18.09,0,0,0-.28,4.71s-13.22-2.88-13.73-2.91a11.93,11.93,0,0,1,.22-2.9S397,255.32,400.87,255.87Z"/><path class="cls-43" d="M436.46,334.86c0,9.74-17.32,17.64-38.67,17.64s-38.68-7.9-38.68-17.64Z"/><path class="cls-44" d="M30.09,30.79H33v20h9.57V53.2H30.09Z"/><path class="cls-44" d="M63.64,41.76c0,7.72-4.69,11.81-10.41,11.81-5.91,0-10.07-4.59-10.07-11.37,0-7.12,4.42-11.77,10.41-11.77S63.64,35.12,63.64,41.76Zm-17.39.37c0,4.79,2.6,9.08,7.15,9.08S60.58,47,60.58,41.9c0-4.46-2.33-9.11-7.15-9.11S46.25,37.21,46.25,42.13Z"/><path class="cls-44" d="M67.4,31.09A30,30,0,0,1,73,30.63c3.09,0,5.09.56,6.48,1.83a5.56,5.56,0,0,1,1.76,4.25A5.89,5.89,0,0,1,77,42.43v.1c1.73.6,2.76,2.19,3.29,4.52A36,36,0,0,0,82,53.2H79a28.39,28.39,0,0,1-1.5-5.35c-.66-3.09-1.86-4.26-4.48-4.36H70.29V53.2H67.4ZM70.29,41.3h3c3.09,0,5-1.7,5-4.26,0-2.89-2.09-4.15-5.15-4.18a12.11,12.11,0,0,0-2.86.26Z"/><path class="cls-44" d="M96.89,42.69H88.18v8.08h9.7V53.2H85.28V30.79h12.1v2.43h-9.2V40.3h8.71Z"/><path class="cls-44" d="M120.52,43.36c-.16-3.12-.36-6.88-.33-9.67h-.1c-.76,2.62-1.69,5.41-2.83,8.51l-4,10.87h-2.19L107.49,42.4c-1.06-3.16-2-6-2.59-8.71h-.07c-.06,2.79-.23,6.55-.43,9.9l-.6,9.61H101l1.56-22.41h3.69l3.83,10.84c.93,2.76,1.69,5.22,2.26,7.55h.1c.56-2.26,1.36-4.72,2.36-7.55l4-10.84h3.69l1.39,22.41h-2.82Z"/><path class="cls-44" d="M138.31,30.79V53.2h-2.89V30.79Z"/><path class="cls-44" d="M143.36,31.06a17.12,17.12,0,0,1,3.92-.43,5.32,5.32,0,0,1,4.44,1.86,7.38,7.38,0,0,1,1.39,4.69A8.32,8.32,0,0,1,151.89,42a5.6,5.6,0,0,1-4.84,2.46,4.92,4.92,0,0,1-1.64-.2v9h-2Zm2,10.8a4.8,4.8,0,0,0,1.69.24c2.46,0,4-1.7,4-4.79s-1.48-4.39-3.74-4.39a6.22,6.22,0,0,0-1.92.23Z"/><path class="cls-44" d="M160.65,49.68a10.34,10.34,0,0,0,5.19,1.46c3,0,4.69-1.56,4.69-3.82,0-2.1-1.2-3.29-4.23-4.46-3.65-1.3-5.91-3.19-5.91-6.35,0-3.49,2.89-6.08,7.24-6.08a10.14,10.14,0,0,1,5,1.1l-.8,2.36a8.91,8.91,0,0,0-4.26-1.07c-3.05,0-4.22,1.83-4.22,3.36,0,2.09,1.36,3.12,4.46,4.32,3.79,1.46,5.71,3.29,5.71,6.58,0,3.46-2.56,6.45-7.84,6.45a11.58,11.58,0,0,1-5.72-1.43Z"/><path class="cls-44" d="M180.33,30.79V44.06c0,5,2.23,7.15,5.22,7.15,3.33,0,5.45-2.2,5.45-7.15V30.79h2.93V43.86c0,6.88-3.62,9.71-8.48,9.71-4.58,0-8-2.63-8-9.58V30.79Z"/><path class="cls-44" d="M217.83,43.36c-.16-3.12-.36-6.88-.33-9.67h-.1c-.76,2.62-1.69,5.41-2.82,8.51l-4,10.87h-2.19L204.8,42.4c-1.06-3.16-2-6-2.59-8.71h-.07c-.06,2.79-.23,6.55-.43,9.9l-.6,9.61h-2.76l1.56-22.41h3.7l3.82,10.84c.93,2.76,1.69,5.22,2.26,7.55h.1c.56-2.26,1.36-4.72,2.36-7.55l4-10.84h3.69l1.39,22.41H218.4Z"/><path class="cls-44" d="M33,94.26V70.66h8.58a12.88,12.88,0,0,1,5.07.93,10.39,10.39,0,0,1,3.64,2.53,10.53,10.53,0,0,1,2.19,3.74,14.86,14.86,0,0,1-.08,9.44A10.49,10.49,0,0,1,50,91a10.63,10.63,0,0,1-3.67,2.4,13.07,13.07,0,0,1-4.8.84ZM48.58,82.43a10.43,10.43,0,0,0-.46-3.13,7.19,7.19,0,0,0-1.37-2.46,6,6,0,0,0-2.21-1.59,7.39,7.39,0,0,0-3-.57h-4V90.24h4a7.11,7.11,0,0,0,3-.6A6.26,6.26,0,0,0,46.77,88a7.51,7.51,0,0,0,1.35-2.48A10.21,10.21,0,0,0,48.58,82.43Z"/><path class="cls-44" d="M66.87,94.43a10.84,10.84,0,0,1-4.71-1,11.6,11.6,0,0,1-3.62-2.7,12.45,12.45,0,0,1-3.18-8.26,12,12,0,0,1,.88-4.52,12.44,12.44,0,0,1,2.43-3.82,11.74,11.74,0,0,1,3.67-2.65,11,11,0,0,1,4.63-1,10.37,10.37,0,0,1,4.67,1.05,11.66,11.66,0,0,1,3.6,2.74,12.52,12.52,0,0,1,2.33,3.86,12.21,12.21,0,0,1,.83,4.39,12,12,0,0,1-.86,4.5,12.22,12.22,0,0,1-2.4,3.79,11.38,11.38,0,0,1-3.65,2.63A11,11,0,0,1,66.87,94.43ZM60,82.46a9.49,9.49,0,0,0,.46,3A7.88,7.88,0,0,0,61.83,88,6.72,6.72,0,0,0,64,89.71a6.24,6.24,0,0,0,2.91.66,6.08,6.08,0,0,0,2.94-.68A6.64,6.64,0,0,0,72,87.88a8,8,0,0,0,1.33-2.54,9.46,9.46,0,0,0,.45-2.88,9.27,9.27,0,0,0-.48-3A8.26,8.26,0,0,0,71.94,77a6.38,6.38,0,0,0-2.17-1.75,6.72,6.72,0,0,0-5.83,0,6.76,6.76,0,0,0-2.16,1.8,7.71,7.71,0,0,0-1.31,2.53A9.4,9.4,0,0,0,60,82.46Z"/><path class="cls-44" d="M81.93,94.26V70.66h4.58V90.24h12v4Z"/><path class="cls-44" d="M109.92,94.43a10.84,10.84,0,0,1-4.71-1,11.71,11.71,0,0,1-3.62-2.7,12.5,12.5,0,0,1-3.17-8.26,11.82,11.82,0,0,1,.88-4.52,12.23,12.23,0,0,1,2.42-3.82,11.67,11.67,0,0,1,3.68-2.65,11,11,0,0,1,4.62-1,10.34,10.34,0,0,1,4.67,1.05,11.71,11.71,0,0,1,3.61,2.74,12.69,12.69,0,0,1,2.32,3.86,12,12,0,0,1,.84,4.39,11.86,11.86,0,0,1-.87,4.5,12,12,0,0,1-2.39,3.79,11.42,11.42,0,0,1-3.66,2.63A11,11,0,0,1,109.92,94.43Zm-6.85-12a9.5,9.5,0,0,0,.47,3A7.86,7.86,0,0,0,104.88,88,6.72,6.72,0,0,0,107,89.71a6.3,6.3,0,0,0,2.91.66,6.14,6.14,0,0,0,3-.68,6.74,6.74,0,0,0,2.16-1.81,8.21,8.21,0,0,0,1.33-2.54,9.45,9.45,0,0,0,.44-2.88,9.27,9.27,0,0,0-.48-3A8.05,8.05,0,0,0,115,77a6.44,6.44,0,0,0-2.16-1.75,6.74,6.74,0,0,0-5.84,0,6.76,6.76,0,0,0-2.16,1.8,8.11,8.11,0,0,0-1.31,2.53A9.4,9.4,0,0,0,103.07,82.46Z"/><path class="cls-44" d="M125,94.26V70.66h10.44a6.75,6.75,0,0,1,3,.68,7.68,7.68,0,0,1,2.38,1.8,8.59,8.59,0,0,1,1.56,2.52,7.52,7.52,0,0,1,.56,2.84,7.91,7.91,0,0,1-1.14,4.18,6.65,6.65,0,0,1-3.11,2.71l5.38,8.87h-5.15l-4.82-7.91h-4.52v7.91Zm4.59-11.93h5.75a2.44,2.44,0,0,0,1.18-.3,3,3,0,0,0,.95-.82,4.19,4.19,0,0,0,.63-1.21,4.81,4.81,0,0,0,.23-1.5,4.37,4.37,0,0,0-.26-1.52,4.1,4.1,0,0,0-.72-1.22,3.3,3.3,0,0,0-1-.8,2.8,2.8,0,0,0-1.18-.28h-5.55Z"/><path class="cls-44" d="M169.13,76.84a6.15,6.15,0,0,0-.85-.63,9.74,9.74,0,0,0-1.49-.78,13.93,13.93,0,0,0-1.92-.65,8.14,8.14,0,0,0-2.09-.26,4.72,4.72,0,0,0-2.82.69,2.3,2.3,0,0,0-.94,2,2,2,0,0,0,.35,1.22,3.14,3.14,0,0,0,1,.85,8.65,8.65,0,0,0,1.68.66q1,.3,2.34.63c1.15.31,2.2.65,3.14,1a8.86,8.86,0,0,1,2.4,1.33,5.59,5.59,0,0,1,1.51,1.91,6.4,6.4,0,0,1,.53,2.74,6.93,6.93,0,0,1-.71,3.25,6,6,0,0,1-1.93,2.17,8.36,8.36,0,0,1-2.8,1.22,14.2,14.2,0,0,1-3.3.38,17.85,17.85,0,0,1-5.26-.8,16,16,0,0,1-4.65-2.26l2-4a6.87,6.87,0,0,0,1.08.79,16.29,16.29,0,0,0,1.84,1,14.5,14.5,0,0,0,2.36.81,10.32,10.32,0,0,0,2.66.34q3.8,0,3.79-2.43a2,2,0,0,0-.43-1.3,3.82,3.82,0,0,0-1.23-.93,11.91,11.91,0,0,0-1.93-.73L161,84.29a22.37,22.37,0,0,1-3-1A7.94,7.94,0,0,1,156,82a5,5,0,0,1-1.24-1.73,5.9,5.9,0,0,1-.42-2.34,7.3,7.3,0,0,1,.67-3.2,6.45,6.45,0,0,1,1.84-2.32A8.54,8.54,0,0,1,159.56,71a11.35,11.35,0,0,1,3.35-.48,13,13,0,0,1,4.59.78,16.92,16.92,0,0,1,3.66,1.85Z"/><path class="cls-44" d="M175.45,94.26V70.66H180v23.6Z"/><path class="cls-44" d="M202.61,74.68h-7.55V94.26h-4.55V74.68H183v-4h19.65Z"/><path class="cls-44" d="M218.27,70.66h4l9,23.6h-4.72l-2.19-5.88h-8.25L214,94.26h-4.72Zm5.28,14.49-3.25-9.27-3.39,9.27Z"/><path class="cls-44" d="M253.14,94.26V78.64l-6.08,11.63h-2.49l-6.09-11.63V94.26h-4.59V70.66h4.92l7,13.43,7-13.43h4.89v23.6Z"/><path class="cls-44" d="M279,90.24v4H262.65V70.66h16.09v4h-11.5v5.69h9.94v3.72h-9.94v6.15Z"/><path class="cls-44" d="M300.29,74.68h-7.55V94.26h-4.55V74.68h-7.55v-4h19.65Z"/><path class="cls-45" d="M52.13,198.24H131a10.33,10.33,0,0,1,10.33,10.33v7.62A10.33,10.33,0,0,1,131,226.52H52.13A10.34,10.34,0,0,1,41.8,216.19v-7.61a10.33,10.33,0,0,1,10.33-10.33Z"/><path class="cls-5" d="M63.35,215.74A3.92,3.92,0,0,1,60.49,217a4.48,4.48,0,0,1-1.89-.4,4.78,4.78,0,0,1-1.55-1.11,5.36,5.36,0,0,1-1-1.67,5.64,5.64,0,0,1-.38-2.07,5.15,5.15,0,0,1,1.44-3.62A5.12,5.12,0,0,1,58.65,207a5.16,5.16,0,0,1,4.45.2,3.86,3.86,0,0,1,1.55,1.63l-1.49,1.09a2.8,2.8,0,0,0-1.09-1.17,3.05,3.05,0,0,0-1.52-.4,2.63,2.63,0,0,0-1.19.27,2.92,2.92,0,0,0-.92.75,3.34,3.34,0,0,0-.59,1.1,4.1,4.1,0,0,0-.21,1.32,3.76,3.76,0,0,0,.23,1.35,3.3,3.3,0,0,0,.63,1.08,2.85,2.85,0,0,0,1,.73,2.72,2.72,0,0,0,1.21.27,3.5,3.5,0,0,0,2.68-1.4v-.72H61.29v-1.46H65v5.27H63.35Z"/><path class="cls-5" d="M73.81,215.15v1.75H66.7V206.65h7v1.75h-5v2.47H73v1.61H68.69v2.67Z"/><path class="cls-5" d="M83,208.4H79.76v8.5h-2v-8.5H74.51v-1.75H83Z"/><path class="cls-5" d="M95.72,216.9v-6.78l-2.64,5H92l-2.64-5v6.78h-2V206.65H89.5l3,5.83,3.06-5.83h2.12V216.9Z"/><path class="cls-5" d="M104.22,217a4.69,4.69,0,0,1-2-.44,4.93,4.93,0,0,1-1.57-1.17,5.24,5.24,0,0,1-1-1.66,5.35,5.35,0,0,1-.36-1.92,5.27,5.27,0,0,1,.38-2,5.66,5.66,0,0,1,1.06-1.66,4.82,4.82,0,0,1,1.59-1.14,4.65,4.65,0,0,1,2-.43,4.5,4.5,0,0,1,2,.45,5.21,5.21,0,0,1,1.57,1.2,5.45,5.45,0,0,1,1,1.67,5.29,5.29,0,0,1,.36,1.9,5.18,5.18,0,0,1-.37,2,5.63,5.63,0,0,1-1,1.65,5.37,5.37,0,0,1-1.59,1.14A4.83,4.83,0,0,1,104.22,217Zm-3-5.19a4.23,4.23,0,0,0,.2,1.28,3.53,3.53,0,0,0,.59,1.1,2.76,2.76,0,0,0,.93.76,2.79,2.79,0,0,0,1.27.29,2.62,2.62,0,0,0,1.27-.3,2.73,2.73,0,0,0,.94-.78A3.46,3.46,0,0,0,107,213a4.07,4.07,0,0,0,.2-1.24,4.25,4.25,0,0,0-.21-1.29,3.55,3.55,0,0,0-.6-1.1,2.88,2.88,0,0,0-3.47-.74,2.94,2.94,0,0,0-.93.78,3.31,3.31,0,0,0-.58,1.1A4.08,4.08,0,0,0,101.25,211.78Z"/><path class="cls-5" d="M110.76,216.9V206.65h4.53a2.9,2.9,0,0,1,1.31.3,3.46,3.46,0,0,1,1,.78,3.71,3.71,0,0,1,.68,1.09,3.37,3.37,0,0,1,.24,1.24,3.41,3.41,0,0,1-.49,1.81,3,3,0,0,1-1.35,1.18L119,216.9h-2.23l-2.09-3.44h-2v3.44Zm2-5.18h2.5a1.14,1.14,0,0,0,.51-.13,1.39,1.39,0,0,0,.41-.35,1.78,1.78,0,0,0,.28-.53,2.27,2.27,0,0,0,.1-.65,1.85,1.85,0,0,0-.12-.67,1.79,1.79,0,0,0-.31-.52,1.45,1.45,0,0,0-.44-.35,1.2,1.2,0,0,0-.52-.12h-2.41Z"/><path class="cls-5" d="M127.47,215.15v1.75h-7.11V206.65h7v1.75h-5v2.47h4.32v1.61h-4.32v2.67Z"/><path class="cls-46" d="M661.62,141.05A83.49,83.49,0,0,0,755.18,224V58.14a83.49,83.49,0,0,0-93.56,82.91Z"/><path class="cls-30" d="M597.63,269.24s.85,3.36,3.43,3.87a6.05,6.05,0,0,1,.41-.88S599.66,272.18,597.63,269.24Z"/><path class="cls-29" d="M653.91,312.64a30.31,30.31,0,0,0,3.59,2.07c1,.4-.62-4-.62-4Z"/><path class="cls-29" d="M656.88,310.68s.1-2.37.1-2.73a5.68,5.68,0,0,0-1.27-2.12,6.75,6.75,0,0,0-2.3-1.81,1,1,0,0,0-.81.27,1.92,1.92,0,0,0-.55.83,1.19,1.19,0,0,0-.83.8,1,1,0,0,0-.68.93s-.61.2-.6.74a7.6,7.6,0,0,1,.67,1.22,23.66,23.66,0,0,0,3.3,3.83S655.31,313.17,656.88,310.68Z"/><path class="cls-47" d="M654.51,308.29a5.88,5.88,0,0,0-.5,1.45c0,.37-2.65,0-2.65,0S653.19,307.7,654.51,308.29Z"/><path class="cls-48" d="M653.61,304.26s1.77,2.36,1.42,2.69a.74.74,0,0,1-.67.24l.29,1.31s-.3,1-1.27.36c0,0-.18.93-1,.24,0,0-.4.56-.85.31a9.79,9.79,0,0,1-1.54-1.82s-.08-.43.6-.74a1,1,0,0,1,.68-.93,1.13,1.13,0,0,1,.83-.8s.3-1.25,1.36-1.1Z"/><path class="cls-29" d="M656.93,307.87a10.14,10.14,0,0,0-3-.93c-.28,0-.54,0-.66.27s.11.73.88,1.16a7.13,7.13,0,0,1,1.56,1.32S656.61,309.9,656.93,307.87Z"/><path class="cls-49" d="M678.85,415.48a11.29,11.29,0,0,1-1.3,2.37c-.59.67-2.87,1.87-2.88,3.87,0,2.17,3.83,1.57,5.34,1.49s1.62-1.24,2.25-2.46,1.27-1,1.39-2a12.65,12.65,0,0,0-.48-3.21Z"/><path class="cls-49" d="M706.32,415.48a11.59,11.59,0,0,0,1.29,2.37c.6.67,2.87,1.87,2.88,3.87,0,2.17-3.83,1.57-5.33,1.49s-1.62-1.24-2.25-2.46-1.27-1-1.39-2a12.65,12.65,0,0,1,.48-3.21Z"/><path class="cls-50" d="M706.38,414.85l.14,1.09a8.12,8.12,0,0,1-4.63.05l.13-1.43Z"/><path class="cls-50" d="M678.82,414.85l-.14,1a7.71,7.71,0,0,0,4.59.11l-.09-1.41Z"/><path class="cls-51" d="M679.77,387.5c0,2.68-2,27.57-2,27.57.27.89,5.72.85,6.61.41s3.42-25.19,3.58-27.89,5-23.22,5.77-23.14,3.37,22.31,4,24.35,3.22,26.68,3.22,26.68a21.44,21.44,0,0,0,6.33-.12s-.46-25.45-.57-26.2c-.17-1.11,0-4.12-.45-10.78-.4-6-1.87-18.94-2.8-26l-.09-.72c-.19-1.37-.32-2.38-.39-2.86,0-.21,0-.32,0-.32-.25-.11-.51-.22-.78-.32-6.53-2.34-19.1.14-19.1.14l0,.18c0,.14,0,.36-.07.65-.07.62-.18,1.54-.31,2.61v0s0,.07,0,.1c-.44,3.81-1.06,9.39-1,10C681.72,362.76,679.77,384.83,679.77,387.5Z"/><path class="cls-52" d="M712.8,344.84s5-11.4,5-14c0-1.22-1.72-5.3-3.22-7.21,0,0-1.49-1.85-1.55-1.87-2.1-2.41-4.19-4.41-4.19-4.41s-5.38-6.41-9.17-2.92a6.32,6.32,0,0,0-.21,3.58c.38,1.79,3.17,3.68,3.87,4.25s7.69,8,7.79,8.32a20.62,20.62,0,0,1-2.1,4.81c-1.33,2.29-4.06,7.62-4.06,7.62Z"/><path class="cls-52" d="M652.94,318.15s11.06,7.65,13.62,8.3c1.19.3,4.9-1.29,7.11-2.29.73-.33,1.47-.69,2.18-1.05h0c2.84-1.47,5.28-3,5.28-3s7.51-3.7,5-8.22a9.5,9.5,0,0,0-4.3.24,16.4,16.4,0,0,0-4.37,2.31c-.73.55-8.86,4.45-9.18,4.47a17.24,17.24,0,0,1-4.73-2.92c-1.92-1.84-6.58-5.67-6.58-5.67Z"/><path class="cls-53" d="M677.67,315l3.38,12.14c.12.39.25.87.4,1.44v0h0a48.27,48.27,0,0,1,1.47,9.13c.14,2.5,0,10.44,0,10.44a33.1,33.1,0,0,0,12.36,1.24s8.33,2.09,7.65-3c-1.77-13.37,0-18.88.2-20.23a82.32,82.32,0,0,1,.55-12.42c-2.32-.86-10.85-3.7-10.85-3.7l-5.38.06S679.92,312.41,677.67,315Z"/><path class="cls-52" d="M679.38,321.16s1.07,19.13.47,24.45c-.74,6.49-6.59,45.3-6.59,45.3s14.63,5.82,37.23,1c0,0-6.07-47.89-6.31-52.42s-.31-17.58-.31-17.58l.31-8.18s-7.46-2.84-9.8-3.16a14.87,14.87,0,0,0-3.86-.73,13,13,0,0,0-3.77.52s-7.43,1.94-10.39,4.73Z"/><path class="cls-32" d="M694.1,310.58s-1.18-1.17-.07-5.79c.3-1.22-6.5,1.47-6.5,1.47s.05,1,.05,2c0,.45,0,.91-.06,1.27a2.93,2.93,0,0,1-.12.63C687.09,310.89,691.61,312.37,694.1,310.58Z"/><path class="cls-54" d="M686.75,310.4s1.71,4.54,3.65,6.6a19.18,19.18,0,0,0,4-6.39l-4,.8Z"/><path class="cls-55" d="M687.52,309.56a7.51,7.51,0,0,0,2.88,1.85l-.95,2.07-2.7-3.08Z"/><path class="cls-55" d="M693.68,309.59a5.2,5.2,0,0,1-3.28,1.82l1.11,2.35,2.87-3.15Z"/><path class="cls-29" d="M705.86,343a1.45,1.45,0,0,1-.78.43c-.73.07-1.66-.67-2.33.15s1.31,3.85,1.93,4.16,1.86-.49,3.05-2.4S705.86,343,705.86,343Z"/><path class="cls-29" d="M703,343.38a29.69,29.69,0,0,0-2.89,1.64c-1.29.84-2.66,2-2.43,2.38s1.28-.59,2.62-1.34,1.11-.33,1.11-.33,0-.1-1.17.92-2.65,2.45-2.37,2.77.17.24.7-.08c-.26.26-.23.37-.14.5.49.67,2.63-.63,3.48-1.15-.65.41-1.08.77-.53,1s3.56-1.74,4.69-2.34S703,343.38,703,343.38Z"/><path class="cls-52" d="M704.93,343s4.28,4.32,6.55,5.63A88.83,88.83,0,0,0,716,336.93l-7.75-.23S705.42,341.83,704.93,343Z"/><path class="cls-30" d="M692.92,307.82a4.31,4.31,0,0,1-4.79-.19,3.62,3.62,0,0,0,2.43,1.67A3,3,0,0,0,692.92,307.82Z"/><path class="cls-56" d="M690.26,318.5s-3.75,4.71-4,8.17l8.1.33S692.56,321.46,690.26,318.5Z"/><polygon class="cls-56" points="691.7 317.08 689.22 317 690.21 319.8 691.7 317.08"/><path class="cls-56" d="M690.49,318.62a6.57,6.57,0,0,0,2.29-.42l-.2-.52a5.86,5.86,0,0,1-4.55-.17l-.27.48A5.85,5.85,0,0,0,690.49,318.62Z"/><path class="cls-57" d="M687.15,317.75a.75.75,0,1,0,.75-.75A.75.75,0,0,0,687.15,317.75Z"/><path class="cls-57" d="M691.88,317.94a.75.75,0,1,0,.75-.75A.75.75,0,0,0,691.88,317.94Z"/><path class="cls-32" d="M689.51,291.43s-5.39.91-4.48,9.35,5.67,7.7,6,7.68,4.79.11,5-10.21C696,298.25,696.11,290.62,689.51,291.43Z"/><path class="cls-32" d="M684.92,298.4s-.59-.63-.81,0,.76,3.41.89,3.62c0,0,.11.24.25.11A31,31,0,0,0,684.92,298.4Z"/><path class="cls-32" d="M696,298.17s.57-.65.81,0-.63,3.47-.73,3.65c0,0-.19.29-.33.16A30.4,30.4,0,0,1,696,298.17Z"/><path class="cls-26" d="M684.54,296.84a17.27,17.27,0,0,1,.29-5.23c.36-1.41,2.64-1,2.64-1h0c3.48-1,5.58-.56,6.9,0,2,1.62,2.12,4.37,2,5.89l-.12,1.07h0c-.18,1.51-.36,2.82-.36,2.82l-.63.72s.16-2.51-.22-2.65c-.21-.07-.26-.58-.26-1s0-.74,0-.74c-4-1.85-8.54-.53-8.64-.28a9.84,9.84,0,0,0-.25,1.07c-.05.26-.11.5-.15.64a20.77,20.77,0,0,0-.08,2.62l-.78-1s-.1-.49-.23-1.22h0c0-.24-.09-.51-.13-.79A7.49,7.49,0,0,1,684.54,296.84Z"/><text class="cls-58" transform="translate(38.24 117.61)"><tspan class="cls-59">L</tspan><tspan x="5.5" y="0">o</tspan><tspan class="cls-60" x="12.08" y="0">r</tspan><tspan x="15.89" y="0">em ipsum dolor sit ame</tspan><tspan class="cls-61" x="133.13" y="0">t</tspan><tspan x="137.06" y="0">, </tspan><tspan class="cls-62" x="142.09" y="0">c</tspan><tspan x="147.39" y="0">onse</tspan><tspan class="cls-63" x="171.4" y="0">c</tspan><tspan class="cls-64" x="176.94" y="0">t</tspan><tspan x="180.84" y="0">etuer adipiscing </tspan><tspan x="0" y="14.4">eli</tspan><tspan class="cls-65" x="11.65" y="14.4">t</tspan><tspan class="cls-66" x="15.59" y="14.4">, sed diam nonum</tspan><tspan class="cls-67" x="105.13" y="14.4">m</tspan><tspan x="114.98" y="14.4">y nibh euismod tincidu</tspan><tspan class="cls-68" x="229.77" y="14.4">n</tspan><tspan x="236.39" y="14.4">t ut </tspan><tspan x="0" y="28.8">lao</tspan><tspan class="cls-60" x="15.2" y="28.8">r</tspan><tspan x="19.01" y="28.8">eet dolo</tspan><tspan class="cls-69" x="60.32" y="28.8">r</tspan><tspan x="64.13" y="28.8">e ma</tspan><tspan class="cls-64" x="88.47" y="28.8">g</tspan><tspan x="95.11" y="28.8">na aliquam e</tspan><tspan class="cls-70" x="159.24" y="28.8">r</tspan><tspan class="cls-71" x="163.1" y="28.8">a</tspan><tspan x="168.84" y="28.8">t </tspan><tspan class="cls-69" x="175.35" y="28.8">v</tspan><tspan x="181.01" y="28.8">olutp</tspan><tspan class="cls-68" x="207.84" y="28.8">a</tspan><tspan class="cls-65" x="213.57" y="28.8">t</tspan><tspan x="217.51" y="28.8">. </tspan><tspan class="cls-72" x="222.54" y="28.8">U</tspan><tspan x="230.35" y="28.8">t wisi </tspan><tspan x="0" y="43.2">enim ad minim </tspan><tspan class="cls-60" x="77.96" y="43.2">v</tspan><tspan x="83.61" y="43.2">eniam, quis nostrud </tspan><tspan class="cls-61" x="185.2" y="43.2">e</tspan><tspan class="cls-73" x="191.18" y="43.2">x</tspan><tspan x="196.56" y="43.2">e</tspan><tspan class="cls-69" x="202.57" y="43.2">r</tspan><tspan x="206.37" y="43.2">ci t</tspan><tspan class="cls-71" x="221.07" y="43.2">a</tspan><tspan x="226.81" y="43.2">tion </tspan><tspan x="0" y="57.6">ullam</tspan><tspan class="cls-62" x="28.07" y="57.6">c</tspan><tspan x="33.37" y="57.6">o</tspan><tspan class="cls-72" x="39.96" y="57.6">r</tspan><tspan x="43.93" y="57.6">per suscipit lobo</tspan><tspan class="cls-74" x="126.53" y="57.6">r</tspan><tspan x="130.74" y="57.6">tis nisl ut aliquip </tspan><tspan class="cls-61" x="214.51" y="57.6">e</tspan><tspan x="220.48" y="57.6">x ea </tspan><tspan class="cls-62" x="0" y="72">c</tspan><tspan x="5.3" y="72">ommodo </tspan><tspan class="cls-64" x="54.4" y="72">c</tspan><tspan x="59.7" y="72">onsequ</tspan><tspan class="cls-68" x="97.08" y="72">a</tspan><tspan class="cls-61" x="102.81" y="72">t</tspan><tspan class="cls-75" x="106.75" y="72">. </tspan><tspan class="cls-76" x="111.78" y="72">D</tspan><tspan x="119.81" y="72">uis au</tspan><tspan class="cls-62" x="148.92" y="72">t</tspan><tspan x="152.82" y="72">em </tspan><tspan class="cls-60" x="171.38" y="72">v</tspan><tspan x="177.03" y="72">el eum i</tspan><tspan class="cls-72" x="216.4" y="72">r</tspan><tspan x="220.38" y="72">iu</tspan><tspan class="cls-69" x="229.8" y="72">r</tspan><tspan x="233.6" y="72">e dolor in </tspan></text></g></g></svg>