<svg xmlns="http://www.w3.org/2000/svg" viewBox="0 0 467.14 464.74"><defs><style>.cls-1{fill:#f5f5f5;}.cls-2{fill:#27debf;}.cls-3,.cls-5{opacity:0.15;}.cls-29,.cls-4{fill:#fff;}.cls-6{fill:#455a64;}.cls-7{fill:#263238;}.cls-8{fill:#37474f;}.cls-12,.cls-9{fill:#f0f0f0;}.cls-10{fill:#fafafa;}.cls-11{fill:#e0e0e0;}.cls-12,.cls-13{opacity:0.1;}.cls-14{opacity:0.3;}.cls-15{opacity:0.25;}.cls-16,.cls-24{opacity:0.2;}.cls-17,.cls-22{opacity:0.45;}.cls-18{fill:#ffa8a7;}.cls-19{fill:#f28f8f;}.cls-20{fill:#b16668;}.cls-21{opacity:0.55;}.cls-23{opacity:0.35;}.cls-25{fill:#ebebeb;}.cls-26{opacity:0.05;}.cls-27{opacity:0.5;}.cls-28,.cls-29{opacity:0.4;}</style></defs><g id="Layer_2" data-name="Layer 2"><g id="Floor"><path id="Floor-2" data-name="Floor" class="cls-1" d="M399.3,237.39c-90.46-52-237.11-52-327.56,0s-90.46,136.33,0,188.34,237.11,52,327.56,0S489.75,289.4,399.3,237.39Z"/></g><g id="Plants"><g id="Plants-2" data-name="Plants"><path class="cls-2" d="M31.26,324.71l7.58-4.38s1.86-16.25.63-28.83c-1.74-17.67-13.16-38.95-26.78-33.95s6.25,23,10.67,38S31.26,324.71,31.26,324.71Z"/><path class="cls-3" d="M31.26,324.71l7.58-4.38s1.86-16.25.63-28.83c-1.74-17.67-13.16-38.95-26.78-33.95s6.25,23,10.67,38S31.26,324.71,31.26,324.71Z"/><path class="cls-4" d="M35.25,322.86h0a.46.46,0,0,1-.44-.47c1.33-39.28-18.22-59-18.42-59.23a.46.46,0,0,1,.65-.66c.2.2,20,20.24,18.69,59.92A.45.45,0,0,1,35.25,322.86Z"/><path class="cls-2" d="M26.49,327.44l5.4-3.12a59.49,59.49,0,0,0-4.55-24.69c-4.76-11.79-16.56-21.57-22.5-19.51S-.95,286.39,2,290.8,22.45,305.74,26.49,327.44Z"/><path class="cls-4" d="M29.34,326.25h0a.45.45,0,0,1-.46-.46C29,301,5.67,284.17,5.43,284a.45.45,0,0,1-.11-.64.47.47,0,0,1,.64-.11c.24.17,24,17.24,23.84,42.55A.46.46,0,0,1,29.34,326.25Z"/></g><g id="Plants-3" data-name="Plants"><path class="cls-2" d="M433,290.47l-6-3.12s.09-20.47,4.88-32.8c6.65-17.1,18.65-25,25.57-20.28,4.06,2.75,3.94,8.29-6.33,16.92C445.05,256.28,436.45,273.78,433,290.47Z"/><g class="cls-5"><path d="M433,290.47l-6-3.12s.09-20.47,4.88-32.8c6.65-17.1,18.65-25,25.57-20.28,4.06,2.75,3.94,8.29-6.33,16.92C445.05,256.28,436.45,273.78,433,290.47Z"/></g><path class="cls-4" d="M432.19,277h.06a.41.41,0,0,0,.44-.38c1.33-17.31,12.1-34.25,21.3-40a.41.41,0,1,0-.43-.69c-9.38,5.87-20.33,23.08-21.69,40.65A.41.41,0,0,0,432.19,277Z"/><path class="cls-2" d="M445.09,297.22c.73.67,3.52-.65,4.27-1a8.25,8.25,0,0,0,3.33-2.48,7.71,7.71,0,0,0,1.64-4.35,17.67,17.67,0,0,0-.05-2.52c0-.82-.1-1.65-.16-2.47a6.09,6.09,0,0,1,.17-2.41c.55-1.55,2.2-2.35,3.69-3,1.65-.75,3.43-1.83,3.84-3.74a6.86,6.86,0,0,0-.82-4.37c-.6-1.24-1.55-2.44-2-3.72a4.79,4.79,0,0,1,.7-3.72c.66-1.16,1.57-2.16,2.29-3.29.82-1.28,1.56-3.11.76-4.56-1.81-3.24-5.4-3.13-8.47-1.89-2,.82-4,2-6.11,2.47-2.91.63-6.17,0-8.72,1.5a5.83,5.83,0,0,0-2.79,5.11c.06,1.9,1.06,3.83.41,5.62s-2.4,2.52-3.76,3.65a11,11,0,0,0-3.35,10.37,24.32,24.32,0,0,0,3,8S444.41,296.61,445.09,297.22Z"/><path class="cls-4" d="M438,290.7h0a.39.39,0,0,0,.46-.31c2.64-15.15,13.31-30.18,19.5-33.87a.39.39,0,0,0,.13-.53.38.38,0,0,0-.53-.14c-6.31,3.77-17.19,19-19.87,34.4A.4.4,0,0,0,438,290.7Z"/><path class="cls-4" d="M444.42,272.88h.11a51.46,51.46,0,0,1,11.27.61.39.39,0,0,0,.45-.32.36.36,0,0,0-.31-.44,52.33,52.33,0,0,0-11.48-.62.37.37,0,0,0-.35.41A.39.39,0,0,0,444.42,272.88Z"/></g></g><g id="Stage"><g id="Pallet"><polygon class="cls-6" points="24.88 316.69 217.19 427.72 448.95 293.91 256.64 182.88 24.88 316.69"/><polygon class="cls-7" points="24.88 316.69 24.88 328.07 217.19 439.11 217.19 427.72 24.88 316.69"/><polygon class="cls-8" points="448.95 293.91 448.95 305.3 217.19 439.11 217.19 427.72 448.95 293.91"/></g></g><g id="Character"><g id="Character-2" data-name="Character"><g id="Chair"><path class="cls-8" d="M163.21,303.49a5.22,5.22,0,0,0,.11,1.09,2.51,2.51,0,0,0,1,1.52l0,0a2.89,2.89,0,0,0,3-.24,9.18,9.18,0,0,0,4.16-7.21,3,3,0,0,0-1.17-2.64h0l-.2-.12h0a2.58,2.58,0,0,0-1.77-.07,4.49,4.49,0,0,0-1,.45A9.17,9.17,0,0,0,163.21,303.49Z"/><path class="cls-7" d="M164.34,294.54a3.79,3.79,0,0,1,1.86-.57,2.22,2.22,0,0,1,1.17.33l.11.06,2.68,1.55a2.58,2.58,0,0,0-1.77-.07,4.49,4.49,0,0,0-1,.45,9.17,9.17,0,0,0-4.16,7.2,5.22,5.22,0,0,0,.11,1.09,2.51,2.51,0,0,0,1,1.52l-2.76-1.59-.05,0-.23-.14-.07,0a3.08,3.08,0,0,1-1-2.56A9.17,9.17,0,0,1,164.34,294.54Z"/><path class="cls-8" d="M208.25,279.26a5.12,5.12,0,0,0,.12,1.09,2.53,2.53,0,0,0,1,1.53l0,0a2.87,2.87,0,0,0,3-.23,9.19,9.19,0,0,0,4.16-7.22,2.94,2.94,0,0,0-1.17-2.63v0l-.2-.11h0a2.52,2.52,0,0,0-1.77-.07,4.43,4.43,0,0,0-1,.44A9.2,9.2,0,0,0,208.25,279.26Z"/><path class="cls-7" d="M209.39,270.31a3.87,3.87,0,0,1,1.86-.56,2.22,2.22,0,0,1,1.17.33l.1.06,2.69,1.55a2.52,2.52,0,0,0-1.77-.07,4.43,4.43,0,0,0-1,.44,9.2,9.2,0,0,0-4.17,7.2,5.12,5.12,0,0,0,.12,1.09,2.53,2.53,0,0,0,1,1.53l-2.76-1.6,0,0-.23-.14a.12.12,0,0,1-.07-.05,3,3,0,0,1-1-2.55A9.19,9.19,0,0,1,209.39,270.31Z"/><path class="cls-8" d="M200.22,313a5.27,5.27,0,0,1-.12,1.09,2.49,2.49,0,0,1-1,1.52l0,0a2.89,2.89,0,0,1-3-.24,9.22,9.22,0,0,1-4.16-7.21,3,3,0,0,1,1.17-2.64h0l.2-.12h0a2.53,2.53,0,0,1,1.77-.07,4.43,4.43,0,0,1,1,.44A9.2,9.2,0,0,1,200.22,313Z"/><path class="cls-7" d="M199.08,304a3.78,3.78,0,0,0-1.85-.57,2.23,2.23,0,0,0-1.18.33l-.1.06-2.69,1.55a2.53,2.53,0,0,1,1.77-.07,4.43,4.43,0,0,1,1,.44,9.2,9.2,0,0,1,4.17,7.21,5.27,5.27,0,0,1-.12,1.09,2.49,2.49,0,0,1-1,1.52l2.75-1.59,0,0,.23-.14.07,0a3.06,3.06,0,0,0,1-2.56A9.17,9.17,0,0,0,199.08,304Z"/><path class="cls-8" d="M229.46,298.62a5.19,5.19,0,0,1-.12,1.09,2.51,2.51,0,0,1-1,1.53l0,0a2.87,2.87,0,0,1-3-.23,9.2,9.2,0,0,1-4.17-7.22,3,3,0,0,1,1.18-2.64h0l.2-.12h0a2.67,2.67,0,0,1,1.78-.07,5.5,5.5,0,0,1,1,.45A9.19,9.19,0,0,1,229.46,298.62Z"/><path class="cls-7" d="M228.32,289.67a3.84,3.84,0,0,0-1.85-.56,2.22,2.22,0,0,0-1.17.33l-.11.06L222.5,291a2.67,2.67,0,0,1,1.78-.07,5.5,5.5,0,0,1,1,.45,9.19,9.19,0,0,1,4.16,7.2,5.19,5.19,0,0,1-.12,1.09,2.51,2.51,0,0,1-1,1.53l2.75-1.6,0,0,.24-.14.07-.05a3.08,3.08,0,0,0,1-2.56A9.2,9.2,0,0,0,228.32,289.67Z"/><path class="cls-8" d="M172.94,281.05a5.29,5.29,0,0,1-.12,1.1,2.54,2.54,0,0,1-1,1.52l0,0a2.87,2.87,0,0,1-3-.23,9.19,9.19,0,0,1-4.16-7.21,2.92,2.92,0,0,1,1.17-2.64v0l.2-.11h0a2.52,2.52,0,0,1,1.77-.07,4.43,4.43,0,0,1,1,.44A9.2,9.2,0,0,1,172.94,281.05Z"/><path class="cls-7" d="M171.8,272.1a3.87,3.87,0,0,0-1.86-.56,2.22,2.22,0,0,0-1.17.33l-.1.06L166,273.48a2.52,2.52,0,0,1,1.77-.07,4.43,4.43,0,0,1,1,.44,9.2,9.2,0,0,1,4.17,7.2,5.29,5.29,0,0,1-.12,1.1,2.54,2.54,0,0,1-1,1.52l2.76-1.59,0,0,.23-.14a.15.15,0,0,0,.07-.05,3.07,3.07,0,0,0,1-2.55A9.21,9.21,0,0,0,171.8,272.1Z"/><polygon class="cls-9" points="197.79 272.25 212.66 267.99 212.66 271.16 197.79 279.74 197.79 272.25"/><polygon class="cls-10" points="197.79 272.25 196.33 271.35 211.24 267.28 212.66 267.99 197.79 272.25"/><polygon class="cls-9" points="191.36 281.73 170.28 273.83 170.28 270.62 191.36 272.5 191.36 281.73"/><polygon class="cls-10" points="170.28 270.62 171.83 270.21 192.62 271.55 191.36 272.5 170.28 270.62"/><path class="cls-10" d="M190.8,280.71c0,2.39,7.33,2.39,7.33,0V259.87H190.8Z"/><path class="cls-10" d="M196.29,275.29l4,26.17h-2.75l-3.77-26.17A4.47,4.47,0,0,0,196.29,275.29Z"/><polygon class="cls-9" points="193.8 275.29 193.8 282.48 197.57 305.89 197.57 301.46 193.8 275.29"/><rect class="cls-11" x="197.57" y="301.46" width="2.76" height="4.43"/><polygon class="cls-9" points="192.54 282.26 165.36 296.51 165.36 292.12 192.54 275.31 192.54 282.26"/><path class="cls-10" d="M192.54,275.31a3,3,0,0,1-1.74-.79L163.67,291l1.69,1.14Z"/><polygon class="cls-11" points="165.36 296.51 165.36 292.12 163.67 290.98 163.67 295.23 165.36 296.51"/><polygon class="cls-9" points="226.81 291.48 197.77 281.54 197.77 275.01 226.81 287.09 226.81 291.48"/><path class="cls-10" d="M197.77,275c.24-.06.34-.48.36-1.12l29.54,12.85-.86.35Z"/><polygon class="cls-11" points="227.67 286.74 227.67 290.98 226.81 291.48 226.81 287.09 227.67 286.74"/><rect class="cls-12" x="197.57" y="301.46" width="2.76" height="4.43"/><polygon class="cls-12" points="165.36 296.51 165.36 292.12 163.67 290.98 163.67 295.23 165.36 296.51"/><polygon class="cls-13" points="227.67 286.74 227.67 290.98 226.81 291.48 226.81 287.09 227.67 286.74"/><path class="cls-9" d="M200.67,223.56H188.26v43c0,3.56,12.41,3.56,12.41,0Z"/><g id="Chair-2" data-name="Chair"><path class="cls-2" d="M150.44,217.6,198,192.75s3.34-16.27-7.93-34c0,0,3.35-31.62-2.27-42.13-4.12-8-9.06-6.92-9.06-6.92l-54,24.39Z"/><path class="cls-14" d="M150.44,217.6,198,192.75s3.34-16.27-7.93-34c0,0,3.35-31.62-2.27-42.13-4.12-8-9.06-6.92-9.06-6.92l-54,24.39Z"/><path class="cls-2" d="M178.75,109.7l-54,24.39,1.78,5.77,59.09-26.68C182.11,109,178.75,109.7,178.75,109.7Z"/><path class="cls-3" d="M178.75,109.7l-54,24.39,1.78,5.77,59.09-26.68C182.11,109,178.75,109.7,178.75,109.7Z"/><path class="cls-2" d="M252.38,213v2.62a9.48,9.48,0,0,1-4.63,7.66l-53,27.84a10.58,10.58,0,0,1-9.16-.18L155,233.3a10,10,0,0,1-4.53-7.85v-2.62a9.47,9.47,0,0,1,4.63-7.65L205.27,189a11.48,11.48,0,0,1,9.31-.08l33.12,16.57A9.26,9.26,0,0,1,252.38,213Z"/><path class="cls-13" d="M252.38,213v2.62a9.48,9.48,0,0,1-4.63,7.66l-53,27.84a10.58,10.58,0,0,1-9.16-.18L155,233.3a10,10,0,0,1-4.53-7.85v-2.62a9.47,9.47,0,0,1,4.63-7.65L205.27,189a11.48,11.48,0,0,1,9.31-.08l33.12,16.57A9.26,9.26,0,0,1,252.38,213Z"/><path class="cls-15" d="M252.38,213v2.62a9.48,9.48,0,0,1-4.63,7.66l-53,27.84a10.58,10.58,0,0,1-9.16-.18L155,233.3a10,10,0,0,1-4.53-7.85v-2.62a9.47,9.47,0,0,1,4.63-7.65L205.27,189a11.48,11.48,0,0,1,9.31-.08l33.12,16.57A9.26,9.26,0,0,1,252.38,213Z"/><path class="cls-2" d="M194.71,238.06l53-27.84c2.56-1.34,2.54-3.47-.05-4.77l-33.12-16.57a11.48,11.48,0,0,0-9.31.08l-50.2,26.22c-2.56,1.34-2.61,3.59-.1,5l30.58,17.66A10.58,10.58,0,0,0,194.71,238.06Z"/><path class="cls-3" d="M194.71,238.06l53-27.84c2.56-1.34,2.54-3.47-.05-4.77l-33.12-16.57a11.48,11.48,0,0,0-9.31.08l-50.2,26.22c-2.56,1.34-2.61,3.59-.1,5l30.58,17.66A10.58,10.58,0,0,0,194.71,238.06Z"/><path class="cls-16" d="M191.3,252.05a10.33,10.33,0,0,1-5.75-1.09L155,233.3a10,10,0,0,1-4.52-7.84v-2.63a9.54,9.54,0,0,1,4-7.24c-1.89,1.35-1.71,3.32.55,4.62l30.59,17.67a9.76,9.76,0,0,0,4.68,1.13Z"/><path class="cls-2" d="M178.75,109.7s7.82-5.3,16.07-.54,5.52,20.78,4.64,31.09-1.17,28.31,6,34.85,30.88-2.16,41.21-2.16l-9.11,33.57c-10-5.47-26.09-11.08-39.6-13.76,0,0,.44-20.92-9.15-32.88,0,0,3.53-8.37,1.22-25.14C187.94,119.21,185,113.33,178.75,109.7Z"/><path class="cls-17" d="M178.75,109.7s7.82-5.3,16.07-.54,5.52,20.78,4.64,31.09-1.17,28.31,6,34.85,30.88-2.16,41.21-2.16l-9.11,33.57c-10-5.47-26.09-11.08-39.6-13.76,0,0,.44-20.92-9.15-32.88,0,0,3.53-8.37,1.22-25.14C187.94,119.21,185,113.33,178.75,109.7Z"/><path class="cls-2" d="M237.61,206.51c-.46-3-2.37-20.28.85-27.79,2.81-6.54,10.16-6.93,12.47-4.13s.25,6.2-3.43,11c-3.11,4-4.22,7.84-4.22,17.65Z"/><path class="cls-13" d="M237.61,206.51c-.46-3-2.37-20.28.85-27.79,2.81-6.54,10.16-6.93,12.47-4.13s.25,6.2-3.43,11c-3.11,4-4.22,7.84-4.22,17.65Z"/><path class="cls-15" d="M237.61,206.51c-.46-3-2.37-20.28.85-27.79,2.81-6.54,10.16-6.93,12.47-4.13s.25,6.2-3.43,11c-3.11,4-4.22,7.84-4.22,17.65Z"/></g></g><g id="Character-3" data-name="Character"><path class="cls-7" d="M242,143.49c2.41-2.42,6.53,1.31,9.33,5.56,2.37,3.6,3.79,7.48,1.31,9.54s-6.9-2.23-9-5S240.29,145.24,242,143.49Z"/><path class="cls-18" d="M248,157.89c-2.5,3.16-7.24,8.42-8.24,9.39-3.48,3.35-6.37,5.52-13,.61s-27-24-27-24l-6.23-20.68c5.27.41,10-.15,14.75,4.62,3.9,4,24.11,25.33,24.11,25.33l4-3.64"/><path class="cls-19" d="M260.27,124.81c2.9-.61,7.14-1.9,9.69-.59s2.79,2.21,2.79,2.21l-3.35,3.84Z"/><path class="cls-18" d="M254.36,129.74c-1.8,2.16-13.86,15.87-18.38,20.12l10.36,10.4c3.91-5.27,9.16-14.18,12.61-16.59,4.72.72,6.13-1.67,8.85-1.67l-3.72-15.88S256.89,126.68,254.36,129.74Z"/><path d="M257.68,147.66h0a1.88,1.88,0,0,1-.79-2.54L277,106.65l3.33,1.74-20.15,38.47A1.87,1.87,0,0,1,257.68,147.66Z"/><path class="cls-8" d="M276.49,90.15c-1.38-.79-3.27-.68-5.37.53a16.84,16.84,0,0,0-7.62,13.2c0,2.43.86,4.13,2.23,4.92l2.74,1.58c1.38.8,3.28.69,5.38-.52a16.84,16.84,0,0,0,7.62-13.2c0-2.43-.85-4.13-2.23-4.93Z"/><path class="cls-7" d="M273.85,92.26c4.21-2.43,7.62-.46,7.62,4.4a16.84,16.84,0,0,1-7.62,13.2c-4.2,2.43-7.62.46-7.62-4.4A16.87,16.87,0,0,1,273.85,92.26Z"/><path class="cls-2" d="M278.76,92.9c-1.22-.7-2.89-.6-4.75.47A14.89,14.89,0,0,0,267.28,105c0,2.14.75,3.65,2,4.35l17.63,10.18c1.22.7,2.9.61,4.76-.47a14.88,14.88,0,0,0,6.73-11.66c0-2.15-.75-3.66-2-4.36Z"/><path class="cls-14" d="M278.76,92.9c-1.22-.7-2.89-.6-4.75.47A14.89,14.89,0,0,0,267.28,105c0,2.14.75,3.65,2,4.35l17.63,10.18c1.22.7,2.9.61,4.76-.47a14.88,14.88,0,0,0,6.73-11.66c0-2.15-.75-3.66-2-4.36Z"/><path class="cls-3" d="M295,116.17,268.16,100.7a12.22,12.22,0,0,0-.88,4.34c0,2.14.75,3.65,2,4.35l17.63,10.18c1.22.7,2.9.61,4.76-.47A12.26,12.26,0,0,0,295,116.17Z"/><path class="cls-8" d="M294.27,100.41c-1.38-.79-3.27-.67-5.37.54a16.87,16.87,0,0,0-7.62,13.2c0,2.42.86,4.13,2.24,4.92l2.73,1.58c1.38.8,3.28.69,5.39-.53a16.87,16.87,0,0,0,7.62-13.19c0-2.43-.86-4.14-2.24-4.93Z"/><path class="cls-6" d="M291.64,102.53c4.2-2.43,7.62-.46,7.62,4.4a16.87,16.87,0,0,1-7.62,13.19c-4.21,2.43-7.62.46-7.62-4.4A16.82,16.82,0,0,1,291.64,102.53Z"/><path class="cls-19" d="M268.59,130.46a3.57,3.57,0,0,0,.92-1.36l2.05-3.92a3.8,3.8,0,0,1,1.32,1.56,8.49,8.49,0,0,1,.54,3.12c.1,3.24-.16,8.95-2.21,10.68"/><path class="cls-18" d="M249.37,135.46c3-3.81,5.29-7.48,7.65-9.34s5.32-1.57,8.81-.55a16.14,16.14,0,0,0,6.25.81c.3.21-.2,2.34-1.44,2.94a12,12,0,0,1-5.12.67c-4,0-.75,4.89-6.11,8.85C257.74,141.71,249.37,135.46,249.37,135.46Z"/><path class="cls-19" d="M271.21,140.54c-2.06,1.73-6.24,2-7.77,1.07a3.9,3.9,0,0,1-1.48-1.56c-.33-.65-.27-1.38-.6-2-.16-.34-.38-.64-.53-1a1.41,1.41,0,0,1-.08-1.08c.15-.39.54-.66.62-1.07a1.15,1.15,0,0,0-.11-.7c-.16-.36-.41-.68-.56-1a1.11,1.11,0,0,1,.07-1.14,1.47,1.47,0,0,1,.93-.38,34.33,34.33,0,0,1,3.79-.17,5.37,5.37,0,0,0,3.1-1"/><path class="cls-19" d="M262.2,135.46c-1.69,3.07-5.55,2.87-7.72,2.31,0,0,2.48,1.83,4.93,1.07l-2.52,6.28Z"/><path class="cls-6" d="M193.85,123.13c5.49.31,8.45-2.21,12.59,0,3.36,1.79,4.2,4.82,7.47,8.85,1.79,2.2,2.53,3.07,5.89,6.87,7.09,8,12.51,13.33,12.51,13.33l9.73-8.68c-1.43,5.61,4.2,13.77,10.64,15.1,0,0-2.28,2-9.13,7.21-5.27,4-8.24,6.07-9.45,6.27s-4-.9-12.6-7.81-29.83-26.58-29.83-26.58Z"/><path class="cls-8" d="M232.31,152.17c-3.13,3-3.67,8.09-3.67,8.09s-1.31-3.42,2.21-9.59Z"/><path class="cls-7" d="M191.51,72.91l-.12.08c-5.44,3.51-11.33,5.36-16.22,10s-7.74,10.88-7,16.76c1.32,10.43,7.06,14.12,10.49,18,.16.18,5.56,3.94,5.79,4l3.55.15c.86,0,1.95.5,2.77.24,1.08-.35,1.89-1.78,2.53-2.63a34.09,34.09,0,0,1,8.65-7.81c1.42-.94,2.4-3,3.07-4.51a16.48,16.48,0,0,0,1.32-5.35,2.16,2.16,0,0,1,2.42-2.64,11.21,11.21,0,0,0,5.31-1.85,7.56,7.56,0,0,0,3.13-4.58,5.93,5.93,0,0,0-2.26-5.89,6.45,6.45,0,0,0-6.68-10.09c1.05-2.37-.24-5.34-2.45-6.71a9.25,9.25,0,0,0-7.54-.6A28.34,28.34,0,0,0,191.51,72.91Z"/><path class="cls-7" d="M178.8,124.67a9.16,9.16,0,0,1-11.84-14c3.86-3.27,6.95-.52,10.22,3.34S182.66,121.4,178.8,124.67Z"/><path class="cls-7" d="M215.61,249.48c-4.16-.71-7.85,2.51-8.23,3.57-.51,1.42-.46,4.35,1.12,8a25.1,25.1,0,0,1,1.44,11.41c-.42,3.29-2.28,11.47.9,15.72s10.46,8.12,13.28,2.55c.93-1.82-.58-8.31-1.18-13-1.21-9.39-2.08-18.71-2.08-18.71Z"/><path class="cls-18" d="M214,256.89a90.41,90.41,0,0,1,.57,13.73c-.25,5,.69,8.34,2.34,10.63,1.82,2.54,6.55,4.08,6.16-1.1-.27-3.6-2.25-21.13-2.25-21.13Z"/><path class="cls-3" d="M208.83,251.45c-.31,3.07,1.07,11.32,5,18.33s9.58,15,10.55,19.83c.19-2.2-.59-6.27-1.16-9.89l0-.24c0-.21-.07-.42-.1-.62a2.89,2.89,0,0,0,0-.29c0-.27-.07-.53-.11-.79v0c-.38-2.94-.73-5.86-1-8.5-.24-2.11-.44-4-.6-5.63-.09-.8-.16-1.52-.22-2.13,0-.31-.06-.59-.08-.85-.1-1-.15-1.6-.15-1.6l-5.26-9.54a8,8,0,0,0-.81-.09A9.18,9.18,0,0,0,208.83,251.45Z"/><path class="cls-2" d="M234.68,199.33c-13.2-8.38-29.53-13.25-29.53-13.25l-14.34,10.5,13.79,13.14,17.69,12.82s3.46-.16,1.17,5.16c-.73,1.69-1.85,5.09-3.05,8.93L228.07,260s4.78-7.89,11.81-22.31c6.54-13.38,8.29-22.33,7.78-25.36C247,208.4,245.36,206.12,234.68,199.33Z"/><path class="cls-16" d="M234.68,199.33c-13.2-8.38-29.53-13.25-29.53-13.25l-14.34,10.5,13.79,13.14,17.69,12.82s3.46-.16,1.17,5.16c-.73,1.69-1.85,5.09-3.05,8.93L228.07,260s4.78-7.89,11.81-22.31c6.54-13.38,8.29-22.33,7.78-25.36C247,208.4,245.36,206.12,234.68,199.33Z"/><path class="cls-16" d="M202.78,203.16l-1.7-1.28c4.81-2.3,6.45-7.94,6.45-7.94a14.25,14.25,0,0,1-3.59,8.57c1.22.77,18.73,11.81,21.95,15.71s5.38,5.26,5.5,14.27c.1,7.62.41,20.94.41,20.94L208.91,222.7l-9.86-17.16Z"/><path class="cls-7" d="M223.32,289.52c-1-.1-1.13,1.64-1.82,3.82a11.23,11.23,0,0,0-.54,6.59c.74,2.82,5.12,3.53,7.16,7.3s4.93,10.51,12.65,13,14,.48,15.69-1.72.62-4.55-4.13-7.95c-5-3.6-6.47-4.65-6.47-4.65Z"/><path class="cls-18" d="M234.3,276.75a119.92,119.92,0,0,0,3.5,13.88,55.63,55.63,0,0,0,8.64,14.71c.78,1,2.6,2.93,3.25,3.76a1.52,1.52,0,0,1-.29,2.34c-1.81,1.55-9.13,1.54-13.05-1.75s-7.28-10-9.59-12.63c-.86-1-1.67-2-2.44-3a5.15,5.15,0,0,1-1.07-3.33,14.57,14.57,0,0,0-.05-4.72,53.16,53.16,0,0,0-1.58-6.17Z"/><path class="cls-2" d="M167.41,177.77c-5.89,9.19-6.81,20.86-4.82,26.77,2.71,8.06,5.89,11.75,16.64,18.84,8.89,5.86,21.37,9.64,24.05,11s3.48,4.43,4.58,9.86c1,5.16,2.28,13.49,7.5,24.54,5.53,11.68,7,15.12,7,15.12s7.31,3.17,13.23-2c0,0-6.21-48.57-8.16-55.54s-29.86-27-29.86-27,4.16-11.14,6.64-18.92Z"/><path class="cls-8" d="M162.26,187.93a51.22,51.22,0,0,1,2.83-7.22,26,26,0,0,0,2.25-5.07c1.63-6.85-2.26-14.81-3.66-21.71a49.84,49.84,0,0,1-.89-12.78c.19-3.27,0-8.79,3.08-10.67a20.23,20.23,0,0,1,3.47-1.48l9.41-3.51s9.37-1.63,14.35-2.29c2.74-.37,4.42.53,7.59,3.71s9.29,10.45,11.53,16.51c1.31,3.55,1.1,10-3.29,13.84-.63,4.18-1.66,15.48-1.17,19,.46,3.33.61,8.7,6,11.64,9,3.88,31.9,10,35.27,17S243,237,243,237s-3.65,7.54-17.21,12.31-18.73.1-18.73.1-1.57-12.93-4.35-14c-5.17-2-22.45-11.28-27.94-14.31C155.73,210.51,161,191.77,162.26,187.93Z"/><path class="cls-7" d="M198,158.62s-3.67,4.74-11.18,4.07c-7.75-.7-9.4-7.08-9.4-7.08s-.14,8.41,9.12,9.24A11.14,11.14,0,0,0,198,158.62Z"/><path class="cls-18" d="M203.79,84.24c2.51,1.47,6.28,7.4,6,20.61-.24,11.2-3.86,14-5.69,14.77s-6.57.11-10-.46l-.56,8L196.29,138l-18.23-11.08,1.08-16.83s-1.73,1.06-4.09-.75c-3.17-2.43-3.65-6.8-1.11-9.12,1.63-1.5,6.06-1.93,7.42,1.93,0,0,5.85.34,12.75-4.24C201.74,92.86,202.81,87.78,203.79,84.24Z"/><path class="cls-7" d="M182.19,106.77h0l-1-5.8,3.7-.65.37,2.1A3.75,3.75,0,0,1,182.19,106.77Z"/><path class="cls-7" d="M196.24,101.14a1.48,1.48,0,1,1-1.58-1.44A1.51,1.51,0,0,1,196.24,101.14Z"/><path class="cls-20" d="M196.34,110.36l5.06,1.5a2.59,2.59,0,0,1-3.23,1.87A2.76,2.76,0,0,1,196.34,110.36Z"/><path class="cls-19" d="M199,113.82a2.44,2.44,0,0,0-2.44-2.42c-.11,0-.22,0-.33,0a2.72,2.72,0,0,0,1.9,2.3A2.35,2.35,0,0,0,199,113.82Z"/><path class="cls-7" d="M207.94,96.47l-3.35-.89a1.66,1.66,0,0,1,2.06-1.26A1.82,1.82,0,0,1,207.94,96.47Z"/><path class="cls-7" d="M207.28,100.4a1.49,1.49,0,0,1-1.37,1.63,1.51,1.51,0,0,1-1.58-1.43,1.48,1.48,0,1,1,2.95-.2Z"/><polygon class="cls-19" points="200.1 98.45 200.57 108.71 205.29 107 200.1 98.45"/><path class="cls-19" d="M194.11,119.16c-4.19-.89-9.52-3.37-10.68-6.29a7.23,7.23,0,0,0,2.35,4.74c2.22,1.89,8.19,3.61,8.19,3.61Z"/><path class="cls-11" d="M196.29,138a60.38,60.38,0,0,0-4.62-6.37c-1.31-1.25-13.06-5.39-13.31-9.24l-.3,4.53Z"/><path class="cls-1" d="M192.53,132.62c-2.69-3.31-5.61,5.26-6.1,6.38s-2.56.36-6.52-2.78-5.85-6-6.14-8.48c-.11-.9,1.42-2.21,2.29-4.62s1.59-2.58,2.41-2.45l-.11,1.73a19.93,19.93,0,0,0,3.66,3.54C188.25,130.2,190.87,129.31,192.53,132.62Z"/><path class="cls-11" d="M199.34,130.34a16.34,16.34,0,0,1,1.09,6.23c-.14.79-4.27-4-4.27-4S197.88,128.31,199.34,130.34Z"/><path class="cls-1" d="M196.29,138c.75-4.83,1.38-6.58,1.7-7.22.65-1.28,1.35-.45,1.35-.45s-1-1.87-2.5-4.4c-1.7-2.82-1.86-3.74-2.92-4l-.37,5.22Z"/></g><path class="cls-2" d="M148.47,232.31l36.73,18.44-.78-13.53,5.66-3.27c-.41-10.49-3.28-21.25-10.71-23.64-9.28-2.93-21.34-3.88-28.56-10.42s-6.93-24.53-6.05-34.84,3.6-26.33-4.64-31.09-16.07.53-16.07.53c-3.52,2.29-7.62,3.94-7.27,6.72a3,3,0,0,0,2.51,2.82l20.49,77.58A16.76,16.76,0,0,0,148.47,232.31Z"/><g class="cls-21"><path d="M148.47,232.31l36.73,18.44-.78-13.53,5.66-3.27c-.41-10.49-3.28-21.25-10.71-23.64-9.28-2.93-21.34-3.88-28.56-10.42s-6.93-24.53-6.05-34.84,3.6-26.33-4.64-31.09-16.07.53-16.07.53c-3.52,2.29-7.62,3.94-7.27,6.72a3,3,0,0,0,2.51,2.82l20.49,77.58A16.76,16.76,0,0,0,148.47,232.31Z"/></g><path class="cls-2" d="M134.72,143.52c3.3,3.95,5,10.22,4.39,25.63s-.36,27.83,5.66,35.37c7.15,9,31.66,16.09,31.66,16.09l9.57-4.38a12,12,0,0,0-6.63-5.92c-9.28-2.93-21.33-3.88-28.56-10.42s-6.93-24.53-6.05-34.84,3.6-26.33-4.64-31.09-16.07.53-16.07.53c-3.52,2.29-7.62,3.94-7.27,6.72a3,3,0,0,0,2.51,2.82C123.88,142.52,131.42,139.58,134.72,143.52Z"/><g class="cls-22"><path d="M134.72,143.52c3.3,3.95,5,10.22,4.39,25.63s-.36,27.83,5.66,35.37c7.15,9,31.66,16.09,31.66,16.09l9.57-4.38a12,12,0,0,0-6.63-5.92c-9.28-2.93-21.33-3.88-28.56-10.42s-6.93-24.53-6.05-34.84,3.6-26.33-4.64-31.09-16.07.53-16.07.53c-3.52,2.29-7.62,3.94-7.27,6.72a3,3,0,0,0,2.51,2.82C123.88,142.52,131.42,139.58,134.72,143.52Z"/></g><path class="cls-2" d="M184.42,237.22l5.66-3.27c0-6.28-1.62-19.92-9.56-23.22-6.31-2.62-9.36,1.23-9.29,3.6.08,2.68,2,4.44,5.2,6.28C180.66,223,184.42,227.41,184.42,237.22Z"/><path class="cls-13" d="M184.42,237.22l5.66-3.27c0-6.28-1.62-19.92-9.56-23.22-6.31-2.62-9.36,1.23-9.29,3.6.08,2.68,2,4.44,5.2,6.28C180.66,223,184.42,227.41,184.42,237.22Z"/><path class="cls-15" d="M184.42,237.22l5.66-3.27c0-6.28-1.62-19.92-9.56-23.22-6.31-2.62-9.36,1.23-9.29,3.6.08,2.68,2,4.44,5.2,6.28C180.66,223,184.42,227.41,184.42,237.22Z"/><g id="Arm"><path class="cls-7" d="M164.18,205.61c1.2,1.25,4,2,8.21-4.56,3.41-5.3,1.53-8.27,1.53-8.27s-3.28-1.49-7.94,3.12A8.21,8.21,0,0,0,164.18,205.61Z"/><path class="cls-18" d="M146.05,177.75c1.64-6.59,5.58-24.49,9.08-37.89,1.17-4.45,5.89-7,10-9.07,9.37,7.27,3.34,23.13,3.34,23.13l-6.94,27.84,21.14,18.85h0a58,58,0,0,1,5,4.3,24.06,24.06,0,0,1,3.82,4.91c2,3.3,2.61,7,3,10.7a10.66,10.66,0,0,1-.32,5,7.87,7.87,0,0,1-2.9,3.36c-1.07.76-2.63,2.05-4,1.73-2.53-.57-2.47-3.18-3.33-6.42s-2.51-5.42-5.12-8.39-1.39-7.17-5.51-9.75c0,0-15.43-9-22.82-14.05C142.56,186.59,145,182.19,146.05,177.75Z"/><path class="cls-6" d="M166.36,130.11c-2.88.68-8.73-.12-11.2,3.52s-2.47,11.17-3.5,16.71c-.95,5.09-5.33,25.33-6.23,28.28s-2.08,7.24,3.6,12.8c6.39,6.28,15.15,14.19,15.15,14.19-2.05-4.71,3.7-13.22,9.74-12.83L162.07,181.6l6.54-25.89s4.73-7.68,2.17-16.22S166.36,130.11,166.36,130.11Z"/><path class="cls-8" d="M162.07,181.6c-2.5-2-7.51-1.67-10.17-.69,0,0,2.35-3.88,10.75-1.61Z"/></g></g></g><g id="Dais"><polygon id="Shadow" class="cls-8" points="207.33 404.95 143.22 367.94 345.4 251.21 409.5 288.22 355.26 319.54 374.99 330.93 281.3 385.02 261.57 373.63 207.33 404.95"/><g id="Dais_Podium" data-name="Dais Podium"><polygon class="cls-2" points="350 316.88 402.13 286.78 404.57 194.27 350 225.78 350 316.88"/><polygon class="cls-23" points="350 316.88 402.13 286.78 404.57 194.27 350 225.78 350 316.88"/><polygon class="cls-3" points="356.36 244.88 393.81 223.26 393.36 280.46 356.35 301.83 356.36 244.88"/><path class="cls-2" d="M388.93,231.68l-.42,46-27.3,15.77V247.68l27.71-16m1.24-2.11L360,247v48.54l29.72-17.16.46-48.79Z"/><polygon class="cls-16" points="403.85 206.45 404.22 200.17 350 231.47 350 237.54 403.85 206.45"/><polygon class="cls-2" points="350 231.47 349.99 220.09 409.5 185.73 409.5 197.12 350 231.47"/><polygon class="cls-23" points="350 231.47 349.99 220.09 409.5 185.73 409.5 197.12 350 231.47"/><polygon class="cls-2" points="349.99 220.09 290.82 185.92 350.33 151.56 409.5 185.73 349.99 220.09"/><polygon class="cls-16" points="349.99 220.09 290.82 185.92 350.33 151.56 409.5 185.73 349.99 220.09"/><polygon class="cls-2" points="261.57 367.94 281.3 379.32 281.3 259.75 207.33 217.04 207.33 336.62 261.57 367.94"/><polygon class="cls-14" points="261.57 367.94 281.3 379.32 281.3 259.75 207.33 217.04 207.33 336.62 261.57 367.94"/><polygon class="cls-2" points="281.3 259.75 365.13 211.35 365.13 330.93 281.3 379.32 281.3 259.75"/><polygon class="cls-16" points="281.3 259.75 365.13 211.35 365.13 330.93 281.3 379.32 281.3 259.75"/><polygon class="cls-2" points="291.16 168.65 207.33 217.04 281.3 259.75 365.13 211.35 291.16 168.65"/><polygon class="cls-13" points="291.16 168.65 207.33 217.04 281.3 259.75 365.13 211.35 291.16 168.65"/><polygon class="cls-16" points="286.23 273.99 286.23 359.39 287.64 358.58 287.64 273.17 286.23 273.99"/><polygon class="cls-16" points="289.75 271.95 289.75 357.36 291.16 356.54 291.16 271.13 289.75 271.95"/><polygon class="cls-16" points="293.27 269.91 293.27 355.32 294.68 354.51 294.68 269.1 293.27 269.91"/><polygon class="cls-16" points="351.74 236.17 351.74 321.58 353.15 320.76 353.15 235.35 351.74 236.17"/><polygon class="cls-16" points="355.26 234.13 355.26 319.54 356.67 318.73 356.67 233.32 355.26 234.13"/><polygon class="cls-16" points="358.78 232.09 358.78 317.5 360.19 316.69 360.19 231.28 358.78 232.09"/><polygon class="cls-3" points="300.68 271.14 345.4 245.52 345.4 319.54 301.02 345.16 300.68 271.14"/><path class="cls-2" d="M323.21,275.41c9.53-5.5,17.26-1,17.26,10s-7.73,24.39-17.26,29.9-17.26,1-17.26-10S313.68,280.91,323.21,275.41Z"/><path class="cls-16" d="M323.21,275.41c9.53-5.5,17.26-1,17.26,10s-7.73,24.39-17.26,29.9-17.26,1-17.26-10S313.68,280.91,323.21,275.41Z"/><polygon class="cls-16" points="261.57 282.53 264.73 369.76 261.57 367.94 261.57 282.53"/><path class="cls-2" d="M333.55,287.07h0l-3.15-4.92s0-.07,0-.11v-.26c0-.24-.14-.35-.32-.25l-6.45,3.73v-2.06c0-.42-.2-.66-.44-.51a1.26,1.26,0,0,0-.44,1v2.06l-6.45,3.72a.76.76,0,0,0-.32.62v.07l-3.16,8.56s0,0,0,0,0,.05,0,.08c0,1.72.54,3,1.48,3.56a2,2,0,0,0,1,.26,2.66,2.66,0,0,0,1.32-.39c1.89-1.09,3.43-4.32,3.43-7.2a.34.34,0,0,0,0-.17h0l-3-4.67,5.8-3.35v17.34l-2.1,1.21a2.36,2.36,0,0,0-1,1.89V308l-.48.28a4.61,4.61,0,0,0-1.92,3.68v.19l11.86-6.86v-.19c0-1.41-.86-2.07-1.92-1.45l-.48.28v-.68c0-.72-.44-1.06-1-.74l-2.1,1.21V286.37l5.63-3.25-2.86,7.77s0,0,0,0,0,.05,0,.08c0,1.72.54,3,1.48,3.56a2,2,0,0,0,1,.26,2.66,2.66,0,0,0,1.32-.39c1.89-1.09,3.43-4.32,3.43-7.2A.34.34,0,0,0,333.55,287.07Zm-17.05,3.66,2.71,4.24-5.42,3.13Zm-.25,11a1.58,1.58,0,0,1-1.62.13,3.27,3.27,0,0,1-1.14-2.79l5.84-3.37C319.14,298.17,317.83,300.79,316.25,301.7Zm16.54-14.57-5.42,3.13,2.71-7.37Zm-3,6.73a1.58,1.58,0,0,1-1.62.13,3.27,3.27,0,0,1-1.14-2.79l5.84-3.37C332.72,290.33,331.41,293,329.83,293.86Z"/><polygon class="cls-2" points="281.32 264.52 281.32 249.63 371.57 197.57 371.57 212.47 281.32 264.52"/><polygon class="cls-23" points="281.32 264.52 281.32 249.63 371.57 197.57 371.57 212.47 281.32 264.52"/><polygon class="cls-2" points="281.32 249.63 203.92 204.94 203.92 219.83 281.32 264.52 281.32 249.63"/><polygon class="cls-17" points="281.32 249.63 203.92 204.94 203.92 219.83 281.32 264.52 281.32 249.63"/><polygon class="cls-13" points="365.12 221.35 365.12 216.19 281.32 264.52 207.33 221.8 207.33 226.96 281.32 269.68 365.12 221.35"/><polygon class="cls-2" points="281.32 249.63 203.92 204.94 294.17 152.88 371.57 197.57 281.32 249.63"/><polygon class="cls-13" points="281.32 249.63 203.92 204.94 294.17 152.88 371.57 197.57 281.32 249.63"/><polygon class="cls-2" points="207.33 399.25 261.57 367.94 261.57 282.53 207.33 313.84 207.33 399.25"/><polygon class="cls-23" points="207.33 399.25 261.57 367.94 261.57 282.53 207.33 313.84 207.33 399.25"/><polygon class="cls-2" points="207.33 399.25 158.02 370.78 153.09 282.53 207.33 313.84 207.33 399.25"/><polygon class="cls-17" points="207.33 399.25 158.02 370.78 153.09 282.53 207.33 313.84 207.33 399.25"/><polygon class="cls-2" points="207.33 313.84 207.33 302.45 266.5 268.29 266.5 279.68 207.33 313.84"/><polygon class="cls-23" points="207.33 313.84 207.33 302.45 266.5 268.29 266.5 279.68 207.33 313.84"/><polygon class="cls-2" points="207.33 302.45 148.16 268.29 148.16 279.68 207.33 313.84 207.33 302.45"/><polygon class="cls-17" points="207.33 302.45 148.16 268.29 148.16 279.68 207.33 313.84 207.33 302.45"/><polygon class="cls-16" points="261.57 288.59 261.57 282.53 207.33 313.84 153.09 282.53 153.49 288.82 207.33 319.91 261.57 288.59"/><polygon class="cls-2" points="207.33 302.45 148.16 268.29 207.33 234.13 266.5 268.29 207.33 302.45"/><polygon class="cls-16" points="207.33 302.45 148.16 268.29 207.33 234.13 266.5 268.29 207.33 302.45"/><polygon class="cls-3" points="217.19 325.23 251.71 305.3 251.71 362.24 217.19 382.17 217.19 325.23"/><path class="cls-2" d="M246.85,313.71v45.73l-24.8,14.32V328l24.8-14.33m1.22-2.1-27.24,15.72v48.53l27.24-15.72V311.61Z"/></g><g id="Base"><path class="cls-7" d="M339.55,189.9c-4.94-2.85-12.95-2.85-17.89,0-2.47,1.43-3.7,3.3-3.7,5.17,0,.57,0,1.35,0,1.93,0,1.87,1.23,3.74,3.7,5.17,4.94,2.85,12.95,2.85,17.89,0,2.48-1.43,3.7-3.3,3.7-5.17v-1.93C343.25,193.2,342,191.33,339.55,189.9Z"/><ellipse class="cls-6" cx="330.61" cy="195.07" rx="12.65" ry="7.31"/><path class="cls-8" d="M338,187.5a16.33,16.33,0,0,0-14.79,0c-2,1.18-3.06,2.72-3,4.27v2.84c0,1.55,1,3.1,3,4.27a16.33,16.33,0,0,0,14.79,0c2.05-1.17,3.06-2.72,3.06-4.27v-2.84C341.06,190.22,340.05,188.68,338,187.5Z"/><ellipse class="cls-6" cx="330.61" cy="191.77" rx="10.46" ry="6.04"/></g><g id="Sheets"><g class="cls-24"><path d="M241.6,200.61,280,222.79a2.41,2.41,0,0,0,2.16,0l28.26-16.32c.6-.35.6-.91,0-1.25L272,183.05a2.35,2.35,0,0,0-2.16,0L241.6,199.36A.66.66,0,0,0,241.6,200.61Z"/></g><path class="cls-25" d="M241.6,198.61,280,220.78a2.35,2.35,0,0,0,2.16,0l28.26-16.31c.6-.35.6-.91,0-1.25L272,181.05a2.35,2.35,0,0,0-2.16,0L241.6,197.36A.66.66,0,0,0,241.6,198.61Z"/><path class="cls-11" d="M269.87,181.05,243,196.54l37,21.35a2.35,2.35,0,0,0,2.16,0L309,202.4l-37-21.35A2.35,2.35,0,0,0,269.87,181.05Z"/><path class="cls-10" d="M241.6,194.71,280,216.88a2.35,2.35,0,0,0,2.16,0l28.26-16.32c.6-.34.6-.9,0-1.25L272,177.14a2.41,2.41,0,0,0-2.16,0L241.6,193.46A.66.66,0,0,0,241.6,194.71Z"/></g><g id="Pen"><path class="cls-16" d="M228,206.58l23.83,13.77,4.07.83A.13.13,0,0,0,256,221l-1.28-2.34-23.83-13.78C230.07,204.42,227.32,206.21,228,206.58Z"/><g id="Pen-2" data-name="Pen"><path class="cls-2" d="M230.57,202.58l.12,0-.23-.13,0,0h0l0,0h-.2a.92.92,0,0,0-.49.15,2.4,2.4,0,0,0-1.09,1.89,1.12,1.12,0,0,0,0,.27s0,0,0,.05a0,0,0,0,1,0,0s0,0,0,.06a.51.51,0,0,0,.09.16l0,0h0l0,0,.05,0,0,0h0l.26.15a.31.31,0,0,1-.11-.09.89.89,0,0,0,.62-.13,2.41,2.41,0,0,0,1.1-1.89A.87.87,0,0,0,230.57,202.58ZM229,205.19h0Z"/><path class="cls-9" d="M253.46,215.77l-1.54,2.67-.26-.15-22.49-13a.31.31,0,0,1-.11-.09.85.85,0,0,1-.21-.61,2.38,2.38,0,0,1,1.1-1.89.89.89,0,0,1,.48-.15h.14l.12,0h0Z"/><path class="cls-2" d="M252.68,215.84c.61-.35,1.1-.06,1.1.63a2.38,2.38,0,0,1-1.1,1.89c-.6.35-1.09.07-1.09-.63A2.43,2.43,0,0,1,252.68,215.84Z"/><path class="cls-11" d="M255,217.47l0,0-1.4-1.53h0l0,0v0h0a.73.73,0,0,0-.88,0,2.43,2.43,0,0,0-1.09,1.89.71.71,0,0,0,.42.75h0l.08,0h0l2,.44a.53.53,0,0,0,.35-.07,1.39,1.39,0,0,0,.63-1.09A.49.49,0,0,0,255,217.47Z"/><path class="cls-6" d="M237.18,207.52h0l0,0a.29.29,0,0,0-.25,0,.86.86,0,0,0-.39.68.26.26,0,0,0,.09.23h0l0,0,16.59,9.58,1.09-.63Z"/><path class="cls-8" d="M251.69,217.16l1.54.89,1.09-.63-2.08-1.21A2.6,2.6,0,0,0,251.69,217.16Z"/><path class="cls-2" d="M255.58,218.19h0l-1.26-1.39,0,0c-.14-.15-.36-.16-.62,0a1.72,1.72,0,0,0-.77,1.34.5.5,0,0,0,.29.53h.07l1.85.41h0a.26.26,0,0,0,.2-.05.78.78,0,0,0,.35-.61A.3.3,0,0,0,255.58,218.19Z"/><path class="cls-13" d="M255.58,218.19h0l-1.26-1.39,0,0c-.14-.15-.36-.16-.62,0a1.72,1.72,0,0,0-.77,1.34.5.5,0,0,0,.29.53h.07l1.85.41h0a.26.26,0,0,0,.2-.05.78.78,0,0,0,.35-.61A.3.3,0,0,0,255.58,218.19Z"/><path class="cls-2" d="M255.65,218.39a.78.78,0,0,1-.35.61.26.26,0,0,1-.2.05h0l-.94-.21c-.14,0-.24-.17-.24-.39a1.22,1.22,0,0,1,.56-1,.36.36,0,0,1,.45,0l0,0,.62.69h0A.3.3,0,0,1,255.65,218.39Z"/><path class="cls-13" d="M255.3,218.19c.19-.11.35,0,.35.2a.78.78,0,0,1-.35.61c-.19.11-.35,0-.35-.2A.79.79,0,0,1,255.3,218.19Z"/><path class="cls-10" d="M233.05,205.14a.25.25,0,0,0-.27,0,.86.86,0,0,0-.39.67.26.26,0,0,0,.11.25h0l4.09,2.36a.26.26,0,0,1-.09-.23.86.86,0,0,1,.39-.68.29.29,0,0,1,.25,0Z"/><path class="cls-1" d="M233.16,205.39a.84.84,0,0,1-.38.66.27.27,0,0,1-.27,0,.25.25,0,0,1-.12-.25.86.86,0,0,1,.39-.67.25.25,0,0,1,.27,0A.26.26,0,0,1,233.16,205.39Z"/><path class="cls-2" d="M232.3,203.73h0l-1.61-.93,0,0h0a.68.68,0,0,0-.66.08,2.16,2.16,0,0,0-1,1.7.7.7,0,0,0,.29.64h0l1.64.94h0a.69.69,0,0,0,.68-.07,2.18,2.18,0,0,0,1-1.71A.72.72,0,0,0,232.3,203.73Z"/><path class="cls-26" d="M232.3,203.73h0l-1.61-.93,0,0h0a.68.68,0,0,0-.66.08,2.16,2.16,0,0,0-1,1.7.7.7,0,0,0,.29.64h0l1.64.94h0a.69.69,0,0,0,.68-.07,2.18,2.18,0,0,0,1-1.71A.72.72,0,0,0,232.3,203.73Z"/><path class="cls-13" d="M231.58,203.79c.55-.32,1-.06,1,.56a2.18,2.18,0,0,1-1,1.71c-.54.31-1,.06-1-.57A2.16,2.16,0,0,1,231.58,203.79Z"/><path class="cls-6" d="M256.1,218.78h0l-.67-.4h0a.12.12,0,0,0-.13,0,.4.4,0,0,0-.18.31.14.14,0,0,0,0,.12h0l.67.4h0a.24.24,0,0,0,.12,0,.26.26,0,0,0,.26-.25A.25.25,0,0,0,256.1,218.78Z"/><path class="cls-7" d="M256.14,218.81h0l0,0h0a.14.14,0,0,0-.12,0,.4.4,0,0,0-.18.31c0,.06,0,.1,0,.11H256a.25.25,0,0,0,.18-.44Z"/></g></g><g id="Books"><path id="Shadow-2" data-name="Shadow" class="cls-13" d="M201.07,287.85,206,285,211,288l-.85-2.44,5.08,1-5.92-3.42,18.91-10.92a.33.33,0,0,0,0-.62L192.71,251.1a1.21,1.21,0,0,0-1.08,0L164.5,266.74a.33.33,0,0,0,0,.62L200,287.85A1.15,1.15,0,0,0,201.07,287.85Z"/><path d="M203.52,284.59l-.84-.48a1.4,1.4,0,0,1,.71-.05C203.61,284.16,203.52,284.59,203.52,284.59Z"/><path d="M204.1,284.06a1,1,0,0,0-1.5,0c-.81.75-.85,1.49-1.19,1.48s-.33-6-.33-6l3.21,3Z"/><path class="cls-6" d="M170.47,262.4l-.06,0,.52-.29,22.14-12.79,32.28,20.89c.53.3.62.75.21,1l-.76.43-20.7,12-.15-.11Z"/><path class="cls-2" d="M201.34,276.75l1.6-.33v6.42c-1,.41-1.58.8-1.68,1.6Z"/><path class="cls-25" d="M203.65,282.92l20.51-11.84a1.42,1.42,0,0,0,.64-1.11v-6.33L204.1,275.7a1.9,1.9,0,0,1-1,1.17c-.74.29-.18.57-.18.57v5.4C203.58,282.76,203.65,282.92,203.65,282.92Z"/><path class="cls-8" d="M201.76,276.53c.21-.12.38-.13.38,0v.2c0,.23.34.22.76,0s.76-.61.76-.84v-.2c0-.11.28-.37.64-.57L170.93,256l-.52.3a.51.51,0,0,0-.12.27v.21c0,.22-.34.59-.76.84s-.76.25-.76,0v-.2c0-.12-.17-.11-.38,0Z"/><path class="cls-6" d="M170.47,256.28l-.06,0,.52-.3,22.14-12.79,32.28,18.64c.53.31.62.75.21,1l-.76.44L204.1,275.7Z"/><path class="cls-6" d="M168.77,257.2l33.34,19.25-1.17.91-33.23-19.19a1.29,1.29,0,0,1,.44-.62Z"/><path class="cls-6" d="M167.84,266.8l-.06-.05,0,0-.07-.09,0-.05a1.72,1.72,0,0,1-.09-.19,1.29,1.29,0,0,1-.06-.21,1.84,1.84,0,0,1-.05-.25.78.78,0,0,1,0-.16s0-.07,0-.12a2.71,2.71,0,0,1,0-.29v-5.51a4.53,4.53,0,0,1,.31-1.68l33.23,19.19.14,8.63L167.85,266.8Z"/><path class="cls-13" d="M200.94,277.36h0L172.38,264c-1.57-.74-2.34.81-2,2.43a7.68,7.68,0,0,0,1.72,2.85h0l-4.28-2.47h0l-.06-.05,0,0-.07-.09,0-.05a1.72,1.72,0,0,1-.09-.19,1.29,1.29,0,0,1-.06-.21,1.84,1.84,0,0,1-.05-.25.78.78,0,0,1,0-.16s0-.07,0-.12a2.71,2.71,0,0,1,0-.29v-5.51a4.53,4.53,0,0,1,.31-1.68Z"/><path class="cls-8" d="M200.63,279h.74a3.3,3.3,0,0,1,.37-1.62,1,1,0,0,0,.61.2,2,2,0,0,0,.92-.29,2.81,2.81,0,0,0,.86-.76l.05-.06a1.29,1.29,0,0,0,.22-.64L224,264.53l.67-.39.85-.49a.46.46,0,0,0,.26-.38v-.87a.45.45,0,0,1-.26.39h0l-2.26,1.3-19,11c-.36.2-.65.46-.65.57v.2a.61.61,0,0,1-.17.36,2,2,0,0,1-.58.48c-.42.25-.76.26-.76,0v-.2c0-.11-.17-.1-.38,0l-.37.22A3,3,0,0,0,200.63,279Z"/><path class="cls-8" d="M201.37,279v5.51c0,.08,0,.16,0,.23l0,.19v0a2.14,2.14,0,0,1,1.13-1.4,1.88,1.88,0,0,1,.9-.29,1,1,0,0,1,.67.25l.07,0,.13-.08,19-11,1.09-.63.31-.18.92-.54a.42.42,0,0,0,.21-.35v.87a.43.43,0,0,1-.19.33h0l-.34.2-.21.12-.36.21-.23.13-.16.09-.28.17L209,281.6l-4.82,2.79c-.34.2-.62.27-.64.16v-.23c0-.24-.34-.24-.75,0a1,1,0,0,0-.6.76v.24a.35.35,0,0,1-.11.28l-.11.07-.24.13-.29.17a.3.3,0,0,1-.38,0l0,0a.47.47,0,0,1-.06-.09h0l0-.05a1.08,1.08,0,0,1-.08-.19,1.29,1.29,0,0,1-.07-.21c0-.08,0-.17-.05-.25s0-.1,0-.16a.53.53,0,0,0,0-.12,2.71,2.71,0,0,1,0-.29V279Z"/><path class="cls-13" d="M167.71,258.17l31.58,18.24,23.88-13.79c.35-.2.35-.53,0-.74l-31.26-18-21,12.12h0l-.52.3a.53.53,0,0,0-.13.28v.2c0,.22-.33.59-.75.84l-.07,0-.69-.4-.33.19-.05,0h0l-.24.15A1.21,1.21,0,0,0,167.71,258.17Z"/><path class="cls-2" d="M221.39,262.76l-.95-.5.86-.21A.65.65,0,0,1,221.39,262.76Z"/><path class="cls-27" d="M221.39,262.76l-.95-.5.86-.21A.65.65,0,0,1,221.39,262.76Z"/><path class="cls-2" d="M196.21,275.44a2.14,2.14,0,0,0,1.94,0l21.69-12.53-32.48-18.44-.75-.44-21.7,12.22a.59.59,0,0,0,0,1.12Z"/><path class="cls-2" d="M204.36,252.08l7.57,4.36,4.89-2.83,5.7,3.29v3.8c0,.5-.56,1.21-.76,1.09a5.31,5.31,0,0,0-1.09.39,8.07,8.07,0,0,0-1.57,1.16l-17.39-9.73Z"/><path class="cls-3" d="M204.36,252.08l7.57,4.36,4.89-2.83,5.7,3.29v3.8c0,.5-.56,1.21-.76,1.09a5.31,5.31,0,0,0-1.09.39,8.07,8.07,0,0,0-1.57,1.16l-17.39-9.73Z"/><path class="cls-8" d="M219.4,257.36v4.13l.06-.05a2,2,0,0,1,.93-.29.93.93,0,0,1,.61.15v-4.87Z"/><path class="cls-11" d="M218.33,262.9a1.3,1.3,0,0,1,.27-.7,2.61,2.61,0,0,1,.27-.31l.09-.08.12-.1.1-.08a1.64,1.64,0,0,1,.22-.14v-4.11l-1.06.61v4.91Z"/><path class="cls-28" d="M222.52,260.7c0,.5-.56,1.21-.76,1.09h0l-.76-.49v-3.14l.76-1.31.42-.15.34.2Z"/><path class="cls-25" d="M197.18,270.18v4.71a1.32,1.32,0,0,0,.64-.15l2.38-1.37,18.13-10.47V258Z"/><path class="cls-3" d="M217,261.13l-5.07,2.93a12.65,12.65,0,0,1,2.53-1.7A11.85,11.85,0,0,1,217,261.13Z"/><path class="cls-1" d="M165.45,252.49v3.56a1.43,1.43,0,0,0,.65,1.12l28.06,16.2,2.38,1.37a1.32,1.32,0,0,0,.64.15v-4.17Z"/><path class="cls-2" d="M187.36,238.35l32.48,18.75v.43c0,.25.34.34.76.09s.76-.54.76-1l0-.41-33.09-19.1-.14-.08a.46.46,0,0,0,0,.2v.2C188.12,237.71,187.78,238.1,187.36,238.35Z"/><path class="cls-13" d="M187.36,238.35l32.48,18.75v.43c0,.25.34.34.76.09s.76-.54.76-1l0-.41-33.09-19.1-.14-.08a.46.46,0,0,0,0,.2v.2C188.12,237.71,187.78,238.1,187.36,238.35Z"/><path class="cls-2" d="M198.15,269.63l21.21-12.25c.27-.14.52-.26.62-.2l-.14-.08-32.48-18.75-.37-.22a1.22,1.22,0,0,0-1,.15l-21.05,12.15a.59.59,0,0,0,0,1.12l31.3,18.08A2.2,2.2,0,0,0,198.15,269.63Z"/><path class="cls-4" d="M186.46,243.58l-11.73,6.77a.55.55,0,0,0,0,1l1.58.91a2,2,0,0,0,1.8,0l11.73-6.77c.5-.28.5-.75,0-1l-1.58-.91A2,2,0,0,0,186.46,243.58Z"/><path class="cls-4" d="M198.85,267.42a3.35,3.35,0,0,0-3.33,0,.2.2,0,0,1-.21,0l-26.58-15.35a.19.19,0,0,1-.11-.18.21.21,0,0,1,.11-.18,1,1,0,0,0,.48-.84,1,1,0,0,0-.48-.84.2.2,0,0,1,0-.36l15.91-9.19a.26.26,0,0,1,.21,0,3.31,3.31,0,0,0,3.33,0,.26.26,0,0,1,.21,0L215,255.84a.21.21,0,0,1,.11.18.19.19,0,0,1-.11.18,1,1,0,0,0,0,1.69.2.2,0,0,1,.11.18.21.21,0,0,1-.11.18l-15.94,9.17a.19.19,0,0,1-.1,0A.17.17,0,0,1,198.85,267.42Zm15.24-10.37a1.35,1.35,0,0,1,.42-1L188.28,240.9a3.74,3.74,0,0,1-3.53,0l-15.54,9a1.38,1.38,0,0,1,.42,1,1.37,1.37,0,0,1-.42,1L195.41,267a3.79,3.79,0,0,1,3.54,0l15.56-8.95A1.38,1.38,0,0,1,214.09,257.05Z"/><path class="cls-2" d="M188.17,237.07l.14.08,33.09,19.1a.25.25,0,0,1,.07-.09l.11-.06.24-.14.29-.17a.32.32,0,0,1,.38,0l0,0a.45.45,0,0,1,.1.13.66.66,0,0,1,.09.19,1.42,1.42,0,0,1,.07.22,1.87,1.87,0,0,1,0,.25.39.39,0,0,1,0,.15.49.49,0,0,1,0,.12,2.83,2.83,0,0,1,0,.29v-.93a2,2,0,0,0-1-1.48l-31.31-18.08a1.93,1.93,0,0,0-1.72-.12l-.39.23h0l-.17.09h0A.31.31,0,0,0,188.17,237.07Z"/><path class="cls-2" d="M198.15,275.44l1.31-.76,19.64-11.34a1.27,1.27,0,0,1,.27-.7,2.83,2.83,0,0,1,.86-.76,2,2,0,0,1,.92-.29,1,1,0,0,1,.61.2,3.33,3.33,0,0,0,.36-1.62h.75a3,3,0,0,1-.76,2.29l-.37.22c-.22.13-.38.13-.38,0v-.2c0-.23-.34-.22-.76,0s-.76.61-.76.84v.2c0,.11-.29.37-.64.57l-19,11-2,1.19h0a2,2,0,0,1-1,.23v-.86A1.93,1.93,0,0,0,198.15,275.44Z"/><path class="cls-14" d="M198.15,275.44l1.31-.76,19.64-11.34a1.27,1.27,0,0,1,.27-.7,2.83,2.83,0,0,1,.86-.76,2,2,0,0,1,.92-.29,1,1,0,0,1,.61.2,3.33,3.33,0,0,0,.36-1.62h.75a3,3,0,0,1-.76,2.29l-.37.22c-.22.13-.38.13-.38,0v-.2c0-.23-.34-.22-.76,0s-.76.61-.76.84v.2c0,.11-.29.37-.64.57l-19,11-2,1.19h0a2,2,0,0,1-1,.23v-.86A1.93,1.93,0,0,0,198.15,275.44Z"/><path class="cls-2" d="M198.14,269.63h0l1.31-.76,15.09-8.71,4.81-2.78c.34-.2.62-.27.64-.17h0v.22c0,.24.33.24.75,0a1,1,0,0,0,.6-.76v-.24a.33.33,0,0,1,.11-.28l.11-.06.24-.14.29-.17a.32.32,0,0,1,.38,0l0,0a.22.22,0,0,1,.07.09s0,0,0,0a.66.66,0,0,1,.09.19,1.42,1.42,0,0,1,.07.22,1.87,1.87,0,0,1,0,.25.39.39,0,0,1,0,.15.49.49,0,0,1,0,.12,2.83,2.83,0,0,1,0,.29v3h-.75v-3a1.85,1.85,0,0,0,0-.23v-.2a2.12,2.12,0,0,1-1.12,1.4,1.88,1.88,0,0,1-.91.28,1,1,0,0,1-.66-.24l-.07,0-.13.08-19,11-2,1.19h0a2.11,2.11,0,0,1-.95.22v-.86A2,2,0,0,0,198.14,269.63Z"/><path class="cls-14" d="M198.14,269.63h0l1.31-.76,15.09-8.71,4.81-2.78c.34-.2.62-.27.64-.17h0v.22c0,.24.33.24.75,0a1,1,0,0,0,.6-.76v-.24a.33.33,0,0,1,.11-.28l.11-.06.24-.14.29-.17a.32.32,0,0,1,.38,0l0,0a.22.22,0,0,1,.07.09s0,0,0,0a.66.66,0,0,1,.09.19,1.42,1.42,0,0,1,.07.22,1.87,1.87,0,0,1,0,.25.39.39,0,0,1,0,.15.49.49,0,0,1,0,.12,2.83,2.83,0,0,1,0,.29v3h-.75v-3a1.85,1.85,0,0,0,0-.23v-.2a2.12,2.12,0,0,1-1.12,1.4,1.88,1.88,0,0,1-.91.28,1,1,0,0,1-.66-.24l-.07,0-.13.08-19,11-2,1.19h0a2.11,2.11,0,0,1-.95.22v-.86A2,2,0,0,0,198.14,269.63Z"/><path class="cls-2" d="M164.51,251v.88a.68.68,0,0,0,.39.55h0l29.25,16.89,2.05,1.19h0a2,2,0,0,0,1,.23v-.86a2,2,0,0,1-1-.23l-1.3-.76h0l-30-17.32A.67.67,0,0,1,164.51,251Z"/><path class="cls-16" d="M164.51,251v.88a.68.68,0,0,0,.39.55h0l29.25,16.89,2.05,1.19h0a2,2,0,0,0,1,.23v-.86a2,2,0,0,1-1-.23l-1.3-.76h0l-30-17.32A.67.67,0,0,1,164.51,251Z"/><path class="cls-2" d="M164.51,256.79v.88a.67.67,0,0,0,.39.55h0l29.25,16.88,2.05,1.19h0a2,2,0,0,0,1,.23v-.86a1.93,1.93,0,0,1-1-.23l-1.3-.76h0l-30-17.32A.65.65,0,0,1,164.51,256.79Z"/><path class="cls-16" d="M164.51,256.79v.88a.67.67,0,0,0,.39.55h0l29.25,16.88,2.05,1.19h0a2,2,0,0,0,1,.23v-.86a1.93,1.93,0,0,1-1-.23l-1.3-.76h0l-30-17.32A.65.65,0,0,1,164.51,256.79Z"/><polygon class="cls-2" points="216.12 261.61 216.12 273.33 214.42 271.38 212.73 275.29 212.73 263.57 216.12 261.61"/><polygon class="cls-27" points="216.12 261.61 216.12 273.33 214.42 271.38 212.73 275.29 212.73 263.57 216.12 261.61"/><path class="cls-2" d="M208.5,276.85V280a3,3,0,0,0,1.48,2.55l4.44,2.57-4.22-.49.84,2.44-4.44-2.57a2.93,2.93,0,0,1-1.48-2.55V278.8Z"/><path class="cls-27" d="M208.5,276.85V280a3,3,0,0,0,1.48,2.55l4.44,2.57-4.22-.49.84,2.44-4.44-2.57a2.93,2.93,0,0,1-1.48-2.55V278.8Z"/><path class="cls-3" d="M209.49,276.28l-5.08,2.93a13.08,13.08,0,0,1,2.54-1.7A11.56,11.56,0,0,1,209.49,276.28Z"/></g></g><g id="Flag"><g id="Flag-2" data-name="Flag"><path class="cls-2" d="M90,305.92c-8.75-5.05-22.93-5.05-31.68,0-4.38,2.52-6.55,5.83-6.54,9.14v3.43c0,3.31,2.16,6.62,6.54,9.14,8.75,5.05,22.93,5.05,31.68,0,4.37-2.52,6.54-5.83,6.54-9.14,0-1,0-2.4,0-3.43C96.57,311.75,94.4,308.45,90,305.92Z"/><path class="cls-23" d="M90,305.92c-8.75-5.05-22.93-5.05-31.68,0-4.38,2.52-6.55,5.83-6.54,9.14v3.43c0,3.31,2.16,6.62,6.54,9.14,8.75,5.05,22.93,5.05,31.68,0,4.37-2.52,6.54-5.83,6.54-9.14,0-1,0-2.4,0-3.43C96.57,311.75,94.4,308.45,90,305.92Z"/><path class="cls-2" d="M58.35,305.92c-8.75,5.05-8.75,13.24,0,18.29s22.93,5.05,31.68,0,8.75-13.24,0-18.29S67.1,300.87,58.35,305.92Z"/><path class="cls-13" d="M58.35,305.92c-8.75,5.05-8.75,13.24,0,18.29s22.93,5.05,31.68,0,8.75-13.24,0-18.29S67.1,300.87,58.35,305.92Z"/><path class="cls-2" d="M88.42,302.66c-7.86-4.54-20.6-4.54-28.46,0-3.93,2.27-5.88,5.24-5.87,8.21v2.25c0,3,1.94,5.95,5.87,8.22,7.86,4.54,20.6,4.54,28.46,0,3.93-2.27,5.88-5.24,5.87-8.22v-2.25C94.3,307.9,92.35,304.93,88.42,302.66Z"/><path class="cls-16" d="M88.42,302.66c-7.86-4.54-20.6-4.54-28.46,0-3.93,2.27-5.88,5.24-5.87,8.21v2.25c0,3,1.94,5.95,5.87,8.22,7.86,4.54,20.6,4.54,28.46,0,3.93-2.27,5.88-5.24,5.87-8.22v-2.25C94.3,307.9,92.35,304.93,88.42,302.66Z"/><ellipse class="cls-2" cx="74.19" cy="310.87" rx="20.12" ry="11.62"/><path class="cls-2" d="M76.16,27.42a2,2,0,0,0-2-2h0a2,2,0,0,0-2,2V310.93h0a1,1,0,0,0,.57.8,3.05,3.05,0,0,0,2.79,0,1,1,0,0,0,.58-.8h0Z"/><path class="cls-16" d="M76.16,27.42a2,2,0,0,0-2-2h0a2,2,0,0,0-2,2V310.93h0a1,1,0,0,0,.57.8,3.05,3.05,0,0,0,2.79,0,1,1,0,0,0,.58-.8h0Z"/><path class="cls-16" d="M74.19,25.45h0a2,2,0,0,0-2,2v2.34a5.3,5.3,0,0,0,3.94,0V27.42A2,2,0,0,0,74.19,25.45Z"/><path class="cls-2" d="M79.67,23.46A5.49,5.49,0,1,1,74.19,18,5.48,5.48,0,0,1,79.67,23.46Z"/><path class="cls-6" d="M56.48,208.94c-1.29,14.42,19.74,24.13,36,20.46l-4.7-69.5-26.4,3.56Z"/><path class="cls-8" d="M57.34,204.76a19.5,19.5,0,0,0-.86,3.58L65,131.12c14.45,4.49,26.07,16.18,28.19,33.13C95.47,182.46,63.71,185.13,57.34,204.76Z"/><path class="cls-16" d="M76.64,18.58a5.3,5.3,0,0,0-4.9,0,3.72,3.72,0,0,0,2.45,1A3.76,3.76,0,0,0,76.64,18.58Z"/><path class="cls-2" d="M78.66,13.42c0,2.47-2,5.41-4.47,5.41s-4.47-2.94-4.47-5.41S74.19,0,74.19,0,78.66,11,78.66,13.42Z"/><path class="cls-6" d="M76.16,34.43,58.54,135.1s12.89,4.71,20.53,9.78c12.56,8.36,14.12,19.61,14.12,19.61Z"/></g></g><g id="Speech_Bubble" data-name="Speech Bubble"><g id="Speech_Bubble-2" data-name="Speech Bubble"><g id="Speech_Bubble-3" data-name="Speech Bubble"><path class="cls-2" d="M382.31,47.39,341.16,71.1a3.6,3.6,0,0,0-1.64,2.84v47.18a3.59,3.59,0,0,0,1.65,2.83l5.89,3.3a3.65,3.65,0,0,0,3.3,0l41.14-23.7a3.62,3.62,0,0,0,1.64-2.85V53.51a3.58,3.58,0,0,0-1.65-2.83l-5.89-3.31A3.7,3.7,0,0,0,382.31,47.39Z"/><path class="cls-2" d="M348.71,126.29V79.11a3.65,3.65,0,0,1,1.65-2.85l41.14-23.7c.91-.53,1.64-.1,1.64.95v47.17a3.62,3.62,0,0,1-1.64,2.85l-41.14,23.7C349.45,127.76,348.71,127.33,348.71,126.29Z"/><path class="cls-16" d="M350.36,127.23a3.75,3.75,0,0,1-3.3,0l-5.89-3.3a3.58,3.58,0,0,1-1.65-2.83V73.94a3.39,3.39,0,0,1,.52-1.68l9.16,5.23a3.21,3.21,0,0,0-.49,1.62v47.17C348.71,127.24,349.39,127.8,350.36,127.23Z"/><path class="cls-29" d="M393.12,53.21c-.13-.83-.8-1.13-1.62-.65l-41.14,23.7a3.36,3.36,0,0,0-1.16,1.23L340,72.26a3.43,3.43,0,0,1,1.13-1.17l41.15-23.7a3.69,3.69,0,0,1,3.3,0l5.88,3.3A3.61,3.61,0,0,1,393.12,53.21Z"/><path class="cls-2" d="M339.52,90.11l-13.23,13.45a1.46,1.46,0,0,0,.25,2.25c.27.18,9.16,5.27,9.16,5.27l13-15.67Z"/><path class="cls-13" d="M339.52,90.11l-13.23,13.45a1.46,1.46,0,0,0,.25,2.25c.27.18,9.16,5.27,9.16,5.27l13-15.67Z"/><path class="cls-2" d="M348.71,95.41l-13.22,13.45a1.45,1.45,0,0,0,1.24,2.46l12-1.73C350,109.59,350,95.41,348.71,95.41Z"/></g><path class="cls-6" d="M385.94,79.89h0L381.4,69.79c0-.05.05-.1.05-.15v-.38c0-.34-.21-.5-.47-.35l-8.15,4.71A1,1,0,0,0,371.7,73V71.31c0-.61-.29-1-.64-.74a1.85,1.85,0,0,0-.64,1.48v1.64a4.49,4.49,0,0,0-1.13,2l-8.15,4.7a1.12,1.12,0,0,0-.47.89v.1a.45.45,0,0,0,.23.35l-4.23,14.55s0,0,0,0a.42.42,0,0,0,0,.12c0,4.74,3.89,2.56,5.3,1.75S367,95.13,367,91a.55.55,0,0,0-.07-.25h0l-4.32-9.6,6.74-3.89a1,1,0,0,0,1.07.51V92.46l-.76.46V102l-2.26,1.3a3.43,3.43,0,0,0-1.42,2.72v1l-.69.4a6.67,6.67,0,0,0-2.78,5.3V113l17.09-9.87v-.28c0-2-1.24-3-2.77-2.09l-.69.4v-1c0-1-.64-1.52-1.42-1.07l-2.26,1.3v-9.2l-.76.47V77a4.4,4.4,0,0,0,1.06-1.74l7.05-4.07-4.12,14.2s0,0,0,0a.42.42,0,0,0,0,.12c0,4.74,3.89,2.56,5.29,1.75s5.07-3,5.07-7.18A.44.44,0,0,0,385.94,79.89Zm-20.1,10.94-7.8,4.5,3.9-13.6Zm11.21-6.35,3.9-13.6,3.91,9.1Z"/></g></g></g></svg>