<svg xmlns="http://www.w3.org/2000/svg" xmlns:xlink="http://www.w3.org/1999/xlink" viewBox="0 0 594.06 201.61"><defs><style>.cls-1{isolation:isolate;}.cls-2{fill:#f8973a;}.cls-3{opacity:0.54;}.cls-21,.cls-22,.cls-23,.cls-24,.cls-25,.cls-26,.cls-27,.cls-3,.cls-6,.cls-8,.cls-9{mix-blend-mode:multiply;}.cls-27,.cls-4,.cls-6{fill:#d0cbb9;}.cls-5{opacity:0.64;}.cls-6{opacity:0.74;}.cls-7{fill:#fff;}.cls-8{opacity:0.79;fill:url(#linear-gradient);}.cls-9{opacity:0.65;}.cls-10,.cls-13{fill:#f3f3f3;}.cls-10,.cls-19,.cls-20{opacity:0.84;}.cls-11{fill:#e5e5e5;}.cls-12{fill:#f5f6f6;}.cls-14{fill:#dcdbdb;}.cls-15{fill:#f1f0f0;}.cls-16{fill:#c9c9c9;}.cls-17,.cls-19,.cls-22,.cls-23,.cls-24{fill:#8c9b9f;}.cls-17,.cls-18{opacity:0.5;}.cls-20{fill:#95a2a8;}.cls-21,.cls-25{fill:#c5cdcd;}.cls-21,.cls-27{opacity:0.59;}.cls-22{opacity:0.44;}.cls-23{opacity:0.16;}.cls-24{opacity:0.33;}.cls-25{opacity:0.57;}.cls-26{opacity:0.72;}.cls-28{opacity:0.86;}</style><linearGradient id="linear-gradient" x1="408.51" y1="111.68" x2="594.06" y2="111.68" gradientUnits="userSpaceOnUse"><stop offset="0" stop-color="#99a3a6"/><stop offset="0.33" stop-color="#b0b6b8"/><stop offset="1" stop-color="#dcdbdb"/></linearGradient></defs><g class="cls-1"><g id="Layer_2" data-name="Layer 2"><g id="Layer_1-2" data-name="Layer 1"><rect class="cls-2" width="594.06" height="201.61"/><g class="cls-3"><path class="cls-4" d="M199.74,177.88a1.42,1.42,0,0,1-1.93.36,1.47,1.47,0,0,1-.43-2c3.33-5.28,5-12.42,4.18-17.78-.87-5.57-3.68-10-8.87-13.79a1.48,1.48,0,0,1-.31-2,1.41,1.41,0,0,1,2-.32c5.84,4.33,9,9.32,10,15.7.94,6.11-.86,13.88-4.59,19.8Z"/><path class="cls-4" d="M204.94,181.73a1.42,1.42,0,0,1-1.91.38,1.47,1.47,0,0,1-.46-2c13.45-22,0-35.41-6.39-40.16a4.18,4.18,0,0,0-6.22,1,3.89,3.89,0,0,0,.79,5.68c11.78,8.73,9.61,20.69,4.18,28.27a1.41,1.41,0,0,1-2,.33,1.49,1.49,0,0,1-.32-2c1.69-2.35,9.44-14.59-3.54-24.21a6.81,6.81,0,0,1-1.43-9.74,7,7,0,0,1,10.21-1.62c5.5,4.08,22.26,19.3,7.13,44A.41.41,0,0,1,204.94,181.73Z"/><path class="cls-4" d="M228.24,139.1a.75.75,0,0,1-.14.17c-10,10.17-18,4-25.71-2-1.15-.9-2.33-1.81-3.54-2.69-5.22-3.8-11.11-1.33-14.27,3.08l0,0c-2.82,4-3.43,9.64,1.56,13.34,12.2,9,6.54,16.95,4.13,20.31a1.41,1.41,0,0,1-2,.33,1.46,1.46,0,0,1-.31-2c2.54-3.56,6.38-8.93-3.51-16.25-6.55-4.86-5.73-12.43-2.19-17.41l0-.05c4-5.57,11.52-8.64,18.24-3.73,1.23.9,2.43,1.83,3.61,2.74,8,6.16,13.71,10.6,22,2.23a1.41,1.41,0,0,1,2,0A1.47,1.47,0,0,1,228.24,139.1Z"/><path class="cls-4" d="M223.13,135.3c-3.61,5-8.11,3.82-10,2.46l-12.27-9.1c-4-2.93-14.82-3.25-20.74,5-5.2,7.28-4.44,17.24,1.66,21.77,7.14,5.29,6,9.07,3.6,12.36a1.42,1.42,0,0,1-2,.32,1.47,1.47,0,0,1-.31-2c1.4-2,2.85-4-3-8.3-7.35-5.45-8.39-17.28-2.28-25.83,6.74-9.42,19.35-9.64,24.73-5.65l12.26,9.09c.51.35,3.28,2,6-1.81a1.42,1.42,0,0,1,2-.32A1.47,1.47,0,0,1,223.13,135.3Z"/><path class="cls-4" d="M218.25,131.69a1.4,1.4,0,0,1-2,.32l-10.64-7.88c-.1-.07-7.27-5.49-15.8-4.21-5.48.84-10.39,4.24-14.6,10.11-13.09,18.33,4.23,31.57,5,32.12a1.45,1.45,0,0,1,.31,2h0a1.4,1.4,0,0,1-2,.31c-.21-.15-20.39-15.48-5.59-36.17,4.68-6.54,10.23-10.33,16.5-11.27,9.74-1.46,17.57,4.49,17.9,4.74l10.62,7.87A1.46,1.46,0,0,1,218.25,131.69Z"/><path class="cls-4" d="M232.07,143.82c-3.29,4.61-8.43,6.2-11.28,6.75-3.95.75-7.83.36-9.64-1a1.47,1.47,0,0,1-.32-2,1.42,1.42,0,0,1,2-.32c.85.63,3.71,1.2,7.42.49,2.56-.49,7.24-1.95,9.91-6.2a1.41,1.41,0,0,1,2-.44,1.46,1.46,0,0,1,.43,2A7.74,7.74,0,0,1,232.07,143.82Z"/><path class="cls-4" d="M235.12,149.25c-2.47,3.45-7.12,4.86-11.22,6.11-3.26,1-6.34,1.93-7.54,3.6-.93,1.3-1,4.2-1.12,7.26-.15,5-.35,11.31-4,16.45a1.4,1.4,0,0,1-2,.32,1.46,1.46,0,0,1-.31-2c3.16-4.42,3.33-10,3.48-14.83.12-3.68.21-6.85,1.67-8.89,1.75-2.45,5.28-3.53,9-4.66s7.83-2.38,9.73-5a1.41,1.41,0,0,1,2-.32A1.47,1.47,0,0,1,235.12,149.25Z"/><path class="cls-4" d="M237.29,155.47c-1.12,1.57-3.75,2.44-7.09,3.54-3.13,1-7,2.33-8.33,4.14s-1.62,6-1.94,9.77c-.35,4.16-.66,7.75-2,9.66a1.42,1.42,0,0,1-2,.32,1.48,1.48,0,0,1-.31-2c.89-1.25,1.21-4.94,1.49-8.19.37-4.35.75-8.83,2.47-11.23,1.83-2.57,6.05-4,9.76-5.19,2.26-.75,5.08-1.68,5.66-2.49a1.42,1.42,0,0,1,2-.32A1.48,1.48,0,0,1,237.29,155.47Z"/><path class="cls-4" d="M236.92,163c-1.06,1.47-3.26,2-5.58,2.54-1.76.41-3.94.93-4.59,1.78l0,0c-.65.92-.65,3.56-.65,5.68,0,2.74,0,5.1-1,6.5a1.41,1.41,0,0,1-2,.31,1.47,1.47,0,0,1-.32-2c.45-.62.45-3,.45-4.77,0-2.81,0-5.72,1.2-7.41l.07-.09c1.27-1.67,3.77-2.26,6.19-2.83,1.47-.35,3.49-.83,3.91-1.42a1.42,1.42,0,0,1,2-.32A1.48,1.48,0,0,1,236.92,163Z"/><path class="cls-4" d="M235.42,169.82a3,3,0,0,1-2.74,1,2.93,2.93,0,0,0-.88.05,8.45,8.45,0,0,0,.23,1.31,3.24,3.24,0,0,1-.18,2.67,1.42,1.42,0,0,1-2,.32,1.48,1.48,0,0,1-.49-1.71c0-.17-.08-.45-.12-.65a4.49,4.49,0,0,1,.31-3.71,3.5,3.5,0,0,1,3.21-1.19,5.09,5.09,0,0,0,.55,0,1.42,1.42,0,0,1,1.8-.1A1.48,1.48,0,0,1,235.42,169.82Z"/></g><g class="cls-5"><path class="cls-6" d="M269.06,106.58a1.08,1.08,0,0,0-.61-.65l-.64-.29-1.17,2.66.65.29a1,1,0,0,0,1.27-.27,2.62,2.62,0,0,0,.38-.63A1.6,1.6,0,0,0,269.06,106.58Zm-1.72,4.26a1.2,1.2,0,0,0-.71-.76l-.64-.29-1.36,3.09.64.3a1.19,1.19,0,0,0,1.45-.32,2.55,2.55,0,0,0,.38-.61A2.15,2.15,0,0,0,267.34,110.84Zm0,0a1.2,1.2,0,0,0-.71-.76l-.64-.29-1.36,3.09.64.3a1.19,1.19,0,0,0,1.45-.32,2.55,2.55,0,0,0,.38-.61A2.15,2.15,0,0,0,267.34,110.84Zm1.72-4.26a1.08,1.08,0,0,0-.61-.65l-.64-.29-1.17,2.66.65.29a1,1,0,0,0,1.27-.27,2.62,2.62,0,0,0,.38-.63A1.6,1.6,0,0,0,269.06,106.58Zm0,0a1.08,1.08,0,0,0-.61-.65l-.64-.29-1.17,2.66.65.29a1,1,0,0,0,1.27-.27,2.62,2.62,0,0,0,.38-.63A1.6,1.6,0,0,0,269.06,106.58Zm-1.72,4.26a1.2,1.2,0,0,0-.71-.76l-.64-.29-1.36,3.09.64.3a1.19,1.19,0,0,0,1.45-.32,2.55,2.55,0,0,0,.38-.61A2.15,2.15,0,0,0,267.34,110.84Zm11.14,0a1.07,1.07,0,0,0-.6-.65l-.64-.29-1.17,2.66.64.29a1,1,0,0,0,1.27-.28,2.36,2.36,0,0,0,.38-.62A1.5,1.5,0,0,0,278.48,110.87Zm-1.72,4.25a1.2,1.2,0,0,0-.7-.75l-.64-.29-1.36,3.09.64.3a1.2,1.2,0,0,0,1.44-.33,2.06,2.06,0,0,0,.38-.6A2.18,2.18,0,0,0,276.76,115.12Zm0,0a1.2,1.2,0,0,0-.7-.75l-.64-.29-1.36,3.09.64.3a1.2,1.2,0,0,0,1.44-.33,2.06,2.06,0,0,0,.38-.6A2.18,2.18,0,0,0,276.76,115.12ZM278,112.6a2.36,2.36,0,0,0,.38-.62,1.5,1.5,0,0,0,.12-1.11,1.07,1.07,0,0,0-.6-.65l-.64-.29-1.17,2.66.64.29A1,1,0,0,0,278,112.6Zm-10.64-1.76a1.2,1.2,0,0,0-.71-.76l-.64-.29-1.36,3.09.64.3a1.19,1.19,0,0,0,1.45-.32,2.55,2.55,0,0,0,.38-.61A2.15,2.15,0,0,0,267.34,110.84Zm1.22-2.52a2.62,2.62,0,0,0,.38-.63,1.6,1.6,0,0,0,.12-1.11,1.08,1.08,0,0,0-.61-.65l-.64-.29-1.17,2.66.65.29A1,1,0,0,0,268.56,108.32Zm9.54-64.71-33,75.19,52.83,24,33-75.18Zm-10.46,71a2.34,2.34,0,0,1-1.17.49,2.45,2.45,0,0,1-1.32-.17l-2.86-1.3,4.56-10.36,2.3,1a3.24,3.24,0,0,1,1.43,1.23,2.57,2.57,0,0,1,.33,1.69,3.94,3.94,0,0,1-.33,1.17,2.66,2.66,0,0,1-1.28,1.42,1.86,1.86,0,0,1-.72.18,2,2,0,0,1,.53,1.17,3.37,3.37,0,0,1-.11,1.18,4.81,4.81,0,0,1-.26.75A3.77,3.77,0,0,1,267.64,114.65Zm2.7,2.68-1.53-.69,4.56-10.37,1.52.7Zm6.72,1.6a2.25,2.25,0,0,1-1.17.49,2.36,2.36,0,0,1-1.32-.16l-2.85-1.3,4.55-10.37,2.3,1a3.19,3.19,0,0,1,1.43,1.23,2.54,2.54,0,0,1,.33,1.69,4,4,0,0,1-.33,1.17,2.66,2.66,0,0,1-1.28,1.42,1.85,1.85,0,0,1-.72.17,2,2,0,0,1,.53,1.17,3.33,3.33,0,0,1-.11,1.18,3.6,3.6,0,0,1-.26.76A3.76,3.76,0,0,1,277.06,118.93Zm7.66-15.61-4-1.84,11-25.16-8.27-3.76,1.82-4.15,8.27,3.77,4.08-9.29,4,1.84L297.59,74l8.27,3.76L304,81.93l-8.27-3.76Zm-2.3,19.51-4.19-1.91,4.55-10.36,1.53.69-3.87,8.83,2.66,1.21Zm9.29-6.33-2.84-1.29L287.63,118l2.07,1-.69,1.58-2.08-1-1.24,2.83,2.84,1.29-.69,1.57-4.37-2L288,112.94l4.37,2Zm-15.65-2.13-.64-.29-1.36,3.09.64.3a1.2,1.2,0,0,0,1.44-.33,2.06,2.06,0,0,0,.38-.6,2.18,2.18,0,0,0,.24-1.42A1.2,1.2,0,0,0,276.06,114.37ZM278,112.6a2.36,2.36,0,0,0,.38-.62,1.5,1.5,0,0,0,.12-1.11,1.07,1.07,0,0,0-.6-.65l-.64-.29-1.17,2.66.64.29A1,1,0,0,0,278,112.6Zm-11.35-2.52-.64-.29-1.36,3.09.64.3a1.19,1.19,0,0,0,1.45-.32,2.55,2.55,0,0,0,.38-.61,2.15,2.15,0,0,0,.24-1.41A1.2,1.2,0,0,0,266.63,110.08Zm1.93-1.76a2.62,2.62,0,0,0,.38-.63,1.6,1.6,0,0,0,.12-1.11,1.08,1.08,0,0,0-.61-.65l-.64-.29-1.17,2.66.65.29A1,1,0,0,0,268.56,108.32Zm.5-1.74a1.08,1.08,0,0,0-.61-.65l-.64-.29-1.17,2.66.65.29a1,1,0,0,0,1.27-.27,2.62,2.62,0,0,0,.38-.63A1.6,1.6,0,0,0,269.06,106.58Zm-1.72,4.26a1.2,1.2,0,0,0-.71-.76l-.64-.29-1.36,3.09.64.3a1.19,1.19,0,0,0,1.45-.32,2.55,2.55,0,0,0,.38-.61A2.15,2.15,0,0,0,267.34,110.84Zm11.14,0a1.07,1.07,0,0,0-.6-.65l-.64-.29-1.17,2.66.64.29a1,1,0,0,0,1.27-.28,2.36,2.36,0,0,0,.38-.62A1.5,1.5,0,0,0,278.48,110.87Zm-1.72,4.25a1.2,1.2,0,0,0-.7-.75l-.64-.29-1.36,3.09.64.3a1.2,1.2,0,0,0,1.44-.33,2.06,2.06,0,0,0,.38-.6A2.18,2.18,0,0,0,276.76,115.12Zm0,0a1.2,1.2,0,0,0-.7-.75l-.64-.29-1.36,3.09.64.3a1.2,1.2,0,0,0,1.44-.33,2.06,2.06,0,0,0,.38-.6A2.18,2.18,0,0,0,276.76,115.12Zm1.72-4.25a1.07,1.07,0,0,0-.6-.65l-.64-.29-1.17,2.66.64.29a1,1,0,0,0,1.27-.28,2.36,2.36,0,0,0,.38-.62A1.5,1.5,0,0,0,278.48,110.87Zm-11.14,0a1.2,1.2,0,0,0-.71-.76l-.64-.29-1.36,3.09.64.3a1.19,1.19,0,0,0,1.45-.32,2.55,2.55,0,0,0,.38-.61A2.15,2.15,0,0,0,267.34,110.84Zm1.72-4.26a1.08,1.08,0,0,0-.61-.65l-.64-.29-1.17,2.66.65.29a1,1,0,0,0,1.27-.27,2.62,2.62,0,0,0,.38-.63A1.6,1.6,0,0,0,269.06,106.58Zm0,0a1.08,1.08,0,0,0-.61-.65l-.64-.29-1.17,2.66.65.29a1,1,0,0,0,1.27-.27,2.62,2.62,0,0,0,.38-.63A1.6,1.6,0,0,0,269.06,106.58Zm-1.72,4.26a1.2,1.2,0,0,0-.71-.76l-.64-.29-1.36,3.09.64.3a1.19,1.19,0,0,0,1.45-.32,2.55,2.55,0,0,0,.38-.61A2.15,2.15,0,0,0,267.34,110.84Zm0,0a1.2,1.2,0,0,0-.71-.76l-.64-.29-1.36,3.09.64.3a1.19,1.19,0,0,0,1.45-.32,2.55,2.55,0,0,0,.38-.61A2.15,2.15,0,0,0,267.34,110.84Zm1.72-4.26a1.08,1.08,0,0,0-.61-.65l-.64-.29-1.17,2.66.65.29a1,1,0,0,0,1.27-.27,2.62,2.62,0,0,0,.38-.63A1.6,1.6,0,0,0,269.06,106.58Z"/><polygon class="cls-6" points="275.74 42.54 242.74 117.73 238.83 115.95 271.83 40.77 275.74 42.54"/></g><path class="cls-7" d="M111.11,165.29H33.78v-20.5h77.33Zm-75.86-1.5h74.39v-17.5H35.25Z"/><path class="cls-7" d="M42.08,156.54H41v3H39.8v-9.37h2.61a3.15,3.15,0,0,1,1.88.93,3.25,3.25,0,0,1,0,4.51,2.68,2.68,0,0,1-1,.73l2,3.2H43.92ZM41,151.39v3.93h1.09a1.85,1.85,0,0,0,1.36-.57,1.92,1.92,0,0,0,.57-1.4,1.9,1.9,0,0,0-.57-1.39,1.85,1.85,0,0,0-1.36-.57Z"/><path class="cls-7" d="M51.5,150.17v1.21H47.73v2.86H51.5v1.22H47.73v2.86H51.5v1.22h-5v-9.37Z"/><path class="cls-7" d="M56.5,150.17l3.34,9.37H58.58l-1.19-3.32H55l-1.17,3.32H52.5l3.35-9.37ZM57,155l-.79-2.2-.78,2.2Z"/><path class="cls-7" d="M61.87,150.17a4.69,4.69,0,1,1,0,9.37H61v-9.37Zm.32,1.23v6.91a3.13,3.13,0,0,0,2.33-.93,3.64,3.64,0,0,0,0-5A3.13,3.13,0,0,0,62.19,151.4Z"/><path class="cls-7" d="M73.63,150.17l3,5.25,3-5.25h1.09v9.37H79.49v-6.77l-2.87,5.06-2.89-5.06v6.77H72.54v-9.37Z"/><path class="cls-7" d="M90.59,151.45a4.85,4.85,0,0,1,0,6.78,4.65,4.65,0,0,1-6.67,0,4.85,4.85,0,0,1,0-6.78,4.65,4.65,0,0,1,6.67,0Zm-3.34-.18a3.38,3.38,0,0,0-2.48,1,3.65,3.65,0,0,0,0,5.06,3.47,3.47,0,0,0,5,0,3.65,3.65,0,0,0,0-5.06A3.38,3.38,0,0,0,87.25,151.27Z"/><path class="cls-7" d="M95.83,156.54H94.75v3h-1.2v-9.37h2.62a3.13,3.13,0,0,1,1.87.93,3.22,3.22,0,0,1,0,4.51,2.67,2.67,0,0,1-1,.73l2,3.2H97.67Zm-1.08-5.15v3.93h1.08a1.84,1.84,0,0,0,1.36-.57,1.92,1.92,0,0,0,.57-1.4,1.9,1.9,0,0,0-.57-1.39,1.84,1.84,0,0,0-1.36-.57Z"/><path class="cls-7" d="M105.25,150.17v1.21h-3.77v2.86h3.77v1.22h-3.77v2.86h3.77v1.22h-5v-9.37Z"/><path class="cls-7" d="M37.49,57.63v6.53h-2.6V43.74h5.7a6.92,6.92,0,0,1,4.09,2,7.05,7.05,0,0,1,0,9.82,6.5,6.5,0,0,1-4.82,2Zm0-11.24V55h2.37a4,4,0,0,0,3-1.26,4.36,4.36,0,0,0,0-6.07,4.06,4.06,0,0,0-3-1.25Z"/><path class="cls-7" d="M60.06,43.74v2.64H51.85v6.24h8.21v2.65H51.85v6.24h8.21v2.65H49.25V43.74Z"/><path class="cls-7" d="M80.73,46.53a10.59,10.59,0,0,1,0,14.79,10.14,10.14,0,0,1-14.52,0,10.59,10.59,0,0,1,0-14.79,10.14,10.14,0,0,1,14.52,0Zm-7.26-.39a7.29,7.29,0,0,0-5.41,2.28,7.9,7.9,0,0,0,0,11,7.54,7.54,0,0,0,10.82,0,7.9,7.9,0,0,0,0-11A7.31,7.31,0,0,0,73.47,46.14Z"/><path class="cls-7" d="M89.8,57.63v6.53H87.2V43.74h5.69a6.87,6.87,0,0,1,4.09,2,7,7,0,0,1,0,9.82,6.48,6.48,0,0,1-4.81,2Zm0-11.24V55h2.37a4,4,0,0,0,3-1.26,4.33,4.33,0,0,0,0-6.07,4,4,0,0,0-3-1.25Z"/><path class="cls-7" d="M101.56,64.16V43.74h2.59V61.51h7.18v2.65Z"/><path class="cls-7" d="M125.15,43.74v2.64h-8.22v6.24h8.22v2.65h-8.22v6.24h8.22v2.65H114.34V43.74Z"/><path class="cls-7" d="M151.14,56.24a3.09,3.09,0,0,1,.13.89,3.23,3.23,0,0,1-.44,1.62,3.54,3.54,0,0,1-2.21,1.67,5.32,5.32,0,0,1-1.4,2.09,6.17,6.17,0,0,1-8.85,0A6.23,6.23,0,0,1,136.53,58a6.52,6.52,0,0,1,1.8-4.57,3.68,3.68,0,0,1,2-1.19,5.76,5.76,0,0,1-1.94-4,4.63,4.63,0,0,1,1.37-3.36,4.65,4.65,0,0,1,6.64,0,5.83,5.83,0,0,1,1.3,2.44l-2.35.94a4.91,4.91,0,0,0-.78-1.53,2,2,0,0,0-1.49-.61,2,2,0,0,0-1.48.62,2.05,2.05,0,0,0-.62,1.51,2.33,2.33,0,0,0,.65,1.61,3.47,3.47,0,0,0,1.19.92A7.54,7.54,0,0,0,145,51v2.54h-1.53a5.87,5.87,0,0,0-3.3,1.65A4.06,4.06,0,0,0,139.1,58a3.63,3.63,0,0,0,1.08,2.65,3.5,3.5,0,0,0,2.61,1.1,4.8,4.8,0,0,0,3.26-1.81c-.23-.2-.65-.61-1.24-1.24a5.28,5.28,0,0,0-.51-.43.59.59,0,0,0-.29-.12h0a.21.21,0,0,0-.18.14.22.22,0,0,0,0,.1.41.41,0,0,0,.06.2l-2.14,1.46a3.14,3.14,0,0,1-.4-.89,3,3,0,0,1-.1-.78,2.86,2.86,0,0,1,.38-1.4,2.71,2.71,0,0,1,1.7-1.34,2.64,2.64,0,0,1,.78-.12,2.72,2.72,0,0,1,1.37.38,5.2,5.2,0,0,1,1.26,1.2,2.25,2.25,0,0,0,1.32.95h.16a.7.7,0,0,0,.73-.69,1.28,1.28,0,0,0-.58-.89l1.28-2.26A3.23,3.23,0,0,1,151.14,56.24Z"/><path class="cls-7" d="M163.16,64.16V43.74h2.59V61.51h7.18v2.65Z"/><path class="cls-7" d="M183.39,43.74l7.29,20.42h-2.76l-2.58-7.22H180l-2.57,7.22h-2.77L182,43.74Zm1,10.56-1.72-4.79L181,54.3Z"/><path class="cls-7" d="M199.83,60.35V43.74h2.59V60.35a3.7,3.7,0,0,0,.43.53,2.68,2.68,0,0,0,1.93.8,2.62,2.62,0,0,0,1.93-.82,2.65,2.65,0,0,0,.82-1.94V43.74h2.6V59a5.26,5.26,0,0,1-1.56,3.7,5.12,5.12,0,0,1-3.79,1.61,4.74,4.74,0,0,1-3.65-1.58,4.78,4.78,0,0,1-3.66,1.58,5.08,5.08,0,0,1-3.78-1.61,5.14,5.14,0,0,1-1.56-3.7V43.74h2.59V58.92a2.8,2.8,0,0,0,2.75,2.76,2.84,2.84,0,0,0,2.36-1.33Z"/><path class="cls-7" d="M33.78,88.69v-8.4h1.06V87.6h2.95v1.09Z"/><path class="cls-7" d="M41.33,82.85a2.83,2.83,0,0,1,2.08.87,2.94,2.94,0,0,1,.86,2.12A2.9,2.9,0,0,1,43.41,88a2.8,2.8,0,0,1-2.08.88A2.77,2.77,0,0,1,39.26,88a2.86,2.86,0,0,1-.86-2.11,2.9,2.9,0,0,1,.86-2.12A2.8,2.8,0,0,1,41.33,82.85ZM40,84.52a1.88,1.88,0,0,0,0,2.64,1.81,1.81,0,0,0,2.6,0,1.88,1.88,0,0,0,0-2.64,1.79,1.79,0,0,0-2.6,0Z"/><path class="cls-7" d="M46.57,84A1.9,1.9,0,0,1,48,83.15v1.13a1.36,1.36,0,0,0-.93.38,1.77,1.77,0,0,0-.54,1.25v2.78H45.5v-5.4h1.07Z"/><path class="cls-7" d="M50.71,87.47a1.46,1.46,0,0,0,1,.24A1.78,1.78,0,0,0,53,87.16l.27-.32,1.07.39a5.87,5.87,0,0,1-.57.72,2.8,2.8,0,0,1-2.08.88A2.77,2.77,0,0,1,49.61,88a2.86,2.86,0,0,1-.86-2.11,2.9,2.9,0,0,1,.86-2.12,2.92,2.92,0,0,1,3.9-.23l.25.23.29.33-.53.56Zm1.78-3.36a1.42,1.42,0,0,0-.81-.15,1.79,1.79,0,0,0-1.3.55,1.83,1.83,0,0,0-.53,1.33,1.61,1.61,0,0,0,.13.82Z"/><path class="cls-7" d="M55.56,83.29h1.07v.5A1.17,1.17,0,0,1,57.82,83a.9.9,0,0,1,1,.9A1.26,1.26,0,0,1,60.2,83c.75,0,1.12.46,1.12,1.39v4.3H60.25v-3.8c0-.53-.21-.8-.63-.8a.62.62,0,0,0-.46.19A2.43,2.43,0,0,0,59,85.55v3.14H57.91v-3.8c0-.53-.21-.8-.64-.8a.6.6,0,0,0-.45.19,1.5,1.5,0,0,0-.19.86v3.55H55.56Z"/><path class="cls-7" d="M67.68,81.29a.74.74,0,0,1,.22.54.77.77,0,0,1-.22.54.73.73,0,0,1-.53.22.71.71,0,0,1-.53-.22.73.73,0,0,1-.22-.54.7.7,0,0,1,.22-.54.71.71,0,0,1,.53-.22A.73.73,0,0,1,67.68,81.29Zm0,2v5.4H66.61v-5.4Z"/><path class="cls-7" d="M70.38,88v2.49H69.32V83.29h1.06v.49a2.3,2.3,0,0,1,1.8-.93,2.77,2.77,0,0,1,2.08.88,3,3,0,0,1,0,4.22,2.77,2.77,0,0,1-2.08.88A2.43,2.43,0,0,1,70.38,88Zm0-2.6v.84a1.83,1.83,0,0,0,.5.91,1.78,1.78,0,0,0,1.3.54,1.76,1.76,0,0,0,1.31-.55,1.88,1.88,0,0,0,0-2.64,1.8,1.8,0,0,0-2.61,0A1.84,1.84,0,0,0,70.38,85.42Z"/><path class="cls-7" d="M77.48,87.53a.61.61,0,0,0,.45.19.62.62,0,0,0,.46-.19.66.66,0,0,0,.18-.47.61.61,0,0,0-.18-.45,3.61,3.61,0,0,0-.55-.41,3.31,3.31,0,0,1-.82-.57,1.38,1.38,0,0,1-.43-1,1.4,1.4,0,0,1,.43-1,1.37,1.37,0,0,1,1-.44,1.38,1.38,0,0,1,1.35,1.06l-1,.3a.54.54,0,0,0-.08-.17.32.32,0,0,0-.24-.09.35.35,0,0,0-.27.11.39.39,0,0,0,0,.54,3.38,3.38,0,0,0,.44.32,4,4,0,0,1,.93.65,1.7,1.7,0,0,1,.5,1.22,1.67,1.67,0,0,1-.5,1.24,1.68,1.68,0,0,1-2.41,0,1.82,1.82,0,0,1-.46-.88l1.07-.23A.72.72,0,0,0,77.48,87.53Z"/><path class="cls-7" d="M83.2,88.76a2.12,2.12,0,0,1-1.61-.62A2.21,2.21,0,0,1,81,86.57V83.29H82v3.24a1.13,1.13,0,0,0,.33.81,1.17,1.17,0,0,0,.84.33,1.13,1.13,0,0,0,1.13-1.14V83.29H85.4v3.28a2.24,2.24,0,0,1-.62,1.57A2.11,2.11,0,0,1,83.2,88.76Z"/><path class="cls-7" d="M87,83.29H88v.5A1.16,1.16,0,0,1,89.21,83a.9.9,0,0,1,1,.9,1.26,1.26,0,0,1,1.39-.9c.75,0,1.13.46,1.13,1.39v4.3H91.64v-3.8c0-.53-.22-.8-.64-.8a.6.6,0,0,0-.45.19c-.13.13-.19.55-.19,1.27v3.14H89.29v-3.8c0-.53-.21-.8-.64-.8a.61.61,0,0,0-.45.19,1.44,1.44,0,0,0-.18.86v3.55H87Z"/><path class="cls-7" d="M102.52,83.66V80.29h1.07v8.4h-1.07V88a2.43,2.43,0,0,1-1.8.81A2.77,2.77,0,0,1,98.64,88a2.9,2.9,0,0,1-.86-2.11,2.94,2.94,0,0,1,.86-2.12,2.8,2.8,0,0,1,2.08-.87A2.43,2.43,0,0,1,102.52,83.66Zm0,2.58v-.8a1.79,1.79,0,0,0-.5-.92,1.75,1.75,0,0,0-1.3-.56,1.77,1.77,0,0,0-1.31.56,1.91,1.91,0,0,0,0,2.64,1.76,1.76,0,0,0,1.31.55,1.74,1.74,0,0,0,1.3-.55A1.79,1.79,0,0,0,102.52,86.24Z"/><path class="cls-7" d="M107.76,82.85a2.83,2.83,0,0,1,2.08.87,2.93,2.93,0,0,1,.85,2.12,2.89,2.89,0,0,1-.85,2.11,2.8,2.8,0,0,1-2.08.88,2.77,2.77,0,0,1-2.07-.88,2.86,2.86,0,0,1-.86-2.11,2.9,2.9,0,0,1,.86-2.12A2.8,2.8,0,0,1,107.76,82.85Zm-1.3,1.67a1.88,1.88,0,0,0,0,2.64,1.81,1.81,0,0,0,2.6,0,1.88,1.88,0,0,0,0-2.64,1.79,1.79,0,0,0-2.6,0Z"/><path class="cls-7" d="M113,80.28v8.41h-1.08V80.28Z"/><path class="cls-7" d="M117.18,82.85a2.8,2.8,0,0,1,2.07.87,2.94,2.94,0,0,1,.86,2.12,2.9,2.9,0,0,1-.86,2.11,2.77,2.77,0,0,1-2.07.88A2.8,2.8,0,0,1,115.1,88a2.9,2.9,0,0,1-.86-2.11,2.94,2.94,0,0,1,.86-2.12A2.83,2.83,0,0,1,117.18,82.85Zm-1.31,1.67a1.91,1.91,0,0,0,0,2.64,1.76,1.76,0,0,0,1.31.55,1.74,1.74,0,0,0,1.3-.55,1.88,1.88,0,0,0,0-2.64,1.75,1.75,0,0,0-1.3-.56A1.77,1.77,0,0,0,115.87,84.52Z"/><path class="cls-7" d="M122.42,84a1.9,1.9,0,0,1,1.47-.87v1.13a1.36,1.36,0,0,0-.93.38,1.77,1.77,0,0,0-.54,1.25v2.78h-1.07v-5.4h1.07Z"/><path class="cls-7" d="M129.65,87.53a.63.63,0,0,0,.9,0,.63.63,0,0,0,.19-.47.58.58,0,0,0-.19-.45,3.14,3.14,0,0,0-.55-.41,3.52,3.52,0,0,1-.82-.57,1.41,1.41,0,0,1-.42-1,1.43,1.43,0,0,1,.42-1,1.41,1.41,0,0,1,2,0,1.32,1.32,0,0,1,.36.65l-1,.3a.57.57,0,0,0-.07-.17.33.33,0,0,0-.25-.09.33.33,0,0,0-.26.11.35.35,0,0,0-.11.27.38.38,0,0,0,.1.27,4.93,4.93,0,0,0,.45.32,4.54,4.54,0,0,1,.93.65,1.76,1.76,0,0,1,0,2.46,1.69,1.69,0,0,1-2.42,0,1.73,1.73,0,0,1-.45-.88l1.06-.23A.63.63,0,0,0,129.65,87.53Z"/><path class="cls-7" d="M134.27,81.29a.7.7,0,0,1,.22.54.73.73,0,0,1-.22.54.71.71,0,0,1-.53.22.73.73,0,0,1-.53-.22.77.77,0,0,1-.22-.54.74.74,0,0,1,.22-.54.73.73,0,0,1,.53-.22A.71.71,0,0,1,134.27,81.29Zm0,2v5.4h-1.07v-5.4Z"/><path class="cls-7" d="M136.56,83.29v-2h1.06v2h1v1.08h-1v4.32h-1.06V84.37h-1V83.29Z"/><path class="cls-7" d="M148.07,83.67v-.38h1.07V88.7h-1.07V88a2.39,2.39,0,0,1-1.79.81A2.8,2.8,0,0,1,144.2,88a3,3,0,0,1,0-4.23,2.8,2.8,0,0,1,2.08-.87A2.39,2.39,0,0,1,148.07,83.67Zm0,2.57v-.79a1.83,1.83,0,0,0-.49-.93,1.85,1.85,0,0,0-2.61,0,1.86,1.86,0,0,0-.53,1.32,1.83,1.83,0,0,0,.53,1.32,1.76,1.76,0,0,0,1.31.55,1.8,1.8,0,0,0,1.3-.54A1.83,1.83,0,0,0,148.07,86.24Z"/><path class="cls-7" d="M150.7,83.29h1.06v.5A1.17,1.17,0,0,1,153,83a.9.9,0,0,1,1,.9,1.26,1.26,0,0,1,1.39-.9c.75,0,1.13.46,1.13,1.39v4.3h-1.08v-3.8c0-.53-.21-.8-.63-.8a.58.58,0,0,0-.45.19,2.28,2.28,0,0,0-.2,1.27v3.14H153v-3.8c0-.53-.21-.8-.64-.8a.61.61,0,0,0-.45.19,1.5,1.5,0,0,0-.19.86v3.55H150.7Z"/><path class="cls-7" d="M159.66,87.47a1.48,1.48,0,0,0,1,.24,1.76,1.76,0,0,0,1.31-.55l.27-.32,1.07.39a5.87,5.87,0,0,1-.57.72,2.89,2.89,0,0,1-4.15,0,2.9,2.9,0,0,1-.86-2.11,2.94,2.94,0,0,1,.86-2.12,2.81,2.81,0,0,1,2.07-.87,2.78,2.78,0,0,1,1.83.64l.25.23.3.33-.54.56Zm1.78-3.36a1.42,1.42,0,0,0-.81-.15,1.75,1.75,0,0,0-1.29.55,1.83,1.83,0,0,0-.54,1.33,1.48,1.48,0,0,0,.14.82Z"/><path class="cls-7" d="M165.16,83.29v-2h1.07v2h1v1.08h-1v4.32h-1.07V84.37h-.95V83.29Z"/><path class="cls-7" d="M169.33,87.23l-1.19,2.52h-1l.66-2.52Z"/><path class="cls-7" d="M178.11,86.84l1.07.39a5.87,5.87,0,0,1-.57.72,2.8,2.8,0,0,1-2.08.88,2.77,2.77,0,0,1-2.07-.88,2.86,2.86,0,0,1-.86-2.11,2.9,2.9,0,0,1,.86-2.12,2.8,2.8,0,0,1,2.07-.87,2.83,2.83,0,0,1,2.08.87,6.82,6.82,0,0,1,.57.72l-1.07.4-.28-.33a1.81,1.81,0,0,0-2.6,0,1.92,1.92,0,0,0,0,2.65,1.75,1.75,0,0,0,1.3.55,1.78,1.78,0,0,0,1.31-.55Z"/><path class="cls-7" d="M183,82.85a2.8,2.8,0,0,1,2.07.87,2.9,2.9,0,0,1,.86,2.12,2.86,2.86,0,0,1-.86,2.11A2.87,2.87,0,0,1,181,88a2.87,2.87,0,0,1-.87-2.11,2.91,2.91,0,0,1,.87-2.12A2.8,2.8,0,0,1,183,82.85Zm-1.3,1.67a1.88,1.88,0,0,0,0,2.64,1.81,1.81,0,0,0,2.6,0,1.88,1.88,0,0,0,0-2.64,1.79,1.79,0,0,0-2.6,0Z"/><path class="cls-7" d="M188.28,84.74v4h-1.07v-5.4h1.07v.63a1.32,1.32,0,0,1,1.35-.93,1.68,1.68,0,0,1,1.37.63,2.42,2.42,0,0,1,.52,1.56v3.51h-1.07V85.22a1.13,1.13,0,0,0-1.13-1.13,1.06,1.06,0,0,0-.79.32A1.18,1.18,0,0,0,188.28,84.74Z"/><path class="cls-7" d="M194.16,87.53a.6.6,0,0,0,.45.19.58.58,0,0,0,.45-.19.63.63,0,0,0,.19-.47.58.58,0,0,0-.19-.45,3.14,3.14,0,0,0-.55-.41,3.52,3.52,0,0,1-.82-.57,1.41,1.41,0,0,1-.42-1,1.43,1.43,0,0,1,.42-1,1.41,1.41,0,0,1,2,0,1.32,1.32,0,0,1,.36.65l-1,.3a.39.39,0,0,0-.07-.17.33.33,0,0,0-.25-.09.33.33,0,0,0-.26.11.39.39,0,0,0,0,.54,3.38,3.38,0,0,0,.44.32,4.27,4.27,0,0,1,.93.65,1.76,1.76,0,0,1,0,2.46,1.62,1.62,0,0,1-1.21.51,1.65,1.65,0,0,1-1.21-.51,1.73,1.73,0,0,1-.45-.88l1.06-.23A.63.63,0,0,0,194.16,87.53Z"/><path class="cls-7" d="M199.28,87.47a1.51,1.51,0,0,0,1,.24,1.74,1.74,0,0,0,1.3-.55l.28-.32,1.06.39a7.46,7.46,0,0,1-.56.72,2.9,2.9,0,0,1-4.16,0,2.9,2.9,0,0,1-.86-2.11,2.94,2.94,0,0,1,.86-2.12,2.83,2.83,0,0,1,2.08-.87,2.77,2.77,0,0,1,1.82.64l.26.23.29.33-.54.56Zm1.79-3.36a1.42,1.42,0,0,0-.81-.15,1.78,1.78,0,0,0-1.3.55,1.83,1.83,0,0,0-.54,1.33,1.58,1.58,0,0,0,.14.82Z"/><path class="cls-7" d="M208.34,86.84l1.07.39a5.87,5.87,0,0,1-.57.72,2.77,2.77,0,0,1-2.07.88,2.8,2.8,0,0,1-2.08-.88,2.9,2.9,0,0,1-.86-2.11,2.94,2.94,0,0,1,.86-2.12,2.83,2.83,0,0,1,2.08-.87,2.8,2.8,0,0,1,2.07.87,6.82,6.82,0,0,1,.57.72l-1.07.4a3.53,3.53,0,0,0-.28-.33,1.75,1.75,0,0,0-1.29-.55,1.78,1.78,0,0,0-1.3.55,1.9,1.9,0,0,0,0,2.65,1.81,1.81,0,0,0,2.6,0Z"/><path class="cls-7" d="M211.29,83.29v-2h1.07v2h.95v1.08h-.95v4.32h-1.07V84.37h-.95V83.29Z"/><path class="cls-7" d="M216.21,87.47a1.48,1.48,0,0,0,1,.24,1.76,1.76,0,0,0,1.31-.55l.27-.32,1.07.39a5.87,5.87,0,0,1-.57.72,2.89,2.89,0,0,1-4.15,0,2.86,2.86,0,0,1-.86-2.11,2.9,2.9,0,0,1,.86-2.12,2.92,2.92,0,0,1,3.9-.23l.25.23.29.33-.53.56ZM218,84.11a1.42,1.42,0,0,0-.81-.15,1.79,1.79,0,0,0-1.3.55,1.87,1.87,0,0,0-.53,1.33,1.48,1.48,0,0,0,.14.82Z"/><path class="cls-7" d="M221.71,83.29v-2h1.07v2h.95v1.08h-.95v4.32h-1.07V84.37h-1V83.29Z"/><path class="cls-7" d="M227.22,88.76a2.16,2.16,0,0,1-1.62-.62,2.21,2.21,0,0,1-.63-1.57V83.29h1.08v3.24a1.13,1.13,0,0,0,.33.81,1.15,1.15,0,0,0,.84.33,1.09,1.09,0,0,0,.79-.33,1.07,1.07,0,0,0,.34-.81V83.29h1.07v3.28a2.21,2.21,0,0,1-.63,1.57A2.07,2.07,0,0,1,227.22,88.76Z"/><path class="cls-7" d="M232,84a1.9,1.9,0,0,1,1.47-.87v1.13a1.36,1.36,0,0,0-.93.38,1.85,1.85,0,0,0-.54,1.25v2.78H231v-5.4H232Z"/><path class="cls-7" d="M242.79,83.67v-.38h1.07V88.7h-1.07V88a2.41,2.41,0,0,1-1.79.81,2.8,2.8,0,0,1-2.08-.87,3,3,0,0,1,0-4.23,2.8,2.8,0,0,1,2.08-.87A2.41,2.41,0,0,1,242.79,83.67Zm0,2.57v-.79a1.83,1.83,0,0,0-.49-.93,1.85,1.85,0,0,0-2.61,0,1.83,1.83,0,0,0-.54,1.32,1.8,1.8,0,0,0,.54,1.32,1.76,1.76,0,0,0,1.31.55,1.8,1.8,0,0,0,1.3-.54A1.83,1.83,0,0,0,242.79,86.24Z"/><path class="cls-7" d="M250,83.66V80.29h1.07v8.4H250V88a2.43,2.43,0,0,1-1.8.81,2.8,2.8,0,0,1-2.08-.88,2.89,2.89,0,0,1-.85-2.11,2.93,2.93,0,0,1,.85-2.12,2.83,2.83,0,0,1,2.08-.87A2.43,2.43,0,0,1,250,83.66Zm0,2.58v-.8a1.72,1.72,0,0,0-.5-.92,1.79,1.79,0,0,0-2.6,0,1.88,1.88,0,0,0,0,2.64,1.81,1.81,0,0,0,2.6,0A1.72,1.72,0,0,0,250,86.24Z"/><path class="cls-7" d="M253.79,81.29a.7.7,0,0,1,.22.54.75.75,0,1,1-1.5,0,.7.7,0,0,1,.22-.54.75.75,0,0,1,1.06,0Zm0,2v5.4h-1.06v-5.4Z"/><path class="cls-7" d="M256.5,88v2.49h-1.07V83.29h1.07v.49a2.27,2.27,0,0,1,1.8-.93,2.77,2.77,0,0,1,2.07.88,3,3,0,0,1,0,4.22,2.77,2.77,0,0,1-2.07.88A2.4,2.4,0,0,1,256.5,88Zm0-2.6v.84a1.69,1.69,0,0,0,.5.91,1.82,1.82,0,0,0,2.6,0,1.88,1.88,0,0,0,0-2.64,1.79,1.79,0,0,0-2.6,0A1.7,1.7,0,0,0,256.5,85.42Z"/><path class="cls-7" d="M263.67,81.29a.7.7,0,0,1,.22.54.73.73,0,0,1-.22.54.71.71,0,0,1-.53.22.73.73,0,0,1-.53-.22.77.77,0,0,1-.22-.54.74.74,0,0,1,.22-.54.73.73,0,0,1,.53-.22A.71.71,0,0,1,263.67,81.29Zm0,2v5.4h-1.07v-5.4Z"/><path class="cls-7" d="M266.38,87.53a.62.62,0,0,0,.46.19.61.61,0,0,0,.45-.19.67.67,0,0,0,.19-.47.62.62,0,0,0-.19-.45,3.61,3.61,0,0,0-.55-.41,3.31,3.31,0,0,1-.82-.57,1.41,1.41,0,0,1-.42-1,1.43,1.43,0,0,1,.42-1,1.37,1.37,0,0,1,1-.44,1.32,1.32,0,0,1,1,.41,1.43,1.43,0,0,1,.37.65l-1,.3a.57.57,0,0,0-.07-.17.35.35,0,0,0-.25-.09.36.36,0,0,0-.27.11.39.39,0,0,0,0,.54,4.34,4.34,0,0,0,.44.32,4,4,0,0,1,.93.65,1.66,1.66,0,0,1,.5,1.22,1.7,1.7,0,0,1-.49,1.24,1.69,1.69,0,0,1-2.42,0,1.73,1.73,0,0,1-.45-.88l1.06-.23A.72.72,0,0,0,266.38,87.53Z"/><path class="cls-7" d="M274.06,86.84l1.07.39a5.87,5.87,0,0,1-.57.72,2.89,2.89,0,0,1-4.15,0,2.9,2.9,0,0,1-.86-2.11,2.94,2.94,0,0,1,.86-2.12,2.91,2.91,0,0,1,4.15,0,6.82,6.82,0,0,1,.57.72l-1.07.4-.28-.33a1.8,1.8,0,0,0-2.59,0,1.9,1.9,0,0,0,0,2.65,1.73,1.73,0,0,0,1.29.55,1.76,1.76,0,0,0,1.31-.55Z"/><path class="cls-7" d="M277.52,81.29a.74.74,0,0,1,.22.54.77.77,0,0,1-.22.54.73.73,0,0,1-.54.22.7.7,0,0,1-.52-.22.73.73,0,0,1-.22-.54.75.75,0,0,1,.74-.76A.73.73,0,0,1,277.52,81.29Zm0,2v5.4h-1.07v-5.4Z"/><path class="cls-7" d="M280.23,84.74v4h-1.07v-5.4h1.07v.63a1.3,1.3,0,0,1,1.34-.93,1.66,1.66,0,0,1,1.37.63,2.43,2.43,0,0,1,.53,1.56v3.51H282.4V85.22a1.07,1.07,0,0,0-.34-.8,1.09,1.09,0,0,0-.8-.33,1.08,1.08,0,0,0-.79.32A1.33,1.33,0,0,0,280.23,84.74Z"/><path class="cls-7" d="M289.63,83.66v-.37h1.08v4a3.32,3.32,0,0,1-.84,2.43,3.16,3.16,0,0,1-4.16,0,6.11,6.11,0,0,1-.56-.72l1.06-.39.28.33a1.77,1.77,0,0,0,1.3.54c.85,0,1.43-.56,1.76-1.7a1.76,1.76,0,0,1-1.72,1,2.92,2.92,0,0,1-2.93-2.94,2.9,2.9,0,0,1,.86-2.11,2.77,2.77,0,0,1,2.07-.88A2.4,2.4,0,0,1,289.63,83.66Zm0,1.76a1.77,1.77,0,0,0-.5-.9,1.73,1.73,0,0,0-1.3-.56,1.76,1.76,0,0,0-1.3.56,1.88,1.88,0,0,0,0,2.64,1.84,1.84,0,0,0,3.1-.89Z"/><path class="cls-7" d="M35.43,100.37a1.48,1.48,0,0,0,1,.24,1.79,1.79,0,0,0,1.31-.54l.27-.33,1.07.39a6.23,6.23,0,0,1-.57.73,2.91,2.91,0,0,1-4.15,0,3,3,0,0,1,0-4.23,2.77,2.77,0,0,1,2.07-.88,2.72,2.72,0,0,1,2.08.88l.29.33-.53.55ZM37.21,97a1.44,1.44,0,0,0-.81-.14,1.75,1.75,0,0,0-1.3.55,1.83,1.83,0,0,0-.53,1.32,1.52,1.52,0,0,0,.14.83Z"/><path class="cls-7" d="M41.36,93.19v8.4H40.28v-8.4Z"/><path class="cls-7" d="M44.05,94.19a.75.75,0,0,1,0,1.08.74.74,0,0,1-1,0,.77.77,0,0,1,0-1.08.74.74,0,0,1,1,0Zm0,2v5.4H43v-5.4Z"/><path class="cls-7" d="M46.34,96.19v-2h1.07v2h1v1.09h-1v4.31H46.34V97.28h-1V96.19Z"/><path class="cls-7" d="M50,100.36a.71.71,0,0,1,.22.53.74.74,0,0,1-.22.55.69.69,0,0,1-.52.22.71.71,0,0,1-.53-.22.74.74,0,0,1-.22-.55.75.75,0,0,1,.75-.75A.69.69,0,0,1,50,100.36Z"/><path class="cls-7" d="M55.91,98.9v2.69H54.84v-8.4h2.34a2.89,2.89,0,0,1,1.68,4.88,2.64,2.64,0,0,1-2,.83Zm0-4.62v3.53h1a1.64,1.64,0,0,0,1.22-.51A1.74,1.74,0,0,0,58.61,96a1.7,1.7,0,0,0-.51-1.24,1.65,1.65,0,0,0-1.22-.52Z"/><path class="cls-7" d="M60.75,93.19h1.07v3.58a1.41,1.41,0,0,1,1.3-.87,1.65,1.65,0,0,1,1.36.62A2.42,2.42,0,0,1,65,98.08v3.51H63.93V98.12a1.22,1.22,0,0,0-.26-.8,1,1,0,0,0-.82-.33,1.13,1.13,0,0,0-1,.72v3.88H60.75Z"/><path class="cls-7" d="M71.15,96.57v-.38h1.07v5.41H71.15v-.68a2.43,2.43,0,0,1-1.8.81,2.8,2.8,0,0,1-2.07-.87,3,3,0,0,1,0-4.23,2.8,2.8,0,0,1,2.07-.87A2.43,2.43,0,0,1,71.15,96.57Zm0,2.58v-.8a1.84,1.84,0,0,0-3.1-.93,1.9,1.9,0,0,0,0,2.65,1.81,1.81,0,0,0,2.6,0A1.75,1.75,0,0,0,71.15,99.15Z"/><path class="cls-7" d="M74.85,100.43a.58.58,0,0,0,.45.19.61.61,0,0,0,.45-.19.65.65,0,0,0,0-.92,3.76,3.76,0,0,0-.55-.41,3.89,3.89,0,0,1-.82-.56,1.43,1.43,0,0,1-.42-1,1.45,1.45,0,0,1,.42-1,1.36,1.36,0,0,1,1-.43,1.32,1.32,0,0,1,1,.41,1.25,1.25,0,0,1,.36.64l-1,.31a.55.55,0,0,0-.07-.18.33.33,0,0,0-.25-.09.39.39,0,0,0-.27.65,4.93,4.93,0,0,0,.45.32,5,5,0,0,1,.93.65,1.76,1.76,0,0,1,0,2.46,1.69,1.69,0,0,1-2.42,0,1.73,1.73,0,0,1-.45-.88l1.06-.23A.6.6,0,0,0,74.85,100.43Z"/><path class="cls-7" d="M80,100.37a1.49,1.49,0,0,0,1,.24,1.78,1.78,0,0,0,1.3-.54s.14-.16.27-.33l1.07.39a6.23,6.23,0,0,1-.57.73,2.8,2.8,0,0,1-2.07.87,2.83,2.83,0,0,1-2.08-.87,3,3,0,0,1,0-4.23A2.8,2.8,0,0,1,81,95.75a2.77,2.77,0,0,1,1.82.64,1.88,1.88,0,0,1,.25.24,3.13,3.13,0,0,1,.3.33l-.54.55ZM81.76,97a1.46,1.46,0,0,0-.81-.14,1.74,1.74,0,0,0-1.3.55,1.8,1.8,0,0,0-.54,1.32,1.63,1.63,0,0,0,.14.83Z"/><path class="cls-7" d="M85.9,93.19v8.4H84.83v-8.4Z"/><path class="cls-7" d="M88.52,93.19v8.4H87.45v-8.4Z"/><path class="cls-7" d="M92.32,101.67A2.16,2.16,0,0,1,90.7,101a2.2,2.2,0,0,1-.63-1.56V96.19h1.07v3.24a1.09,1.09,0,0,0,.34.81,1.13,1.13,0,0,0,.83.33,1.14,1.14,0,0,0,1.14-1.14V96.19h1.06v3.29a2.23,2.23,0,0,1-.62,1.56A2.09,2.09,0,0,1,92.32,101.67Z"/><path class="cls-7" d="M97.13,100.43a.62.62,0,0,0,.46.19.61.61,0,0,0,.45-.19.65.65,0,0,0,0-.92,4.45,4.45,0,0,0-.55-.41,3.63,3.63,0,0,1-.82-.56,1.43,1.43,0,0,1-.42-1,1.45,1.45,0,0,1,.42-1,1.36,1.36,0,0,1,1-.43,1.28,1.28,0,0,1,1,.41,1.35,1.35,0,0,1,.37.64l-1,.31a.55.55,0,0,0-.07-.18.35.35,0,0,0-.25-.09.38.38,0,0,0-.38.38.37.37,0,0,0,.11.27,4.34,4.34,0,0,0,.44.32,4.37,4.37,0,0,1,.93.65,1.78,1.78,0,0,1,0,2.46,1.69,1.69,0,0,1-2.42,0,1.73,1.73,0,0,1-.45-.88l1.06-.23A.68.68,0,0,0,97.13,100.43Z"/><path class="cls-7" d="M108.46,99.74l1.07.39a6.23,6.23,0,0,1-.57.73,2.91,2.91,0,0,1-4.15,0,3,3,0,0,1,0-4.23,2.89,2.89,0,0,1,4.15,0,6.82,6.82,0,0,1,.57.72l-1.07.39-.28-.33a1.75,1.75,0,0,0-1.3-.54,1.73,1.73,0,0,0-1.29.55,1.88,1.88,0,0,0,0,2.64,1.73,1.73,0,0,0,1.29.55,1.79,1.79,0,0,0,1.31-.54Z"/><path class="cls-7" d="M113.39,95.75a2.79,2.79,0,0,1,2.08.88,3,3,0,0,1,0,4.23,2.91,2.91,0,0,1-4.15,0,3,3,0,0,1,0-4.23A2.77,2.77,0,0,1,113.39,95.75Zm-1.3,1.67a1.9,1.9,0,0,0,0,2.65,1.83,1.83,0,0,0,2.6,0,1.9,1.9,0,0,0,0-2.65,1.81,1.81,0,0,0-2.6,0Z"/><path class="cls-7" d="M118.64,97.64v4h-1.08v-5.4h1.08v.63A1.29,1.29,0,0,1,120,95.9a1.65,1.65,0,0,1,1.37.62,2.42,2.42,0,0,1,.52,1.56v3.51h-1.06V98.12a1.07,1.07,0,0,0-.34-.8,1.09,1.09,0,0,0-.8-.33,1.12,1.12,0,0,0-.79.32A1,1,0,0,0,118.64,97.64Z"/><path class="cls-7" d="M125.3,101.59l-2.53-5.4H124l1.6,3.51,1.6-3.51h1.2l-2.53,5.4Z"/><path class="cls-7" d="M133.85,96.57v-.38h1.08v5.41h-1.08v-.68a2.39,2.39,0,0,1-1.79.81,2.83,2.83,0,0,1-2.08-.87,3.06,3.06,0,0,1,0-4.23,2.83,2.83,0,0,1,2.08-.87A2.39,2.39,0,0,1,133.85,96.57Zm0,2.58v-.8a1.76,1.76,0,0,0-.49-.93,1.83,1.83,0,0,0-2.6,0,1.9,1.9,0,0,0,0,2.65,1.81,1.81,0,0,0,2.6,0A1.73,1.73,0,0,0,133.85,99.15Z"/><path class="cls-7" d="M137.55,93.19v8.4h-1.07v-8.4Z"/><path class="cls-7" d="M140.17,93.19v8.4H139.1v-8.4Z"/><path class="cls-7" d="M142.87,94.19a.76.76,0,0,1-.53,1.3.71.71,0,0,1-.53-.22.77.77,0,0,1,0-1.08.71.71,0,0,1,.53-.22A.73.73,0,0,1,142.87,94.19Zm0,2v5.4h-1.06v-5.4Z"/><path class="cls-7" d="M145.58,100.43a.61.61,0,0,0,.45.19.62.62,0,0,0,.46-.19.68.68,0,0,0,0-.92,4.45,4.45,0,0,0-.55-.41,3.63,3.63,0,0,1-.82-.56,1.4,1.4,0,0,1-.43-1,1.42,1.42,0,0,1,.43-1,1.36,1.36,0,0,1,1-.43,1.28,1.28,0,0,1,1,.41,1.25,1.25,0,0,1,.36.64l-1,.31a.51.51,0,0,0-.08-.18.32.32,0,0,0-.24-.09.39.39,0,0,0-.27.11.4.4,0,0,0-.11.27.37.37,0,0,0,.11.27,3.38,3.38,0,0,0,.44.32,4.37,4.37,0,0,1,.93.65,1.72,1.72,0,0,1,.5,1.23,1.67,1.67,0,0,1-.5,1.23,1.68,1.68,0,0,1-2.41,0,1.82,1.82,0,0,1-.46-.88l1.07-.23A.68.68,0,0,0,145.58,100.43Z"/><path class="cls-7" d="M154.36,100.37a1.48,1.48,0,0,0,1,.24,1.79,1.79,0,0,0,1.31-.54l.27-.33,1.07.39a6.23,6.23,0,0,1-.57.73,2.91,2.91,0,0,1-4.15,0,3,3,0,0,1,0-4.23,2.77,2.77,0,0,1,2.07-.88,2.72,2.72,0,0,1,2.08.88l.29.33-.53.55ZM156.14,97a1.44,1.44,0,0,0-.81-.14,1.75,1.75,0,0,0-1.3.55,1.83,1.83,0,0,0-.53,1.32,1.52,1.52,0,0,0,.14.83Z"/><path class="cls-7" d="M163.11,96.19l-1.4,2.47,1.66,2.93h-1.23l-1-1.81-1,1.81h-1.24l1.66-2.93-1.39-2.47h1.23l.77,1.35.77-1.35Z"/><path class="cls-7" d="M172.79,96.56V93.19h1.07v8.4h-1.07v-.67a2.43,2.43,0,0,1-1.8.81,2.82,2.82,0,0,1-2.08-.87,3,3,0,0,1,0-4.23,2.79,2.79,0,0,1,2.08-.88A2.43,2.43,0,0,1,172.79,96.56Zm0,2.59v-.81a1.86,1.86,0,0,0-1.8-1.47,1.72,1.72,0,0,0-1.3.55,1.9,1.9,0,0,0,0,2.65,1.83,1.83,0,0,0,2.6,0A1.79,1.79,0,0,0,172.79,99.15Z"/><path class="cls-7" d="M176.56,94.19a.77.77,0,0,1,0,1.08.73.73,0,0,1-.53.22.71.71,0,0,1-.53-.22.77.77,0,0,1,0-1.08A.71.71,0,0,1,176,94,.73.73,0,0,1,176.56,94.19Zm0,2v5.4h-1.07v-5.4Z"/><path class="cls-7" d="M182.4,99.74l1.07.39a6.23,6.23,0,0,1-.57.73,2.91,2.91,0,0,1-4.15,0,3,3,0,0,1,0-4.23,2.89,2.89,0,0,1,4.15,0,6.82,6.82,0,0,1,.57.72l-1.07.39-.28-.33a1.82,1.82,0,0,0-2.6,0,1.91,1.91,0,0,0,0,2.64,1.75,1.75,0,0,0,1.3.55,1.79,1.79,0,0,0,1.31-.54Z"/><path class="cls-7" d="M185.35,96.19v-2h1.07v2h1v1.09h-1v4.31h-1.07V97.28h-.95V96.19Z"/><path class="cls-7" d="M190.86,101.67a2.16,2.16,0,0,1-1.62-.63,2.2,2.2,0,0,1-.63-1.56V96.19h1.08v3.24a1.12,1.12,0,0,0,.33.81,1.14,1.14,0,0,0,.84.33,1.09,1.09,0,0,0,.79-.33,1.07,1.07,0,0,0,.34-.81V96.19h1.07v3.29a2.2,2.2,0,0,1-.63,1.56A2.08,2.08,0,0,1,190.86,101.67Z"/><path class="cls-7" d="M194.61,96.19h1.06v.5a1.19,1.19,0,0,1,1.19-.79.9.9,0,0,1,1,.9,1.26,1.26,0,0,1,1.39-.9c.75,0,1.13.47,1.13,1.39v4.3h-1.08v-3.8c0-.53-.21-.8-.63-.8a.66.66,0,0,0-.46.19,2.43,2.43,0,0,0-.19,1.27v3.14H197v-3.8c0-.53-.21-.8-.64-.8a.65.65,0,0,0-.45.19,1.5,1.5,0,0,0-.19.86v3.55h-1.06Z"/><path class="cls-7" d="M203.22,100.13,202,102.65h-1l.66-2.52Z"/><path class="cls-7" d="M209.44,100.37a1.51,1.51,0,0,0,1,.24,1.78,1.78,0,0,0,1.3-.54,4,4,0,0,0,.27-.33l1.07.39a6.23,6.23,0,0,1-.57.73,2.8,2.8,0,0,1-2.07.87,2.83,2.83,0,0,1-2.08-.87,3,3,0,0,1,0-4.23,2.8,2.8,0,0,1,2.08-.88,2.77,2.77,0,0,1,1.82.64,1.88,1.88,0,0,1,.25.24,3.13,3.13,0,0,1,.3.33l-.54.55ZM211.23,97a1.44,1.44,0,0,0-.81-.14,1.74,1.74,0,0,0-1.3.55,1.8,1.8,0,0,0-.54,1.32,1.63,1.63,0,0,0,.14.83Z"/><path class="cls-7" d="M218.9,96.56v-.37H220v4a3.32,3.32,0,0,1-.84,2.43,3.19,3.19,0,0,1-4.16,0,6.51,6.51,0,0,1-.56-.73l1.06-.39.28.33a1.78,1.78,0,0,0,1.3.55c.85,0,1.43-.57,1.76-1.7a1.77,1.77,0,0,1-1.72,1,2.92,2.92,0,0,1-2.93-2.94,2.91,2.91,0,0,1,.86-2.11,2.8,2.8,0,0,1,2.07-.88A2.4,2.4,0,0,1,218.9,96.56Zm0,1.76a1.77,1.77,0,0,0-.5-.9,1.72,1.72,0,0,0-1.3-.55,1.75,1.75,0,0,0-1.3.55,1.9,1.9,0,0,0,0,2.65,1.79,1.79,0,0,0,1.3.55,1.76,1.76,0,0,0,1.3-.55,1.78,1.78,0,0,0,.5-.89Z"/><path class="cls-7" d="M223.19,100.37a1.51,1.51,0,0,0,1,.24,1.77,1.77,0,0,0,1.3-.54l.28-.33,1.06.39a8,8,0,0,1-.56.73,2.83,2.83,0,0,1-2.08.87,2.8,2.8,0,0,1-2.07-.87,3,3,0,0,1,0-4.23,2.89,2.89,0,0,1,3.89-.24,2.84,2.84,0,0,1,.26.24l.29.33-.53.55ZM225,97a1.44,1.44,0,0,0-.81-.14,1.74,1.74,0,0,0-1.3.55,1.8,1.8,0,0,0-.54,1.32,1.63,1.63,0,0,0,.14.83Z"/><path class="cls-7" d="M229.12,100.43a.62.62,0,0,0,.46.19.61.61,0,0,0,.45-.19.65.65,0,0,0,0-.92,3.76,3.76,0,0,0-.55-.41,3.89,3.89,0,0,1-.82-.56,1.43,1.43,0,0,1-.42-1,1.45,1.45,0,0,1,.42-1,1.36,1.36,0,0,1,1-.43,1.32,1.32,0,0,1,1,.41,1.25,1.25,0,0,1,.36.64l-1,.31a.55.55,0,0,0-.07-.18.35.35,0,0,0-.25-.09.39.39,0,0,0-.27.65,4.93,4.93,0,0,0,.45.32,5,5,0,0,1,.93.65,1.76,1.76,0,0,1,0,2.46,1.69,1.69,0,0,1-2.42,0,1.73,1.73,0,0,1-.45-.88l1.06-.23A.68.68,0,0,0,229.12,100.43Z"/><path class="cls-7" d="M233.32,96.19v-2h1.07v2h1v1.09h-1v4.31h-1.07V97.28h-.95V96.19Z"/><path class="cls-7" d="M241.19,96.57v-.38h1.07v5.41h-1.07v-.68a2.43,2.43,0,0,1-1.8.81,2.8,2.8,0,0,1-2.07-.87,3,3,0,0,1,0-4.23,2.8,2.8,0,0,1,2.07-.87A2.43,2.43,0,0,1,241.19,96.57Zm0,2.58v-.8a1.85,1.85,0,0,0-.5-.93,1.83,1.83,0,0,0-2.6,0,1.9,1.9,0,0,0,0,2.65,1.81,1.81,0,0,0,2.6,0A1.82,1.82,0,0,0,241.19,99.15Z"/><path class="cls-7" d="M244.88,100.43a.62.62,0,0,0,.46.19.61.61,0,0,0,.45-.19A.64.64,0,0,0,246,100a.6.6,0,0,0-.19-.46,3.76,3.76,0,0,0-.55-.41,3.63,3.63,0,0,1-.82-.56,1.43,1.43,0,0,1-.42-1,1.45,1.45,0,0,1,.42-1,1.36,1.36,0,0,1,1-.43,1.38,1.38,0,0,1,1.36,1l-1,.31a.55.55,0,0,0-.07-.18.35.35,0,0,0-.25-.09.36.36,0,0,0-.26.11.37.37,0,0,0-.12.27.37.37,0,0,0,.11.27,4.93,4.93,0,0,0,.45.32,4.53,4.53,0,0,1,.92.65,1.78,1.78,0,0,1,0,2.46,1.69,1.69,0,0,1-2.42,0,1.73,1.73,0,0,1-.45-.88l1.06-.23A.68.68,0,0,0,244.88,100.43Z"/><path class="cls-7" d="M256.62,96.56V93.19h1.07v8.4h-1.07v-.67a2.43,2.43,0,0,1-1.8.81,2.8,2.8,0,0,1-2.08-.87,3,3,0,0,1,0-4.23,2.77,2.77,0,0,1,2.08-.88A2.43,2.43,0,0,1,256.62,96.56Zm0,2.59v-.81a1.82,1.82,0,0,0-.5-.92,1.82,1.82,0,0,0-2.61,0,1.9,1.9,0,0,0,0,2.65,1.85,1.85,0,0,0,2.61,0A1.87,1.87,0,0,0,256.62,99.15Z"/><path class="cls-7" d="M261.86,95.75a2.8,2.8,0,0,1,2.08.88,3.06,3.06,0,0,1,0,4.23,2.83,2.83,0,0,1-2.08.87,2.8,2.8,0,0,1-2.07-.87,3,3,0,0,1,0-4.23A2.77,2.77,0,0,1,261.86,95.75Zm-1.3,1.67a1.9,1.9,0,0,0,0,2.65,1.83,1.83,0,0,0,2.6,0,1.9,1.9,0,0,0,0-2.65,1.81,1.81,0,0,0-2.6,0Z"/><path class="cls-7" d="M267.1,93.19v8.4H266v-8.4Z"/><path class="cls-7" d="M271.28,95.75a2.77,2.77,0,0,1,2.07.88,3,3,0,0,1,0,4.23,2.8,2.8,0,0,1-2.07.87,2.83,2.83,0,0,1-2.08-.87,3,3,0,0,1,0-4.23A2.8,2.8,0,0,1,271.28,95.75ZM270,97.42a1.92,1.92,0,0,0,0,2.65,1.85,1.85,0,0,0,2.61,0,1.9,1.9,0,0,0,0-2.65,1.82,1.82,0,0,0-2.61,0Z"/><path class="cls-7" d="M276.52,96.92a1.87,1.87,0,0,1,1.47-.87v1.13a1.33,1.33,0,0,0-.93.39,1.75,1.75,0,0,0-.54,1.25v2.77h-1.07v-5.4h1.07Z"/><path class="cls-7" d="M34.42,109.09v-2h1.07v2h.95v1.09h-.95v4.32H34.42v-4.32h-1v-1.09Z"/><path class="cls-7" d="M39.34,113.27a1.46,1.46,0,0,0,1,.24,1.77,1.77,0,0,0,1.3-.54l.28-.33L43,113a7.59,7.59,0,0,1-.57.73,2.8,2.8,0,0,1-2.08.88,2.77,2.77,0,0,1-2.07-.88,3,3,0,0,1,0-4.23,2.77,2.77,0,0,1,2.07-.88,2.82,2.82,0,0,1,1.83.64l.25.24.29.33-.53.55Zm1.78-3.36a1.54,1.54,0,0,0-.81-.14,1.74,1.74,0,0,0-1.3.55,1.81,1.81,0,0,0-.54,1.32,1.63,1.63,0,0,0,.14.83Z"/><path class="cls-7" d="M44.19,109.09h1.07v.51a1.17,1.17,0,0,1,1.19-.8.91.91,0,0,1,1,.91,1.27,1.27,0,0,1,1.39-.91c.75,0,1.12.47,1.12,1.4v4.3H48.88v-3.81c0-.53-.21-.79-.63-.79a.62.62,0,0,0-.46.19,2.37,2.37,0,0,0-.19,1.27v3.14H46.53v-3.81c0-.53-.21-.79-.64-.79a.58.58,0,0,0-.45.19,1.37,1.37,0,0,0-.19.86v3.55H44.19Z"/><path class="cls-7" d="M52.57,113.82v2.49H51.51v-7.22h1.06v.49a2.29,2.29,0,0,1,1.8-.92,2.82,2.82,0,0,1,2.08.87,3,3,0,0,1,0,4.23,2.79,2.79,0,0,1-2.08.88A2.4,2.4,0,0,1,52.57,113.82Zm0-2.6v.85a1.84,1.84,0,0,0,.5.9,1.81,1.81,0,0,0,2.6,0,1.9,1.9,0,0,0,0-2.65,1.81,1.81,0,0,0-2.6,0A1.84,1.84,0,0,0,52.57,111.22Z"/><path class="cls-7" d="M61.22,108.65a2.8,2.8,0,0,1,2.08.88,3,3,0,0,1,0,4.23,2.8,2.8,0,0,1-2.08.88,2.77,2.77,0,0,1-2.07-.88,3,3,0,0,1,0-4.23A2.77,2.77,0,0,1,61.22,108.65Zm-1.3,1.67a1.9,1.9,0,0,0,0,2.65,1.83,1.83,0,0,0,2.6,0,1.9,1.9,0,0,0,0-2.65,1.81,1.81,0,0,0-2.6,0Z"/><path class="cls-7" d="M66.46,109.82a1.89,1.89,0,0,1,1.47-.86v1.13a1.36,1.36,0,0,0-.93.38,1.77,1.77,0,0,0-.54,1.25v2.78H65.39v-5.41h1.07Z"/><path class="cls-7" d="M69.68,113l-1.19,2.52h-1l.66-2.52Z"/><path class="cls-7" d="M75.33,106.09v8.41H74.26v-8.41Z"/><path class="cls-7" d="M79.5,108.65a2.8,2.8,0,0,1,2.08.88,3,3,0,0,1,0,4.23,2.8,2.8,0,0,1-2.08.88,2.77,2.77,0,0,1-2.07-.88,3,3,0,0,1,0-4.23A2.77,2.77,0,0,1,79.5,108.65Zm-1.3,1.67a1.9,1.9,0,0,0,0,2.65,1.83,1.83,0,0,0,2.6,0,1.9,1.9,0,0,0,0-2.65,1.81,1.81,0,0,0-2.6,0Z"/><path class="cls-7" d="M84.74,113.82v.68H83.67v-8.4h1.07v3.37a2.4,2.4,0,0,1,1.8-.82,2.8,2.8,0,0,1,2.08.88,3.06,3.06,0,0,1,0,4.23,2.8,2.8,0,0,1-2.08.88A2.4,2.4,0,0,1,84.74,113.82Zm0-2.6v.85a1.84,1.84,0,0,0,3.1.9,1.9,1.9,0,0,0,0-2.65,1.81,1.81,0,0,0-2.6,0A1.77,1.77,0,0,0,84.74,111.22Z"/><path class="cls-7" d="M93.52,108.65a2.77,2.77,0,0,1,2.07.88,3,3,0,0,1,0,4.23,2.77,2.77,0,0,1-2.07.88,2.8,2.8,0,0,1-2.08-.88,3,3,0,0,1,0-4.23A2.8,2.8,0,0,1,93.52,108.65Zm-1.3,1.67a1.9,1.9,0,0,0,0,2.65,1.83,1.83,0,0,0,2.6,0,1.9,1.9,0,0,0,0-2.65,1.81,1.81,0,0,0-2.6,0Z"/><path class="cls-7" d="M98.76,109.82a1.89,1.89,0,0,1,1.47-.86v1.13a1.36,1.36,0,0,0-.93.38,1.77,1.77,0,0,0-.54,1.25v2.78H97.69v-5.41h1.07Z"/><path class="cls-7" d="M102.11,109.09v-2h1.07v2h1v1.09h-1v4.32h-1.07v-4.32h-1v-1.09Z"/><path class="cls-7" d="M106.53,107.09a.73.73,0,0,1,.22.54.7.7,0,0,1-.22.54.74.74,0,0,1-.53.23.72.72,0,0,1-.53-.23.7.7,0,0,1-.22-.54.73.73,0,0,1,.22-.54.75.75,0,0,1,.53-.22A.77.77,0,0,1,106.53,107.09Zm0,2v5.41h-1.06v-5.41Z"/><path class="cls-7" d="M109.24,113.34a.67.67,0,0,0,.91,0,.67.67,0,0,0,.18-.47.65.65,0,0,0-.18-.46,3.76,3.76,0,0,0-.55-.4,3.6,3.6,0,0,1-.82-.57,1.4,1.4,0,0,1-.43-1,1.43,1.43,0,0,1,.43-1,1.4,1.4,0,0,1,1-.43,1.32,1.32,0,0,1,1,.41,1.28,1.28,0,0,1,.36.65l-1,.3a.78.78,0,0,0-.07-.17.33.33,0,0,0-.25-.1.36.36,0,0,0-.27.12.37.37,0,0,0-.11.27.36.36,0,0,0,.11.26,2.62,2.62,0,0,0,.44.32,4.37,4.37,0,0,1,.93.65,1.74,1.74,0,0,1,.5,1.23,1.67,1.67,0,0,1-.5,1.23,1.66,1.66,0,0,1-2.41,0,1.79,1.79,0,0,1-.46-.87l1.07-.24A.77.77,0,0,0,109.24,113.34Z"/><path class="cls-7" d="M116.37,109.09h1.06v.51a1.19,1.19,0,0,1,1.2-.8.91.91,0,0,1,1,.91,1.27,1.27,0,0,1,1.39-.91c.75,0,1.13.47,1.13,1.4v4.3h-1.08v-3.81c0-.53-.21-.79-.63-.79a.6.6,0,0,0-.45.19c-.13.12-.19.54-.19,1.27v3.14h-1.07v-3.81c0-.53-.21-.79-.64-.79a.61.61,0,0,0-.45.19c-.11.1-.17.39-.19.86v3.55h-1.06Z"/><path class="cls-7" d="M128.28,109.47v-.38h1.07v5.41h-1.07v-.68a2.39,2.39,0,0,1-1.8.82,2.77,2.77,0,0,1-2.07-.88,3,3,0,0,1,0-4.22,2.77,2.77,0,0,1,2.07-.88A2.41,2.41,0,0,1,128.28,109.47Zm0,2.58v-.8a1.72,1.72,0,0,0-.5-.92,1.81,1.81,0,0,0-2.6,0,1.88,1.88,0,0,0,0,2.64,1.81,1.81,0,0,0,2.6,0A1.72,1.72,0,0,0,128.28,112.05Z"/><path class="cls-7" d="M132,113.34a.63.63,0,0,0,.45.18.61.61,0,0,0,.45-.18.64.64,0,0,0,.19-.47.62.62,0,0,0-.19-.46,3.25,3.25,0,0,0-.55-.4,3.85,3.85,0,0,1-.82-.57,1.43,1.43,0,0,1-.42-1,1.46,1.46,0,0,1,.42-1,1.4,1.4,0,0,1,1-.43,1.36,1.36,0,0,1,1,.41,1.28,1.28,0,0,1,.36.65l-1,.3a.34.34,0,0,0-.07-.17.3.3,0,0,0-.25-.1.39.39,0,0,0-.37.39.33.33,0,0,0,.11.26,2.62,2.62,0,0,0,.44.32,4.65,4.65,0,0,1,.93.65,1.74,1.74,0,0,1,.5,1.23,1.71,1.71,0,0,1-.5,1.23,1.59,1.59,0,0,1-1.21.52,1.62,1.62,0,0,1-1.21-.52,1.7,1.7,0,0,1-.45-.87l1.06-.24A.67.67,0,0,0,132,113.34Z"/><path class="cls-7" d="M136.53,113.34a.61.61,0,0,0,.45.18.63.63,0,0,0,.64-.65.62.62,0,0,0-.19-.46,3.25,3.25,0,0,0-.55-.4,3.85,3.85,0,0,1-.82-.57,1.43,1.43,0,0,1-.42-1,1.46,1.46,0,0,1,.42-1,1.4,1.4,0,0,1,1-.43,1.36,1.36,0,0,1,1,.41,1.28,1.28,0,0,1,.36.65l-1,.3a.47.47,0,0,0-.07-.17.3.3,0,0,0-.25-.1.39.39,0,0,0-.37.39.35.35,0,0,0,.1.26,3.49,3.49,0,0,0,.45.32,5,5,0,0,1,.93.65,1.74,1.74,0,0,1,.5,1.23,1.71,1.71,0,0,1-.5,1.23,1.67,1.67,0,0,1-2.42,0,1.7,1.7,0,0,1-.45-.87l1.06-.24A.67.67,0,0,0,136.53,113.34Z"/><path class="cls-7" d="M144.6,109.47v-.38h1.07v5.41H144.6v-.68a2.38,2.38,0,0,1-1.79.82,2.77,2.77,0,0,1-2.08-.88,3,3,0,0,1,0-4.22,2.77,2.77,0,0,1,2.08-.88A2.41,2.41,0,0,1,144.6,109.47Zm0,2.58v-.8a1.83,1.83,0,0,0-3.1-.92,1.91,1.91,0,0,0,0,2.64,1.83,1.83,0,0,0,3.1-.92Z"/><path class="cls-7" d="M148.06,113.26a.77.77,0,0,1,.22.54.74.74,0,0,1-.22.54.71.71,0,0,1-.53.22.73.73,0,0,1-.53-.22.74.74,0,0,1-.22-.54.75.75,0,0,1,.75-.76A.75.75,0,0,1,148.06,113.26Z"/><path class="cls-7" d="M153.92,111.81v2.69h-1.06v-8.4h2.34a2.86,2.86,0,0,1,1.68.83,2.9,2.9,0,0,1,0,4,2.68,2.68,0,0,1-2,.84Zm0-4.62v3.53h1a1.68,1.68,0,0,0,1.22-.52,1.79,1.79,0,0,0,0-2.5,1.67,1.67,0,0,0-1.22-.51Z"/><path class="cls-7" d="M159.94,113.27a1.48,1.48,0,0,0,1,.24,1.79,1.79,0,0,0,1.31-.54l.27-.33,1.07.39a6.23,6.23,0,0,1-.57.73,2.89,2.89,0,0,1-4.15,0,3,3,0,0,1,0-4.23,2.77,2.77,0,0,1,2.07-.88,2.8,2.8,0,0,1,1.83.64l.25.24.29.33-.53.55Zm1.78-3.36a1.54,1.54,0,0,0-.81-.14,1.75,1.75,0,0,0-1.3.55,1.84,1.84,0,0,0-.53,1.32,1.66,1.66,0,0,0,.13.83Z"/><path class="cls-7" d="M165.87,106.09v8.41h-1.08v-8.41Z"/><path class="cls-7" d="M168.49,106.09v8.41h-1.08v-8.41Z"/><path class="cls-7" d="M171.68,113.27a1.51,1.51,0,0,0,1,.24A1.77,1.77,0,0,0,174,113l.28-.33,1.06.39a8,8,0,0,1-.56.73,2.8,2.8,0,0,1-2.08.88,2.77,2.77,0,0,1-2.07-.88,3,3,0,0,1,0-4.23,2.89,2.89,0,0,1,3.89-.24l.26.24.29.33-.54.55Zm1.79-3.36a1.54,1.54,0,0,0-.81-.14,1.74,1.74,0,0,0-1.3.55,1.81,1.81,0,0,0-.54,1.32,1.63,1.63,0,0,0,.14.83Z"/><path class="cls-7" d="M177.61,110.54v4h-1.07v-5.41h1.07v.63a1.32,1.32,0,0,1,1.35-.92,1.7,1.7,0,0,1,1.37.62,2.46,2.46,0,0,1,.52,1.56v3.52h-1.06V111a1.13,1.13,0,0,0-.34-.81,1.09,1.09,0,0,0-.8-.33,1.07,1.07,0,0,0-.79.33A1.34,1.34,0,0,0,177.61,110.54Z"/><path class="cls-7" d="M183.06,109.09v-2h1.07v2h1v1.09h-1v4.32h-1.07v-4.32h-.95v-1.09Z"/><path class="cls-7" d="M188,113.27a1.51,1.51,0,0,0,1,.24,1.77,1.77,0,0,0,1.3-.54l.28-.33,1.06.39a8,8,0,0,1-.56.73,2.8,2.8,0,0,1-2.08.88,2.77,2.77,0,0,1-2.07-.88,3,3,0,0,1,0-4.23,2.89,2.89,0,0,1,3.89-.24l.26.24.29.33-.54.55Zm1.79-3.36a1.54,1.54,0,0,0-.81-.14,1.74,1.74,0,0,0-1.3.55,1.81,1.81,0,0,0-.54,1.32,1.63,1.63,0,0,0,.14.83Z"/><path class="cls-7" d="M193.9,113.34a.67.67,0,0,0,.91,0,.64.64,0,0,0,.19-.47.62.62,0,0,0-.19-.46,3.25,3.25,0,0,0-.55-.4,3.85,3.85,0,0,1-.82-.57,1.43,1.43,0,0,1-.42-1,1.46,1.46,0,0,1,.42-1,1.4,1.4,0,0,1,1-.43,1.36,1.36,0,0,1,1,.41,1.28,1.28,0,0,1,.36.65l-1,.3a.47.47,0,0,0-.07-.17.32.32,0,0,0-.25-.1.34.34,0,0,0-.26.12.34.34,0,0,0-.12.27.36.36,0,0,0,.11.26,3.49,3.49,0,0,0,.45.32,4.53,4.53,0,0,1,.92.65,1.78,1.78,0,0,1,0,2.46,1.67,1.67,0,0,1-2.42,0,1.7,1.7,0,0,1-.45-.87l1.06-.24A.77.77,0,0,0,193.9,113.34Z"/><path class="cls-7" d="M201.86,109.47v-.38h1.07v7.22h-1.07v-2.49a2.4,2.4,0,0,1-1.8.82,2.77,2.77,0,0,1-2.08-.88,3,3,0,0,1,0-4.23,2.8,2.8,0,0,1,2.08-.87A2.43,2.43,0,0,1,201.86,109.47Zm0,2.58v-.8a1.85,1.85,0,0,0-.5-.93,1.82,1.82,0,0,0-2.61,0,1.92,1.92,0,0,0,0,2.65,1.82,1.82,0,0,0,2.61,0A1.79,1.79,0,0,0,201.86,112.05Z"/><path class="cls-7" d="M206.72,114.57a2.16,2.16,0,0,1-1.62-.63,2.2,2.2,0,0,1-.62-1.56v-3.29h1.07v3.25a1.09,1.09,0,0,0,.33.8,1.18,1.18,0,0,0,.84.34,1.08,1.08,0,0,0,.8-.34,1.09,1.09,0,0,0,.33-.8v-3.25h1.07v3.29a2.2,2.2,0,0,1-.62,1.56A2.12,2.12,0,0,1,206.72,114.57Z"/><path class="cls-7" d="M212.12,113.27a1.48,1.48,0,0,0,1,.24,1.79,1.79,0,0,0,1.31-.54l.27-.33,1.07.39a6.23,6.23,0,0,1-.57.73,2.89,2.89,0,0,1-4.15,0,3,3,0,0,1,0-4.23,2.9,2.9,0,0,1,3.9-.24l.25.24.29.33-.53.55Zm1.78-3.36a1.54,1.54,0,0,0-.81-.14,1.72,1.72,0,0,0-1.29.55,1.81,1.81,0,0,0-.54,1.32,1.52,1.52,0,0,0,.14.83Z"/><path class="cls-7" d="M221.69,113.82v2.49h-1.06v-7.22h1.06v.49a2.29,2.29,0,0,1,1.8-.92,2.8,2.8,0,0,1,2.08.87,3,3,0,0,1,0,4.23,2.77,2.77,0,0,1-2.08.88A2.4,2.4,0,0,1,221.69,113.82Zm0-2.6v.85a1.84,1.84,0,0,0,.5.9,1.82,1.82,0,0,0,2.61,0,1.92,1.92,0,0,0,0-2.65,1.82,1.82,0,0,0-2.61,0A1.84,1.84,0,0,0,221.69,111.22Z"/><path class="cls-7" d="M229.37,113.27a1.48,1.48,0,0,0,1,.24,1.79,1.79,0,0,0,1.31-.54l.27-.33L233,113a6.23,6.23,0,0,1-.57.73,2.89,2.89,0,0,1-4.15,0,3,3,0,0,1,0-4.23,2.77,2.77,0,0,1,2.07-.88,2.8,2.8,0,0,1,1.83.64l.25.24.29.33-.53.55Zm1.78-3.36a1.54,1.54,0,0,0-.81-.14,1.72,1.72,0,0,0-1.29.55,1.81,1.81,0,0,0-.54,1.32,1.52,1.52,0,0,0,.14.83Z"/><path class="cls-7" d="M235.3,106.09v8.41h-1.08v-8.41Z"/><path class="cls-7" d="M237.92,106.09v8.41h-1.08v-8.41Z"/><path class="cls-7" d="M241.11,113.27a1.51,1.51,0,0,0,1,.24,1.77,1.77,0,0,0,1.3-.54l.28-.33,1.06.39a8,8,0,0,1-.56.73,2.8,2.8,0,0,1-2.08.88,2.77,2.77,0,0,1-2.07-.88,3,3,0,0,1,0-4.23,2.89,2.89,0,0,1,3.89-.24l.26.24.29.33-.54.55Zm1.79-3.36a1.54,1.54,0,0,0-.81-.14,1.74,1.74,0,0,0-1.3.55,1.81,1.81,0,0,0-.54,1.32,1.63,1.63,0,0,0,.14.83Z"/><path class="cls-7" d="M247,110.54v4H246v-5.41H247v.63a1.32,1.32,0,0,1,1.35-.92,1.7,1.7,0,0,1,1.37.62,2.46,2.46,0,0,1,.52,1.56v3.52h-1.06V111a1.13,1.13,0,0,0-.34-.81,1.09,1.09,0,0,0-.8-.33,1.07,1.07,0,0,0-.79.33A1.34,1.34,0,0,0,247,110.54Z"/><path class="cls-7" d="M252.49,109.09v-2h1.07v2h.95v1.09h-.95v4.32h-1.07v-4.32h-1v-1.09Z"/><path class="cls-7" d="M257.4,113.27a1.51,1.51,0,0,0,1,.24,1.77,1.77,0,0,0,1.3-.54l.28-.33L261,113a8,8,0,0,1-.56.73,2.8,2.8,0,0,1-2.08.88,2.77,2.77,0,0,1-2.07-.88,3,3,0,0,1,0-4.23,2.89,2.89,0,0,1,3.89-.24l.26.24.29.33-.54.55Zm1.79-3.36a1.54,1.54,0,0,0-.81-.14,1.74,1.74,0,0,0-1.3.55,1.81,1.81,0,0,0-.54,1.32,1.63,1.63,0,0,0,.14.83Z"/><path class="cls-7" d="M263.33,113.34a.67.67,0,0,0,.91,0,.64.64,0,0,0,.19-.47.62.62,0,0,0-.19-.46,3.25,3.25,0,0,0-.55-.4,3.85,3.85,0,0,1-.82-.57,1.43,1.43,0,0,1-.42-1,1.46,1.46,0,0,1,.42-1,1.4,1.4,0,0,1,1-.43,1.36,1.36,0,0,1,1,.41,1.28,1.28,0,0,1,.36.65l-1,.3a.47.47,0,0,0-.07-.17.32.32,0,0,0-.25-.1.39.39,0,0,0-.37.39.35.35,0,0,0,.1.26,3.49,3.49,0,0,0,.45.32,5,5,0,0,1,.93.65,1.74,1.74,0,0,1,.5,1.23,1.71,1.71,0,0,1-.5,1.23,1.67,1.67,0,0,1-2.42,0,1.7,1.7,0,0,1-.45-.87l1.06-.24A.77.77,0,0,0,263.33,113.34Z"/><path class="cls-7" d="M271.29,109.47v-.38h1.07v7.22h-1.07v-2.49a2.4,2.4,0,0,1-1.8.82,2.79,2.79,0,0,1-2.08-.88,3,3,0,0,1,0-4.23,2.82,2.82,0,0,1,2.08-.87A2.43,2.43,0,0,1,271.29,109.47Zm0,2.58v-.8a1.85,1.85,0,0,0-.5-.93,1.74,1.74,0,0,0-1.3-.55,1.76,1.76,0,0,0-1.31.55,1.92,1.92,0,0,0,0,2.65,1.76,1.76,0,0,0,1.31.55,1.74,1.74,0,0,0,1.3-.55A1.79,1.79,0,0,0,271.29,112.05Z"/><path class="cls-7" d="M276.15,114.57a2.12,2.12,0,0,1-1.61-.63,2.17,2.17,0,0,1-.63-1.56v-3.29H275v3.25a1.09,1.09,0,0,0,.33.8,1.18,1.18,0,0,0,.84.34,1.08,1.08,0,0,0,.8-.34,1.09,1.09,0,0,0,.33-.8v-3.25h1.07v3.29a2.2,2.2,0,0,1-.62,1.56A2.12,2.12,0,0,1,276.15,114.57Z"/><path class="cls-7" d="M281.55,113.27a1.48,1.48,0,0,0,1,.24,1.79,1.79,0,0,0,1.31-.54l.27-.33,1.07.39a6.23,6.23,0,0,1-.57.73,2.89,2.89,0,0,1-4.15,0,3,3,0,0,1,0-4.23,2.9,2.9,0,0,1,3.9-.24l.25.24s.13.14.3.33l-.54.55Zm1.78-3.36a1.54,1.54,0,0,0-.81-.14,1.73,1.73,0,0,0-1.29.55,1.81,1.81,0,0,0-.54,1.32,1.52,1.52,0,0,0,.14.83Z"/><path class="cls-7" d="M35.43,126.17a1.47,1.47,0,0,0,1,.25,1.76,1.76,0,0,0,1.31-.55l.27-.33,1.07.39a6.23,6.23,0,0,1-.57.73,2.89,2.89,0,0,1-4.15,0,3,3,0,0,1,0-4.23,2.89,2.89,0,0,1,3.9-.23l.25.23.29.33-.53.55Zm1.78-3.36a1.54,1.54,0,0,0-.81-.14,1.79,1.79,0,0,0-1.3.55,1.87,1.87,0,0,0-.53,1.33,1.48,1.48,0,0,0,.14.82Z"/><path class="cls-7" d="M41.35,122.73a1.9,1.9,0,0,1,1.47-.87V123a1.36,1.36,0,0,0-.93.38,1.85,1.85,0,0,0-.54,1.25v2.78H40.28V122h1.07Z"/><path class="cls-7" d="M46.38,121.55a2.84,2.84,0,0,1,2.08.88,3.06,3.06,0,0,1,0,4.23,2.8,2.8,0,0,1-2.08.88,2.77,2.77,0,0,1-2.07-.88,3,3,0,0,1,0-4.23A2.8,2.8,0,0,1,46.38,121.55Zm-1.3,1.67a1.83,1.83,0,0,0-.54,1.33,1.81,1.81,0,0,0,.54,1.32,1.81,1.81,0,0,0,2.6,0,1.81,1.81,0,0,0,.54-1.32,1.83,1.83,0,0,0-.54-1.33,1.81,1.81,0,0,0-2.6,0Z"/><path class="cls-7" d="M51.62,126.24a.65.65,0,0,0,1.1-.47.62.62,0,0,0-.19-.46,4,4,0,0,0-.55-.4,3.52,3.52,0,0,1-.82-.57,1.49,1.49,0,0,1,0-2.07,1.41,1.41,0,0,1,2,0,1.28,1.28,0,0,1,.36.65l-1,.3a.57.57,0,0,0-.07-.17.35.35,0,0,0-.25-.09.33.33,0,0,0-.26.11.34.34,0,0,0-.12.27.4.4,0,0,0,.11.27,4.93,4.93,0,0,0,.45.32,4.16,4.16,0,0,1,.92.65,1.66,1.66,0,0,1,.5,1.22,1.72,1.72,0,0,1-.49,1.24,1.63,1.63,0,0,1-1.21.51,1.6,1.6,0,0,1-1.21-.52,1.66,1.66,0,0,1-.45-.87l1.06-.23A.72.72,0,0,0,51.62,126.24Z"/><path class="cls-7" d="M59.9,120a.7.7,0,0,1,.22.54.73.73,0,0,1-.22.54.75.75,0,0,1-.53.22.75.75,0,0,1-.75-.76.77.77,0,0,1,.75-.77A.72.72,0,0,1,59.9,120Zm0,2v5.4H58.84V122Z"/><path class="cls-7" d="M62.61,126.73v2.48H61.54V122h1.07v.48a2.29,2.29,0,0,1,1.8-.92,2.8,2.8,0,0,1,2.07.87,3,3,0,0,1,0,4.23,2.77,2.77,0,0,1-2.07.88A2.4,2.4,0,0,1,62.61,126.73Zm0-2.6V125a1.69,1.69,0,0,0,.5.91,1.77,1.77,0,0,0,1.3.54,1.74,1.74,0,0,0,1.3-.55,1.81,1.81,0,0,0,.54-1.32,1.83,1.83,0,0,0-.54-1.33,1.81,1.81,0,0,0-2.6,0A1.69,1.69,0,0,0,62.61,124.13Z"/><path class="cls-7" d="M69.7,126.24a.65.65,0,0,0,1.1-.47.62.62,0,0,0-.19-.46,4,4,0,0,0-.55-.4,3.31,3.31,0,0,1-.82-.57,1.49,1.49,0,0,1,0-2.07,1.39,1.39,0,0,1,2.38.62l-1,.3a.57.57,0,0,0-.07-.17.35.35,0,0,0-.25-.09A.33.33,0,0,0,70,123a.34.34,0,0,0-.12.27.4.4,0,0,0,.11.27,4.93,4.93,0,0,0,.45.32,4.16,4.16,0,0,1,.92.65,1.66,1.66,0,0,1,.5,1.22,1.72,1.72,0,0,1-.49,1.24,1.65,1.65,0,0,1-1.21.51A1.6,1.6,0,0,1,69,127a1.66,1.66,0,0,1-.45-.87l1.06-.23A.72.72,0,0,0,69.7,126.24Z"/><path class="cls-7" d="M75.43,127.47a2.14,2.14,0,0,1-2.25-2.19V122h1.07v3.24a1.07,1.07,0,0,0,.34.8,1.16,1.16,0,0,0,1.63,0,1.13,1.13,0,0,0,.34-.81V122h1.06v3.28a2.2,2.2,0,0,1-.62,1.57A2.12,2.12,0,0,1,75.43,127.47Z"/><path class="cls-7" d="M79.17,122h1.07v.5a1.17,1.17,0,0,1,1.19-.79.91.91,0,0,1,1,.9,1.25,1.25,0,0,1,1.39-.9c.75,0,1.12.46,1.12,1.39v4.3H83.86v-3.8c0-.54-.21-.8-.64-.8a.61.61,0,0,0-.45.19c-.13.12-.19.55-.19,1.27v3.14H81.51v-3.8c0-.54-.22-.8-.64-.8a.62.62,0,0,0-.46.19,1.42,1.42,0,0,0-.18.86v3.55H79.17Z"/><path class="cls-7" d="M87.78,125.94l-1.19,2.52h-1l.66-2.52Z"/><path class="cls-7" d="M93.43,126.24a.65.65,0,0,0,.91-.93,4.72,4.72,0,0,0-.55-.4,3.31,3.31,0,0,1-.82-.57,1.48,1.48,0,0,1,1-2.51,1.32,1.32,0,0,1,1,.41,1.28,1.28,0,0,1,.36.65l-1,.3a.54.54,0,0,0-.08-.17.32.32,0,0,0-.24-.09.35.35,0,0,0-.27.11.37.37,0,0,0-.11.27.4.4,0,0,0,.11.27,3.38,3.38,0,0,0,.44.32,4,4,0,0,1,.93.65,1.76,1.76,0,0,1,0,2.46,1.62,1.62,0,0,1-1.21.51,1.58,1.58,0,0,1-1.2-.52,1.75,1.75,0,0,1-.46-.87l1.07-.23A.63.63,0,0,0,93.43,126.24Z"/><path class="cls-7" d="M98.56,126.17a1.45,1.45,0,0,0,1,.25,1.78,1.78,0,0,0,1.31-.55l.27-.33,1.07.39a7.59,7.59,0,0,1-.57.73,2.8,2.8,0,0,1-2.08.88,2.77,2.77,0,0,1-2.07-.88,3,3,0,0,1,0-4.23,2.89,2.89,0,0,1,3.9-.23l.25.23.29.33-.53.55Zm1.78-3.36a1.54,1.54,0,0,0-.81-.14,1.79,1.79,0,0,0-1.3.55,1.83,1.83,0,0,0-.54,1.33,1.58,1.58,0,0,0,.14.82Z"/><path class="cls-7" d="M108,122.37V119h1.07v8.4H108v-.67a2.43,2.43,0,0,1-1.8.81,2.8,2.8,0,0,1-2.08-.88,3,3,0,0,1,0-4.23,2.84,2.84,0,0,1,2.08-.88A2.44,2.44,0,0,1,108,122.37Zm0,2.58v-.8a1.83,1.83,0,0,0-3.1-.93,1.83,1.83,0,0,0-.54,1.33,1.81,1.81,0,0,0,.54,1.32A1.84,1.84,0,0,0,108,125Z"/><path class="cls-7" d="M114.29,119h1.07v3.58a1.4,1.4,0,0,1,1.3-.88,1.68,1.68,0,0,1,1.36.62,2.47,2.47,0,0,1,.52,1.57v3.51h-1.06v-3.47a1.28,1.28,0,0,0-.26-.8,1,1,0,0,0-.83-.34,1.15,1.15,0,0,0-1,.73v3.88h-1.07Z"/><path class="cls-7" d="M121.74,126.17a1.48,1.48,0,0,0,1,.25,1.75,1.75,0,0,0,1.3-.55c0-.05.14-.16.27-.33l1.07.39a6.23,6.23,0,0,1-.57.73,2.77,2.77,0,0,1-2.07.88,2.8,2.8,0,0,1-2.08-.88,3,3,0,0,1,0-4.23,2.84,2.84,0,0,1,2.08-.88,2.78,2.78,0,0,1,1.82.65,2.73,2.73,0,0,1,.25.23l.3.33-.54.55Zm1.78-3.36a1.52,1.52,0,0,0-.8-.14,1.78,1.78,0,0,0-1.3.55,1.83,1.83,0,0,0-.54,1.33,1.58,1.58,0,0,0,.14.82Z"/><path class="cls-7" d="M127.67,123.44v4H126.6V122h1.07v.63a1.31,1.31,0,0,1,1.35-.93,1.7,1.7,0,0,1,1.37.62,2.53,2.53,0,0,1,.52,1.57v3.51h-1.07v-3.47a1.09,1.09,0,0,0-.33-.8,1.08,1.08,0,0,0-.8-.34,1.11,1.11,0,0,0-.8.33A1.53,1.53,0,0,0,127.67,123.44Z"/><path class="cls-7" d="M137.08,122.37V119h1.07v8.4h-1.07v-.67a2.43,2.43,0,0,1-1.8.81,2.79,2.79,0,0,1-2.08-.88,3,3,0,0,1,0-4.23,2.83,2.83,0,0,1,2.08-.88A2.44,2.44,0,0,1,137.08,122.37Zm0,2.58v-.8a1.86,1.86,0,0,0-1.8-1.48,1.76,1.76,0,0,0-1.3.55,1.83,1.83,0,0,0-.54,1.33,1.81,1.81,0,0,0,.54,1.32,1.81,1.81,0,0,0,2.6,0A1.75,1.75,0,0,0,137.08,125Z"/><path class="cls-7" d="M140.76,122.73a1.9,1.9,0,0,1,1.47-.87V123a1.34,1.34,0,0,0-.92.38,1.82,1.82,0,0,0-.55,1.25v2.78H139.7V122h1.06Z"/><path class="cls-7" d="M144.9,126.17a1.47,1.47,0,0,0,1,.25,1.76,1.76,0,0,0,1.31-.55l.27-.33,1.07.39a6.23,6.23,0,0,1-.57.73,2.89,2.89,0,0,1-4.15,0,3,3,0,0,1,0-4.23,2.84,2.84,0,0,1,2.07-.88,2.79,2.79,0,0,1,1.83.65,2.73,2.73,0,0,1,.25.23l.3.33-.54.55Zm1.78-3.36a1.54,1.54,0,0,0-.81-.14,1.77,1.77,0,0,0-1.29.55,1.83,1.83,0,0,0-.54,1.33,1.48,1.48,0,0,0,.14.82Z"/><path class="cls-7" d="M150.82,122.73a1.9,1.9,0,0,1,1.47-.87V123a1.36,1.36,0,0,0-.92.38,1.82,1.82,0,0,0-.55,1.25v2.78h-1.06V122h1.06Z"/><path class="cls-7" d="M154.58,120a.71.71,0,0,1,.23.54.74.74,0,0,1-.23.54.75.75,0,0,1-1.27-.54.74.74,0,0,1,1.27-.54Zm0,2v5.4h-1.07V122Z"/><path class="cls-7" d="M156.87,122v-2h1.07v2h.95v1.08h-.95v4.32h-1.07v-4.32h-1V122Z"/><path class="cls-7" d="M165.43,126.17a1.5,1.5,0,0,0,1,.25,1.74,1.74,0,0,0,1.3-.55l.28-.33,1.06.39a8,8,0,0,1-.56.73,2.8,2.8,0,0,1-2.08.88,2.77,2.77,0,0,1-2.07-.88,3,3,0,0,1,0-4.23,2.87,2.87,0,0,1,3.89-.23l.26.23.29.33-.54.55Zm1.79-3.36a1.54,1.54,0,0,0-.81-.14,1.78,1.78,0,0,0-1.3.55,1.83,1.83,0,0,0-.54,1.33,1.58,1.58,0,0,0,.14.82Z"/><path class="cls-7" d="M171.36,122.73a1.9,1.9,0,0,1,1.47-.87V123a1.36,1.36,0,0,0-.93.38,1.77,1.77,0,0,0-.54,1.25v2.78h-1.07V122h1.07Z"/><path class="cls-7" d="M176.39,121.55a2.8,2.8,0,0,1,2.07.88,3,3,0,0,1,0,4.23,2.77,2.77,0,0,1-2.07.88,2.8,2.8,0,0,1-2.08-.88,3,3,0,0,1,0-4.23A2.84,2.84,0,0,1,176.39,121.55Zm-1.31,1.67a1.87,1.87,0,0,0-.53,1.33,1.84,1.84,0,0,0,.53,1.32,1.76,1.76,0,0,0,1.31.55,1.74,1.74,0,0,0,1.3-.55,1.81,1.81,0,0,0,.54-1.32,1.83,1.83,0,0,0-.54-1.33,1.78,1.78,0,0,0-1.3-.55A1.8,1.8,0,0,0,175.08,123.22Z"/><path class="cls-7" d="M181.63,126.24a.64.64,0,0,0,1.09-.47.65.65,0,0,0-.18-.46,4.72,4.72,0,0,0-.55-.4,3.31,3.31,0,0,1-.82-.57,1.46,1.46,0,0,1,0-2.07,1.37,1.37,0,0,1,1-.44,1.32,1.32,0,0,1,1,.41,1.28,1.28,0,0,1,.36.65l-1,.3a1.1,1.1,0,0,0-.07-.17.38.38,0,0,0-.63.29.4.4,0,0,0,.11.27,4.34,4.34,0,0,0,.44.32,4,4,0,0,1,.93.65,1.76,1.76,0,0,1,0,2.46,1.61,1.61,0,0,1-1.2.51,1.59,1.59,0,0,1-1.21-.52,1.75,1.75,0,0,1-.46-.87l1.07-.23A.72.72,0,0,0,181.63,126.24Z"/><path class="cls-7" d="M190.41,126.17a1.47,1.47,0,0,0,1,.25,1.76,1.76,0,0,0,1.31-.55l.27-.33,1.07.39a6.23,6.23,0,0,1-.57.73,2.89,2.89,0,0,1-4.15,0,3,3,0,0,1,0-4.23,2.89,2.89,0,0,1,3.9-.23l.25.23.29.33-.53.55Zm1.78-3.36a1.54,1.54,0,0,0-.81-.14,1.75,1.75,0,0,0-1.29.55,1.83,1.83,0,0,0-.54,1.33,1.48,1.48,0,0,0,.14.82Z"/><path class="cls-7" d="M196.5,123.08v4.32h-1.07v-4.32H195V122h.47v-1a1.72,1.72,0,0,1,.51-1.16,1.59,1.59,0,0,1,1.12-.46,3.38,3.38,0,0,1,1,.23l-.36,1a2.22,2.22,0,0,0-.57-.2.63.63,0,0,0-.6.6V122h1v1.09Z"/><path class="cls-7" d="M199.65,123.08v4.32h-1.07v-4.32h-.47V122h.47v-1a1.76,1.76,0,0,1,.51-1.16,1.59,1.59,0,0,1,1.12-.46,3.38,3.38,0,0,1,1,.23l-.36,1a2.22,2.22,0,0,0-.57-.2.63.63,0,0,0-.6.6V122h1v1.09Z"/><path class="cls-7" d="M202.64,120a.7.7,0,0,1,.22.54.73.73,0,0,1-.22.54.75.75,0,0,1-1.28-.54.74.74,0,0,1,1.28-.54Zm0,2v5.4h-1.06V122Z"/><path class="cls-7" d="M208.48,125.54l1.07.39a6.23,6.23,0,0,1-.57.73,2.89,2.89,0,0,1-4.15,0,3,3,0,0,1,0-4.23,2.89,2.89,0,0,1,4.15,0,6.82,6.82,0,0,1,.57.72l-1.07.4a3.53,3.53,0,0,0-.28-.33,1.72,1.72,0,0,0-1.3-.55,1.77,1.77,0,0,0-1.29.55,1.9,1.9,0,0,0,0,2.65,1.81,1.81,0,0,0,2.6,0C208.25,125.82,208.35,125.71,208.48,125.54Z"/><path class="cls-7" d="M211.94,120a.7.7,0,0,1,.22.54.73.73,0,0,1-.22.54.77.77,0,0,1-.53.22.75.75,0,0,1-.53-.22.73.73,0,0,1-.22-.54.7.7,0,0,1,.22-.54.72.72,0,0,1,.53-.23A.74.74,0,0,1,211.94,120Zm0,2v5.4h-1.06V122Z"/><path class="cls-7" d="M214.22,122v-2h1.07v2h1v1.08h-1v4.32h-1.07v-4.32h-.95V122Z"/><path class="cls-7" d="M219.73,127.47a2.15,2.15,0,0,1-1.61-.62,2.21,2.21,0,0,1-.63-1.57V122h1.07v3.24a1.09,1.09,0,0,0,.33.8,1.14,1.14,0,0,0,.84.34,1.13,1.13,0,0,0,1.13-1.14V122h1.07v3.28a2.24,2.24,0,0,1-.62,1.57A2.15,2.15,0,0,1,219.73,127.47Z"/><path class="cls-7" d="M224.55,122.73a1.87,1.87,0,0,1,1.47-.87V123a1.36,1.36,0,0,0-.93.38,1.77,1.77,0,0,0-.54,1.25v2.78h-1.07V122h1.07Z"/><path class="cls-7" d="M227.3,126.16a.77.77,0,0,1-.53,1.31.75.75,0,0,1-.74-.77.73.73,0,0,1,.22-.54.74.74,0,0,1,.52-.22A.73.73,0,0,1,227.3,126.16Z"/><path class="cls-8" d="M594.06,110.88l-2.93,4.84a.53.53,0,0,0,0,.16H590v1.6h1.48a9.39,9.39,0,0,0,2.59,3.42v-5h-2.18l2.18-3.6Zm-6.25-14.1a33.89,33.89,0,0,0-7.49-3,4.41,4.41,0,0,0-2.09-2v-4h.15c4.13-.46,7-3.74,6.49-7.33-.46-3-3.27-5.31-6.64-5.63V73.18h-4.41v2l-27.35,3.08-3.69.41h0l-2.12-.8-3.83-1.44L529,73.51h0l-15.09-5.7.42-2.7-.92-.41-.19-.07c-1.32-.57-2.61-1.14-3.93-1.7-.46-.19-1-.36-1.53-.62a13.63,13.63,0,0,1-1.85,2.15,16.36,16.36,0,0,0-4.44-.54l-.76,0a10.71,10.71,0,0,1-2.07-.31l-.61-.16-.58-.22a8.2,8.2,0,0,1-.79-.36,0,0,0,0,1,0,0,4.42,4.42,0,0,1-.72-.43l-.23-.14a1.32,1.32,0,0,1-.22-.18c-.16-.11-.29-.23-.42-.33a9,9,0,0,1-2.22-3,6.37,6.37,0,0,1-.33-.77,6.51,6.51,0,0,1-.36-1,1,1,0,0,1-.06-.25l.06,0s0,.11,0,.16h2.22l6.91-2.66,3.53-5.16v-.11l0,.11-1.23-16.28L493.41,22.43h0l-5-.67-4.51,1.76h0l-4.51-1.76-1,.13-3.94.54-2.26,2.27v0l-.86.86-2.64,2.64-3.9,3.94h0l-.49.5v.22l-.08,1v0l-.53,6.73L463,48.94l1,1.42L465.08,52v0l.55.79v0l.17.24.41.59.32.46,3.81,1.48,3.06,1.18H475a.69.69,0,0,0,.58.32s0,0,0,0c-.07.2-.13.4-.21.61a8.05,8.05,0,0,1-.32.78c-.12.27-.24.52-.38.78l-.06.12c-.12.21-.26.41-.41.63a3.74,3.74,0,0,1-.53.71l-.15.19s0,0,0,0a5.19,5.19,0,0,1-.43.49c-.15.14-.33.31-.49.44l-.42.34a5,5,0,0,1-.52.33,2.33,2.33,0,0,1-.35.22l-.45.24a10.75,10.75,0,0,1-4.52.91,14.79,14.79,0,0,0-5,.74h0a5.36,5.36,0,0,0-1.16.5l-.94-.74-.57-.44c-.14.09-.3.17-.45.28a30.68,30.68,0,0,0-4.68,3.67l.31,2.08.18,1.14v0l0,.29-16.8,24.18-.06.08,0,0a4.43,4.43,0,0,0-.62.49l-20.72,19.49-.06-.07-1.91-2.43-5.31,3.16,2.86,3.6a5.66,5.66,0,0,0-.86,1.44l0,0a5.54,5.54,0,0,0-.47,2.25,6,6,0,0,0,1.34,3.71h0a7.93,7.93,0,0,0,1.08,1.09,7.82,7.82,0,0,0,1.31.83,8.69,8.69,0,0,0,5.6.7l2.67,3.36-5.93,3.52-1.67,1,1.91,2.39,1.42-.85,5.36-3.2L435,150.82l21.31,26v0l1.5,8.15.85,4.6,1.94,10.51.21,1.13.08.38h48l7.13-36.33-3.23-32.1-6.48-12.78v-5l2.05-1.24h0l.05-.14,1.65-4.56,1.62-4.49,0-.11,1.32-8.52.42-2.82.71-4.61.24-1.53-.25-.58-2.46-5.51v0l3.67,1.38,12,4.53,8.35,3.15,1.87.71,1,.39a8.62,8.62,0,0,0,2.15.51,5.74,5.74,0,0,0,.71,0,8,8,0,0,0,1,0l.89-.11,30.42-3.44v3.52a4.36,4.36,0,0,0-2.1,2,33.6,33.6,0,0,0-7.47,2.94c-.67.35-1.33.72-2,1-.2.09-.39.19-.59.27l-.15.07-.64.26-.4.14a8,8,0,0,1-.87.28,9.42,9.42,0,0,1-3,.38h-.1a16.24,16.24,0,0,1-6.15-1.45,1.68,1.68,0,0,0,.06-.37,2.06,2.06,0,0,0-2.2-1.89,2.21,2.21,0,0,0-1.92,1,1.61,1.61,0,0,0-.27.9,2.05,2.05,0,0,0,2.19,1.88,2.26,2.26,0,0,0,1-.2c.15.07.28.15.44.22l-10,16.42a.34.34,0,0,0,0,.16h-1.12v1.6H540c1.61,3.63,5.66,6.19,10.42,6.19a12.07,12.07,0,0,0,7.31-2.38,9.59,9.59,0,0,0,3.07-3.81h1.5v-1.6h-1.11a.4.4,0,0,0-.06-.16l-1-1.7-4.1-6.78-.4-.66-3.83-6.31a17.06,17.06,0,0,0,5,1.27,9.54,9.54,0,0,0,1.43,0,6.51,6.51,0,0,0,.75,0,17.11,17.11,0,0,0,1.92-.28l.64-.16a13,13,0,0,0,1.46-.46l.62-.23c.22-.09.45-.19.67-.3a46.14,46.14,0,0,1,7.51-2.91,5,5,0,0,0,8.53,0,46.61,46.61,0,0,1,7.52,2.91,15.56,15.56,0,0,0,6.25,1.47V99.15A17.29,17.29,0,0,1,587.81,96.78Zm-129.65,38.9-2.79,29.23-19.45-25.16-5.89-7.6,7.1-4.24-1.9-2.39-7.92,4.72-2.76-3.47,16.32-15.35,6.75-6.33a2.55,2.55,0,0,0,.23-.24,6.73,6.73,0,0,0,1.75-1.74l7.64-11,4.53,13.78v6.55l1.11.63.79.44,3.31,1.88v5l-.45.78ZM550,115.88h-9.61L550,100Zm5.18-8.54.39.65,3.66,6,1.13,1.86h-9.62V100Z"/><g class="cls-9"><path class="cls-4" d="M410.36,32.48a8.21,8.21,0,0,0-3.95-2.68,7.81,7.81,0,0,0-4-5.65A8.05,8.05,0,0,0,398.07,23a7.33,7.33,0,0,0-7-4.15,7.62,7.62,0,0,0-6.44,3.43,8.2,8.2,0,0,0-4.38,1.89,8,8,0,0,0-3,5.73h0a8.56,8.56,0,0,0-1.91,1.38,8.47,8.47,0,0,0-2.26,3.5l1.56.48a6.36,6.36,0,0,1,1.75-2.83,7.46,7.46,0,0,1,1-.78,5.25,5.25,0,0,0,1,2.05,5.87,5.87,0,0,0,6.07,1.8,5.87,5.87,0,0,1-1,2.51l1.57.48a7.62,7.62,0,0,0,1.13-3.62,8.49,8.49,0,0,0,1.7-1.1,8.17,8.17,0,0,0,2.1-2.6,6.85,6.85,0,0,0,1.2.07,8.49,8.49,0,0,0,1.69-.2,8.29,8.29,0,0,0,3.52,3.86,8.56,8.56,0,0,0,2.68,1,8.49,8.49,0,0,0,1.93,4.53c.18.2.36.4.56.59l1.22-1a4.35,4.35,0,0,1-.59-.62,6.45,6.45,0,0,1-1.45-3.39,5.79,5.79,0,0,0,5-2.85,5,5,0,0,0,.56-1.65,6.15,6.15,0,0,1,2.81,1.95,6.3,6.3,0,0,1,.62.9l1.22-1A7.17,7.17,0,0,0,410.36,32.48Zm-30.51.06a4.15,4.15,0,0,1-.77-1.56h0a4.34,4.34,0,0,1,4.39,1.11,4,4,0,0,1,.93,1.8A4.4,4.4,0,0,1,379.85,32.54Zm7.11,0a5.15,5.15,0,0,1-.89.6,5.2,5.2,0,0,0-1.22-2.39A5.84,5.84,0,0,0,379,29.28a6,6,0,0,1,2.19-3.83,6.11,6.11,0,0,1,2.7-1.33,4.86,4.86,0,0,0-.1,1.09,6.29,6.29,0,0,0,4.59,5.64A6.33,6.33,0,0,1,387,32.58ZM389,29.35a4.64,4.64,0,0,1-3.34-4.18,4.48,4.48,0,0,1,.13-1.1,3.93,3.93,0,0,1,2.5,1.42A4.29,4.29,0,0,1,389,29.35Zm4-3.47a5.62,5.62,0,0,0-.56,3.67,7.24,7.24,0,0,1-1.25.15,3.2,3.2,0,0,1-.54,0,5.94,5.94,0,0,0-.91-5.39,5.43,5.43,0,0,0-3.07-1.85,5.84,5.84,0,0,1,4.39-1.95,5.45,5.45,0,0,1,5.13,2.88A5.39,5.39,0,0,0,393,25.88Zm1.15,3a4,4,0,0,1,.47-2.11,3.91,3.91,0,0,1,2-1.72A4.49,4.49,0,0,1,394.17,28.92Zm10,3.35a4.24,4.24,0,0,1-3.27,2.09,3.9,3.9,0,0,1,3.63-3.07A3.85,3.85,0,0,1,404.18,32.27ZM401,30.75a5.56,5.56,0,0,0-1.85,3.54,6,6,0,0,1-1.94-.73,6.07,6.07,0,0,1-2.66-3A6.18,6.18,0,0,0,398.48,25a.77.77,0,0,0,0-.27,6,6,0,0,1,3.19.82,5.85,5.85,0,0,1,2.94,4A5.25,5.25,0,0,0,401,30.75Z"/><path class="cls-4" d="M350.88,60.62a18.22,18.22,0,0,1,10.43-11.71l0,0A3.46,3.46,0,0,1,359,44.58l.3-1A24.08,24.08,0,0,0,345.5,59a24.38,24.38,0,0,0,10.58,27.8,4.8,4.8,0,0,1-.08-.85,4.9,4.9,0,0,1,2.56-4.31A18.65,18.65,0,0,1,350.88,60.62Z"/><path class="cls-4" d="M386.45,50.37l2.12-7.15a1.45,1.45,0,0,0-.94-1.81L365.54,34.6a1.41,1.41,0,0,0-1.78,1l-2.86,9.58a1.48,1.48,0,0,0,1,1.83l2.84.86a18.07,18.07,0,0,1,16.4,5.06h0a18.73,18.73,0,0,1,4.53,18.44A18.12,18.12,0,0,1,363,83.67l-.84-.28h0l-.66-.26a2.44,2.44,0,0,0-.66-.09,2.89,2.89,0,0,0-.84,5.63c.44.19.92.35,1.39.5A23.73,23.73,0,0,0,391,73,24.53,24.53,0,0,0,386.45,50.37ZM360.91,87.62a1.74,1.74,0,1,1,1.72-1.73A1.72,1.72,0,0,1,360.91,87.62Zm19.71-39,.59-2a2.72,2.72,0,0,1-.46-.61,2.34,2.34,0,0,1-.15-1.75,2.26,2.26,0,0,1,1.09-1.36,2.19,2.19,0,0,1,1.71-.17,2.33,2.33,0,0,1,1.33,1.11,2.3,2.3,0,0,1-1.63,3.35l-.59,2a1,1,0,0,1-1.23.67A1,1,0,0,1,380.62,48.61Z"/><path class="cls-4" d="M434.46,83.37a4.82,4.82,0,0,1-2-3.14,4.48,4.48,0,0,1,0-1.46,18,18,0,0,1-21.34-5.47,18.71,18.71,0,0,1-3.56-15.37,3.4,3.4,0,0,1-2.12.74,3.35,3.35,0,0,1-2.67-1.29l-.66-.85a24.5,24.5,0,0,0,4.62,20.34,23.49,23.49,0,0,0,28.48,6.91A4.62,4.62,0,0,1,434.46,83.37Z"/><path class="cls-4" d="M443.9,46.67a23.55,23.55,0,0,0-20.88-9l-4.59-5.83a1.4,1.4,0,0,0-2-.23l-18,14.64a1.47,1.47,0,0,0-.22,2l6.12,7.82a1.41,1.41,0,0,0,2,.23l2.31-1.87A18.29,18.29,0,0,1,414,47.32a18,18,0,0,1,8-3.74h0a18,18,0,0,1,17.47,6.66,18.73,18.73,0,0,1-2.89,26c-.23.2-.47.39-.69.55l0,0-.59.42a2.11,2.11,0,0,0-.44.5,2.9,2.9,0,0,0,.71,4,2.8,2.8,0,0,0,3.37-.09c.4-.28.79-.59,1.18-.9A24.51,24.51,0,0,0,443.9,46.67Zm-24.24-5a1,1,0,0,1-1.39-.16L417,39.92a2.39,2.39,0,0,1-.75,0,2.23,2.23,0,0,1-1.51-.85,2.39,2.39,0,0,1-.48-1.69,2.32,2.32,0,0,1,.84-1.54,2.21,2.21,0,0,1,1.65-.48,2.25,2.25,0,0,1,1.51.85,2.32,2.32,0,0,1,.27,2.42l1.28,1.62A1,1,0,0,1,419.66,41.71Zm19,38.51a1.69,1.69,0,0,1-2.37.44,1.77,1.77,0,0,1-.44-2.41,1.68,1.68,0,0,1,2.37-.45A1.75,1.75,0,0,1,438.62,80.22Z"/></g><path class="cls-10" d="M570.55,114a.39.39,0,0,0,0-.17l-6.93-13.45-1.34-2.58-.42-.83.3-.18a1.94,1.94,0,0,0,1,.26,1.93,1.93,0,1,0-1.89-1.94,2.91,2.91,0,0,0,0,.3A12.36,12.36,0,0,1,555.6,97c-2.51.09-4.54-1.18-6.64-2.49a27.85,27.85,0,0,0-5.56-2.71c-.31-.11-.62-.22-.93-.31a4.13,4.13,0,0,0-1.82-2V70.43h-3.83V89.51a3.62,3.62,0,0,0-1,.8A3.75,3.75,0,0,0,535,91.5a27.2,27.2,0,0,0-6.5,3c-2.09,1.31-4.12,2.58-6.64,2.49a12,12,0,0,1-5.41-1.49c0-.12,0-.24,0-.38a1.92,1.92,0,0,0-1.9-1.92,2,2,0,0,0-1.06.31,1.94,1.94,0,0,0-.84,1.61,1.93,1.93,0,0,0,1.9,1.94,2,2,0,0,0,.84-.2c.13.06.25.14.37.21l-4,7.78-4.64,9a.72.72,0,0,0,0,.17h-1v1.62h1.29a9.63,9.63,0,0,0,18.08,0h1.29V114h-1a.29.29,0,0,0-.06-.17l-8.12-15.79A13.29,13.29,0,0,0,522,99.38a11.87,11.87,0,0,0,6.49-1.47,35.85,35.85,0,0,1,6.52-3,4.05,4.05,0,0,0,7.42,0,26.55,26.55,0,0,1,3.86,1.58c.93.46,1.83.94,2.66,1.41a12,12,0,0,0,6.51,1.47c.34,0,.7-.1,1-.16a15.4,15.4,0,0,0,3.54-1.28l-.46.9-1.4,2.73-2.59,5-.39.76-3.36,6.51a.61.61,0,0,0,0,.17h-.95v1.62h1.28a2.56,2.56,0,0,0,.11.24,9.63,9.63,0,0,0,5.48,5.41,9.26,9.26,0,0,0,3.46.66,9.66,9.66,0,0,0,9-6.31h1.29V114Zm-54.39,0H507.8l2.35-4.56,6-11.65Zm9,0H516.8V97.81Zm30.44-6,.4-.75,2.94-5.71,1.52-3,.4-.75V114H552.5Zm5.9,6V97.81l.15.28,1.31,2.54,6.9,13.39Z"/><path class="cls-11" d="M514.91,85.58A6.5,6.5,0,0,1,506.29,89l-28.8-12.79a6.7,6.7,0,0,1-3.39-8.77h0A6.51,6.51,0,0,1,482.72,64L511.53,76.8a6.71,6.71,0,0,1,3.38,8.78Z"/><path class="cls-11" d="M546.42,77.91a6.65,6.65,0,0,1-5.65,7.48l-31.15,4.13a6.57,6.57,0,0,1-7.35-5.75h0a6.65,6.65,0,0,1,5.65-7.47l31.16-4.13a6.56,6.56,0,0,1,7.34,5.74Z"/><path class="cls-12" d="M442.9,64.41a6.74,6.74,0,0,1,2.23,9.15L428.93,101a6.49,6.49,0,0,1-9,2.27h0a6.73,6.73,0,0,1-2.23-9.15l16.2-27.41a6.49,6.49,0,0,1,9-2.27Z"/><rect class="cls-13" x="444.03" y="113.09" width="34.21" height="5.9"/><polygon class="cls-14" points="486.68 164.43 480.47 201.61 438.76 201.61 436.82 189.28 436.06 184.56 434.76 176.24 434.76 176.22 433.56 168.57 433.93 164.08 435.01 150.81 435.92 139.75 436.37 134.22 444.02 118.63 478.24 118.63 483.87 131.66 486.68 164.43"/><polygon class="cls-15" points="448.26 185.89 453.09 198.09 443.76 189.14 405.75 134.61 411.77 130.38 448.26 185.89"/><polygon class="cls-11" points="418.08 126.3 400.01 138.96 398.36 136.52 416.44 123.85 418.08 126.3"/><polygon class="cls-16" points="409.57 128.67 404.96 131.9 393.23 114.53 397.83 111.3 409.57 128.67"/><path class="cls-12" d="M426.82,93.57a6.75,6.75,0,0,1,.37,9.42L405.9,126.51a6.47,6.47,0,0,1-9.25.39h0a6.75,6.75,0,0,1-.38-9.43L417.56,94a6.47,6.47,0,0,1,9.26-.38Z"/><path class="cls-14" d="M485.27,84.9l-2.34,18L480,112.25l-1.8,1.28H444l-4.54-3v-6.68l-4.2-15-3-23.76a27,27,0,0,1,4.46-4c.43.41.87.81,1.31,1.21,7,6.33,16,11.27,25.1,8.67a28.31,28.31,0,0,0,12.66-7.24c.62-.64,1.33-1.36,2-2.15a13.1,13.1,0,0,0,1.6-2.18c.44.25.94.43,1.34.62,1.47.74,2.91,1.48,4.38,2.21l-2.21,16.53Z"/><polygon class="cls-17" points="486.68 164.43 480.47 201.61 470.14 201.61 477.48 163.93 477.48 156.76 471.54 168.58 460.83 201.23 460.71 201.61 460.39 201.61 460.62 200.1 466.11 164.23 477.48 142.11 477.48 135.57 470.19 121.97 466.53 121.18 456.48 118.99 454.81 118.63 478.24 118.63 483.87 131.66 486.68 164.43"/><g class="cls-18"><path class="cls-19" d="M485.27,84.9l-2.35,18-2.9,9.38-1.79,1.28H472l-4.75-3,7.87-2.22.24-.07-.22-.07-12.07-4.36,13.64-3.49,3.14-.8,1.54-12.42L480,83.87l-1.8-4.13,6-18.06a.77.77,0,0,0,.16.07l.8.41-2.22,16.53Z"/></g><path class="cls-11" d="M477.82,61.51c-.67.79-1.38,1.51-2,2.15a28.31,28.31,0,0,1-12.66,7.24c-9.11,2.6-18.09-2.34-25.1-8.67A9.84,9.84,0,0,1,443.44,61c6.2,0,8-5.45,8.55-9.56.05-.45.09-.9.12-1.31,0-.24,0-.47,0-.69a9.83,9.83,0,0,0,13.13,0c.14,4,1.41,11.55,8.7,11.55A12.31,12.31,0,0,1,477.82,61.51Z"/><path class="cls-11" d="M471.34,38.16a20,20,0,0,1-.48,4.37c0,.14-.06.27-.08.39l-.21.75a14.3,14.3,0,0,1-.48,1.44,15.35,15.35,0,0,1-.91,2c-.11.21-.23.41-.35.63-.24.4-.5.8-.77,1.18-.13.19-.28.37-.42.56s-.29.35-.44.53-.29.35-.46.51-.3.31-.48.47a5,5,0,0,1-.49.44l-.07.07a10.48,10.48,0,0,1-14,0,14.14,14.14,0,0,1-2.49-2.77l-.35-.52a17.79,17.79,0,0,1-1.27-2.41c-.16-.4-.32-.8-.46-1.21l-.21-.66c-.07-.23-.13-.45-.19-.68s-.12-.44-.17-.68h0a19.71,19.71,0,0,1-.49-4.4c0-8.71,5.47-15.81,12.28-16h.72C465.87,22.35,471.34,29.45,471.34,38.16Z"/><rect class="cls-20" x="445.27" y="32.87" width="27.19" height="7.79"/><path class="cls-11" d="M470.86,42.56h0a16.32,16.32,0,0,1-5.14,8.93c0,.65.07,1.37.16,2.14h1.92l6-2.7,3.09-5.27L475.8,29,467,18.6l-4.33-.68-3.92,1.79v6.11l7,7.38,4.18,1.52Z"/><path class="cls-12" d="M446.56,42.56h0c.05.24.11.46.17.68s.12.45.19.68l.21.66c.14.41.3.81.46,1.21a17.79,17.79,0,0,0,1.27,2.41l.35.52a14.14,14.14,0,0,0,2.49,2.77c0,.24,0,.48,0,.74,0,.44-.07.91-.13,1.4h-1.92l-6-2.7-3.09-5.27L441.62,29l8.84-10.44,4.33-.68,3.92,1.79v6.11l-7,7.38-4.19,1.52Z"/><path class="cls-21" d="M477.82,61.51c-.56.67-1.12,1.26-1.64,1.79a48,48,0,0,1-12.45,1.5c-5.46-.14-11.72-1.42-16.37-4.77,3-1.69,4.18-5.34,4.58-8.34a10.33,10.33,0,0,0,13.52,0C466,55.76,467.91,61,474,61A12,12,0,0,1,477.82,61.51Z"/><path class="cls-22" d="M470.85,42.55v0s0,.08,0,.11a4.08,4.08,0,0,1-.16.6c-.05.2-.11.39-.16.59-.13.41-.27.83-.42,1.23a7.12,7.12,0,0,1-.31.76c0,.12-.11.25-.16.38s-.2.42-.31.61a3.87,3.87,0,0,1-.26.49V35.79L464.26,34,463,32.88,458.86,29l-3.65,3.88-1.8,1.91-4.72,1-.82,4.89-.51,3,1.29,4.16a20.19,20.19,0,0,1-1.07-2.07c-.16-.39-.31-.81-.45-1.21l-.21-.66c-.07-.22-.13-.44-.2-.68s-.11-.44-.16-.67h0l.24-1.9.74-6,4.17-1.52.31-.33,6.68-7.05,6.69,7.05.31.33,4.17,1.52.74,6Z"/><path class="cls-23" d="M475.82,29,467,18.6l-4.34-.68-3.91,1.79v.74h.08l5.07-.82,3.19.82,7,8.52,2.81,16.68Z"/><path class="cls-7" d="M453.88,18.06,453,23.83a14,14,0,0,0-5,5.69l-2.78,1.41L443.62,43.6l.87,6.27L447,52.43l-3.32-1.5-3.08-5.27L441.63,29l8.83-10.44Z"/><polygon class="cls-24" points="451.55 201.61 449.16 201.61 439.83 194.29 436.82 189.28 436.8 189.25 436.06 184.56 434.76 176.24 442.65 187.55 443.67 189 443.76 189.13 446.73 191.97 446.75 192 451.55 201.61"/><path class="cls-25" d="M463.39,70.8l-.23.07c-6.06,1.74-12.07.13-17.48-3a44,44,0,0,1-6.22-4.44c-.47-.41-.94-.81-1.4-1.23a7.49,7.49,0,0,1,2.23-.91l2.61,3.1.45.31,4.45,3,8.05,3.09Z"/><g class="cls-26"><rect class="cls-4" x="310.31" y="184.01" width="91.64" height="2.72"/><rect class="cls-4" x="308.53" y="145.82" width="95.53" height="2.34"/><path class="cls-4" d="M313.39,150.51v31.22h85.79V150.51Zm28.93,29.26H316.08V153.05h26.24Zm27.26,0H343.34V153.05h26.24Zm27.27,0H370.62V153.05h26.23Z"/><path class="cls-4" d="M318,155v22.91h22.5V155Zm20.42,20.64-9.17-8.08L320,175.59l8.16-9.22L320,157.14l9.17,8.06,9.17-8.06-8.15,9.23Z"/><path class="cls-4" d="M345,155v22.91h22.51V155Zm20.42,20.64-9.17-8.08-9.16,8.08,8.15-9.22-8.15-9.23,9.16,8.06,9.17-8.06-8.14,9.23Z"/><path class="cls-4" d="M372.49,155v22.91H395V155Zm20.42,20.64-9.17-8.08-9.18,8.08,8.16-9.22-8.16-9.23,9.18,8.06,9.17-8.06-8.15,9.23Z"/><path class="cls-4" d="M391.76,144.41H374.2c0-5.36-2.16-8.4-4.06-10l1.73-.69a1.48,1.48,0,0,0,.1.27l.67-.26h0l.77-1.63h.33v-1.14a8.24,8.24,0,0,1-2.61-4.72s0,0,0-.06a2.74,2.74,0,0,1-.85-1.77c-.16-1.11.13-2.08.67-2.3a7.78,7.78,0,0,1,.13-1.28,7.65,7.65,0,0,1,1.18-3.05,4.34,4.34,0,0,1,2-1.69,38.55,38.55,0,0,0,5.55,0,4.27,4.27,0,0,1,2,1.69,7.64,7.64,0,0,1,1.17,3.05,7.08,7.08,0,0,1,.14,1.23h.09c.61.14,1,1.17.78,2.34a2.35,2.35,0,0,1-1.12,1.92h-.08a8.3,8.3,0,0,1-2.44,4.51l0,0v1.23h.22l.79,1.63.92.34a1.72,1.72,0,0,0,.11-.29l4.32,1.64v0S391.76,137,391.76,144.41Z"/><path class="cls-4" d="M341.11,134.77l.42.15c-1.74,1.73-3.48,4.68-3.48,9.49v.05H320.84c0-2-.49-7,3.92-8.62h0l0,0h0l.58-.22,2.25-.85,1.46-.54a1.54,1.54,0,0,0,.1.24l2-.71v-1.89l.18-.09a.9.9,0,0,1-.18-.16v.25c-3,1.62-4.74-3-4.3-6.19a12.58,12.58,0,0,1,2.25-5.31c1.29-1.3,2-2.61,5-2.61a6.17,6.17,0,0,1,5.32,2.6,11,11,0,0,1,2,3.81,7.75,7.75,0,0,1,0,4.74c-.5,1.34-1.91,3.87-4,2.86v-.15a.48.48,0,0,1-.11.09l.11.06v2l2,.84c.05-.11.1-.22.14-.33Z"/><path class="cls-4" d="M372.33,144.41H339.92c0-8.14,5.65-10,5.65-10h0l.65-.26,4.07-1.61c0,.1.07.2.11.31l.75-.3h0l.86-1.8h.35V129.5a9.05,9.05,0,0,1-2.87-5.22s0,0,0-.06a3.08,3.08,0,0,1-1-2c-.19-1.31.21-2.46.9-2.59,0-.08,0-.41,0-.54a2.67,2.67,0,0,0-.29-.8,4.64,4.64,0,0,1-.58-1.45c0-.48.38-.93.61-1.31a7.74,7.74,0,0,1,6.43-3.89c2.1,0,5,.83,4.82,3.84a1.25,1.25,0,0,1,1.59-.09,2.32,2.32,0,0,1,.86,1.63,4.88,4.88,0,0,1-.17,2.61s0,0,.05,0h0c.68.15,1.07,1.3.87,2.59a2.58,2.58,0,0,1-1.24,2.11h-.09a9.07,9.07,0,0,1-2.7,5s0,0,0,0v1.36h.26l.86,1.8,1,.37a2.15,2.15,0,0,0,.13-.32l4.79,1.82v0S372.33,136.27,372.33,144.41Z"/></g><path class="cls-27" d="M583.26,160.9l-9.55-16.76A4.58,4.58,0,0,0,576,140.2a4.45,4.45,0,1,0-8.9,0,4.59,4.59,0,0,0,2.25,3.94L559.8,160.9H540.54a4.45,4.45,0,1,0-2.2,3.89l9.62,17-9.62,16.94a4.53,4.53,0,0,0-2.24-.59,4.45,4.45,0,0,0-4.3,3.5h62.26V160.9Zm-11.75,39.9a19,19,0,1,1,18.71-19A18.88,18.88,0,0,1,571.51,200.8Z"/><g class="cls-28"><path class="cls-6" d="M583.49,26.12l3,6.89-5.09-1.78-7.5-2.63a15,15,0,0,0,2.13-1.33l.14-.1,1.65-1.59.06-.07.1-.13A9.53,9.53,0,0,0,579.33,23c.09-.26.17-.49.24-.72l3.36-2.23L590,22.55Z"/><polygon class="cls-6" points="584.07 35.41 576.77 34.09 574.95 41.39 569.46 32.7 572.36 29.49 582.63 33.14 584.07 35.41"/><path class="cls-6" d="M594.06,0V9.72l-16.61,11a8.78,8.78,0,0,1-.4,1.42,6.67,6.67,0,0,1-.93,1.64l-1.47,1.42a8.12,8.12,0,0,1-3.23,1.64h0a7.11,7.11,0,0,0-1.85-6.58A13.62,13.62,0,0,0,562,16.16c4.75,1.62,8,6.34,8.08,12.2L547.91,52.93a1.27,1.27,0,0,1-.07.12c-1.78,1.91-3,3.6-5.61,4.47a13,13,0,0,1-7.09.61c-2.82-.7-5.57-2.23-6.84-5-.79-1.78-2.08-4.54-1.11-6.52a4,4,0,0,1,1.26-1.42l-.08,0,4.17-3.33,2.07-1.66c2.47-.84,8.53,2.52,9.1,4.4l-3.1,3-2.88,2.81h0a2.33,2.33,0,0,1-1.81.39c2.74-4.1-6.22-8-7-4.31-.72,3.28,1.53,7.77,4.28,9.39a10.16,10.16,0,0,0,7.64,1.44c3.29-.86,5.42-3.37,7-6.52a10.37,10.37,0,0,0,.13-1.56c0-7.91-10.08-13.18-17.94-12.81h0c-5.73,1.17-8.08,7.25-7,10.29.25.71-1.91.86-1.91.12,0-3.5.82-6.59,3.22-8.77l2.14-1.46,28-19.27-.24.14,5-5.44.48-.47,0,0A7.71,7.71,0,0,1,564,10.05c4.17-.33,9.32,1.6,11.92,4.91-2.28-3.47-6.11-6.3-10.17-6.79L573.27,0Z"/></g></g></g></g></svg>