<svg xmlns="http://www.w3.org/2000/svg" viewBox="0 0 609.93 390.65"><defs><style>.cls-1{fill:#d3ebfa;}.cls-1,.cls-10,.cls-11,.cls-14,.cls-15,.cls-16,.cls-17,.cls-18,.cls-19,.cls-2,.cls-20,.cls-21,.cls-22,.cls-23,.cls-24,.cls-25,.cls-26,.cls-27,.cls-28,.cls-29,.cls-3,.cls-30,.cls-39,.cls-4,.cls-40,.cls-41,.cls-42,.cls-5,.cls-6,.cls-7,.cls-9{fill-rule:evenodd;}.cls-2{fill:#99c8ec;}.cls-3{fill:#89bbe6;}.cls-4{fill:#b6daf4;}.cls-5{fill:#170839;}.cls-6{fill:#e84a5b;}.cls-31,.cls-7{fill:#f9b532;}.cls-10,.cls-8{fill:#fff;}.cls-9{fill:#fcc749;}.cls-11,.cls-12{fill:#efeef8;}.cls-13,.cls-14{fill:#80bbe7;}.cls-15{fill:#e98daf;}.cls-16{fill:#f3c6d4;}.cls-17{fill:#0e0226;}.cls-18{fill:#1a0f44;}.cls-19{fill:#1b7fc2;}.cls-20{fill:#428fcd;}.cls-21{fill:#221758;}.cls-22{fill:#22134f;}.cls-23{fill:#201049;}.cls-24{fill:#22185a;}.cls-25{fill:#ed7792;}.cls-26{fill:#0065aa;}.cls-27{fill:#674f9b;}.cls-28{fill:#3388c9;}.cls-29{fill:#f2bbc9;}.cls-30{fill:#3889c9;}.cls-32,.cls-39{fill:#f59f3a;}.cls-33,.cls-40{fill:#fff2d1;}.cls-34{fill:#f18d3d;}.cls-35{fill:#ee7e40;}.cls-36{fill:#f2bcc2;}.cls-37{fill:#f2b2a5;}.cls-38{fill:#f39a4c;}.cls-41{fill:#d8364b;}.cls-42{fill:#28256c;}</style></defs><g id="Layer_2" data-name="Layer 2"><g id="OBJECTS"><path class="cls-1" d="M165.92,8.94H266.68A13.34,13.34,0,0,1,280,22.25v93.86a1.48,1.48,0,0,1-2.53,1L254.77,94.49H165.92a13.35,13.35,0,0,1-13.3-13.31V22.25A13.35,13.35,0,0,1,165.92,8.94Z"/><path class="cls-1" d="M72.88,362.59s-49.47-59,8.24-110.07c0,0-51.82-57.74-18.84-123.26s96.57-60,147.21-46.63,116.6,6.66,167.24-45.53S486.26-4,508.64,20.44s28.26,74.4,3.53,124.37-10.6,82.17,10.6,106.6,23.55,92.43-27.09,111.18Zm14.89,20.89s-52.85-31.8-40-86.72c0,0,.37-1.41-.85-1.63s-27.5,42,9.2,80.69Z"/><path class="cls-2" d="M367.78,234.45c61-5.75,49.6,57.25,10.29,97-7.2,7.28-18.69,17.24-32.83,29H222.85C270.2,294,325.91,238.39,367.78,234.45Z"/><path class="cls-3" d="M269,360.44c60-59.73,114.38-99.27,114.72-99.51a2.46,2.46,0,0,1,2.91,4c-.33.24-52.41,38.11-110.69,95.54Z"/><path class="cls-2" d="M325.69,90.9c25-7.88,25.91,19.54,13,39.7-12.23,19.12-65.94,78.48-78.1,109L254,236.1C257.57,190.55,293.65,101,325.69,90.9Z"/><path class="cls-3" d="M256.43,237.39c15.34-66.62,78.1-136.58,78.31-136.82a1,1,0,0,1,1.49-.09,1.07,1.07,0,0,1,.09,1.49c-.22.24-63.05,70.28-78,136.44Z"/><path class="cls-4" d="M339.59,132.26c24.8-3.15,21,22.71,5.49,39.43-12.86,13.87-60.64,51.19-83.54,78.12l-10.51-4C266.37,202.48,310.32,136,339.59,132.26Z"/><path class="cls-2" d="M254.87,247.29c28.79-55.61,91.35-104.26,91.58-104.44a1,1,0,0,1,1.24,1.59c-.23.17-62.38,48.51-90.95,103.56Z"/><path class="cls-5" d="M21.42,360.44H584.27a6.74,6.74,0,0,1,6.71,6.72h0a6.73,6.73,0,0,1-6.71,6.71H561.62a3.74,3.74,0,0,0-3.73,3.73h0a3.74,3.74,0,0,0,3.73,3.73h8.29a4.68,4.68,0,0,1,4.66,4.66h0a4.68,4.68,0,0,1-4.66,4.66H36.53A4.67,4.67,0,0,1,31.86,386h0a4.68,4.68,0,0,1,4.67-4.66h6.52a3.74,3.74,0,0,0,3.73-3.73h0a3.74,3.74,0,0,0-3.73-3.73H21.42a6.73,6.73,0,0,1-6.71-6.71h0a6.74,6.74,0,0,1,6.71-6.72Zm3.5,30.21a4.48,4.48,0,0,0,4.47-4.47v-.38a4.48,4.48,0,0,0-4.47-4.47h0a4.49,4.49,0,0,0-4.48,4.47v.38a4.49,4.49,0,0,0,4.48,4.47Z"/><path class="cls-1" d="M535.11,188.44a10.57,10.57,0,1,1-3.1,7.48,10.54,10.54,0,0,1,3.1-7.48ZM537.4,178a18.2,18.2,0,0,0-4.15,1.77,18.67,18.67,0,0,0-3.64,2.74.65.65,0,0,1-.77.09l-4.92-2.84h0a1.23,1.23,0,0,0-1.63.46l0,0-3.46,6a1.22,1.22,0,0,0,.44,1.66l0,0,4.87,2.82a.64.64,0,0,1,.31.72h0a17.91,17.91,0,0,0-.41,2.23,19.12,19.12,0,0,0-.14,2.28,18.86,18.86,0,0,0,.14,2.28,18.42,18.42,0,0,0,.41,2.24.63.63,0,0,1-.34.73L519.22,204h0a1.23,1.23,0,0,0-.44,1.67l3.48,6h0a1.18,1.18,0,0,0,.74.57,1.2,1.2,0,0,0,.92-.12l0,0,4.88-2.82a.65.65,0,0,1,.77.09,19.13,19.13,0,0,0,3.64,2.75,18.43,18.43,0,0,0,4.18,1.77.65.65,0,0,1,.47.62v5.68a1.23,1.23,0,0,0,.36.86,1.21,1.21,0,0,0,.86.36h7a1.24,1.24,0,0,0,.86-.36,1.22,1.22,0,0,0,.35-.86v-5.68a.66.66,0,0,1,.5-.63,18.49,18.49,0,0,0,7.79-4.51.66.66,0,0,1,.81-.07l4.88,2.82a1.2,1.2,0,0,0,.92.12,1.22,1.22,0,0,0,.75-.57l0,0,3.46-6h0a1.19,1.19,0,0,0,.11-.92A1.21,1.21,0,0,0,566,204l-4.91-2.84a.64.64,0,0,1-.31-.71h0a18.07,18.07,0,0,0,.41-2.24,18.86,18.86,0,0,0,.14-2.28,19.12,19.12,0,0,0-.14-2.28,17.91,17.91,0,0,0-.41-2.23.66.66,0,0,1,.34-.74l4.88-2.82a1.16,1.16,0,0,0,.56-.74,1.19,1.19,0,0,0-.11-.92l0,0-3.46-6h0a1.21,1.21,0,0,0-.75-.56,1.19,1.19,0,0,0-.92.11h0l-4.92,2.84a.63.63,0,0,1-.78-.1,18.65,18.65,0,0,0-3.63-2.73,19,19,0,0,0-4.17-1.78.65.65,0,0,1-.48-.62v-5.68a1.21,1.21,0,0,0-1.21-1.21h-7a1.17,1.17,0,0,0-.86.36,1.2,1.2,0,0,0-.36.85v5.68A.65.65,0,0,1,537.4,178Z"/><path class="cls-1" d="M564,104.64A15.71,15.71,0,0,1,575.15,100a15.64,15.64,0,0,1,6,1.19A15.74,15.74,0,1,1,564,104.64Zm5.67-2.07a14.26,14.26,0,0,0-4.63,23.3A14.29,14.29,0,0,0,580.61,129a14.29,14.29,0,0,0-10.93-26.41ZM567.94,91a27.05,27.05,0,0,0-2.9,1,25.89,25.89,0,0,0-2.79,1.39,25.32,25.32,0,0,0-2.62,1.74,24.92,24.92,0,0,0-2.4,2,1.67,1.67,0,0,1-.94.44,1.56,1.56,0,0,1-1-.21c-2.31-1.33-4.74-2.65-7-4a1,1,0,0,0-.34-.11,1.2,1.2,0,0,0-.38,0,1.22,1.22,0,0,0-.36.18.89.89,0,0,0-.25.29c-1.69,2.55-3.38,5.84-4.94,8.54a.85.85,0,0,0-.12.37.92.92,0,0,0,0,.4,1,1,0,0,0,.17.35.79.79,0,0,0,.29.25c2.08,1.38,4.76,2.76,7,4a1.6,1.6,0,0,1,.7.78,1.33,1.33,0,0,1,.1.34l.15,0-.17.65q-.18.76-.33,1.53c-.09.49-.16,1-.23,1.55s-.11,1-.14,1.57,0,1,0,1.58,0,1.08,0,1.58.07,1,.14,1.57.14,1.06.23,1.55.21,1,.33,1.53a1.62,1.62,0,0,1-.1,1.09,1.6,1.6,0,0,1-.75.77l-6.16,3.57h0l-.73.42a.89.89,0,0,0-.29.25,1,1,0,0,0-.17.36.91.91,0,0,0,0,.4.85.85,0,0,0,.12.36l4.57,7.91h0l.37.64a.94.94,0,0,0,.61.46.86.86,0,0,0,.39,0,.9.9,0,0,0,.36-.12c2.21-1.39,4.71-2.71,7-4a1.6,1.6,0,0,1,1-.21,1.66,1.66,0,0,1,1,.45h0a24.92,24.92,0,0,0,2.4,2.05,25.88,25.88,0,0,0,5.43,3.13,24,24,0,0,0,3,1.05,1.66,1.66,0,0,1,1.2,1.59v8a.92.92,0,0,0,.08.38,1,1,0,0,0,.21.33,1.19,1.19,0,0,0,.33.22.92.92,0,0,0,.38.07h9.87a.92.92,0,0,0,.38-.07,1,1,0,0,0,.55-.55,1.12,1.12,0,0,0,.07-.38v-8a1.59,1.59,0,0,1,.36-1,1.69,1.69,0,0,1,.91-.59,25.66,25.66,0,0,0,2.9-1,26,26,0,0,0,2.79-1.4,23.8,23.8,0,0,0,2.62-1.74,23.49,23.49,0,0,0,2.4-2,1.61,1.61,0,0,1,1-.45,1.59,1.59,0,0,1,1.06.26l6.89,4a1,1,0,0,0,.37.12.86.86,0,0,0,.39,0,.94.94,0,0,0,.61-.46c1.64-2.86,3.3-5.7,4.94-8.55a.85.85,0,0,0,.12-.37.86.86,0,0,0,0-.39,1,1,0,0,0-.17-.36.84.84,0,0,0-.28-.25l-7-4a1.69,1.69,0,0,1-.7-.78,2.76,2.76,0,0,1-.08-.27l-.19,0,.19-.74q.18-.77.33-1.53c.09-.49.17-1,.23-1.55s.11-1,.14-1.57.05-1,.05-1.58,0-1.08-.05-1.58-.07-1-.14-1.57-.14-1.06-.23-1.55-.21-1-.33-1.53a1.63,1.63,0,0,1,.84-1.86l6.9-4a1,1,0,0,0,.46-.6.92.92,0,0,0,0-.4.77.77,0,0,0-.12-.36c-1.68-2.51-3.37-5.86-4.94-8.55a.79.79,0,0,0-.25-.29,1.22,1.22,0,0,0-.36-.18,1.29,1.29,0,0,0-.39,0,1,1,0,0,0-.37.13l-7,4a1.64,1.64,0,0,1-1,.21,1.71,1.71,0,0,1-.94-.46,25.74,25.74,0,0,0-2.39-2A27.44,27.44,0,0,0,588,93.41a25.36,25.36,0,0,0-2.81-1.4,27.79,27.79,0,0,0-3-1.05,1.56,1.56,0,0,1-.86-.59,1.6,1.6,0,0,1-.34-1v-8A1.17,1.17,0,0,0,581,81a1,1,0,0,0-.22-.32,1,1,0,0,0-.33-.22.92.92,0,0,0-.38-.08h-9.87a.92.92,0,0,0-.38.08,1.15,1.15,0,0,0-.33.21,1,1,0,0,0-.29.71v8a1.63,1.63,0,0,1-1.27,1.6Zm-3.47-.3a26.15,26.15,0,0,0-3,1.47,27.66,27.66,0,0,0-5.3,4,.22.22,0,0,1-.11,0,.25.25,0,0,1-.12,0l-7-4.07a2.5,2.5,0,0,0-2.67.22,2.31,2.31,0,0,0-.63.72c-1.7,2.75-3.31,5.73-4.94,8.55a2.44,2.44,0,0,0-.3.91,2.33,2.33,0,0,0,.06.95,2.38,2.38,0,0,0,.42.86,2.31,2.31,0,0,0,.72.63c2.24,1.39,4.68,2.7,7,4a.18.18,0,0,1,.08.09.17.17,0,0,1,0,.12l-.16.65h0c-.07.32-.14.64-.2,1-.1.56-.18,1.1-.25,1.64s-.11,1.09-.15,1.65,0,1.13,0,1.67,0,1.1,0,1.67.09,1.12.15,1.65.15,1.09.25,1.65.22,1.09.35,1.61a.19.19,0,0,1,0,.13.2.2,0,0,1-.09.09c-2.56,1.37-5.16,3-7.69,4.44l.09.11-.08.1a2.46,2.46,0,0,0-.48,1.82,2.57,2.57,0,0,0,.3.91l5.31,9.19.1-.06.16.14a2.46,2.46,0,0,0,1.82.48,2.4,2.4,0,0,0,.88-.29c2.32-1.23,4.71-2.72,7-4a.17.17,0,0,1,.12,0,.16.16,0,0,1,.11.05,28.84,28.84,0,0,0,2.53,2.16,27.06,27.06,0,0,0,2.77,1.83,27.38,27.38,0,0,0,3,1.48,26.28,26.28,0,0,0,3.12,1.11.18.18,0,0,1,.1.07.19.19,0,0,1,0,.12v8a2.47,2.47,0,0,0,.19.94,2.57,2.57,0,0,0,.54.8,2.39,2.39,0,0,0,.79.53,2.47,2.47,0,0,0,.94.19h9.87a2.47,2.47,0,0,0,.94-.19,2.54,2.54,0,0,0,.8-.53,2.72,2.72,0,0,0,.53-.8,2.47,2.47,0,0,0,.19-.94v-8a.16.16,0,0,1,0-.12.14.14,0,0,1,.11-.07h0a27.68,27.68,0,0,0,3.1-1.1,28,28,0,0,0,2.95-1.48,27.06,27.06,0,0,0,2.77-1.83,28.84,28.84,0,0,0,2.53-2.16.3.3,0,0,1,.11-.06.28.28,0,0,1,.13,0l7,4a2.52,2.52,0,0,0,.9.3,2.46,2.46,0,0,0,1.82-.48,2.6,2.6,0,0,0,.62-.7c1.83-3,3.56-6.17,5.31-9.19l-.1-.06a2.23,2.23,0,0,0,0-.23,2.46,2.46,0,0,0-.48-1.82,2.44,2.44,0,0,0-.72-.63l-7-4a.23.23,0,0,1-.08-.09.2.2,0,0,1,0-.13l.18-.74h0l.18-.87c.1-.56.18-1.11.25-1.65s.11-1.08.15-1.65,0-1.13,0-1.67,0-1.1,0-1.66-.09-1.12-.15-1.66-.15-1.08-.25-1.65-.22-1.09-.35-1.61a.19.19,0,0,1,.1-.22l7-4a2.31,2.31,0,0,0,.72-.63,2.38,2.38,0,0,0,.42-.86,2.33,2.33,0,0,0,.06-.95,2.22,2.22,0,0,0-.29-.89c-1.66-3.07-3.56-6.17-5.32-9.21l-.1.06a1.07,1.07,0,0,0-.16-.14,2.53,2.53,0,0,0-1.82-.49,2.46,2.46,0,0,0-.9.3l-.52.3h0l-6.47,3.74a.17.17,0,0,1-.12,0,.22.22,0,0,1-.11,0l0,0A28.85,28.85,0,0,0,591.53,94a26.93,26.93,0,0,0-5.73-3.31,28.18,28.18,0,0,0-3.12-1.11.17.17,0,0,1-.1-.06.19.19,0,0,1,0-.12v-8a2.47,2.47,0,0,0-.19-.94A2.59,2.59,0,0,0,581,79.06a2.47,2.47,0,0,0-.94-.19h-9.87a2.47,2.47,0,0,0-.94.19,2.57,2.57,0,0,0-.8.54,2.44,2.44,0,0,0-.72,1.73v8a.17.17,0,0,1,0,.12.18.18,0,0,1-.11.07h0A27.68,27.68,0,0,0,564.47,90.68Z"/><path class="cls-6" d="M172.66,3.81H273.41a13.35,13.35,0,0,1,13.31,13.31V111a1.49,1.49,0,0,1-2.54,1L261.51,89.35H172.66a13.34,13.34,0,0,1-13.31-13.3V17.12A13.35,13.35,0,0,1,172.66,3.81Z"/><path class="cls-7" d="M183.27,72.54h52.27a4.34,4.34,0,0,0,4.33-4.33V28.53a4.34,4.34,0,0,0-4.33-4.33h-2.13v-2A1.19,1.19,0,0,0,232.22,21H216.43a1.19,1.19,0,0,0-1.19,1.19v2h-32a4.34,4.34,0,0,0-4.33,4.33V68.21A4.34,4.34,0,0,0,183.27,72.54Z"/><rect class="cls-8" x="183.19" y="31.78" width="40.08" height="40.76" rx="3.53"/><path class="cls-9" d="M188.48,72.54h48.26A7.61,7.61,0,0,0,243,68.21l15.21-34.14c1.06-2.39,0-4.33-2.4-4.33h-2.54l1-2.15c.38-.87,0-1.58-.88-1.58H235.74a2.79,2.79,0,0,0-2.29,1.58l-.95,2.15H207.55a7.61,7.61,0,0,0-6.26,4.33L186.08,68.21C185,70.6,186.1,72.54,188.48,72.54Z"/><path class="cls-5" d="M213,39.89A16.83,16.83,0,1,1,208,51.78,16.77,16.77,0,0,1,213,39.89Zm11.89-2.51A14.41,14.41,0,1,0,235,41.6,14.35,14.35,0,0,0,224.85,37.38Z"/><path class="cls-5" d="M235,63.67a1.2,1.2,0,0,1,0-1.7,1.21,1.21,0,0,1,1.71,0l4,4a1.2,1.2,0,0,1,0,1.7,1.21,1.21,0,0,1-1.71,0Z"/><path class="cls-5" d="M239.18,69.51a2.4,2.4,0,1,1,3.4-3.4L255.4,78.93a2.41,2.41,0,0,1-3.4,3.41Z"/><path class="cls-10" d="M233.16,43.47a.79.79,0,1,1,1.12-1.12,13.28,13.28,0,0,1,3.9,9.43h0a13.72,13.72,0,0,1-.52,3.7.8.8,0,0,1-1.53-.44,12,12,0,0,0,.46-3.26h0a11.7,11.7,0,0,0-3.44-8.31Zm1.58,14.66a.79.79,0,1,1,1.33.86c-.25.39-.53.78-.83,1.16s-.63.73-1,1.06a.79.79,0,1,1-1.12-1.12,10.31,10.31,0,0,0,.84-.94,12,12,0,0,0,.74-1Zm-18.2,2a.79.79,0,1,1-1.12,1.12,13.07,13.07,0,0,1-2.89-4.32,13.28,13.28,0,0,1-1-5.11,13.52,13.52,0,0,1,.23-2.44A13,13,0,0,1,212.4,47a.79.79,0,1,1,1.48.56,11.46,11.46,0,0,0-.58,2.08,11.68,11.68,0,0,0,3.24,10.46Zm-1.23-15.17A.8.8,0,0,1,214,44c.22-.29.44-.58.67-.85l0,0c.24-.28.48-.53.7-.75a.79.79,0,1,1,1.12,1.12c-.23.24-.44.46-.61.66l0,0C215.68,44.42,215.49,44.67,215.31,44.92Z"/><path class="cls-11" d="M233.71,14.71h38a.87.87,0,0,1,.88.88h0a.88.88,0,0,1-.88.88h-38a.89.89,0,0,1-.88-.88h0A.88.88,0,0,1,233.71,14.71Z"/><path class="cls-11" d="M233.71,20.24h38a.87.87,0,0,1,.88.88h0a.88.88,0,0,1-.88.88h-38a.89.89,0,0,1-.88-.88h0A.88.88,0,0,1,233.71,20.24Z"/><path class="cls-11" d="M264.54,26.33h7.17a.88.88,0,0,1,.88.88h0a.87.87,0,0,1-.88.88h-7.17a.87.87,0,0,1-.88-.88h0A.88.88,0,0,1,264.54,26.33Z"/><path class="cls-11" d="M264.54,32.58h7.17a.88.88,0,0,1,.88.88h0a.88.88,0,0,1-.88.89h-7.17a.88.88,0,0,1-.88-.89h0A.88.88,0,0,1,264.54,32.58Z"/><path class="cls-11" d="M264.54,38.83h7.17a.88.88,0,0,1,.88.89h0a.88.88,0,0,1-.88.88h-7.17a.88.88,0,0,1-.88-.88h0A.88.88,0,0,1,264.54,38.83Z"/><path class="cls-11" d="M264.54,45.09h7.17a.87.87,0,0,1,.88.88h0a.88.88,0,0,1-.88.88h-7.17a.88.88,0,0,1-.88-.88h0A.87.87,0,0,1,264.54,45.09Z"/><path class="cls-11" d="M264.54,51.34h7.17a.88.88,0,0,1,.88.88h0a.87.87,0,0,1-.88.88h-7.17a.87.87,0,0,1-.88-.88h0A.88.88,0,0,1,264.54,51.34Z"/><path class="cls-11" d="M264.54,57.59h7.17a.88.88,0,0,1,.88.88h0a.88.88,0,0,1-.88.89h-7.17a.88.88,0,0,1-.88-.89h0A.88.88,0,0,1,264.54,57.59Z"/><rect class="cls-12" x="252.63" y="63.85" width="19.96" height="1.76" rx="0.88"/><path class="cls-11" d="M255.32,57.59h5.37a.89.89,0,0,1,.88.88h0a.89.89,0,0,1-.88.89h-5.37a.88.88,0,0,1-.88-.89h0A.88.88,0,0,1,255.32,57.59Z"/><path class="cls-11" d="M257.72,51.34h2.71a.89.89,0,0,1,.88.88h0a.88.88,0,0,1-.88.88h-2.71a.88.88,0,0,1-.88-.88h0A.89.89,0,0,1,257.72,51.34Z"/><path class="cls-11" d="M259.61,45.09h2a.87.87,0,0,1,.88.88h0a.88.88,0,0,1-.88.88h-2a.88.88,0,0,1-.88-.88h0A.87.87,0,0,1,259.61,45.09Z"/><rect class="cls-13" x="183.61" y="112.74" width="7.08" height="7.08" rx="1.42"/><rect class="cls-8" x="198.13" y="112.74" width="7.08" height="7.08" rx="1.42"/><rect class="cls-13" x="212.65" y="112.74" width="7.08" height="7.08" rx="1.42"/><path class="cls-13" d="M228.59,112.74h4.25a1.41,1.41,0,0,1,1.41,1.41v4.25a1.42,1.42,0,0,1-1.42,1.42h-4.25a1.42,1.42,0,0,1-1.42-1.42v-4.25A1.42,1.42,0,0,1,228.59,112.74Z"/><path class="cls-14" d="M72.57,50.24c-.53,0-1-.63-1-1.39s.44-1.39,1-1.39h45.51c.53,0,1,.62,1,1.39s-.44,1.39-1,1.39Zm-6.16-2.78c.53,0,1,.62,1,1.39s-.44,1.39-1,1.39H62.62c-.54,0-1-.63-1-1.39s.43-1.39,1-1.39Z"/><path class="cls-14" d="M127,102.45a.59.59,0,1,1,1.17,0v2.64a.59.59,0,1,1-1.17,0v-2.64Zm-4,2.14a.59.59,0,0,1,.83-.83l1.86,1.87a.59.59,0,0,1-.83.83L123,104.59Zm-1.31,4.35a.59.59,0,1,1,0-1.18h2.64a.59.59,0,0,1,0,1.18Zm2.14,4a.59.59,0,1,1-.83-.83l1.86-1.87a.59.59,0,0,1,.83.83l-1.86,1.87Zm4.34,1.31a.59.59,0,1,1-1.17,0v-2.64a.59.59,0,1,1,1.17,0v2.64Zm4-2.14a.59.59,0,1,1-.83.83l-1.86-1.87a.59.59,0,0,1,.83-.83l1.86,1.87Zm1.31-4.35a.59.59,0,0,1,0,1.18H130.8a.59.59,0,0,1,0-1.18Zm-2.14-4a.59.59,0,0,1,.83.83l-1.86,1.87a.59.59,0,0,1-.83-.83Z"/><path class="cls-14" d="M472.52,32a.59.59,0,1,1,1.17,0v2.63a.59.59,0,1,1-1.17,0V32Zm-4,2.14a.59.59,0,0,1,.83-.83l1.87,1.86a.59.59,0,0,1-.83.83l-1.87-1.86Zm-1.31,4.34a.59.59,0,1,1,0-1.17h2.64a.59.59,0,0,1,0,1.17Zm2.14,4a.59.59,0,0,1-.83-.83l1.87-1.87a.6.6,0,0,1,.83,0,.6.6,0,0,1,0,.84l-1.87,1.86Zm4.34,1.31a.59.59,0,1,1-1.17,0V41.15a.59.59,0,0,1,1.17,0v2.64Zm4-2.14a.59.59,0,0,1-.83.83L475,40.62a.6.6,0,0,1,0-.84.6.6,0,0,1,.83,0l1.86,1.87ZM479,37.31a.59.59,0,0,1,0,1.17h-2.64a.59.59,0,1,1,0-1.17Zm-2.15-4a.59.59,0,0,1,.83.83L475.83,36a.59.59,0,1,1-.83-.83Z"/><path class="cls-14" d="M517.41,300.06a.59.59,0,0,1,.59-.59.6.6,0,0,1,.59.59v2.64a.6.6,0,0,1-.59.59.59.59,0,0,1-.59-.59v-2.64Zm-4,2.14a.59.59,0,0,1,.83-.83l1.87,1.87a.59.59,0,0,1-.83.83l-1.87-1.87Zm-1.31,4.35a.59.59,0,0,1,0-1.18h2.64a.59.59,0,0,1,0,1.18Zm2.14,4a.6.6,0,0,1-.83,0,.59.59,0,0,1,0-.83l1.87-1.87a.59.59,0,0,1,.83.83l-1.87,1.87Zm4.35,1.31a.6.6,0,0,1-.59.59.59.59,0,0,1-.59-.59v-2.64a.59.59,0,0,1,.59-.59.6.6,0,0,1,.59.59v2.64Zm4-2.14a.59.59,0,0,1,0,.83.6.6,0,0,1-.83,0l-1.86-1.87a.59.59,0,0,1,.83-.83l1.86,1.87Zm1.32-4.35a.59.59,0,0,1,0,1.18h-2.64a.59.59,0,0,1,0-1.18Zm-2.15-4a.59.59,0,0,1,.83.83l-1.86,1.87a.59.59,0,0,1-.83-.83Z"/><path class="cls-14" d="M13.33,206.86a.59.59,0,0,1,1.17,0v2.64a.59.59,0,1,1-1.17,0v-2.64Zm-4,2.15a.59.59,0,0,1,.83-.83L12,210a.59.59,0,0,1-.83.83L9.33,209ZM8,213.35a.59.59,0,0,1,0-1.17h2.64a.59.59,0,1,1,0,1.17Zm2.15,4a.59.59,0,0,1-.83-.83l1.86-1.87a.59.59,0,1,1,.83.83l-1.86,1.87Zm4.34,1.31a.59.59,0,1,1-1.17,0V216a.59.59,0,1,1,1.17,0v2.64Zm4-2.14a.59.59,0,0,1-.83.83l-1.87-1.87a.59.59,0,0,1,.83-.83l1.87,1.87Zm1.31-4.34a.59.59,0,1,1,0,1.17H17.17a.59.59,0,0,1,0-1.17Zm-2.14-4a.59.59,0,1,1,.83.83l-1.87,1.86a.59.59,0,0,1-.83-.83Z"/><path class="cls-14" d="M592.32,262.17a.59.59,0,1,1,1.17,0v2.64a.59.59,0,1,1-1.17,0v-2.64Zm-4,2.14a.59.59,0,1,1,.83-.83l1.86,1.87a.59.59,0,1,1-.83.83l-1.86-1.87ZM587,268.66a.59.59,0,0,1-.58-.59.58.58,0,0,1,.58-.59h2.64a.58.58,0,0,1,.59.59.59.59,0,0,1-.59.59Zm2.15,4a.6.6,0,0,1-.83,0,.59.59,0,0,1,0-.83l1.86-1.87a.59.59,0,1,1,.83.83l-1.86,1.87Zm4.34,1.31a.59.59,0,1,1-1.17,0v-2.64a.59.59,0,1,1,1.17,0V274Zm4-2.14a.59.59,0,0,1,0,.83.6.6,0,0,1-.83,0l-1.87-1.87a.59.59,0,1,1,.83-.83l1.87,1.87Zm1.31-4.35a.58.58,0,0,1,.59.59.59.59,0,0,1-.59.59h-2.64a.59.59,0,0,1-.58-.59.58.58,0,0,1,.58-.59Zm-2.14-4a.59.59,0,1,1,.83.83l-1.87,1.87a.59.59,0,1,1-.83-.83Z"/><path class="cls-13" d="M553.55,33.22h4.25a1.41,1.41,0,0,1,1.41,1.41v4.25a1.42,1.42,0,0,1-1.42,1.42h-4.25a1.42,1.42,0,0,1-1.42-1.42V34.63A1.42,1.42,0,0,1,553.55,33.22Z"/><path class="cls-8" d="M568.07,33.22h4.25a1.41,1.41,0,0,1,1.41,1.41v4.25a1.42,1.42,0,0,1-1.42,1.42h-4.25a1.42,1.42,0,0,1-1.42-1.42V34.63A1.42,1.42,0,0,1,568.07,33.22Z"/><rect class="cls-13" x="581.18" y="33.22" width="7.08" height="7.08" rx="1.42"/><rect class="cls-13" x="595.7" y="33.22" width="7.08" height="7.08" rx="1.42"/><path class="cls-1" d="M16.5,76.09a10.59,10.59,0,1,1-3.1,7.49,10.55,10.55,0,0,1,3.1-7.49Zm2.28-10.48a18.29,18.29,0,0,0-4.14,1.76A18.87,18.87,0,0,0,11,70.11a.65.65,0,0,1-.78.1L5.3,67.37l0,0a1.23,1.23,0,0,0-1.64.47l0,0-3.46,6a1.22,1.22,0,0,0-.12.93,1.23,1.23,0,0,0,.57.74l0,0,4.88,2.81a.66.66,0,0,1,.3.72h0a18.07,18.07,0,0,0-.41,2.24,17,17,0,0,0-.14,2.28,17.23,17.23,0,0,0,.14,2.28,17.91,17.91,0,0,0,.41,2.23.66.66,0,0,1-.35.74L.61,91.64h0a1.18,1.18,0,0,0-.57.74,1.2,1.2,0,0,0,.12.92l3.48,6h0a1.21,1.21,0,0,0,.74.56,1.19,1.19,0,0,0,.92-.12h0L10.22,97A.66.66,0,0,1,11,97a18.47,18.47,0,0,0,3.64,2.74,18.84,18.84,0,0,0,4.17,1.78.64.64,0,0,1,.47.62v5.67a1.21,1.21,0,0,0,.36.86,1.23,1.23,0,0,0,.86.36h7a1.23,1.23,0,0,0,.86-.36,1.21,1.21,0,0,0,.36-.86v-5.67a.64.64,0,0,1,.5-.63,18.78,18.78,0,0,0,4.14-1.77A18.47,18.47,0,0,0,37,97a.65.65,0,0,1,.81-.07l4.88,2.81a1.23,1.23,0,0,0,1.67-.44l0,0,3.46-6h0a1.22,1.22,0,0,0-.44-1.66l-4.92-2.84a.65.65,0,0,1-.3-.72h0a20,20,0,0,0,.42-2.23,19.12,19.12,0,0,0,.13-2.28,18.88,18.88,0,0,0-.13-2.28,18.08,18.08,0,0,0-.42-2.24.66.66,0,0,1,.35-.74l4.88-2.81a1.25,1.25,0,0,0,.56-.74,1.22,1.22,0,0,0-.12-.93l0,0-3.46-6h0a1.22,1.22,0,0,0-1.67-.45h0l-4.92,2.84A.65.65,0,0,1,37,70.1a18.65,18.65,0,0,0-3.63-2.73,18.17,18.17,0,0,0-4.17-1.77.64.64,0,0,1-.47-.63V59.3a1.23,1.23,0,0,0-1.22-1.22h-7a1.23,1.23,0,0,0-1.22,1.22V65A.65.65,0,0,1,18.78,65.61Z"/><path class="cls-15" d="M345.6,172.06c-6.18,5.63-7.15,6.3-7.15,6.3s-4.08,7.75-2.51,7.74a4.43,4.43,0,0,0,2.83-1.42s1.53,1.95,2.9,1.13a19.7,19.7,0,0,1,2.1-1.11s1.58,1.56,2.88.54,7.51-7.72,7.51-7.72l8.21-5.39-3.27-2.95Z"/><path class="cls-16" d="M445.72,337.49c-.12.87-1.14,5.23-1.12,5.34.18,1.28.49,3.85.49,3.85s-2.51,2.89-4.84,3.31-12.92.9-13.05.32,2.64-5.15,2.64-5.15,3-2.52,3.41-8.35S445.72,337.49,445.72,337.49Z"/><path class="cls-17" d="M432,346.34l1.3-.46a9,9,0,0,0,6.63.28c3.7-1.26,4.7-3.33,4.7-3.33a.7.7,0,0,1,.58-.43h.87a1.88,1.88,0,0,1,1.71,1.1c.39.95,1.23,6.72.09,9.92s-2.72,2.78-2.72,2.78-6.32-1.86-10.58-.36-8.16,3.07-8.16,3.07S426.59,350.43,432,346.34Z"/><path class="cls-18" d="M403.22,358l-.47-1.38V355c0-.63.26-2.51,2.08-2.51h7c1.62,0,10.37-4.45,17.1-9.92a.93.93,0,0,1,1.18-.16c.7.41,2.85,2.12,3.06,2.3a1.39,1.39,0,0,1,.12,1.18l-6.35,12.58S408.59,360.86,403.22,358Z"/><path class="cls-17" d="M402.75,356.66a1.15,1.15,0,0,0-.42.73v1.34a2.64,2.64,0,0,0,2.62,1.71h19.37a16.48,16.48,0,0,0,6.92-1.51,41.25,41.25,0,0,1,5-1.83s.46-.15.46.64v1.54c0,.39-.23,1.43,1.35,1.43h9.42c.72,0,1.54-.41,1.54-1.87v-3.78c0-.91-.55-1.64-1.15-1.64h-7.24c-3,0-5.47.75-9.25,2.53a24.7,24.7,0,0,1-11.17,2.31H409.36C407.44,358.26,404,357.83,402.75,356.66Z"/><path class="cls-16" d="M486.81,337.49c-.12.87-1.14,5.23-1.12,5.34.18,1.28.49,3.85.49,3.85s-2.51,2.89-4.84,3.31-12.92.9-13,.32,2.64-5.15,2.64-5.15,3-2.52,3.41-8.35S486.81,337.49,486.81,337.49Z"/><path class="cls-17" d="M473.06,346.34l1.3-.46a9,9,0,0,0,6.63.28c3.7-1.26,4.7-3.33,4.7-3.33a.7.7,0,0,1,.58-.43h.87a1.88,1.88,0,0,1,1.71,1.1c.39.95,1.23,6.72.09,9.92s-2.72,2.78-2.72,2.78-6.32-1.86-10.58-.36-8.16,3.07-8.16,3.07S467.69,350.43,473.06,346.34Z"/><path class="cls-18" d="M444.31,358l-.47-1.38V355c0-.63.26-2.51,2.08-2.51h7c1.62,0,10.37-4.45,17.1-9.92a.93.93,0,0,1,1.18-.16c.7.41,2.85,2.12,3.06,2.3a1.39,1.39,0,0,1,.12,1.18L468,358.46S449.68,360.86,444.31,358Z"/><path class="cls-17" d="M443.84,356.66a1.15,1.15,0,0,0-.41.73v1.34a2.62,2.62,0,0,0,2.61,1.71h19.37a16.48,16.48,0,0,0,6.92-1.51,41.25,41.25,0,0,1,5-1.83s.46-.15.46.64v1.54c0,.39-.23,1.43,1.35,1.43h9.42c.72,0,1.54-.41,1.54-1.87v-3.78c0-.91-.55-1.64-1.15-1.64h-7.25c-3,0-5.45.75-9.23,2.53a24.75,24.75,0,0,1-11.17,2.31H450.44C448.54,358.26,445.13,357.83,443.84,356.66Z"/><path class="cls-19" d="M371.84,74.23s-4.37,7.33-1.63,24,21.65,81.51,8.81,115.34a3.07,3.07,0,0,0,1.41,3.6c2.21,1.28,33.4,6.69,56.2-3S419.39,79.17,371.84,74.23Z"/><path class="cls-5" d="M432.47,340.52s5.11,3.1,13.75,1.22a4.55,4.55,0,0,0,2.69-3.09c.49-2.29,16.64-138.19,18.59-162.31S454.72,137.48,432.13,122s-3.68-2.41-5.43-3.4c-5.6,20.73-12.17,34.06-12.17,34.06l0,10.22a8.94,8.94,0,0,0,.51,2c6.88,27.35,7.7,49.18,8.73,76.69,0,.8-.4-20.65.09,2.4s5.73,89.36,6.05,92S431.33,340.27,432.47,340.52Z"/><path class="cls-5" d="M376,100.2l6.53,10.59S410.18,158.3,414,165.07s20.22,5.81,20.22,5.81l-35-101.77s-12.23-1.93-17-1.83-7.79,7.36-7.79,7.36Z"/><path class="cls-20" d="M371.84,74.23s-4.37,7.33-1.63,24c2.12,12.88,13.89,54.53,13.2,88.42h0c6-61.67-5.08-100.69-8.95-112C373.59,74.47,372.72,74.32,371.84,74.23Z"/><path class="cls-21" d="M473.18,340.61s4.74,2.65,13.38.78a4.57,4.57,0,0,0,2.69-3.1c.49-2.28,6.95-47.85,8.91-72S516.51,151.68,473.23,122s-52.62,21.54-52.62,21.54,40.38,17,41.36,62.31,8.27,127.6,8.6,130.2S472,340.36,473.18,340.61Z"/><path class="cls-22" d="M476.73,341.72a25,25,0,0,0,9.83-.33,4.57,4.57,0,0,0,2.69-3.1c.49-2.28,6.95-47.85,8.91-72,1.48-18.31,11.27-74.82-3-114-.2.14-22.48,15.75-35.3,37.66a70.89,70.89,0,0,1,2.1,15.86c.16,7.65.51,16.35,1,25.54,5.5-5.9,12.81-13.85,16.52-18.3,6.42-7.7,13.63-5,16.2-1.28s-7.22,96.51-8.5,108.37C486.26,328.52,480.23,337.27,476.73,341.72Z"/><path class="cls-16" d="M365,48.45a19.67,19.67,0,0,0,1,2.14l-3.93,4.13a33.34,33.34,0,0,0,2.44,2.72,8.52,8.52,0,0,0-4.3,3.12s-4.21,13-3,14.25l-.13.16c-7.6,9-12.26,6-13.21,5.19s-5.62-5.08-6.12-5.18-2.3,2-3.52,1-7.12-8.24-13.54-18.38-2.8-21.82-2.8-21.82C333.59,23.07,346.6,47,348.18,43s6.06-4.39,8.56.07C357.08,43.68,364.88,47.79,365,48.45Z"/><path class="cls-15" d="M365,48.45a19.67,19.67,0,0,0,1,2.14l-3.93,4.13a35.43,35.43,0,0,0,2.44,2.72,9,9,0,0,0-1.27.54,3.18,3.18,0,0,0-.4-1.54c-1.07-1.23-3.19-3.87-3.19-3.87s-3,1.38-3.54-1.9-3.09-6.5-5.74-6-1.12,4-1.12,4l6.26,9-1.05,10.74s-9.78,1.77-7.77-2.4-3.13-7.38-9.06-14.11-9.22-6-10.74-5c-.95.65-5.37,3.61-8.55,5.74a28.84,28.84,0,0,1-1.28-12.4,77.4,77.4,0,0,1,13.41-7.93c9.59,2.11,16.55,13.51,17.68,10.64,1.57-4,6.06-4.39,8.56.07C357.08,43.68,364.88,47.79,365,48.45Z"/><path class="cls-16" d="M367.08,48.44s3.05.2,5.37.3,4.24,13.65,4.24,13.65l-4,6-.92,1.4-3,4.55-.28-1.4s-3.14-2.43-5.11.3-6.92-4.59-6.92-4.59S355.6,52.61,367.08,48.44Z"/><path class="cls-15" d="M367.08,48.44s3.05.2,5.37.3,4.24,13.65,4.24,13.65l-4,6-.92,1.4-3,4.56L368.53,73s-3.14-2.43-5.11.3a1.46,1.46,0,0,1-1.91.44l1.36-5.64s1.07-10.39,0-11.62c-.65-.75-1.69-2-2.41-2.9A13.75,13.75,0,0,1,367.08,48.44Z"/><path class="cls-5" d="M342.73,48.41s-7.15,3.49-12.81-7.25c0,0-7.33,7.77-12.1,9.71l-.3.1.3-.1a10.9,10.9,0,0,1-4.28-.91,15.27,15.27,0,0,1-8.72-7.67c-4.17-8.34.8-12.59,5.29-12,0,0,6.73-14.68,10.5-19s12.58-2.49,12.58-2.49-1.28-3.77.24-4.65,9.78.75,13,10.32c0,0,6.41-1,9.78,2.22S367,48.29,367.08,48.44c.16,1.81-.55,3.63-2.37,3.7a9.33,9.33,0,0,1-7.89-3.69s-2.37-8.46-6.54-7.18c0,0-3.55,0-1.89,6a18.77,18.77,0,0,0,3.4,4.3c2,1.72,7.36,5.3,11.11,14.06s-4.17,14.28-6.34,16.85-5.83,4.56-8.45,2.34l-9.43-8c-.9-.76-1.11-1.59-.89-1.84,0,0,3.82-4,6.71-6.83s5.16-4.59,5.16-7.77-.07-5.69-3-9A13.8,13.8,0,0,0,342.73,48.41Z"/><path class="cls-23" d="M329.92,41.16s-7.33,7.77-12.1,9.71l-.3.1.3-.1a10.9,10.9,0,0,1-4.28-.91,15.27,15.27,0,0,1-8.72-7.67c-4.17-8.34.8-12.59,5.29-12,0,0,6.73-14.68,10.5-19s12.58-2.49,12.58-2.49-1.28-3.77.24-4.65,9.78.75,13,10.32C346.42,14.45,346.44,24,329.92,41.16Z"/><path class="cls-24" d="M303.93,40.21c-2.42-7,2.08-10.46,6.18-9.94,0,0,26,6.11,29.5-24.72a14.05,14.05,0,0,1,1.2.81C341.15,19.11,337.34,42.71,303.93,40.21Z"/><path class="cls-5" d="M332.89,62.61h0a1.66,1.66,0,0,1,2.34.2l1.4,1.65a1.66,1.66,0,0,1-.2,2.34h0a1.66,1.66,0,0,1-2.34-.2L332.7,65A1.66,1.66,0,0,1,332.89,62.61Z"/><path class="cls-25" d="M338,66.91a2.46,2.46,0,1,1-.29,3.46A2.47,2.47,0,0,1,338,66.91Z"/><path class="cls-5" d="M333.22,59.36a.5.5,0,0,0-.22-1s-3.32.66-4.38,3.59a.5.5,0,1,0,.94.35A5.25,5.25,0,0,1,333.22,59.36Z"/><path class="cls-10" d="M382.81,167.56s-21.16,7.89-23.37,9-4.64-7.75-4.85-9.19,1.31-3.11,4.18-4.76,18.82-10.88,18.82-10.88Z"/><path class="cls-5" d="M386.13,166.91c-7.74,2.91-21.15,8-23.06,8.9-2.7,1.3-5.67-9.46-5.92-11.22s1.6-3.81,5.1-5.81c2-1.14,9.07-5.24,14.86-8.59a16.33,16.33,0,0,0,5.94-11.51c.77-7.91,3.5-44.24,3.5-44.24l21.2,9.43,3.76,5.55s-7.95,34.39-11.07,42.38S393,164.33,386.13,166.91Z"/><path class="cls-26" d="M494.29,119s15.07,26.07,17.91,65.11a1.84,1.84,0,0,1-1.26,2c-1.51.64-14.13,0-29,18.24s-38.53,34.56-52.11,32.42c0,0-1.47,0-1.65-2.38s-3-109.19-46.68-147.79a12.46,12.46,0,0,1-4.08-9.4C377.61,71.27,445.84,47.06,494.29,119Z"/><path class="cls-19" d="M482,145.7l-3.16,10.58s-6.73.33-24.19-34.7c0,0-6.95-13.5-27-17.63l8.93-12.71s38.13,6.73,37.94,10S482,145.7,482,145.7Z"/><path class="cls-5" d="M392.8,117.83l12.59-8.45a3.32,3.32,0,0,1,4.17.53l22,24.31a2.35,2.35,0,0,1-.42,3.62l-12.59,8.45a3.33,3.33,0,0,1-4.18-.53l-22-24.31A2.34,2.34,0,0,1,392.8,117.83Z"/><path class="cls-21" d="M391,119.06l12.59-8.45a3.33,3.33,0,0,1,4.18.53l22,24.3a2.34,2.34,0,0,1-.42,3.62l-12.58,8.46a3.35,3.35,0,0,1-4.19-.54l-22-24.3A2.35,2.35,0,0,1,391,119.06Z"/><path class="cls-27" d="M392.76,122l2-1.36a.52.52,0,0,1,.67.09l5.45,6a.37.37,0,0,1-.07.58l-2,1.36a.55.55,0,0,1-.68-.08l-5.44-6A.37.37,0,0,1,392.76,122Z"/><path class="cls-1" d="M394.47,122a1.35,1.35,0,0,1,1.72.25,1,1,0,0,1-.2,1.53,1.33,1.33,0,0,1-1.72-.24A1,1,0,0,1,394.47,122Z"/><path class="cls-1" d="M396.55,124.37a1.35,1.35,0,0,1,1.73.24,1,1,0,0,1-.21,1.54,1.34,1.34,0,0,1-1.72-.25A1,1,0,0,1,396.55,124.37Z"/><path class="cls-10" d="M396.88,124.75a.77.77,0,0,1,1,.14.58.58,0,0,1-.12.87.77.77,0,0,1-1-.14A.58.58,0,0,1,396.88,124.75Z"/><path class="cls-10" d="M394.77,122.39a.81.81,0,0,1,1,.14.62.62,0,0,1-.12.93.8.8,0,0,1-1-.15A.61.61,0,0,1,394.77,122.39Z"/><path class="cls-1" d="M398.54,126.59a.81.81,0,0,1,1,.15.61.61,0,0,1-.13.92.8.8,0,0,1-1-.14A.61.61,0,0,1,398.54,126.59Z"/><path class="cls-5" d="M378.74,39.45c-.26.15-5.49,1.5-6.37,1.9s-1.15,2.25-1.35,5.43-2.77,26.69-2.89,28a2.15,2.15,0,0,0,1.52,2.55c1.16.39,14.54,5.21,14.54,5.21Z"/><path class="cls-10" d="M451.18,105.72s-20.23,13.4-22.55,14.65,3.8,8.93,4.92,10,3.53.83,6.78-.63,21.34-9.48,21.34-9.48Z"/><path class="cls-21" d="M460.21,97.88S433.76,115.41,430.72,117s5,11.68,6.43,13.1,4.63,1.08,8.86-.82,27.92-12.4,27.92-12.4Z"/><path class="cls-20" d="M404.09,100.32a175.87,175.87,0,0,0,27.29,3.91c14.81.9,45.55,2.94,47.45,52.05,0,0,.23.26,1,0s22.2-19.26,25.2-28.39-14.38-42.68-23.91-47S453.86,73,434.47,53.51,388.4,36.37,388.4,36.37l-5.8,21.49S385.25,94.76,404.09,100.32Z"/><path class="cls-28" d="M473.44,129.19c3,6.89,4.95,15.73,5.39,27.09,0,0,.23.26,1,0s22.2-19.26,25.2-28.39c1.21-3.65-.86-11.22-4.38-19.26,0,5.88-.79,12.4-3.73,15.64-4.12,4.56-16.15,5.08-23.51,4.94Zm9.29-47.4a10.06,10.06,0,0,0-1.58-.94c-9.54-4.34-27.29-7.87-46.68-27.34-.4-.41-.81-.8-1.21-1.18.14.32,12.52,28.35-18.41,34.57,0,0-2,.4-1.44,2.09S470.26,73.85,482.73,81.79Z"/><path class="cls-19" d="M389.52,36.31c-.72,0-1.12.06-1.12.06l-3.54,13.12L390,85.38l4.52,1.86s-.75-5-.35-5.39,9.86-5,11.07-5.65a1.71,1.71,0,0,0,1-1.8C405.27,72.47,392.36,42.84,389.52,36.31Z"/><path class="cls-1" d="M378.91,35.3a2.93,2.93,0,0,0-1.59,1.9c-.37,1.41.16,30.79.29,34.07s13.32,20,16.59,23.87,8.12,4.83,9.89,5.18a.19.19,0,0,0,.18-.16c0-.16-5.14-2.29-6.71-4.67s-4.3-12.59-4.62-14.08c0,0,9.07-4.37,10.63-5.25s1.82-1.61,1.22-2.62S389.47,37.66,388.4,36.37,383.48,34.76,378.91,35.3Z"/><path class="cls-23" d="M336.34,9.25a.46.46,0,0,1,.11.63.44.44,0,0,1-.63.11s-5-3.57-13-2.09a.45.45,0,0,1-.53-.36.46.46,0,0,1,.37-.53C331.05,5.45,336.32,9.24,336.34,9.25Z"/><path class="cls-23" d="M317.3,49.14a.46.46,0,0,1,.41.82s-8.52,4.36-13.86-5.57a.47.47,0,0,1,.19-.62.45.45,0,0,1,.61.19C309.57,53.11,317.28,49.16,317.3,49.14Z"/><path class="cls-29" d="M428.14,121c-1.33-.47-4.12-2-4.85-2.36s-7.77-2-7.77-2l3.73,4.14s-11.4,5-13.89,6.94-.93,2.9,1.24,2.9h2.18s-.42,3.73,2.38,3.84a15.55,15.55,0,0,0,3,0s1,3.11,3.31,2.8a30.91,30.91,0,0,0,10.78-3.84c3.69-2.09,4.66-3.17,4.9-3.51C431.66,128.28,427.68,123.06,428.14,121Z"/><path class="cls-15" d="M428.14,121c-.37-.13-.87-.35-1.4-.6-.23,4.11,2.95,7.37-2.12,10.08-5.57,3-9.23,2.21-15.58-3.85l-.86-.57a21.69,21.69,0,0,0-2.82,1.7c-2.49,2-.93,2.9,1.24,2.9h2.18s-.42,3.73,2.38,3.84a15.55,15.55,0,0,0,3,0s1,3.11,3.31,2.8a30.91,30.91,0,0,0,10.78-3.84c3.69-2.09,4.66-3.17,4.9-3.51C431.66,128.28,427.68,123.06,428.14,121Z"/><path class="cls-30" d="M262.47,135.48h-144c-7.17,0-13,4.91-13,10.91V360.44H275.51v-214C275.51,140.39,269.64,135.48,262.47,135.48Z"/><path class="cls-14" d="M286.11,135.48H165.47c-6,0-10.93,4.11-10.93,9.14V360.44H297V144.62C297,139.59,292.13,135.48,286.11,135.48Z"/><path class="cls-10" d="M286.11,141.11H165.47a2.23,2.23,0,0,0-2.4,2V360.44H288.51V143.11A2.23,2.23,0,0,0,286.11,141.11Z"/><path class="cls-21" d="M209.35,141.11h32.89a2.6,2.6,0,0,1,2.79,2.33h0a2.6,2.6,0,0,1-2.79,2.33H209.35a2.6,2.6,0,0,1-2.79-2.33h0A2.6,2.6,0,0,1,209.35,141.11Z"/><path class="cls-21" d="M165.47,141.11H286.11a2.23,2.23,0,0,1,2.4,2v.33H163.07v-.33A2.23,2.23,0,0,1,165.47,141.11Z"/><path class="cls-21" d="M209.35,307.27h32.89a2.6,2.6,0,0,1,2.79,2.34h0a2.6,2.6,0,0,1-2.79,2.33H209.35a2.6,2.6,0,0,1-2.79-2.33h0A2.6,2.6,0,0,1,209.35,307.27Z"/><path class="cls-21" d="M165.47,307.27H286.11a2.24,2.24,0,0,1,2.4,2v.33H163.07v-.33A2.24,2.24,0,0,1,165.47,307.27Z"/><rect class="cls-31" x="163.07" y="176.2" width="28.59" height="44.93"/><rect class="cls-32" x="163.07" y="182.85" width="28.59" height="38.28"/><rect class="cls-8" x="163.07" y="186.9" width="28.59" height="34.23"/><rect class="cls-33" x="163.07" y="186.9" width="28.59" height="34.23"/><path class="cls-9" d="M191.67,184H170.51a8.43,8.43,0,0,0-7.44,5.41v31.7h28.6Z"/><rect class="cls-34" x="172.11" y="176.2" width="19.56" height="39.72"/><rect class="cls-35" x="172.11" y="182.85" width="19.56" height="33.07"/><rect class="cls-36" x="172.11" y="186.9" width="19.56" height="29.02"/><rect class="cls-37" x="172.11" y="186.9" width="19.56" height="29.02"/><rect class="cls-38" x="172.11" y="184.02" width="19.56" height="31.9"/><path class="cls-7" d="M229.34,176.2h-43.7a6.15,6.15,0,0,0-6.12,6.12v38.81h49.82Z"/><path class="cls-39" d="M229.34,182.85H189a6.14,6.14,0,0,0-6.12,6.12v32.16h46.42Z"/><path class="cls-10" d="M185.53,221.13V191.89a5,5,0,0,1,5-5h38.83v34.23Z"/><path class="cls-40" d="M188.57,221.13l7.78-31a7.72,7.72,0,0,1,1.74-3.23h31.25v34.23Z"/><path class="cls-9" d="M229.34,184H208.18a8.41,8.41,0,0,0-7.65,6.11l-7.78,31h36.59Z"/><rect class="cls-34" x="209.79" y="176.2" width="19.56" height="39.72"/><rect class="cls-35" x="209.79" y="182.85" width="19.56" height="33.07"/><rect class="cls-36" x="209.79" y="186.9" width="19.56" height="29.02"/><rect class="cls-37" x="209.79" y="186.9" width="19.56" height="29.02"/><rect class="cls-38" x="209.79" y="184.02" width="19.56" height="31.9"/><path class="cls-7" d="M267,176.2h-43.7a6.14,6.14,0,0,0-6.12,6.12v38.81H267Z"/><path class="cls-39" d="M267,182.85H226.71A6.14,6.14,0,0,0,220.6,189v32.16H267Z"/><path class="cls-10" d="M223.2,221.13V191.89a5,5,0,0,1,5-5H267v34.23Z"/><path class="cls-40" d="M226.24,221.13l7.78-31a8,8,0,0,1,1.74-3.23H267v34.23Z"/><path class="cls-9" d="M267,184H245.86a8.39,8.39,0,0,0-7.65,6.11l-7.78,31H267Z"/><rect class="cls-34" x="247.46" y="176.2" width="19.56" height="39.72"/><rect class="cls-35" x="247.46" y="182.85" width="19.56" height="33.07"/><rect class="cls-36" x="247.46" y="186.9" width="19.56" height="29.02"/><rect class="cls-37" x="247.46" y="186.9" width="19.56" height="29.02"/><rect class="cls-38" x="247.46" y="184.02" width="19.56" height="31.9"/><path class="cls-7" d="M259.87,244.5h73.85a6.14,6.14,0,0,0,6.12-6.11V182.32a6.14,6.14,0,0,0-6.12-6.12h-3v-2.84a1.69,1.69,0,0,0-1.69-1.69H306.72a1.69,1.69,0,0,0-1.68,1.69v2.84H259.87a6.15,6.15,0,0,0-6.12,6.12v56.07A6.14,6.14,0,0,0,259.87,244.5Z"/><path class="cls-39" d="M259.87,244.5h73.85a6.14,6.14,0,0,0,6.12-6.11v-54.9a6.08,6.08,0,0,0-2.72-.64h-3V180a1.69,1.69,0,0,0-1.69-1.69H310.12a1.69,1.69,0,0,0-1.68,1.69v2.84H263.27a6.14,6.14,0,0,0-6.12,6.12v54.89A6.08,6.08,0,0,0,259.87,244.5Z"/><rect class="cls-8" x="259.76" y="186.9" width="56.63" height="57.6" rx="4.98"/><path class="cls-40" d="M311.41,244.5H264.74a5,5,0,0,1-5-5v-6.27l10.82-43.12a7.72,7.72,0,0,1,1.74-3.23h39.09a5,5,0,0,1,5,5v47.63A5,5,0,0,1,311.41,244.5Z"/><path class="cls-9" d="M267.23,244.5h68.19a8.4,8.4,0,0,0,7.65-6.11l12.11-48.26C356,186.77,354,184,350.6,184H347l.76-3a1.69,1.69,0,0,0-1.68-2.23H321.22a3.07,3.07,0,0,0-2.8,2.23l-.76,3H282.41a8.41,8.41,0,0,0-7.65,6.11l-12.11,48.26C261.81,241.75,263.87,244.5,267.23,244.5Z"/><path class="cls-7" d="M339.84,192.8l-9.68,38.56a8.4,8.4,0,0,1-7.65,6.12H262.88l-.23.91c-.84,3.36,1.22,6.11,4.58,6.11h68.19a8.4,8.4,0,0,0,7.65-6.11l12.11-48.26C356,186.77,354,184,350.6,184H347l.76-3a1.69,1.69,0,0,0-1.68-2.23h-4.57a5,5,0,0,1,.74,4.35Z"/><rect class="cls-8" x="247.15" y="198.83" width="125.43" height="53.05"/><path class="cls-21" d="M209.35,251.89h32.89a2.6,2.6,0,0,1,2.79,2.33h0a2.6,2.6,0,0,1-2.79,2.33H209.35a2.59,2.59,0,0,1-2.79-2.33h0A2.59,2.59,0,0,1,209.35,251.89Z"/><path class="cls-21" d="M165.47,251.89H286.11a2.23,2.23,0,0,1,2.4,2v.33H163.07v-.33A2.23,2.23,0,0,1,165.47,251.89Z"/><path class="cls-21" d="M249.55,196.5H370.19a2.23,2.23,0,0,1,2.4,2v.33H329.11a2.6,2.6,0,0,1-2.79,2.34h-32.9a2.6,2.6,0,0,1-2.79-2.34H247.15v-.33A2.23,2.23,0,0,1,249.55,196.5Z"/><path class="cls-1" d="M247.15,251.89V198.83H163.07v55.06a2.23,2.23,0,0,1,2.4-2h81.68Z"/><path class="cls-6" d="M108.53,193.63c-14.37-15.91-25,4.3-23.56,24.6,1.42,19.24,16.65,85.25,13.83,113h5.83C118.91,295.64,126.91,214,108.53,193.63Z"/><path class="cls-41" d="M102.49,331.25c13.89-56.13-3.7-133.72-3.76-134a.82.82,0,0,0-1-.67.92.92,0,0,0-.61,1.09c.06.26,17.67,77.94,3.67,133.56Z"/><path class="cls-14" d="M73.09,228.7C58,220,54.14,239,60,254.77c4.89,13.06,26.49,51.67,34.66,76.48h7.69C103.05,297,91,239,73.09,228.7Z"/><path class="cls-20" d="M99.58,331.25c-5-46.37-33.34-96.78-33.44-97a.66.66,0,0,0-1-.25.79.79,0,0,0-.23,1c.1.18,28.26,50.26,33.26,96.18Z"/><path class="cls-9" d="M137.06,250.71c14.67-7,17,11.07,10.48,25.3-4.41,9.62-20.3,34.27-31,55.24H104.32C108.5,299.53,121.9,257.92,137.06,250.71Z"/><path class="cls-7" d="M108.68,331.25c10.42-38.43,34.4-74.65,34.5-74.8a.62.62,0,0,1,.9-.16.75.75,0,0,1,.15,1c-.1.14-23.83,36-34.22,74Z"/><path class="cls-42" d="M85.53,318.56h43a2.46,2.46,0,0,1,2.33,2.55v11.55a2.45,2.45,0,0,1-2.33,2.54h-43a2.45,2.45,0,0,1-2.34-2.54V321.11A2.46,2.46,0,0,1,85.53,318.56Z"/><polygon class="cls-42" points="92.9 327.96 121.13 327.96 128.5 335.2 122.48 360.44 107.02 360.44 91.55 360.44 85.53 335.2 92.9 327.96"/><polygon class="cls-21" points="128.5 335.2 127.27 340.39 86.77 340.39 85.53 335.2 128.5 335.2"/><path class="cls-29" d="M354.58,166.9a14.12,14.12,0,0,0-1.18.94s-6.74-.62-8.78,1.73-6.53,8.07-8.47,9,.2,2.56,4.28,1.13a39,39,0,0,0,8.68-4.9s4.24,1,7.55-1a32.46,32.46,0,0,1-2.07-6.46A2,2,0,0,1,354.58,166.9Z"/></g></g></svg>